<svg width="33" height="47" viewBox="0 0 33 47" fill="none" xmlns="http://www.w3.org/2000/svg">
<path d="M30.9802 13.2741C30.9802 14.9461 30.6502 16.5521 29.9902 18.0921C29.3302 19.6321 28.4722 21.1281 27.4162 22.5801C26.3602 23.9881 25.1722 25.3521 23.8522 26.6721C22.5322 27.9921 21.2342 29.2461 19.9582 30.4341C19.2982 31.0501 18.5722 31.7541 17.7802 32.5461C17.0322 33.2941 16.3062 34.0641 15.6022 34.8561C14.8982 35.6481 14.2602 36.3961 13.6882 37.1001C13.1602 37.7601 12.8302 38.3101 12.6982 38.7501H32.3662V47.0001H1.8742C1.7862 46.5161 1.7422 45.9001 1.7422 45.1521C1.7422 44.4041 1.7422 43.8761 1.7422 43.5681C1.7422 41.4561 2.0722 39.5201 2.7322 37.7601C3.4362 36.0001 4.3382 34.3721 5.4382 32.8761C6.5382 31.3361 7.7702 29.9061 9.1342 28.5861C10.5422 27.2661 11.9282 25.9461 13.2922 24.6261C14.3482 23.6141 15.3382 22.6681 16.2622 21.7881C17.1862 20.8641 18.0002 19.9841 18.7042 19.1481C19.4082 18.2681 19.9582 17.4101 20.3542 16.5741C20.7502 15.6941 20.9482 14.8141 20.9482 13.9341C20.9482 11.9981 20.3982 10.6341 19.2982 9.84206C18.1982 9.05006 16.8342 8.65406 15.2062 8.65406C14.0182 8.65406 12.8962 8.85206 11.8402 9.24806C10.8282 9.60006 9.8822 10.0401 9.0022 10.5681C8.1662 11.0521 7.4402 11.5581 6.8242 12.0861C6.2082 12.5701 5.7462 12.9661 5.4382 13.2741L0.554199 6.41006C2.4902 4.60606 4.7342 3.13206 7.2862 1.98806C9.8822 0.800055 12.6542 0.206055 15.6022 0.206055C18.2862 0.206055 20.5962 0.514055 22.5322 1.13005C24.4682 1.74605 26.0522 2.62605 27.2842 3.77006C28.5602 4.87005 29.4842 6.23405 30.0562 7.86205C30.6722 9.44605 30.9802 11.2501 30.9802 13.2741Z" fill="#022F64"/>
</svg>
