<svg width="33" height="48" viewBox="0 0 33 48" fill="none" xmlns="http://www.w3.org/2000/svg">
<path d="M14.292 47.9901C13.104 47.9901 11.85 47.9021 10.53 47.7261C9.20996 47.5941 7.93396 47.3961 6.70196 47.1321C5.46996 46.8681 4.34796 46.5821 3.33596 46.2741C2.32396 45.9661 1.53196 45.6801 0.959961 45.4161L2.87396 37.2321C4.01796 37.7161 5.46996 38.2441 7.22996 38.8161C9.03396 39.3441 11.256 39.6081 13.896 39.6081C16.932 39.6081 19.154 39.0361 20.562 37.8921C21.97 36.7481 22.674 35.2081 22.674 33.2721C22.674 32.0841 22.41 31.0941 21.882 30.3021C21.398 29.4661 20.716 28.8061 19.836 28.3221C18.956 27.7941 17.9 27.4421 16.668 27.2661C15.48 27.0461 14.204 26.9361 12.84 26.9361H9.01196V19.0161H13.368C14.336 19.0161 15.26 18.9281 16.14 18.7521C17.064 18.5761 17.878 18.2901 18.582 17.8941C19.286 17.4541 19.836 16.8821 20.232 16.1781C20.672 15.4301 20.892 14.5061 20.892 13.4061C20.892 12.5701 20.716 11.8441 20.364 11.2281C20.012 10.6121 19.55 10.1061 18.978 9.71006C18.45 9.31406 17.812 9.02806 17.064 8.85206C16.36 8.63206 15.634 8.52206 14.886 8.52206C12.994 8.52206 11.234 8.80806 9.60596 9.38006C8.02196 9.95206 6.56996 10.6561 5.24996 11.4921L1.75196 4.29806C2.45596 3.85806 3.26996 3.39606 4.19396 2.91206C5.16196 2.42806 6.21796 1.98806 7.36196 1.59206C8.50596 1.19606 9.71596 0.866057 10.992 0.602057C12.312 0.338056 13.698 0.206055 15.15 0.206055C17.834 0.206055 20.144 0.536055 22.08 1.19606C24.06 1.81206 25.688 2.71406 26.964 3.90205C28.24 5.04606 29.186 6.41006 29.802 7.99406C30.418 9.53406 30.726 11.2281 30.726 13.0761C30.726 14.8801 30.22 16.6401 29.208 18.3561C28.196 20.0281 26.832 21.3041 25.116 22.1841C27.492 23.1521 29.318 24.6041 30.594 26.5401C31.914 28.4321 32.574 30.7201 32.574 33.4041C32.574 35.5161 32.222 37.4741 31.518 39.2781C30.814 41.0381 29.714 42.5781 28.218 43.8981C26.722 45.1741 24.808 46.1861 22.476 46.9341C20.188 47.6381 17.46 47.9901 14.292 47.9901Z" fill="#022F64"/>
</svg>
