<svg width="32" height="47" viewBox="0 0 32 47" fill="none" xmlns="http://www.w3.org/2000/svg">
<path d="M22.004 32.5363C22.004 31.2603 21.718 30.1383 21.146 29.1703C20.574 28.1583 19.584 27.3223 18.176 26.6623C16.768 26.0023 14.876 25.4963 12.5 25.1443C10.124 24.7923 7.13195 24.6163 3.52395 24.6163C4.00795 20.5243 4.40395 16.3663 4.71195 12.1423C5.01995 7.91833 5.26195 3.95833 5.43795 0.262329H30.188V8.51233H13.688C13.6 10.0963 13.49 11.6363 13.358 13.1323C13.27 14.5843 13.16 15.8603 13.028 16.9603C19.452 17.4003 24.182 18.9183 27.218 21.5143C30.298 24.0663 31.838 27.6303 31.838 32.2063C31.838 34.3183 31.464 36.2763 30.716 38.0803C29.968 39.8843 28.846 41.4463 27.35 42.7663C25.854 44.0863 23.962 45.1203 21.674 45.8683C19.43 46.6163 16.79 46.9903 13.754 46.9903C12.566 46.9903 11.312 46.9023 9.99195 46.7263C8.71595 46.5943 7.46195 46.3963 6.22995 46.1323C5.04195 45.9123 3.96395 45.6703 2.99595 45.4063C2.02795 45.1423 1.27995 44.8783 0.751953 44.6143L2.53395 36.4963C3.63395 36.9803 5.08595 37.4643 6.88995 37.9483C8.69395 38.3883 10.85 38.6083 13.358 38.6083C16.394 38.6083 18.594 38.0143 19.958 36.8263C21.322 35.5943 22.004 34.1643 22.004 32.5363Z" fill="#022F64"/>
</svg>
