<svg width="34" height="48" viewBox="0 0 34 48" fill="none" xmlns="http://www.w3.org/2000/svg">
<path d="M16.328 25.4838C15.36 25.4838 14.326 25.5718 13.226 25.7478C12.126 25.9238 11.268 26.1658 10.652 26.4738C10.652 26.6498 10.63 26.9138 10.586 27.2658C10.586 27.6178 10.586 27.9258 10.586 28.1898C10.586 29.7738 10.696 31.2698 10.916 32.6778C11.136 34.0858 11.51 35.3178 12.038 36.3738C12.566 37.4298 13.27 38.2658 14.15 38.8818C15.03 39.4538 16.13 39.7398 17.45 39.7398C18.55 39.7398 19.474 39.5198 20.222 39.0798C21.014 38.5958 21.652 38.0018 22.136 37.2978C22.664 36.5938 23.038 35.8238 23.258 34.9878C23.522 34.1078 23.654 33.2718 23.654 32.4798C23.654 30.2358 23.082 28.5198 21.938 27.3318C20.838 26.0998 18.968 25.4838 16.328 25.4838ZM17.582 17.8278C20.442 17.8278 22.862 18.2238 24.842 19.0158C26.866 19.7638 28.516 20.7978 29.792 22.1178C31.068 23.4378 31.992 24.9778 32.564 26.7378C33.136 28.4978 33.422 30.3678 33.422 32.3478C33.422 34.1078 33.092 35.9118 32.432 37.7598C31.816 39.6078 30.848 41.2798 29.528 42.7758C28.252 44.2718 26.602 45.5038 24.578 46.4718C22.598 47.4398 20.244 47.9238 17.516 47.9238C12.016 47.9238 7.83604 46.1858 4.97604 42.7098C2.11604 39.2338 0.686035 34.4378 0.686035 28.3218C0.686035 23.9218 1.36804 20.0278 2.73204 16.6398C4.09604 13.2518 6.03204 10.4138 8.54004 8.12576C11.092 5.79376 14.15 4.03376 17.714 2.84576C21.322 1.61376 25.37 0.975762 29.858 0.931763C29.946 2.29576 30.034 3.63776 30.122 4.95776C30.21 6.23376 30.298 7.57576 30.386 8.98376C28.142 9.02776 26.03 9.24776 24.05 9.64376C22.114 9.99576 20.332 10.5678 18.704 11.3598C17.12 12.1518 15.734 13.1858 14.546 14.4618C13.358 15.6938 12.434 17.2118 11.774 19.0158C12.742 18.5758 13.732 18.2678 14.744 18.0918C15.756 17.9158 16.702 17.8278 17.582 17.8278Z" fill="#022F64"/>
</svg>
