<svg width="158" height="158" viewBox="0 0 158 158" fill="none" xmlns="http://www.w3.org/2000/svg">
<path fill-rule="evenodd" clip-rule="evenodd" d="M53.6172 86.8572V71.9796H55.5679L64.8396 83.9525V71.9796H66.6939V86.8572H64.7433L55.4715 74.7662V86.8572H53.6172ZM81.7936 86.2668C80.5654 86.7155 79.2409 86.9517 77.8441 86.9517C72.3533 86.9517 69.6079 84.3776 69.6079 79.2059C69.6079 74.3175 72.257 71.8615 77.5551 71.8615C79.0723 71.8615 80.4932 72.0741 81.7936 72.4755V74.1286C80.4932 73.6327 79.1445 73.3965 77.7718 73.3965C73.6297 73.3965 71.5586 75.333 71.5586 79.1586C71.5586 83.2913 73.6056 85.3458 77.6755 85.3458C78.3257 85.3458 79.0482 85.2514 79.8429 85.0861V80.1033H81.7936V86.2668ZM84.9243 81.1187V71.9796H86.875V81.1187C86.875 83.9762 88.3199 85.4167 91.2339 85.4167C94.1238 85.4167 95.5928 83.9762 95.5928 81.1187V71.9796H97.5435V81.1187C97.5435 85.0152 95.4483 86.9753 91.2339 86.9753C87.0195 86.9753 84.9243 85.0152 84.9243 81.1187ZM102.986 71.9796V85.2986H110.933V86.8572H101.035V71.9796H102.986ZM113.751 86.8572H111.704L119.242 70.0195L126.78 86.8572H124.612L122.661 82.1814H117.652L118.182 80.6228H122.011L119.17 73.8924L113.751 86.8572ZM128.875 86.8572V71.9796H135.353C138.243 71.9796 139.688 73.1604 139.688 75.5455C139.688 77.482 138.267 78.9225 135.449 79.8435L140.651 86.8572H138.074L133.258 80.1741V78.9225C136.148 78.4738 137.617 77.3875 137.617 75.64C137.617 74.2703 136.822 73.5854 135.208 73.5854H130.874V86.8572H128.875Z" fill="#B52E31"/>
<path fill-rule="evenodd" clip-rule="evenodd" d="M17.3486 68.0121L32.8818 62.5806L48.8243 67.9176L46.2475 88.0614L32.8818 95.3113L19.7328 88.1559L17.3486 68.0121Z" fill="#E23237"/>
<path fill-rule="evenodd" clip-rule="evenodd" d="M48.8249 67.9176L32.8823 62.5806V95.3113L46.2481 88.0614L48.8249 67.9176Z" fill="#B52E31"/>
<path fill-rule="evenodd" clip-rule="evenodd" d="M32.9062 66.4058L23.2251 87.5178L26.8375 87.447L28.7881 82.6767H37.4337L39.553 87.4942L42.9968 87.565L32.9062 66.4058ZM32.9303 73.1833L36.2055 79.8901H30.0645L32.9303 73.1833Z" fill="white"/>
</svg>
