<svg width="113" height="184" viewBox="0 0 113 184" fill="none" xmlns="http://www.w3.org/2000/svg">
<path fill-rule="evenodd" clip-rule="evenodd" d="M87.5932 120.29C75.4852 116.905 63.2588 123.594 56.4736 134.115C49.7908 144.478 49.3186 157.963 57.1047 167.565C64.9263 177.212 78.4224 180.033 89.939 175.388C100.815 171.002 106.326 159.601 105.828 147.915C105.31 135.754 99.3651 123.582 87.5932 120.29Z" fill="#C4C4C4"/>
<path fill-rule="evenodd" clip-rule="evenodd" d="M87.5932 120.29C75.4852 116.905 63.2588 123.594 56.4736 134.115C49.7908 144.478 49.3186 157.963 57.1047 167.565C64.9263 177.212 78.4224 180.033 89.939 175.388C100.815 171.002 106.326 159.601 105.828 147.915C105.31 135.754 99.3651 123.582 87.5932 120.29Z" fill="url(#paint0_linear)"/>
<path fill-rule="evenodd" clip-rule="evenodd" d="M5.36297 92.3555C3.09027 83.6995 6.06482 74.3302 13.5974 69.5251C20.9476 64.8363 30.3743 66.5577 37.1161 72.0997C43.7127 77.5223 46.6611 86.2856 43.7539 94.3149C40.6746 102.82 32.8991 109.13 23.8751 108.67C14.8034 108.207 7.67351 101.156 5.36297 92.3555Z" fill="#C4C4C4"/>
<path fill-rule="evenodd" clip-rule="evenodd" d="M5.36297 92.3555C3.09027 83.6995 6.06482 74.3302 13.5974 69.5251C20.9476 64.8363 30.3743 66.5577 37.1161 72.0997C43.7127 77.5223 46.6611 86.2856 43.7539 94.3149C40.6746 102.82 32.8991 109.13 23.8751 108.67C14.8034 108.207 7.67351 101.156 5.36297 92.3555Z" fill="url(#paint1_linear)"/>
<path fill-rule="evenodd" clip-rule="evenodd" d="M79.7476 28.9996C73.4702 28.9517 68.7047 24.0361 66.8081 18.2057C64.9588 12.5208 66.2328 6.13148 71.1557 2.58768C76.193 -1.03846 83.0959 -0.762125 88.1487 2.84341C93.1417 6.40622 95.1753 12.6536 93.3269 18.4082C91.4125 24.3688 86.1577 29.0486 79.7476 28.9996Z" fill="#C4C4C4"/>
<path fill-rule="evenodd" clip-rule="evenodd" d="M79.7476 28.9996C73.4702 28.9517 68.7047 24.0361 66.8081 18.2057C64.9588 12.5208 66.2328 6.13148 71.1557 2.58768C76.193 -1.03846 83.0959 -0.762125 88.1487 2.84341C93.1417 6.40622 95.1753 12.6536 93.3269 18.4082C91.4125 24.3688 86.1577 29.0486 79.7476 28.9996Z" fill="url(#paint2_linear)"/>
<defs>
<linearGradient id="paint0_linear" x1="127.279" y1="114.228" x2="33.3437" y2="168.327" gradientUnits="userSpaceOnUse">
<stop stop-color="#46B8E9"/>
<stop offset="0.843073" stop-color="#9A64EB"/>
</linearGradient>
<linearGradient id="paint1_linear" x1="2.3948" y1="123.732" x2="45.8649" y2="58.3918" gradientUnits="userSpaceOnUse">
<stop stop-color="#46B8E9"/>
<stop offset="0.843073" stop-color="#9A64EB"/>
</linearGradient>
<linearGradient id="paint2_linear" x1="99.39" y1="36.975" x2="61.4703" y2="-2.44269" gradientUnits="userSpaceOnUse">
<stop stop-color="#46B8E9"/>
<stop offset="0.843073" stop-color="#9A64EB"/>
</linearGradient>
</defs>
</svg>
