<svg width="83" height="165" viewBox="0 0 83 165" fill="none" xmlns="http://www.w3.org/2000/svg">
<path fill-rule="evenodd" clip-rule="evenodd" d="M44.139 143.355C46.4117 134.699 43.4371 125.33 35.9046 120.525C28.5544 115.836 19.1277 117.558 12.3858 123.1C5.78928 128.522 2.8408 137.286 5.74801 145.315C8.82737 153.82 16.6029 160.13 25.6268 159.67C34.6985 159.207 41.8284 152.156 44.139 143.355Z" fill="#C4C4C4"/>
<path fill-rule="evenodd" clip-rule="evenodd" d="M44.139 143.355C46.4117 134.699 43.4371 125.33 35.9046 120.525C28.5544 115.836 19.1277 117.558 12.3858 123.1C5.78928 128.522 2.8408 137.286 5.74801 145.315C8.82737 153.82 16.6029 160.13 25.6268 159.67C34.6985 159.207 41.8284 152.156 44.139 143.355Z" fill="url(#paint0_linear)"/>
<path fill-rule="evenodd" clip-rule="evenodd" d="M68.7476 28.9996C62.4702 28.9517 57.7047 24.0361 55.8081 18.2057C53.9588 12.5208 55.2328 6.13148 60.1557 2.58768C65.193 -1.03846 72.0959 -0.762125 77.1487 2.84341C82.1417 6.40622 84.1753 12.6536 82.3269 18.4082C80.4125 24.3688 75.1577 29.0486 68.7476 28.9996Z" fill="#C4C4C4"/>
<path fill-rule="evenodd" clip-rule="evenodd" d="M68.7476 28.9996C62.4702 28.9517 57.7047 24.0361 55.8081 18.2057C53.9588 12.5208 55.2328 6.13148 60.1557 2.58768C65.193 -1.03846 72.0959 -0.762125 77.1487 2.84341C82.1417 6.40622 84.1753 12.6536 82.3269 18.4082C80.4125 24.3688 75.1577 29.0486 68.7476 28.9996Z" fill="url(#paint1_linear)"/>
<defs>
<linearGradient id="paint0_linear" x1="47.1072" y1="174.732" x2="3.63704" y2="109.392" gradientUnits="userSpaceOnUse">
<stop stop-color="#46B8E9"/>
<stop offset="0.843073" stop-color="#9A64EB"/>
</linearGradient>
<linearGradient id="paint1_linear" x1="88.39" y1="36.975" x2="50.4703" y2="-2.44269" gradientUnits="userSpaceOnUse">
<stop stop-color="#46B8E9"/>
<stop offset="0.843073" stop-color="#9A64EB"/>
</linearGradient>
</defs>
</svg>
