<svg width="196" height="34" viewBox="0 0 196 34" fill="none" xmlns="http://www.w3.org/2000/svg">
<path d="M7.792 3.166C11.3053 3.166 14.0027 3.78933 15.884 5.036C17.7653 6.26 18.706 8.27733 18.706 11.088C18.706 13.9213 17.754 15.9727 15.85 17.242C13.946 18.4887 11.226 19.112 7.69 19.112H6.024V27H0.72V3.778C1.876 3.55133 3.1 3.39267 4.392 3.302C5.684 3.21133 6.81733 3.166 7.792 3.166ZM8.132 7.688C7.74667 7.688 7.36133 7.69933 6.976 7.722C6.61333 7.74467 6.296 7.76733 6.024 7.79V14.59H7.69C9.526 14.59 10.9087 14.3407 11.838 13.842C12.7673 13.3433 13.232 12.414 13.232 11.054C13.232 10.3967 13.1073 9.85267 12.858 9.422C12.6313 8.99133 12.2913 8.65133 11.838 8.402C11.4073 8.13 10.8747 7.94867 10.24 7.858C9.60533 7.74467 8.90267 7.688 8.132 7.688ZM33.0389 13.604C32.5855 13.4907 32.0529 13.3773 31.4409 13.264C30.8289 13.128 30.1715 13.06 29.4689 13.06C29.1515 13.06 28.7662 13.094 28.3129 13.162C27.8822 13.2073 27.5535 13.264 27.3269 13.332V27H22.2609V10.068C23.1675 9.75067 24.2329 9.456 25.4569 9.184C26.7035 8.88933 28.0862 8.742 29.6049 8.742C29.8769 8.742 30.2055 8.76467 30.5909 8.81C30.9762 8.83267 31.3615 8.878 31.7469 8.946C32.1322 8.99133 32.5175 9.05933 32.9029 9.15C33.2882 9.218 33.6169 9.30867 33.8889 9.422L33.0389 13.604ZM53.0006 18.024C53.0006 19.4293 52.7966 20.7213 52.3886 21.9C51.9806 23.056 51.3912 24.0533 50.6206 24.892C49.8499 25.708 48.9206 26.3427 47.8326 26.796C46.7672 27.2493 45.5659 27.476 44.2286 27.476C42.9139 27.476 41.7126 27.2493 40.6246 26.796C39.5592 26.3427 38.6412 25.708 37.8706 24.892C37.0999 24.0533 36.4992 23.056 36.0686 21.9C35.6379 20.7213 35.4226 19.4293 35.4226 18.024C35.4226 16.6187 35.6379 15.338 36.0686 14.182C36.5219 13.026 37.1339 12.04 37.9046 11.224C38.6979 10.408 39.6272 9.77333 40.6926 9.32C41.7806 8.86667 42.9592 8.64 44.2286 8.64C45.5206 8.64 46.6992 8.86667 47.7646 9.32C48.8526 9.77333 49.7819 10.408 50.5526 11.224C51.3232 12.04 51.9239 13.026 52.3546 14.182C52.7852 15.338 53.0006 16.6187 53.0006 18.024ZM47.8326 18.024C47.8326 16.46 47.5152 15.236 46.8806 14.352C46.2686 13.4453 45.3846 12.992 44.2286 12.992C43.0726 12.992 42.1772 13.4453 41.5426 14.352C40.9079 15.236 40.5906 16.46 40.5906 18.024C40.5906 19.588 40.9079 20.8347 41.5426 21.764C42.1772 22.6707 43.0726 23.124 44.2286 23.124C45.3846 23.124 46.2686 22.6707 46.8806 21.764C47.5152 20.8347 47.8326 19.588 47.8326 18.024ZM55.2589 33.29C54.9416 33.29 54.4769 33.256 53.8649 33.188C53.2303 33.12 52.6409 32.9953 52.0969 32.814L52.7769 28.7C53.1169 28.8133 53.4343 28.8927 53.7289 28.938C54.0009 28.9833 54.3523 29.006 54.7829 29.006C55.5763 29.006 56.1316 28.768 56.4489 28.292C56.7663 27.816 56.9249 27.1247 56.9249 26.218V9.116H61.9909V26.354C61.9909 28.7113 61.4129 30.4567 60.2569 31.59C59.1009 32.7233 57.4349 33.29 55.2589 33.29ZM62.4669 3.948C62.4669 4.87733 62.1609 5.614 61.5489 6.158C60.9596 6.67933 60.2569 6.94 59.4409 6.94C58.6249 6.94 57.9109 6.67933 57.2989 6.158C56.7096 5.614 56.4149 4.87733 56.4149 3.948C56.4149 3.01867 56.7096 2.29333 57.2989 1.772C57.9109 1.228 58.6249 0.955999 59.4409 0.955999C60.2569 0.955999 60.9596 1.228 61.5489 1.772C62.1609 2.29333 62.4669 3.01867 62.4669 3.948ZM65.903 18.194C65.903 16.6073 66.141 15.2247 66.617 14.046C67.1157 12.8447 67.7617 11.8473 68.555 11.054C69.3484 10.2607 70.255 9.66 71.275 9.252C72.3177 8.844 73.383 8.64 74.471 8.64C77.0097 8.64 79.0157 9.422 80.489 10.986C81.9624 12.5273 82.699 14.8053 82.699 17.82C82.699 18.1147 82.6877 18.4433 82.665 18.806C82.6424 19.146 82.6197 19.452 82.597 19.724H71.105C71.2184 20.7667 71.7057 21.594 72.567 22.206C73.4284 22.818 74.5844 23.124 76.035 23.124C76.9644 23.124 77.871 23.0447 78.755 22.886C79.6617 22.7047 80.3984 22.4893 80.965 22.24L81.645 26.354C81.373 26.49 81.0104 26.626 80.557 26.762C80.1037 26.898 79.5937 27.0113 79.027 27.102C78.483 27.2153 77.8937 27.306 77.259 27.374C76.6244 27.442 75.9897 27.476 75.355 27.476C73.7457 27.476 72.3404 27.238 71.139 26.762C69.9604 26.286 68.9744 25.64 68.181 24.824C67.4104 23.9853 66.8324 22.9993 66.447 21.866C66.0844 20.7327 65.903 19.5087 65.903 18.194ZM77.803 16.256C77.7804 15.8253 77.701 15.406 77.565 14.998C77.4517 14.59 77.259 14.2273 76.987 13.91C76.7377 13.5927 76.409 13.332 76.001 13.128C75.6157 12.924 75.1284 12.822 74.539 12.822C73.9724 12.822 73.485 12.924 73.077 13.128C72.669 13.3093 72.329 13.5587 72.057 13.876C71.785 14.1933 71.5697 14.5673 71.411 14.998C71.275 15.406 71.173 15.8253 71.105 16.256H77.803ZM85.7585 18.058C85.7585 16.766 85.9625 15.5533 86.3705 14.42C86.8012 13.264 87.4132 12.2667 88.2065 11.428C88.9998 10.5667 89.9632 9.88667 91.0965 9.388C92.2298 8.88933 93.5218 8.64 94.9725 8.64C95.9245 8.64 96.7972 8.73067 97.5905 8.912C98.3838 9.07067 99.1545 9.30867 99.9025 9.626L98.8485 13.672C98.3725 13.4907 97.8512 13.332 97.2845 13.196C96.7178 13.06 96.0832 12.992 95.3805 12.992C93.8845 12.992 92.7625 13.4567 92.0145 14.386C91.2892 15.3153 90.9265 16.5393 90.9265 18.058C90.9265 19.6673 91.2665 20.914 91.9465 21.798C92.6492 22.682 93.8618 23.124 95.5845 23.124C96.1965 23.124 96.8538 23.0673 97.5565 22.954C98.2592 22.8407 98.9052 22.6593 99.4945 22.41L100.209 26.558C99.6192 26.8073 98.8825 27.0227 97.9985 27.204C97.1145 27.3853 96.1398 27.476 95.0745 27.476C93.4425 27.476 92.0372 27.238 90.8585 26.762C89.6798 26.2633 88.7052 25.5947 87.9345 24.756C87.1865 23.9173 86.6312 22.9313 86.2685 21.798C85.9285 20.642 85.7585 19.3953 85.7585 18.058ZM103.439 4.662L108.505 3.846V9.116H114.591V13.332H108.505V19.622C108.505 20.6873 108.686 21.5373 109.049 22.172C109.434 22.8067 110.193 23.124 111.327 23.124C111.871 23.124 112.426 23.0787 112.993 22.988C113.582 22.8747 114.115 22.7273 114.591 22.546L115.305 26.49C114.693 26.7393 114.013 26.9547 113.265 27.136C112.517 27.3173 111.599 27.408 110.511 27.408C109.128 27.408 107.983 27.2267 107.077 26.864C106.17 26.4787 105.445 25.9573 104.901 25.3C104.357 24.62 103.971 23.804 103.745 22.852C103.541 21.9 103.439 20.846 103.439 19.69V4.662ZM134.024 27.34C132.551 27.3173 131.349 27.1587 130.42 26.864C129.513 26.5693 128.788 26.1613 128.244 25.64C127.723 25.096 127.36 24.45 127.156 23.702C126.975 22.9313 126.884 22.07 126.884 21.118V1.432L131.95 0.615999V20.098C131.95 20.5513 131.984 20.9593 132.052 21.322C132.12 21.6847 132.245 21.9907 132.426 22.24C132.63 22.4893 132.913 22.6933 133.276 22.852C133.639 23.0107 134.126 23.1127 134.738 23.158L134.024 27.34ZM154.37 18.024C154.37 19.4293 154.166 20.7213 153.758 21.9C153.35 23.056 152.76 24.0533 151.99 24.892C151.219 25.708 150.29 26.3427 149.202 26.796C148.136 27.2493 146.935 27.476 145.598 27.476C144.283 27.476 143.082 27.2493 141.994 26.796C140.928 26.3427 140.01 25.708 139.24 24.892C138.469 24.0533 137.868 23.056 137.438 21.9C137.007 20.7213 136.792 19.4293 136.792 18.024C136.792 16.6187 137.007 15.338 137.438 14.182C137.891 13.026 138.503 12.04 139.274 11.224C140.067 10.408 140.996 9.77333 142.062 9.32C143.15 8.86667 144.328 8.64 145.598 8.64C146.89 8.64 148.068 8.86667 149.134 9.32C150.222 9.77333 151.151 10.408 151.922 11.224C152.692 12.04 153.293 13.026 153.724 14.182C154.154 15.338 154.37 16.6187 154.37 18.024ZM149.202 18.024C149.202 16.46 148.884 15.236 148.25 14.352C147.638 13.4453 146.754 12.992 145.598 12.992C144.442 12.992 143.546 13.4453 142.912 14.352C142.277 15.236 141.96 16.46 141.96 18.024C141.96 19.588 142.277 20.8347 142.912 21.764C143.546 22.6707 144.442 23.124 145.598 23.124C146.754 23.124 147.638 22.6707 148.25 21.764C148.884 20.8347 149.202 19.588 149.202 18.024ZM162.612 17.48C162.612 20.3133 163.757 21.73 166.046 21.73C166.567 21.73 167.055 21.662 167.508 21.526C167.961 21.39 168.347 21.2313 168.664 21.05V12.958C168.415 12.9127 168.12 12.8787 167.78 12.856C167.44 12.8107 167.043 12.788 166.59 12.788C165.253 12.788 164.255 13.23 163.598 14.114C162.941 14.998 162.612 16.12 162.612 17.48ZM173.73 24.756C173.73 27.68 172.982 29.8447 171.486 31.25C170.013 32.678 167.723 33.392 164.618 33.392C163.53 33.392 162.442 33.29 161.354 33.086C160.266 32.9047 159.257 32.6553 158.328 32.338L159.212 28.088C160.005 28.4053 160.833 28.6547 161.694 28.836C162.578 29.0173 163.575 29.108 164.686 29.108C166.137 29.108 167.157 28.7907 167.746 28.156C168.358 27.5213 168.664 26.7053 168.664 25.708V25.062C168.12 25.3113 167.553 25.504 166.964 25.64C166.397 25.7533 165.774 25.81 165.094 25.81C162.623 25.81 160.731 25.0847 159.416 23.634C158.101 22.1607 157.444 20.1093 157.444 17.48C157.444 16.1653 157.648 14.9753 158.056 13.91C158.464 12.822 159.053 11.8927 159.824 11.122C160.617 10.3513 161.581 9.762 162.714 9.354C163.847 8.92333 165.128 8.708 166.556 8.708C167.168 8.708 167.791 8.742 168.426 8.81C169.083 8.85533 169.729 8.92333 170.364 9.014C170.999 9.10467 171.599 9.218 172.166 9.354C172.755 9.46733 173.277 9.592 173.73 9.728V24.756ZM195.21 18.024C195.21 19.4293 195.006 20.7213 194.598 21.9C194.19 23.056 193.6 24.0533 192.83 24.892C192.059 25.708 191.13 26.3427 190.042 26.796C188.976 27.2493 187.775 27.476 186.438 27.476C185.123 27.476 183.922 27.2493 182.834 26.796C181.768 26.3427 180.85 25.708 180.08 24.892C179.309 24.0533 178.708 23.056 178.278 21.9C177.847 20.7213 177.632 19.4293 177.632 18.024C177.632 16.6187 177.847 15.338 178.278 14.182C178.731 13.026 179.343 12.04 180.114 11.224C180.907 10.408 181.836 9.77333 182.902 9.32C183.99 8.86667 185.168 8.64 186.438 8.64C187.73 8.64 188.908 8.86667 189.974 9.32C191.062 9.77333 191.991 10.408 192.762 11.224C193.532 12.04 194.133 13.026 194.564 14.182C194.994 15.338 195.21 16.6187 195.21 18.024ZM190.042 18.024C190.042 16.46 189.724 15.236 189.09 14.352C188.478 13.4453 187.594 12.992 186.438 12.992C185.282 12.992 184.386 13.4453 183.752 14.352C183.117 15.236 182.8 16.46 182.8 18.024C182.8 19.588 183.117 20.8347 183.752 21.764C184.386 22.6707 185.282 23.124 186.438 23.124C187.594 23.124 188.478 22.6707 189.09 21.764C189.724 20.8347 190.042 19.588 190.042 18.024Z" fill="#338EF8" fill-opacity="0.6"/>
</svg>
