<svg width="346" height="317" viewBox="0 0 346 317" fill="none" xmlns="http://www.w3.org/2000/svg">
<path fill-rule="evenodd" clip-rule="evenodd" d="M314.856 187.306C301.537 240.764 257.698 285.343 196.081 287.171C132.169 289.067 72.1914 250.177 49.056 195.19C27.641 144.292 55.518 92.9567 101.005 61.1999C144.759 30.6536 205.669 22.6039 254.781 51.5647C305.254 81.3281 327.497 136.569 314.856 187.306Z" fill="#B1E2F6"/>
<path fill-rule="evenodd" clip-rule="evenodd" d="M20.1436 180.257C23.4071 179.345 26.7026 181.148 28.5315 183.984C30.3328 186.777 30.4601 190.411 28.3614 193C26.2532 195.6 22.6154 196.36 19.5113 195.108C16.5798 193.926 15.0944 190.853 15.2285 187.703C15.3681 184.425 16.9706 181.144 20.1436 180.257Z" fill="#C4C4C4"/>
<path fill-rule="evenodd" clip-rule="evenodd" d="M20.1436 180.257C23.4071 179.345 26.7026 181.148 28.5315 183.984C30.3328 186.777 30.4601 190.411 28.3614 193C26.2532 195.6 22.6154 196.36 19.5113 195.108C16.5798 193.926 15.0944 190.853 15.2285 187.703C15.3681 184.425 16.9706 181.144 20.1436 180.257Z" fill="url(#paint0_linear)"/>
<path fill-rule="evenodd" clip-rule="evenodd" d="M325.199 121.628C326.041 118.346 329.25 116.393 332.62 116.227C335.94 116.064 339.151 117.771 340.343 120.883C341.541 124.008 340.381 127.539 337.744 129.601C335.255 131.549 331.851 131.299 329.19 129.608C326.421 127.848 324.381 124.82 325.199 121.628Z" fill="#C4C4C4"/>
<path fill-rule="evenodd" clip-rule="evenodd" d="M325.199 121.628C326.041 118.346 329.25 116.393 332.62 116.227C335.94 116.064 339.151 117.771 340.343 120.883C341.541 124.008 340.381 127.539 337.744 129.601C335.255 131.549 331.851 131.299 329.19 129.608C326.421 127.848 324.381 124.82 325.199 121.628Z" fill="url(#paint1_linear)"/>
<path fill-rule="evenodd" clip-rule="evenodd" d="M1.44577 175.784C0.833185 173.451 1.63494 170.926 3.66526 169.631C5.64644 168.367 8.18731 168.831 10.0045 170.325C11.7825 171.786 12.5773 174.148 11.7937 176.312C10.9637 178.605 8.86784 180.306 6.43553 180.182C3.99035 180.057 2.06855 178.156 1.44577 175.784Z" fill="#C4C4C4"/>
<path fill-rule="evenodd" clip-rule="evenodd" d="M1.44577 175.784C0.833185 173.451 1.63494 170.926 3.66526 169.631C5.64644 168.367 8.18731 168.831 10.0045 170.325C11.7825 171.786 12.5773 174.148 11.7937 176.312C10.9637 178.605 8.86784 180.306 6.43553 180.182C3.99035 180.057 2.06855 178.156 1.44577 175.784Z" fill="url(#paint2_linear)"/>
<path fill-rule="evenodd" clip-rule="evenodd" d="M22.661 147.745C24.3494 147.758 25.6312 149.115 26.1413 150.724C26.6387 152.292 26.296 154.055 24.9719 155.033C23.6171 156.033 21.7605 155.957 20.4014 154.962C19.0585 153.979 18.5115 152.255 19.0087 150.668C19.5236 149.023 20.9369 147.732 22.661 147.745Z" fill="#C4C4C4"/>
<path fill-rule="evenodd" clip-rule="evenodd" d="M22.661 147.745C24.3494 147.758 25.6312 149.115 26.1413 150.724C26.6387 152.292 26.296 154.055 24.9719 155.033C23.6171 156.033 21.7605 155.957 20.4014 154.962C19.0585 153.979 18.5115 152.255 19.0087 150.668C19.5236 149.023 20.9369 147.732 22.661 147.745Z" fill="url(#paint3_linear)"/>
<path fill-rule="evenodd" clip-rule="evenodd" d="M314.454 99.1714C315.31 97.7159 317.126 97.284 318.774 97.6466C320.381 98.0001 321.736 99.1783 321.921 100.814C322.11 102.488 321.116 104.057 319.575 104.737C318.052 105.408 316.286 105.02 315.159 103.796C313.992 102.527 313.581 100.658 314.454 99.1714Z" fill="#C4C4C4"/>
<path fill-rule="evenodd" clip-rule="evenodd" d="M314.454 99.1714C315.31 97.7159 317.126 97.284 318.774 97.6466C320.381 98.0001 321.736 99.1783 321.921 100.814C322.11 102.488 321.116 104.057 319.575 104.737C318.052 105.408 316.286 105.02 315.159 103.796C313.992 102.527 313.581 100.658 314.454 99.1714Z" fill="url(#paint4_linear)"/>
<path fill-rule="evenodd" clip-rule="evenodd" d="M196.434 281.46C144.576 285.029 91.9487 262.143 72.6465 213.94C52.6255 163.942 70.3851 106.301 113.17 73.5255C152.773 43.1877 206.897 51.6808 248.473 79.2496C288.464 105.768 313.155 151.772 301.204 198.21C288.922 245.936 245.653 278.073 196.434 281.46Z" fill="#C4C4C4"/>
<path fill-rule="evenodd" clip-rule="evenodd" d="M196.434 281.46C144.576 285.029 91.9487 262.143 72.6465 213.94C52.6255 163.942 70.3851 106.301 113.17 73.5255C152.773 43.1877 206.897 51.6808 248.473 79.2496C288.464 105.768 313.155 151.772 301.204 198.21C288.922 245.936 245.653 278.073 196.434 281.46Z" fill="url(#paint5_linear)"/>
<path d="M310.869 177.768L220.771 261.754L174.386 217.727C165.702 226.247 152.292 239.398 138.801 252.595C129.58 261.615 122.116 268.901 116.066 274.799L73.9321 274.75C85.618 263.665 132.668 217.595 164.366 186.461L174.058 176.942L220.948 221.448L289.785 157.278L310.869 177.768Z" fill="#D1EEFE"/>
<path d="M278.624 147.173L321.086 191.951L329.578 140.845L278.624 147.173Z" fill="#D1EEFE"/>
<path d="M220.542 144.086L214.371 155.821L211.205 154.667L212.233 157.798L206.045 176.479C206.045 176.48 202.622 152.744 220.542 144.086Z" fill="#233862"/>
<path d="M210.246 154.461C210.246 154.461 203.421 179.677 202.764 203.738C202.764 203.738 208.425 205.715 217.317 204.151C226.256 202.576 210.246 154.461 210.246 154.461Z" fill="#233862"/>
<path d="M177.567 189.426C179.398 189.391 181.977 189.618 182.829 188.684C183.795 187.625 184.934 187.781 184.934 187.781L184.704 186.571L184.427 185.126C184.427 185.126 184.323 184.993 183.947 184.999C183.947 184.999 182.62 185.057 181.987 184.829C180.444 184.276 174.308 187.961 174.514 188.984C174.593 189.367 176.788 189.441 177.567 189.426Z" fill="#FCA19D"/>
<path d="M211.017 153.966C211.017 153.966 200.65 175.426 197.441 177.73C194.233 180.033 182.796 185.014 182.796 185.014C182.796 185.014 182.497 185.728 182.773 186.773C183.062 187.861 183.632 188.169 183.632 188.169C183.632 188.169 199.623 186.738 203.341 184.419C207.059 182.1 215.256 172.857 215.256 172.857L211.017 153.966Z" fill="#233862"/>
<path d="M241.361 274.762H247.497C248.269 274.341 248.957 273.379 249.175 271.945C249.474 269.964 251.69 268.883 252.17 267.263C252.649 265.644 250.193 263.363 250.193 263.363L249.783 262.832L249.356 262.282L245.284 263.243C245.284 263.243 245.183 264.216 245.123 265.454C245.078 266.347 245.055 267.379 245.105 268.285C245.224 270.445 244.502 272.772 242.586 273.193C241.169 273.502 241.232 274.344 241.361 274.762Z" fill="#233862"/>
<path d="M205.752 274.762H219.784C220.459 273.936 220.211 270.891 220.108 269.896C220.087 269.696 220.073 269.579 220.073 269.579C220.073 269.579 215.281 265.738 214.623 268.679C214.603 268.772 214.578 268.862 214.551 268.95C213.721 271.701 210.002 272.952 207.855 273.3C206.458 273.528 205.943 274.255 205.752 274.762Z" fill="#233862"/>
<path d="M208.425 195.796C208.425 195.796 209.153 204.893 210.008 215.829C211.17 230.684 212.567 248.931 212.706 252.388C212.945 258.391 213.904 267.993 213.904 267.993C213.904 267.993 216.178 270.274 220.73 269.313C220.73 269.313 224.787 255.606 225.946 241.103C225.965 240.866 225.983 240.626 226 240.387C227.078 225.624 228.755 194.535 228.755 194.535L208.425 195.796Z" fill="#FFA401"/>
<path d="M208.425 195.796C208.425 195.796 209.153 204.893 210.008 215.829L225.946 241.103C225.965 240.866 225.983 240.626 226 240.387C227.078 225.624 228.755 194.535 228.755 194.535L208.425 195.796Z" fill="#ED7D2B"/>
<path d="M211.749 196.875C211.749 196.875 224.864 229.822 233.486 245.306C242.11 260.79 244.804 265.111 244.804 265.111C244.804 265.111 249.745 263.131 250.194 261.78C250.194 261.78 246.896 231.888 241.121 224.602C237.858 220.485 234.025 208.127 233.846 203.806C233.666 199.485 232.677 190.933 232.677 190.933L211.749 196.875Z" fill="#FFA401"/>
<path d="M215.013 148.845C220.138 150.466 229.006 146.091 229.006 146.091C229.006 146.091 224.281 142.537 224.528 135.148L220.566 138.348L217.875 140.522C217.875 140.522 217.886 141.804 218.179 144.049C218.233 144.459 218.296 144.901 218.37 145.373C218.429 145.75 218.264 146.13 217.939 146.332C216.072 147.488 215.013 148.845 215.013 148.845Z" fill="#FEB3B0"/>
<path d="M207.859 196.553C208.014 196.681 208.193 196.758 208.398 196.758C210.323 196.731 215.935 197.804 220.684 197.314C224.687 196.928 228.23 195.741 232.035 194.031C232.541 193.805 233.703 193.183 233.678 192.616C233.661 191.995 233.6 191.097 233.522 189.965C233.253 186.029 232.784 179.259 233.241 171.448C233.324 169.995 233.366 168.551 233.372 167.131C233.411 156.546 231.317 147.235 227.109 144.084C227.109 144.084 224.174 145.735 222.142 146.385C220.153 147.023 219.127 146.894 218.095 146.208C218.095 146.208 216.084 147.208 215.226 148.147C213.238 150.319 211.685 153.204 210.659 157.344C209.785 160.867 208.968 166.004 208.686 172.588C208.557 175.573 207.731 196.45 207.859 196.553Z" fill="white"/>
<path d="M232.749 161.576L227.107 144.086C227.107 144.086 213.564 149.205 212.936 168.371C212.689 172.739 211.644 190.637 213.536 205.47C213.536 205.47 224.087 209.59 237.024 201.459L232.749 161.576Z" fill="#2B478B"/>
<path d="M217.873 140.522C217.873 140.522 217.884 141.803 218.178 144.049C221.16 143.537 224.544 138.705 224.544 138.705C223.025 138.266 221.695 138.187 220.565 138.348L217.873 140.522Z" fill="#F6908C"/>
<path d="M215.653 140.384C215.653 140.384 224.883 141.921 225.751 136.146C226.617 130.37 228.392 126.679 222.536 125.453C216.68 124.228 215.201 126.258 214.443 128.115C213.686 129.973 213.275 139.835 215.653 140.384Z" fill="#FEB3B0"/>
<path d="M256.157 215.102L237.311 217.794C234.858 218.144 232.565 216.419 232.215 213.961L231.051 205.776C230.702 203.318 232.423 201.02 234.876 200.67L253.723 197.978C256.176 197.627 258.468 199.353 258.818 201.811L259.982 209.996C260.331 212.454 258.61 214.752 256.157 215.102Z" fill="#233862"/>
<path d="M233.535 205.415L234.713 213.695C234.942 215.298 235.993 216.591 237.376 217.203C237.833 217.407 238.329 217.535 238.844 217.574C238.846 217.574 238.846 217.574 238.847 217.574H238.848C239.169 217.6 239.498 217.591 239.83 217.543L258.643 214.856C261.104 214.504 262.831 212.198 262.481 209.731L261.305 201.45C260.952 198.984 258.653 197.253 256.19 197.603L249.712 198.529L249.46 196.763C249.345 195.947 248.587 195.378 247.773 195.494L247.062 195.595L243.122 196.158L242.144 196.299C241.751 196.354 241.401 196.562 241.161 196.881C240.921 197.202 240.82 197.596 240.877 197.989L241.129 199.755L237.376 200.289C237.227 200.31 237.082 200.34 236.94 200.374C236.939 200.375 236.937 200.375 236.937 200.375H236.936C235.487 200.731 234.343 201.779 233.813 203.108V203.109C233.528 203.818 233.422 204.608 233.535 205.415ZM248.783 198.66L242.051 199.622L241.8 197.856C241.756 197.552 241.968 197.27 242.273 197.226L243.963 196.984L247.065 196.541L247.902 196.421C247.959 196.414 248.015 196.414 248.069 196.424C248.303 196.462 248.496 196.649 248.532 196.895L248.783 198.66Z" fill="#2B478B"/>
<path d="M241.826 190.729C241.826 190.729 242.816 192.05 242.855 192.578C243.121 196.156 241.491 196.651 245.714 198.638C245.714 198.638 247.517 199.328 247.548 197.925C247.579 196.522 246.297 196.499 246.531 194.535C246.802 192.27 246.774 192.248 245.29 191.065L244.307 189.437L241.826 190.729Z" fill="#FEB3B0"/>
<path d="M244.342 191.742C242.751 192.053 241.026 191.926 241.026 191.926C241.026 191.926 236.301 177.301 235.693 175.965C235.085 174.629 221.661 158.816 221.661 158.816L227.106 144.086C227.106 144.086 230.3 145.959 233.676 151.797C237.847 159.008 242.431 170.624 243.247 172.511C245.683 178.155 246.528 190.809 246.528 190.809C246.528 190.809 245.592 191.497 244.342 191.742Z" fill="#2B478B"/>
<path d="M225.758 135.59C225.758 135.59 224.81 135.431 224.963 134.124C225.116 132.816 225.114 131.107 224.053 131.426C222.992 131.744 222.94 132.595 222.503 132.099C222.068 131.602 222.06 129.508 218.903 129.362C215.747 129.216 214.464 130.317 212.997 129.67C211.529 129.023 211.451 126.797 211.451 126.797C211.451 126.797 211.868 127.592 212.498 127.845C212.498 127.845 210.049 124.489 212.884 122.187C215.719 119.885 218.61 121.392 220.251 121.492C223.867 121.711 226.202 121.928 227.383 124.309C228.565 126.688 228.078 133.298 225.758 135.59Z" fill="#2B478B"/>
<path d="M243.387 192.302C243.387 192.302 242.434 193.298 242.373 193.712C242.18 195.041 241.737 195.616 241.959 195.76C242.421 196.062 243.032 195.077 243.324 194.193C243.616 193.309 243.387 192.302 243.387 192.302Z" fill="#FEB3B0"/>
<path d="M227.108 144.086L220.937 155.821L217.771 154.667L218.798 157.798L212.611 176.479C212.611 176.48 209.188 152.744 227.108 144.086Z" fill="#233862"/>
<path d="M215.013 137.107C215.013 137.107 215.373 138.059 216.271 138.084C217.17 138.11 217.863 137.235 217.863 137.235C217.863 137.235 215.912 136.783 215.013 137.107Z" fill="white"/>
<path d="M166.848 225.648L185.591 221.295C188.03 220.728 189.563 218.266 188.999 215.82L187.117 207.68C186.553 205.236 184.094 203.7 181.654 204.265L162.911 208.617C160.473 209.184 158.939 211.647 159.504 214.092L161.385 222.233C161.951 224.678 164.409 226.215 166.848 225.648Z" fill="#F99746"/>
<path d="M183.545 206.177C182.563 205.118 181.104 204.548 179.607 204.742H179.606C179.604 204.742 179.604 204.744 179.603 204.742C179.457 204.762 179.309 204.787 179.162 204.821L175.43 205.689L175.024 203.933C174.934 203.541 174.696 203.207 174.353 202.993C174.01 202.781 173.606 202.712 173.216 202.803L172.243 203.028L168.324 203.939L167.618 204.103C166.809 204.292 166.301 205.105 166.489 205.916L166.895 207.672L160.453 209.168C158.004 209.736 156.465 212.208 157.033 214.662L158.937 222.897C159.504 225.351 161.971 226.893 164.419 226.324L183.128 221.981C183.458 221.905 183.771 221.794 184.065 221.651H184.066C184.068 221.651 184.068 221.651 184.068 221.65C184.539 221.425 184.958 221.122 185.316 220.764C186.397 219.681 186.917 218.079 186.549 216.484L184.646 208.251C184.458 207.448 184.07 206.743 183.545 206.177ZM167.409 205.702C167.352 205.456 167.466 205.209 167.673 205.088C167.72 205.06 167.772 205.039 167.83 205.025L168.662 204.831L171.747 204.116L173.428 203.726C173.73 203.656 174.033 203.846 174.103 204.148L174.509 205.904L167.814 207.458L167.409 205.702Z" fill="#ED7D2B"/>
<path d="M171.255 195.583C171.255 195.583 170.689 197.595 170.882 198.236C172.199 202.579 174.475 205.422 168.355 204.689C168.355 204.689 168.608 204.437 167.437 202.228C166.086 199.678 166.109 199.641 167.32 197.566L167.739 195.196L171.255 195.583Z" fill="#FEB3B0"/>
<path d="M178.954 190.41C177.106 190.298 174.854 189.814 174.034 188.834C173.103 187.724 172.175 187.426 172.175 187.426L172.459 186.213L172.799 184.765C172.799 184.765 172.91 184.637 173.289 184.657C173.289 184.657 174.738 184.985 175.275 184.568C175.813 184.152 176.797 184.405 177.403 184.809C178.173 185.321 179.214 185.239 179.187 185.49C179.187 185.49 177.659 186.243 177.803 186.369C179.201 187.613 182.885 188.108 182.645 189.081C182.55 189.465 179.742 190.458 178.954 190.41Z" fill="#FEB3B0"/>
<path d="M153.205 143.105L153.199 144.111C153.199 144.111 153.473 147.259 149.605 147.719C145.737 148.18 142.565 148.118 142.671 145.69C143.019 143.809 143.644 140.89 143.669 139.334C143.679 138.756 143.639 138.142 143.531 137.448L151.026 137.298L153.233 137.659L153.205 143.105Z" fill="#FEB3B0"/>
<path d="M153.235 137.659L153.207 143.104C152.411 143.475 151.512 143.702 150.505 143.702C147.061 143.702 144.834 141.17 143.67 139.332C143.68 138.754 143.641 138.141 143.533 137.447L151.028 137.296L153.235 137.659Z" fill="#F7908C"/>
<path d="M142.957 136.24C143.826 140.93 149.865 140.776 152.475 140.481C153.209 140.399 153.671 140.305 153.671 140.305C154.499 140.083 154.961 138.777 155.176 137.065C155.602 133.676 155.064 128.702 154.492 127.43C153.633 125.516 152.013 123.445 145.932 124.939C139.851 126.434 141.842 130.23 142.957 136.24Z" fill="#FEB3B0"/>
<path d="M138.016 275.102H146.574C146.509 274.652 146.292 273.284 145.891 272.024C145.752 271.585 145.591 271.158 145.407 270.788C144.574 269.123 139.288 270.182 139.288 270.182C139.288 270.182 138.797 270.604 138.413 272.213C138.244 272.924 138.095 273.865 138.016 275.102Z" fill="#233862"/>
<path d="M163.875 272.396C163.899 273.562 164.045 274.667 164.467 275.102H181.393C181.178 274.488 180.569 273.565 178.831 273.282C176.857 272.961 173.779 272.009 171.982 270.105C171.341 269.428 170.864 268.63 170.655 267.699C169.859 264.146 164.071 268.788 164.071 268.788C164.071 268.788 163.837 270.658 163.875 272.396Z" fill="#233862"/>
<path d="M152.617 233.988C152.853 235.289 153.001 236.356 153.042 237.121C153.58 247.639 161.876 271.69 163.361 272.25C165.656 273.118 169.273 271.272 171.164 270.668C171.948 270.418 172.477 269.624 172.303 268.82C168.195 249.891 166.684 222.634 166.135 206.495C165.857 198.367 164.466 192.752 164.466 192.752C164.466 192.752 144.23 187.342 144.11 194.186C144.003 200.244 150.813 223.997 152.617 233.988Z" fill="#2B478B"/>
<path d="M152.617 233.987L166.135 206.495C165.857 198.367 164.466 192.752 164.466 192.752C164.466 192.752 144.23 187.342 144.11 194.186C144.003 200.244 150.813 223.997 152.617 233.987Z" fill="#233862"/>
<path d="M157.12 194.21L146.422 271.909C146.422 271.909 141.724 273.045 138.071 272.136C138.071 272.136 134.938 230.812 135.2 220.821C135.461 210.831 132.952 194.089 135.772 192.243C138.592 190.397 157.12 194.21 157.12 194.21Z" fill="#2B478B"/>
<path d="M154.727 128.163C153.056 128.691 149.522 128.152 148.045 129.349C146.568 130.548 147.975 132.522 146.287 133.226L146.28 133.229C145.939 133.371 145.542 133.275 145.31 132.985C144.842 132.4 144.195 131.817 143.604 132.058C143.118 132.258 143.094 132.885 143.308 133.496C143.487 134.01 143.437 134.585 143.127 135.033C142.992 135.225 142.905 135.438 142.943 135.652C143.083 136.426 143.466 137.433 143.607 137.948L143.646 138.489C143.646 138.489 140.818 135.421 139.626 132.839C138.809 131.067 138.825 124.446 142.823 122.511C142.806 122.498 142.794 122.484 142.785 122.467C142.698 122.312 142.458 122.348 142.458 122.348C142.802 122.193 143.336 122.291 143.336 122.291C143.325 122.283 143.346 122.258 143.393 122.221C143.464 121.752 143.934 121.418 143.934 121.418C143.774 121.65 143.706 121.88 143.678 122.051C144.729 121.496 147.961 120.267 150.523 121.385C152.256 122.141 153.845 122.543 154.925 122.751C155.814 122.923 156.444 123.718 156.412 124.626C156.367 125.896 155.924 127.726 154.727 128.163Z" fill="#233862"/>
<path d="M141.758 147.04L144.221 199.999C144.221 199.999 164.776 200.336 164.189 195.674C163.602 191.012 156.78 148.661 156.78 148.661" fill="#E9F3FE"/>
<path d="M148.535 180.213C148.535 180.213 147.492 194.358 145.487 203.239C145.487 203.239 133.492 203.877 130.645 199.236C130.645 199.236 132.899 180.127 132.899 176.252C132.899 174.89 132.793 173.038 132.628 170.967C132.378 167.831 131.992 164.199 131.624 161.034C131.114 156.627 130.645 153.125 130.645 153.125L140.535 145.071L148.535 180.213Z" fill="#22407A"/>
<path d="M172.337 196.95C172.337 196.95 170.099 198.354 166.575 197.883C165.291 201.036 162.266 202.107 162.266 201.821C162.266 201.786 161.586 195.866 160.784 188.891C160.706 188.193 160.624 187.487 160.543 186.775C160.536 186.715 160.528 186.653 160.522 186.592C160.387 185.424 160.252 184.242 160.116 183.066C159.15 174.664 158.223 166.61 158.223 166.61C156.12 153.705 154.34 145.177 154.34 145.177C158.827 145.645 161.856 147.247 163.063 149.345C166.645 155.565 169.238 171.127 170.757 182.775C170.76 182.804 170.764 182.834 170.769 182.863C171.03 184.874 171.26 186.768 171.457 188.473C171.469 188.58 171.482 188.686 171.493 188.79C172.051 193.671 172.337 196.95 172.337 196.95Z" fill="#22407A"/>
<path d="M151.526 137.011C151.526 137.011 151.721 137.616 153.244 137.395C153.244 137.395 154.524 137.21 154.429 136.536C154.429 136.536 153.143 136.156 151.526 137.011Z" fill="white"/>
<path d="M141.176 145.008C141.151 144.503 143.539 143.805 143.539 143.805C143.539 143.805 146.273 147.604 150.777 147.67C150.777 147.67 149.494 150.174 147.981 150.822C147.982 150.821 141.324 148.01 141.176 145.008Z" fill="#D9E9F9"/>
<path d="M150.777 147.58C150.777 147.58 153.164 146.161 153.171 144.625C153.171 144.625 154.713 144.432 155.385 145.181C155.385 145.181 155.951 147.815 155.2 149.344C155.203 149.344 151.766 148.819 150.777 147.58Z" fill="#D9E9F9"/>
<path d="M149.159 147.352L152.395 146.575C152.395 146.575 152.818 146.612 152.806 147.141C152.795 147.669 151.895 149.212 151.496 149.336C151.096 149.457 148.393 148.42 149.159 147.352Z" fill="#BA4C43"/>
<path d="M141.553 144.746C141.527 144.241 143.145 143.2 143.145 143.2C143.145 143.2 146.274 146.865 150.779 146.931C150.779 146.931 149.495 149.435 147.982 150.083C147.982 150.083 141.701 147.747 141.553 144.746Z" fill="#E9F3FE"/>
<path d="M150.777 146.93C150.777 146.93 153.191 145.648 153.199 144.11C153.199 144.11 154.657 144.753 155.329 145.501C155.329 145.501 155.953 147.165 155.202 148.694C155.203 148.696 151.766 148.171 150.777 146.93Z" fill="#E9F3FE"/>
<path d="M156.694 191.338C156.569 192.857 155.989 194.276 155.067 195.32L153.616 196.961C153.253 197.373 152.687 197.324 152.389 196.854L150.64 194.103C150.171 193.366 149.956 192.427 150.037 191.485C150.224 189.385 150.572 185.34 150.857 181.438C151.089 178.275 151.281 175.203 151.311 173.336C151.408 167.372 150.627 148.367 150.627 148.367L151.79 148.427C151.79 148.427 154.609 155.775 156.026 165.799C156.375 168.267 156.638 170.896 156.754 173.62C156.754 173.62 157.256 184.474 156.694 191.338Z" fill="#C65447"/>
<path d="M156.694 191.339C156.569 192.857 155.989 194.277 155.066 195.321L153.616 196.962C153.252 197.374 152.686 197.325 152.389 196.855L150.639 194.104C150.17 193.367 149.955 192.428 150.037 191.485C150.224 189.386 150.572 185.34 150.857 181.438C154.116 176.962 155.478 170.812 156.025 165.801C156.375 168.269 156.637 170.898 156.754 173.622C156.754 173.621 157.255 184.475 156.694 191.339Z" fill="#BA4C43"/>
<path d="M143.145 143.199C143.145 143.199 149.552 170.09 148.532 180.22C148.532 180.22 146.176 169.395 140.508 160.529C140.508 160.529 142.577 158.706 142.464 158.034C142.464 158.034 140.928 157.578 139.438 157.885C139.438 157.885 139.603 146.293 140.532 145.069C141.462 143.844 143.145 143.199 143.145 143.199Z" fill="#233862"/>
<path d="M153.2 144.111C152.239 144.189 159.549 170.389 160.091 178.787C160.091 178.787 159.449 163.801 159.512 159.481C159.512 159.481 156.852 158.07 156.852 157.575C156.852 157.079 159.691 155.74 159.691 155.74C159.691 155.74 157.893 146.51 156.912 145.495C155.931 144.477 153.2 144.111 153.2 144.111Z" fill="#233862"/>
<path d="M166.579 198.948C166.579 198.948 166.135 199.55 166.417 201.061C166.699 202.572 166.544 203.407 166.934 203.147C167.324 202.886 168.13 201.071 168.13 201.071L166.579 198.948Z" fill="#FEB3B0"/>
<path d="M147.752 184.357C140.294 183.242 135.306 176.257 132.627 170.967C132.378 167.831 131.991 164.199 131.624 161.035L133.369 156.045L147.752 184.357Z" fill="#233862"/>
<path d="M171.492 188.79C170.006 189.134 165.501 189.977 160.785 188.89C160.706 188.192 160.624 187.485 160.543 186.773C160.536 186.713 160.528 186.651 160.522 186.59C160.676 185.984 160.832 185.377 160.987 184.771C163.656 185.729 169.62 187.826 171.455 188.473C171.468 188.581 171.481 188.687 171.492 188.79Z" fill="#233862"/>
<path d="M140.532 145.068C140.535 145.07 133.978 145.899 130.988 150.083C127.996 154.268 134.42 177.059 147.752 184.358C154.166 187.868 172.671 188.659 172.671 188.659C172.671 188.659 173.689 188.762 174.092 186.709C174.232 185.994 174.092 184.773 174.092 184.773C174.092 184.773 153.027 176.858 151.175 175.334C149.323 173.809 140.532 145.068 140.532 145.068Z" fill="#22407A"/>
<path d="M51.3047 274.831L323.363 274.831" stroke="#0A7CA4" stroke-miterlimit="10" stroke-linecap="round"/>
<path d="M181.987 184.828C181.987 184.828 179.782 184.274 179.152 184.14C178.415 183.984 177.739 183.428 177.524 183.69C177.124 184.177 178.812 185.032 179.478 186.537C179.805 187.275 180.462 187.676 181.78 187.135C182.443 186.862 182.971 185.481 181.987 184.828Z" fill="#FCA19D"/>
<defs>
<linearGradient id="paint0_linear" x1="9.44657" y1="178.623" x2="34.7659" y2="193.205" gradientUnits="userSpaceOnUse">
<stop stop-color="#46B8E9"/>
<stop offset="0.843073" stop-color="#9A64EB"/>
</linearGradient>
<linearGradient id="paint1_linear" x1="318.435" y1="130.075" x2="343.723" y2="115.439" gradientUnits="userSpaceOnUse">
<stop stop-color="#46B8E9"/>
<stop offset="0.843073" stop-color="#9A64EB"/>
</linearGradient>
<linearGradient id="paint2_linear" x1="0.645729" y1="184.242" x2="12.3627" y2="166.63" gradientUnits="userSpaceOnUse">
<stop stop-color="#46B8E9"/>
<stop offset="0.843073" stop-color="#9A64EB"/>
</linearGradient>
<linearGradient id="paint3_linear" x1="17.3779" y1="145.545" x2="27.8477" y2="156.154" gradientUnits="userSpaceOnUse">
<stop stop-color="#46B8E9"/>
<stop offset="0.843073" stop-color="#9A64EB"/>
</linearGradient>
<linearGradient id="paint4_linear" x1="309.907" y1="102.646" x2="324.33" y2="98.8839" gradientUnits="userSpaceOnUse">
<stop stop-color="#46B8E9"/>
<stop offset="0.843073" stop-color="#9A64EB"/>
</linearGradient>
<linearGradient id="paint5_linear" x1="359.128" y1="335.689" x2="45.2356" y2="16.8899" gradientUnits="userSpaceOnUse">
<stop stop-color="#46B8E9"/>
<stop offset="0.843073" stop-color="#9A64EB"/>
</linearGradient>
</defs>
</svg>
