<svg width="690" height="632" viewBox="0 0 690 632" fill="none" xmlns="http://www.w3.org/2000/svg">
<path fill-rule="evenodd" clip-rule="evenodd" d="M627.892 373.743C601.331 480.349 513.907 569.251 391.029 572.895C263.574 576.676 143.966 499.122 97.8286 389.466C55.1225 287.964 110.715 185.59 201.427 122.26C288.682 61.3437 410.15 45.2907 508.09 103.045C608.743 162.4 653.1 272.562 627.892 373.743Z" fill="#B1E2F6"/>
<path fill-rule="evenodd" clip-rule="evenodd" d="M40.1706 359.686C46.6789 357.866 53.2509 361.462 56.898 367.117C60.4902 372.687 60.744 379.936 56.5588 385.098C52.3545 390.283 45.1001 391.799 38.9097 389.302C33.0637 386.945 30.1015 380.817 30.369 374.535C30.6473 367.998 33.843 361.455 40.1706 359.686Z" fill="#C4C4C4"/>
<path fill-rule="evenodd" clip-rule="evenodd" d="M40.1706 359.686C46.6789 357.866 53.2509 361.462 56.898 367.117C60.4902 372.687 60.744 379.936 56.5588 385.098C52.3545 390.283 45.1001 391.799 38.9097 389.302C33.0637 386.945 30.1015 380.817 30.369 374.535C30.6473 367.998 33.843 361.455 40.1706 359.686Z" fill="url(#paint0_linear)"/>
<path fill-rule="evenodd" clip-rule="evenodd" d="M648.518 242.767C650.196 236.221 656.596 232.327 663.317 231.996C669.937 231.67 676.341 235.075 678.719 241.28C681.107 247.514 678.793 254.554 673.536 258.667C668.571 262.551 661.783 262.052 656.477 258.68C650.955 255.171 646.886 249.132 648.518 242.767Z" fill="#C4C4C4"/>
<path fill-rule="evenodd" clip-rule="evenodd" d="M648.518 242.767C650.196 236.221 656.596 232.327 663.317 231.996C669.937 231.67 676.341 235.075 678.719 241.28C681.107 247.514 678.793 254.554 673.536 258.667C668.571 262.551 661.783 262.052 656.477 258.68C650.955 255.171 646.886 249.132 648.518 242.767Z" fill="url(#paint1_linear)"/>
<path fill-rule="evenodd" clip-rule="evenodd" d="M2.88284 350.767C1.66122 346.114 3.2601 341.078 7.30901 338.495C11.2599 335.975 16.327 336.9 19.9508 339.879C23.4966 342.794 25.0815 347.504 23.5188 351.82C21.8636 356.392 17.6841 359.784 12.8335 359.536C7.95729 359.287 4.12481 355.497 2.88284 350.767Z" fill="#C4C4C4"/>
<path fill-rule="evenodd" clip-rule="evenodd" d="M2.88284 350.767C1.66122 346.114 3.2601 341.078 7.30901 338.495C11.2599 335.975 16.327 336.9 19.9508 339.879C23.4966 342.794 25.0815 347.504 23.5188 351.82C21.8636 356.392 17.6841 359.784 12.8335 359.536C7.95729 359.287 4.12481 355.497 2.88284 350.767Z" fill="url(#paint2_linear)"/>
<path fill-rule="evenodd" clip-rule="evenodd" d="M45.191 294.85C48.5581 294.877 51.1142 297.581 52.1315 300.79C53.1234 303.918 52.44 307.433 49.7995 309.383C47.0976 311.379 43.3951 311.227 40.6849 309.243C38.0067 307.282 36.916 303.845 37.9074 300.678C38.9343 297.398 41.7528 294.823 45.191 294.85Z" fill="#C4C4C4"/>
<path fill-rule="evenodd" clip-rule="evenodd" d="M45.191 294.85C48.5581 294.877 51.1142 297.581 52.1315 300.79C53.1234 303.918 52.44 307.433 49.7995 309.383C47.0976 311.379 43.3951 311.227 40.6849 309.243C38.0067 307.282 36.916 303.845 37.9074 300.678C38.9343 297.398 41.7528 294.823 45.191 294.85Z" fill="url(#paint3_linear)"/>
<path fill-rule="evenodd" clip-rule="evenodd" d="M627.091 197.984C628.797 195.081 632.418 194.22 635.705 194.943C638.91 195.648 641.613 197.997 641.981 201.259C642.358 204.597 640.375 207.727 637.302 209.082C634.265 210.421 630.743 209.647 628.496 207.205C626.169 204.676 625.349 200.948 627.091 197.984Z" fill="#C4C4C4"/>
<path fill-rule="evenodd" clip-rule="evenodd" d="M627.091 197.984C628.797 195.081 632.418 194.22 635.705 194.943C638.91 195.648 641.613 197.997 641.981 201.259C642.358 204.597 640.375 207.727 637.302 209.082C634.265 210.421 630.743 209.647 628.496 207.205C626.169 204.676 625.349 200.948 627.091 197.984Z" fill="url(#paint4_linear)"/>
<path fill-rule="evenodd" clip-rule="evenodd" d="M391.733 561.508C288.316 568.625 183.366 522.986 144.873 426.858C104.947 327.151 140.363 212.201 225.686 146.84C304.664 86.34 412.598 103.277 495.51 158.255C575.261 211.138 624.5 302.881 600.668 395.49C576.174 490.665 489.887 554.752 391.733 561.508Z" fill="#C4C4C4"/>
<path fill-rule="evenodd" clip-rule="evenodd" d="M391.733 561.508C288.316 568.625 183.366 522.986 144.873 426.858C104.947 327.151 140.363 212.201 225.686 146.84C304.664 86.34 412.598 103.277 495.51 158.255C575.261 211.138 624.5 302.881 600.668 395.49C576.174 490.665 489.887 554.752 391.733 561.508Z" fill="url(#paint5_linear)"/>
<path d="M619.941 354.723L440.266 522.21L347.766 434.41C330.448 451.401 303.705 477.627 276.8 503.945C258.412 521.932 243.528 536.462 231.463 548.225L147.438 548.127C170.742 526.02 264.57 434.146 327.782 372.059L347.11 353.076L440.619 441.829L577.896 313.861L619.941 354.723Z" fill="#D1EEFE"/>
<path d="M555.637 293.71L640.317 383.008L657.251 281.091L555.637 293.71Z" fill="#D1EEFE"/>
<path d="M439.809 287.553L427.504 310.956L421.19 308.655L423.239 314.898L410.9 352.152C410.9 352.155 404.073 304.819 439.809 287.553Z" fill="#233862"/>
<path d="M419.277 308.245C419.277 308.245 405.666 358.53 404.356 406.514C404.356 406.514 415.646 410.456 433.378 407.336C451.205 404.196 419.277 308.245 419.277 308.245Z" fill="#233862"/>
<path d="M354.108 377.971C357.759 377.9 362.902 378.355 364.602 376.492C366.528 374.379 368.799 374.69 368.799 374.69L368.34 372.277L367.788 369.395C367.788 369.395 367.581 369.131 366.831 369.143C366.831 369.143 364.185 369.258 362.922 368.803C359.845 367.7 347.609 375.049 348.02 377.089C348.177 377.853 352.554 378.001 354.108 377.971Z" fill="#FCA19D"/>
<path d="M420.815 307.257C420.815 307.257 400.139 350.052 393.741 354.646C387.343 359.24 364.535 369.173 364.535 369.173C364.535 369.173 363.938 370.596 364.49 372.681C365.067 374.85 366.204 375.464 366.204 375.464C366.204 375.464 398.093 372.61 405.507 367.986C412.921 363.362 429.268 344.928 429.268 344.928L420.815 307.257Z" fill="#233862"/>
<path d="M481.328 548.149H493.564C495.104 547.31 496.476 545.391 496.91 542.532C497.507 538.581 501.925 536.426 502.883 533.196C503.837 529.966 498.94 525.417 498.94 525.417L498.123 524.359L497.271 523.262L489.151 525.179C489.151 525.179 488.95 527.118 488.829 529.587C488.74 531.369 488.695 533.426 488.793 535.233C489.031 539.54 487.592 544.182 483.77 545.021C480.945 545.638 481.071 547.316 481.328 548.149Z" fill="#233862"/>
<path d="M410.315 548.149H438.298C439.645 546.502 439.149 540.429 438.945 538.445C438.903 538.047 438.875 537.814 438.875 537.814C438.875 537.814 429.318 530.153 428.005 536.018C427.966 536.203 427.916 536.383 427.862 536.56C426.208 542.046 418.79 544.54 414.509 545.233C411.723 545.688 410.696 547.139 410.315 548.149Z" fill="#233862"/>
<path d="M415.646 390.674C415.646 390.674 417.097 408.815 418.802 430.624C421.12 460.248 423.906 496.637 424.184 503.532C424.66 515.502 426.572 534.651 426.572 534.651C426.572 534.651 431.108 539.2 440.186 537.283C440.186 537.283 448.275 509.949 450.588 481.027C450.624 480.553 450.66 480.076 450.694 479.599C452.844 450.157 456.188 388.16 456.188 388.16L415.646 390.674Z" fill="#FFA401"/>
<path d="M415.646 390.674C415.646 390.674 417.097 408.815 418.802 430.624L450.588 481.027C450.624 480.553 450.66 480.076 450.694 479.599C452.844 450.157 456.188 388.16 456.188 388.16L415.646 390.674Z" fill="#ED7D2B"/>
<path d="M422.273 392.826C422.273 392.826 448.428 458.53 465.623 489.408C482.82 520.286 488.194 528.904 488.194 528.904C488.194 528.904 498.047 524.956 498.943 522.262C498.943 522.262 492.366 462.649 480.849 448.119C474.342 439.909 466.698 415.266 466.34 406.648C465.981 398.031 464.01 380.976 464.01 380.976L422.273 392.826Z" fill="#FFA401"/>
<path d="M428.784 297.043C439.004 300.275 456.688 291.551 456.688 291.551C456.688 291.551 447.266 284.463 447.759 269.729L439.858 276.11L434.49 280.445C434.49 280.445 434.512 283.001 435.098 287.48C435.204 288.296 435.33 289.177 435.478 290.12C435.596 290.872 435.266 291.63 434.619 292.031C430.895 294.338 428.784 297.043 428.784 297.043Z" fill="#FEB3B0"/>
<path d="M414.517 392.183C414.825 392.438 415.183 392.593 415.592 392.593C419.431 392.539 430.622 394.678 440.092 393.701C448.075 392.932 455.142 390.564 462.73 387.154C463.738 386.703 466.056 385.462 466.006 384.331C465.972 383.094 465.849 381.304 465.695 379.045C465.157 371.196 464.222 357.696 465.135 342.12C465.3 339.221 465.384 336.342 465.395 333.511C465.474 312.4 461.296 293.833 452.905 287.55C452.905 287.55 447.053 290.841 443.001 292.138C439.034 293.409 436.987 293.154 434.929 291.784C434.929 291.784 430.919 293.779 429.208 295.651C425.244 299.984 422.147 305.736 420.1 313.991C418.358 321.018 416.729 331.263 416.166 344.393C415.908 350.344 414.262 391.978 414.517 392.183Z" fill="white"/>
<path d="M464.152 322.433L452.902 287.553C452.902 287.553 425.893 297.762 424.642 335.983C424.149 344.693 422.066 380.387 425.837 409.966C425.837 409.966 446.879 418.182 472.678 401.968L464.152 322.433Z" fill="#2B478B"/>
<path d="M434.487 280.445C434.487 280.445 434.509 283.002 435.094 287.48C441.042 286.459 447.79 276.823 447.79 276.823C444.76 275.947 442.108 275.79 439.854 276.11L434.487 280.445Z" fill="#F6908C"/>
<path d="M430.06 280.17C430.06 280.17 448.467 283.235 450.198 271.718C451.925 260.199 455.464 252.839 443.786 250.395C432.107 247.951 429.158 252 427.647 255.704C426.137 259.408 425.317 279.076 430.06 280.17Z" fill="#FEB3B0"/>
<path d="M510.834 429.174L473.249 434.542C468.358 435.241 463.786 431.801 463.088 426.899L460.767 410.576C460.07 405.673 463.503 401.091 468.394 400.392L505.979 395.024C510.87 394.326 515.442 397.766 516.14 402.668L518.461 418.991C519.158 423.893 515.725 428.476 510.834 429.174Z" fill="#233862"/>
<path d="M465.721 409.857L468.07 426.368C468.526 429.564 470.621 432.143 473.379 433.363C474.291 433.77 475.28 434.026 476.307 434.104C476.31 434.104 476.31 434.104 476.313 434.104H476.316C476.954 434.155 477.612 434.138 478.273 434.042L515.79 428.683C520.698 427.981 524.142 423.382 523.445 418.463L521.099 401.949C520.396 397.03 515.809 393.579 510.898 394.277L497.979 396.124L497.478 392.602C497.248 390.975 495.736 389.841 494.112 390.071L492.696 390.273L484.839 391.396L482.887 391.676C482.103 391.786 481.406 392.201 480.927 392.838C480.449 393.478 480.247 394.263 480.362 395.046L480.863 398.568L473.379 399.634C473.082 399.676 472.793 399.735 472.511 399.803C472.508 399.805 472.505 399.805 472.505 399.805H472.502C469.613 400.515 467.331 402.606 466.275 405.255V405.258C465.707 406.672 465.494 408.246 465.721 409.857ZM496.128 396.385L482.702 398.304L482.201 394.783C482.115 394.176 482.537 393.612 483.145 393.525L486.516 393.043L492.701 392.159L494.37 391.92C494.485 391.906 494.597 391.906 494.703 391.926C495.171 392.002 495.554 392.375 495.627 392.866L496.128 396.385Z" fill="#2B478B"/>
<path d="M482.255 380.569C482.255 380.569 484.229 383.204 484.307 384.256C484.837 391.392 481.586 392.38 490.008 396.342C490.008 396.342 493.603 397.717 493.665 394.919C493.727 392.122 491.17 392.077 491.638 388.16C492.178 383.642 492.122 383.6 489.163 381.24L487.203 377.993L482.255 380.569Z" fill="#FEB3B0"/>
<path d="M487.273 382.59C484.1 383.21 480.659 382.957 480.659 382.957C480.659 382.957 471.237 353.791 470.025 351.128C468.812 348.462 442.042 316.927 442.042 316.927L452.9 287.553C452.9 287.553 459.27 291.288 466.001 302.931C474.32 317.312 483.462 340.476 485.089 344.239C489.947 355.494 491.632 380.729 491.632 380.729C491.632 380.729 489.765 382.101 487.273 382.59Z" fill="#2B478B"/>
<path d="M450.212 270.61C450.212 270.61 448.322 270.293 448.627 267.686C448.932 265.079 448.926 261.67 446.812 262.307C444.696 262.941 444.592 264.638 443.721 263.648C442.853 262.657 442.836 258.482 436.542 258.19C430.248 257.898 427.688 260.095 424.762 258.805C421.836 257.514 421.68 253.075 421.68 253.075C421.68 253.075 422.511 254.66 423.768 255.165C423.768 255.165 418.885 248.473 424.538 243.882C430.192 239.291 435.957 242.296 439.23 242.496C446.44 242.933 451.096 243.366 453.451 248.113C455.809 252.859 454.837 266.039 450.212 270.61Z" fill="#2B478B"/>
<path d="M485.368 383.706C485.368 383.706 483.467 385.693 483.347 386.518C482.96 389.17 482.078 390.314 482.521 390.603C483.442 391.204 484.66 389.24 485.242 387.477C485.825 385.715 485.368 383.706 485.368 383.706Z" fill="#FEB3B0"/>
<path d="M452.902 287.553L440.596 310.956L434.282 308.655L436.332 314.898L423.992 352.152C423.992 352.155 417.166 304.819 452.902 287.553Z" fill="#233862"/>
<path d="M428.784 273.635C428.784 273.635 429.5 275.534 431.292 275.585C433.084 275.635 434.468 273.89 434.468 273.89C434.468 273.89 430.576 272.989 428.784 273.635Z" fill="white"/>
<path d="M332.732 450.204L370.109 441.525C374.973 440.394 378.03 435.483 376.905 430.606L373.153 414.373C372.027 409.499 367.124 406.435 362.258 407.563L324.881 416.242C320.017 417.373 316.96 422.284 318.085 427.161L321.837 443.394C322.966 448.271 327.868 451.335 332.732 450.204Z" fill="#F99746"/>
<path d="M366.03 411.377C364.07 409.264 361.16 408.127 358.176 408.514H358.173C358.17 408.514 358.17 408.517 358.167 408.514C357.876 408.554 357.582 408.604 357.288 408.672L349.846 410.403L349.036 406.901C348.857 406.118 348.381 405.453 347.698 405.026C347.015 404.603 346.209 404.465 345.43 404.648L343.49 405.097L335.675 406.912L334.267 407.24C332.654 407.616 331.64 409.238 332.015 410.855L332.825 414.357L319.978 417.34C315.095 418.473 312.026 423.403 313.158 428.297L316.954 444.718C318.085 449.612 323.005 452.688 327.888 451.554L365.198 442.892C365.856 442.74 366.48 442.519 367.066 442.235H367.068C367.071 442.235 367.071 442.235 367.071 442.232C368.012 441.783 368.846 441.18 369.56 440.464C371.716 438.307 372.752 435.11 372.019 431.931L368.225 415.513C367.85 413.911 367.077 412.505 366.03 411.377ZM333.849 410.428C333.737 409.937 333.964 409.446 334.376 409.205C334.471 409.149 334.575 409.107 334.689 409.078L336.35 408.691L342.501 407.266L345.853 406.488C346.455 406.348 347.06 406.727 347.2 407.33L348.009 410.832L334.659 413.93L333.849 410.428Z" fill="#ED7D2B"/>
<path d="M341.519 390.25C341.519 390.25 340.39 394.262 340.777 395.539C343.403 404.201 347.942 409.87 335.737 408.408C335.737 408.408 336.241 407.905 333.906 403.5C331.212 398.415 331.257 398.342 333.673 394.203L334.508 389.478L341.519 390.25Z" fill="#FEB3B0"/>
<path d="M356.874 379.934C353.189 379.71 348.698 378.745 347.063 376.792C345.206 374.578 343.355 373.983 343.355 373.983L343.921 371.564L344.599 368.676C344.599 368.676 344.82 368.421 345.576 368.46C345.576 368.46 348.465 369.114 349.538 368.283C350.61 367.453 352.573 367.958 353.78 368.763C355.317 369.785 357.392 369.622 357.339 370.121C357.339 370.121 354.292 371.623 354.578 371.875C357.367 374.356 364.714 375.344 364.235 377.283C364.044 378.049 358.445 380.03 356.874 379.934Z" fill="#FEB3B0"/>
<path d="M305.525 285.597L305.514 287.603C305.514 287.603 306.06 293.88 298.346 294.798C290.632 295.718 284.307 295.595 284.517 290.752C285.211 287 286.457 281.18 286.507 278.077C286.527 276.923 286.449 275.7 286.233 274.316L301.179 274.016L305.581 274.737L305.525 285.597Z" fill="#FEB3B0"/>
<path d="M305.584 274.737L305.528 285.594C303.94 286.335 302.148 286.786 300.141 286.786C293.272 286.786 288.831 281.738 286.51 278.074C286.53 276.92 286.451 275.697 286.236 274.313L301.182 274.013L305.584 274.737Z" fill="#F7908C"/>
<path d="M285.088 271.906C286.821 281.259 298.863 280.953 304.069 280.364C305.533 280.201 306.454 280.013 306.454 280.013C308.106 279.57 309.027 276.966 309.456 273.551C310.304 266.794 309.232 256.874 308.092 254.337C306.379 250.521 303.147 246.391 291.021 249.371C278.894 252.351 282.864 259.922 285.088 271.906Z" fill="#FEB3B0"/>
<path d="M275.234 548.828H292.3C292.171 547.93 291.737 545.202 290.939 542.688C290.662 541.812 290.34 540.962 289.973 540.224C288.313 536.904 277.771 539.015 277.771 539.015C277.771 539.015 276.791 539.856 276.027 543.067C275.688 544.484 275.391 546.361 275.234 548.828Z" fill="#233862"/>
<path d="M326.802 543.43C326.85 545.757 327.141 547.959 327.984 548.827H361.737C361.309 547.603 360.094 545.762 356.627 545.198C352.691 544.558 346.553 542.659 342.969 538.862C341.692 537.512 340.74 535.921 340.323 534.064C338.735 526.978 327.194 536.236 327.194 536.236C327.194 536.236 326.726 539.965 326.802 543.43Z" fill="#233862"/>
<path d="M304.352 466.836C304.822 469.431 305.119 471.558 305.2 473.085C306.272 494.06 322.818 542.022 325.777 543.139C330.355 544.87 337.568 541.188 341.339 539.985C342.902 539.485 343.957 537.903 343.61 536.3C335.417 498.55 332.405 444.194 331.31 412.011C330.755 395.8 327.981 384.604 327.981 384.604C327.981 384.604 287.627 373.814 287.387 387.463C287.174 399.543 300.754 446.913 304.352 466.836Z" fill="#2B478B"/>
<path d="M304.352 466.836L331.31 412.011C330.755 395.8 327.981 384.604 327.981 384.604C327.981 384.604 287.627 373.814 287.387 387.463C287.174 399.543 300.754 446.913 304.352 466.836Z" fill="#233862"/>
<path d="M313.331 387.511L291.998 542.46C291.998 542.46 282.629 544.725 275.344 542.912C275.344 542.912 269.097 460.503 269.618 440.58C270.138 420.657 265.135 387.27 270.76 383.588C276.382 379.907 313.331 387.511 313.331 387.511Z" fill="#2B478B"/>
<path d="M308.56 255.799C305.228 256.852 298.18 255.777 295.235 258.165C292.289 260.556 295.095 264.493 291.729 265.896L291.715 265.901C291.035 266.185 290.242 265.994 289.78 265.416C288.848 264.248 287.557 263.087 286.378 263.567C285.41 263.965 285.362 265.216 285.788 266.434C286.146 267.459 286.045 268.606 285.426 269.499C285.158 269.883 284.984 270.307 285.06 270.733C285.34 272.277 286.104 274.286 286.384 275.313L286.462 276.39C286.462 276.39 280.823 270.273 278.446 265.124C276.816 261.591 276.847 248.386 284.822 244.527C284.788 244.502 284.763 244.474 284.746 244.44C284.572 244.132 284.094 244.202 284.094 244.202C284.78 243.893 285.844 244.09 285.844 244.09C285.821 244.073 285.863 244.022 285.958 243.949C286.098 243.015 287.036 242.347 287.036 242.347C286.717 242.81 286.583 243.27 286.527 243.61C288.621 242.504 295.067 240.052 300.177 242.282C303.632 243.789 306.802 244.592 308.955 245.007C310.727 245.349 311.984 246.935 311.92 248.745C311.83 251.279 310.948 254.927 308.56 255.799Z" fill="#233862"/>
<path d="M282.697 293.443L287.608 399.056C287.608 399.056 328.599 399.726 327.429 390.43C326.259 381.133 312.654 296.676 312.654 296.676" fill="#E9F3FE"/>
<path d="M296.212 359.599C296.212 359.599 294.132 387.806 290.133 405.518C290.133 405.518 266.213 406.789 260.535 397.534C260.535 397.534 265.029 359.428 265.029 351.7C265.029 348.984 264.819 345.291 264.488 341.16C263.99 334.905 263.22 327.663 262.486 321.352C261.47 312.563 260.535 305.579 260.535 305.579L280.258 289.517L296.212 359.599Z" fill="#22407A"/>
<path d="M343.678 392.975C343.678 392.975 339.214 395.775 332.186 394.835C329.627 401.123 323.593 403.259 323.593 402.689C323.593 402.619 322.238 390.814 320.639 376.904C320.483 375.512 320.32 374.104 320.158 372.684C320.144 372.563 320.127 372.44 320.116 372.319C319.847 369.99 319.578 367.633 319.307 365.287C317.38 348.532 315.532 332.47 315.532 332.47C311.338 306.735 307.787 289.728 307.787 289.728C316.736 290.662 322.776 293.855 325.184 298.039C332.326 310.445 337.498 341.477 340.528 364.706C340.533 364.765 340.542 364.824 340.55 364.883C341.071 368.893 341.53 372.67 341.922 376.071C341.947 376.284 341.972 376.494 341.995 376.702C343.106 386.436 343.678 392.975 343.678 392.975Z" fill="#22407A"/>
<path d="M302.176 273.444C302.176 273.444 302.565 274.651 305.603 274.21C305.603 274.21 308.154 273.84 307.966 272.496C307.966 272.496 305.402 271.738 302.176 273.444Z" fill="white"/>
<path d="M281.538 289.391C281.487 288.384 286.25 286.992 286.25 286.992C286.25 286.992 291.701 294.569 300.684 294.7C300.684 294.7 298.125 299.692 295.106 300.986C295.109 300.983 281.832 295.377 281.538 289.391Z" fill="#D9E9F9"/>
<path d="M300.684 294.52C300.684 294.52 305.444 291.692 305.458 288.627C305.458 288.627 308.532 288.243 309.873 289.736C309.873 289.736 311.002 294.989 309.504 298.039C309.509 298.039 302.655 296.992 300.684 294.52Z" fill="#D9E9F9"/>
<path d="M297.455 294.066L303.909 292.517C303.909 292.517 304.752 292.59 304.73 293.645C304.707 294.697 302.913 297.776 302.117 298.023C301.319 298.264 295.929 296.196 297.455 294.066Z" fill="#BA4C43"/>
<path d="M282.288 288.869C282.238 287.862 285.463 285.785 285.463 285.785C285.463 285.785 291.704 293.095 300.687 293.227C300.687 293.227 298.127 298.219 295.109 299.512C295.109 299.512 282.585 294.854 282.288 288.869Z" fill="#E9F3FE"/>
<path d="M300.684 293.224C300.684 293.224 305.497 290.668 305.514 287.601C305.514 287.601 308.42 288.883 309.761 290.376C309.761 290.376 311.005 293.693 309.507 296.743C309.509 296.746 302.655 295.699 300.684 293.224Z" fill="#E9F3FE"/>
<path d="M312.483 381.784C312.234 384.812 311.077 387.643 309.238 389.725L306.345 392.997C305.62 393.82 304.492 393.721 303.898 392.784L300.409 387.298C299.474 385.828 299.046 383.956 299.208 382.076C299.58 377.889 300.275 369.822 300.843 362.041C301.305 355.733 301.689 349.607 301.748 345.883C301.941 333.991 300.384 296.089 300.384 296.089L302.702 296.21C302.702 296.21 308.325 310.863 311.15 330.854C311.847 335.776 312.371 341.017 312.603 346.45C312.603 346.45 313.603 368.096 312.483 381.784Z" fill="#C65447"/>
<path d="M312.483 381.785C312.234 384.812 311.077 387.644 309.238 389.726L306.345 392.998C305.62 393.82 304.492 393.722 303.898 392.784L300.409 387.298C299.474 385.828 299.046 383.956 299.208 382.076C299.58 377.89 300.275 369.822 300.843 362.041C307.342 353.115 310.058 340.849 311.15 330.857C311.847 335.779 312.371 341.021 312.603 346.453C312.603 346.45 313.603 368.096 312.483 381.785Z" fill="#BA4C43"/>
<path d="M285.463 285.785C285.463 285.785 298.239 339.412 296.206 359.613C296.206 359.613 291.508 338.025 280.205 320.344C280.205 320.344 284.329 316.708 284.105 315.369C284.105 315.369 281.042 314.46 278.071 315.072C278.071 315.072 278.399 291.955 280.252 289.514C282.106 287.07 285.463 285.785 285.463 285.785Z" fill="#233862"/>
<path d="M305.514 287.603C303.599 287.757 318.175 340.007 319.256 356.753C319.256 356.753 317.977 326.869 318.103 318.254C318.103 318.254 312.797 315.439 312.797 314.452C312.797 313.464 318.458 310.792 318.458 310.792C318.458 310.792 314.874 292.387 312.917 290.361C310.96 288.333 305.514 287.603 305.514 287.603Z" fill="#233862"/>
<path d="M332.195 396.959C332.195 396.959 331.31 398.16 331.873 401.174C332.436 404.187 332.125 405.852 332.903 405.332C333.682 404.813 335.289 401.193 335.289 401.193L332.195 396.959Z" fill="#FEB3B0"/>
<path d="M294.65 367.863C279.776 365.637 269.831 351.708 264.488 341.16C263.99 334.905 263.22 327.663 262.486 321.352L265.967 311.401L294.65 367.863Z" fill="#233862"/>
<path d="M341.992 376.702C339.03 377.389 330.044 379.07 320.639 376.901C320.483 375.509 320.32 374.1 320.158 372.681C320.144 372.56 320.127 372.436 320.116 372.316C320.424 371.106 320.735 369.897 321.043 368.688C326.365 370.598 338.26 374.78 341.919 376.07C341.944 376.286 341.97 376.497 341.992 376.702Z" fill="#233862"/>
<path d="M280.252 289.512C280.258 289.515 267.182 291.168 261.218 299.513C255.251 307.858 268.064 353.308 294.65 367.864C307.44 374.865 344.344 376.442 344.344 376.442C344.344 376.442 346.374 376.647 347.177 372.553C347.457 371.127 347.177 368.691 347.177 368.691C347.177 368.691 305.169 352.907 301.476 349.868C297.783 346.826 280.252 289.512 280.252 289.512Z" fill="#22407A"/>
<path d="M102.313 548.287L644.857 548.287" stroke="#0A7CA4" stroke-miterlimit="10" stroke-linecap="round"/>
<path d="M362.922 368.803C362.922 368.803 358.526 367.697 357.269 367.431C355.799 367.119 354.452 366.011 354.024 366.533C353.226 367.504 356.591 369.21 357.918 372.209C358.571 373.682 359.881 374.482 362.51 373.402C363.832 372.858 364.885 370.105 362.922 368.803Z" fill="#FCA19D"/>
<defs>
<linearGradient id="paint0_linear" x1="18.8385" y1="356.428" x2="69.3309" y2="385.507" gradientUnits="userSpaceOnUse">
<stop stop-color="#46B8E9"/>
<stop offset="0.843073" stop-color="#9A64EB"/>
</linearGradient>
<linearGradient id="paint1_linear" x1="635.03" y1="259.612" x2="685.459" y2="230.424" gradientUnits="userSpaceOnUse">
<stop stop-color="#46B8E9"/>
<stop offset="0.843073" stop-color="#9A64EB"/>
</linearGradient>
<linearGradient id="paint2_linear" x1="1.28739" y1="367.633" x2="24.6535" y2="332.511" gradientUnits="userSpaceOnUse">
<stop stop-color="#46B8E9"/>
<stop offset="0.843073" stop-color="#9A64EB"/>
</linearGradient>
<linearGradient id="paint3_linear" x1="34.6553" y1="290.462" x2="55.5344" y2="311.619" gradientUnits="userSpaceOnUse">
<stop stop-color="#46B8E9"/>
<stop offset="0.843073" stop-color="#9A64EB"/>
</linearGradient>
<linearGradient id="paint4_linear" x1="618.023" y1="204.914" x2="646.785" y2="197.41" gradientUnits="userSpaceOnUse">
<stop stop-color="#46B8E9"/>
<stop offset="0.843073" stop-color="#9A64EB"/>
</linearGradient>
<linearGradient id="paint5_linear" x1="716.179" y1="669.651" x2="90.2096" y2="33.8966" gradientUnits="userSpaceOnUse">
<stop stop-color="#46B8E9"/>
<stop offset="0.843073" stop-color="#9A64EB"/>
</linearGradient>
</defs>
</svg>
