<svg width="158" height="158" viewBox="0 0 158 158" fill="none" xmlns="http://www.w3.org/2000/svg">
<path d="M94.3597 117.227C94.3597 117.016 94.4299 116.806 94.3597 116.595C94.2193 116.384 94.1491 116.244 94.0087 116.104C93.6578 115.683 93.3069 115.332 92.8857 114.91L88.7445 110.699L91.9732 107.4L93.728 105.505C94.0087 105.224 94.3597 104.663 94.3597 104.242V103.961C94.3597 103.329 94.0789 102.978 93.4472 102.838L93.5876 102.908H93.0963C92.6751 102.908 91.4819 104.031 91.2011 104.382C90.1483 105.435 89.4464 106.417 88.0426 107.47V99.1177C88.0426 98.3457 87.6215 97.9947 86.8494 97.9947H86.6388C85.8667 97.9947 85.235 98.3457 85.235 99.1177V117.297C85.235 118.069 85.8667 118.35 86.6388 118.35H86.8494C87.6215 118.35 88.0426 117.999 88.0426 117.297V114.068L90.1483 116.104C90.78 116.735 91.4117 117.157 91.9732 117.718C92.254 117.999 92.8155 118.35 93.2367 118.35H93.4472C94.1491 118.35 94.3597 117.999 94.5001 117.437L94.3597 117.508V117.227ZM121.804 102.908H121.523C119.979 102.908 118.575 103.329 117.312 104.242C115.206 105.786 114.013 107.821 114.013 110.489V117.367C114.013 118.139 114.294 118.35 115.066 118.35H115.276C116.048 118.35 116.82 118.069 116.82 117.367V110.91C116.82 109.506 117.101 108.172 118.154 107.119C118.996 106.277 120.049 105.575 121.242 105.575C122.155 105.575 123.208 105.365 123.208 104.242C123.208 103.399 122.576 102.908 121.804 102.908ZM110.995 106.417C110.223 105.154 109.17 104.171 107.836 103.54C105.38 102.346 102.782 102.206 100.396 103.61L100.045 103.82C99.0624 104.382 98.2201 105.084 97.5884 105.996C95.7635 108.664 95.5529 111.682 97.1673 114.489L97.3077 114.77C98.0096 115.963 98.922 116.946 100.115 117.578C102.642 118.981 105.38 119.122 107.906 117.718L108.117 117.578C108.819 117.157 108.959 116.455 108.608 115.753C108.468 115.472 108.187 115.261 107.906 115.121H107.766C107.275 115.051 105.941 115.612 105.45 115.823C104.467 115.963 103.344 116.034 102.361 115.683L107.696 111.05C108.468 110.348 109.31 109.576 110.152 108.944C110.854 108.383 111.556 107.611 110.995 106.628V106.417ZM106.152 108.944L100.185 114.068C99.9749 113.858 99.8345 113.577 99.6941 113.366C99.273 112.664 98.9922 111.822 98.9922 110.98C98.922 108.874 99.6941 107.119 101.589 106.067C102.993 105.224 104.537 105.084 106.081 105.645C106.854 105.926 107.766 106.417 108.257 107.119C107.555 107.751 106.783 108.313 106.152 108.944ZM49.4381 97.9947H49.2276C48.4555 97.9947 48.0343 98.2755 48.0343 99.0476V104.733C46.6305 103.47 44.946 102.978 42.9807 102.978H42.4191C41.0855 102.978 39.8221 103.189 38.6289 103.891C36.102 105.365 34.6982 107.541 34.6982 110.489V111.05C34.6982 112.384 35.0492 113.507 35.7511 114.7C37.2251 117.227 39.5413 118.49 42.4191 118.49H42.9807C44.3143 118.49 45.7181 118.28 46.8411 117.648C49.3679 116.174 50.8419 113.998 50.8419 111.12V99.1879C50.8419 98.2755 50.2102 97.9947 49.4381 97.9947ZM47.2622 113.296C46.2094 115.051 44.6652 116.034 42.6297 116.034C41.7874 116.034 40.9451 115.823 40.2432 115.402C38.4183 114.419 37.3655 112.805 37.3655 110.699C37.3655 109.927 37.5058 109.225 37.8568 108.523C38.8394 106.488 40.4538 105.365 42.6999 105.365C43.8229 105.365 44.8056 105.716 45.6479 106.347C47.1219 107.4 47.9641 108.804 47.9641 110.629C48.0343 111.612 47.7536 112.454 47.2622 113.296ZM60.3878 102.908H59.9666C58.633 102.908 57.2994 103.119 56.1764 103.82C53.6495 105.294 52.2457 107.47 52.2457 110.418V110.98C52.2457 112.313 52.5967 113.436 53.2986 114.63C54.7726 117.157 57.0888 118.42 60.0368 118.42H60.5983C61.9319 118.42 63.2656 118.209 64.4588 117.578C66.9856 116.104 68.4596 113.928 68.4596 111.05V110.489C68.4596 109.225 68.0385 108.172 67.4769 107.119C65.9328 104.312 63.4761 102.908 60.3878 102.908ZM64.8799 113.296C63.8271 114.981 62.3531 116.034 60.3176 116.034C59.4051 116.034 58.4926 115.823 57.6504 115.332C55.8956 114.279 54.9129 112.805 54.9129 110.769C54.9129 109.997 55.0533 109.295 55.4043 108.593C56.3869 106.558 58.0013 105.435 60.2474 105.435C61.3002 105.435 62.2127 105.716 63.055 106.277C64.5992 107.33 65.5116 108.804 65.5116 110.699C65.5818 111.541 65.3712 112.454 64.8799 113.296ZM82.0765 103.891L82.0063 103.961C80.813 103.189 79.4794 102.908 78.0756 102.908H77.5141C76.1805 102.908 74.8469 103.119 73.7239 103.82C71.197 105.294 69.7932 107.47 69.7932 110.348V110.91C69.7932 111.612 69.9336 112.243 70.074 112.945C71.197 116.806 74.2152 118.981 78.2862 118.701C79.4092 118.631 82.4274 118.28 82.4274 116.595V116.314C82.4274 115.683 81.9361 115.121 81.3746 114.981L81.3044 114.84H80.813L80.6727 115.051C80.0409 115.332 78.9881 115.893 78.2862 115.893C77.4439 115.893 76.5315 115.893 75.7594 115.472C73.7239 114.489 72.5306 112.875 72.5306 110.629C72.5306 109.857 72.671 109.155 73.022 108.453C74.0046 106.488 75.619 105.224 77.8651 105.294C78.2862 105.294 79.0583 105.505 79.4794 105.716C79.8304 105.856 80.7428 106.417 81.164 106.417H81.3044L81.3746 106.277C82.0063 106.137 82.4976 105.645 82.4976 105.014V104.733C82.4976 104.452 82.3572 104.242 82.2168 104.031L82.0765 103.891ZM38.0674 81.9914L38.1375 82.1318C43.6826 91.5372 53.3688 95.4679 63.9675 95.4679C84.4629 95.4679 101.379 86.273 109.1 66.9708C114.294 67.2515 119.628 65.7073 122.155 60.7238L122.787 59.4604L121.523 58.7585C118.505 57.0038 114.504 56.7932 111.135 57.7759C110.714 54.126 108.327 50.9674 105.52 48.7214L104.397 47.8089L103.484 48.9319C101.589 51.1078 101.028 54.7577 101.309 57.5653C101.519 59.6008 102.151 61.7065 103.414 63.3911C102.432 63.9526 101.379 64.7247 100.396 65.0756C98.4307 65.7775 96.2548 66.4794 94.1491 66.4794H89.4464V56.5826H80.3217V39.0352H69.7932V47.4579H52.2457V56.5826H43.121V66.4092H35.2598L35.1194 67.4621C34.7684 71.9542 35.33 76.306 37.2251 80.4472L38.0674 81.9914ZM80.3217 58.6883H88.0426V66.4092H80.3217V58.6883ZM71.197 40.439H78.9179V48.1598H71.197V40.439ZM71.197 49.5636H78.9179V57.2845H71.197V49.5636ZM71.197 58.6883H78.9179V66.4092H71.197V58.6883ZM62.0723 49.5636H69.7932V57.2845H62.0723V49.5636ZM62.0723 58.6883H69.7932V66.4092H62.0723V58.6883ZM62.8444 80.5876C62.8444 81.7808 61.8618 82.7635 60.6685 82.7635C59.4753 82.7635 58.4926 81.7808 58.4926 80.5876C58.4926 79.3944 59.4753 78.4117 60.6685 78.4117C61.8618 78.4819 62.8444 79.3944 62.8444 80.5876ZM53.6495 49.5636H60.6685V57.2845H53.6495V49.5636ZM53.6495 58.6883H60.6685V66.4092H53.6495V58.6883ZM44.5248 58.6883H52.2457V66.4092H44.5248V58.6883ZM46.2094 85.3605C47.3324 85.3605 48.4555 85.3605 49.5083 85.2903C52.2457 85.1499 54.6322 84.799 56.5975 84.2375C58.2119 87.9575 61.1599 91.3969 66.4241 93.9237L63.9675 93.9939C52.8774 93.9237 46.9113 90.2036 41.998 85.2903C43.472 85.3605 44.8758 85.3605 46.2094 85.3605ZM60.6685 82.1318C61.5108 82.1318 62.2127 81.4299 62.2127 80.5876C62.2127 80.377 62.1425 80.1665 62.0723 80.0261C61.9319 80.2367 61.7916 80.377 61.5108 80.377C61.1599 80.377 60.8791 80.0963 60.8791 79.7453C60.8791 79.5348 61.0195 79.3242 61.1599 79.1838C61.0897 79.1136 60.8791 79.0434 60.6685 79.0434C59.8262 79.0434 59.1243 79.7453 59.1243 80.5876C59.1945 81.4299 59.8262 82.1318 60.6685 82.1318Z" fill="#019BC6"/>
</svg>
