<svg width="3183" height="391" viewBox="0 0 3183 391" fill="none" xmlns="http://www.w3.org/2000/svg">
<path d="M0 36.3078L106.1 52.6718C212.2 68.4241 400.8 58.2507 613 74.0029C825.2 90.3669 1061 160.836 1273.2 120.003C1485.4 79.7812 1697.6 -0.455876 1909.8 0.00292759C2122 -0.455876 2334.2 53.1306 2546.4 77.1413C2758.6 102.07 2970.8 68.4241 3076.9 52.6718L3183 36.3078V281.003H3076.9C2970.8 281.003 2758.6 281.003 2546.4 281.003C2334.2 281.003 2122 281.003 1909.8 281.003C1697.6 281.003 1485.4 281.003 1273.2 281.003C1061 281.003 848.8 281.003 636.6 281.003C424.4 281.003 212.2 281.003 106.1 281.003H0V36.3078Z" fill="#B1E2F6"/>
<path d="M619.367 81.3743C536.127 62.3368 563.873 66.0871 550 62.2654C550 119.414 133.8 290.858 550 348.006C966.2 405.154 2214.8 405.154 2631 348.006C3047.2 290.858 2644.87 115.592 2631 62.2654C2617.13 8.93901 2644.87 71.8377 2561.63 81.3743C2478.39 90.9109 2362.83 113.771 2214.8 109.948C2066.77 106.126 1987.98 58.4764 1821.5 62.2624C1655.02 66.0485 1553.46 109.841 1382.4 128.879C1211.34 147.917 1118.81 166.954 966.2 157.453C813.593 147.952 702.607 100.412 619.367 81.3743Z" fill="#0099FF"/>
<path d="M619.367 81.3743C536.127 62.3368 563.873 66.0871 550 62.2654C550 119.414 133.8 290.858 550 348.006C966.2 405.154 2214.8 405.154 2631 348.006C3047.2 290.858 2644.87 115.592 2631 62.2654C2617.13 8.93901 2644.87 71.8377 2561.63 81.3743C2478.39 90.9109 2362.83 113.771 2214.8 109.948C2066.77 106.126 1987.98 58.4764 1821.5 62.2624C1655.02 66.0485 1553.46 109.841 1382.4 128.879C1211.34 147.917 1118.81 166.954 966.2 157.453C813.593 147.952 702.607 100.412 619.367 81.3743Z" fill="url(#paint0_linear)"/>
<defs>
<linearGradient id="paint0_linear" x1="-107.387" y1="-174.148" x2="81.8096" y2="953.884" gradientUnits="userSpaceOnUse">
<stop stop-color="#46B8E9"/>
<stop offset="0.843073" stop-color="#9A64EB"/>
</linearGradient>
</defs>
</svg>
