<svg width="978" height="362" viewBox="0 0 978 362" fill="none" xmlns="http://www.w3.org/2000/svg">
<path d="M74.4585 22.7782L102.089 33.0443C129.719 42.9266 178.834 36.5443 234.094 46.4266C289.354 56.6928 350.761 100.903 406.021 75.2852C461.281 50.0517 516.542 -0.285999 571.802 0.00183666C627.063 -0.285999 682.323 33.3321 737.583 48.3955C792.844 64.0346 848.104 42.9266 875.735 33.0443L903.365 22.7782V176.291H875.735C848.104 176.291 792.844 176.291 737.583 176.291C682.323 176.291 627.063 176.291 571.802 176.291C516.542 176.291 461.281 176.291 406.021 176.291C350.761 176.291 295.5 176.291 240.24 176.291C184.979 176.291 129.719 176.291 102.089 176.291H74.4585V22.7782Z" fill="#B1E2F6"/>
<path d="M101.361 64.5602C68.1886 46.2742 79.2462 49.8765 73.7174 46.2056C73.7174 101.098 -92.1468 265.775 73.7174 320.667C239.582 375.559 737.174 375.559 903.039 320.667C1068.9 265.775 908.567 97.4269 903.039 46.2056C897.51 -5.01574 908.567 55.4 875.394 64.5602C842.222 73.7203 796.166 95.6778 737.174 92.0063C678.183 88.3348 646.782 42.5661 580.436 46.2028C514.091 49.8394 473.617 91.9028 405.446 110.189C337.275 128.476 300.399 146.761 239.582 137.636C178.765 128.51 134.534 82.8461 101.361 64.5602Z" fill="#0099FF"/>
<path d="M101.361 64.5602C68.1886 46.2742 79.2462 49.8765 73.7174 46.2056C73.7174 101.098 -92.1468 265.775 73.7174 320.667C239.582 375.559 737.174 375.559 903.039 320.667C1068.9 265.775 908.567 97.4269 903.039 46.2056C897.51 -5.01574 908.567 55.4 875.394 64.5602C842.222 73.7203 796.166 95.6778 737.174 92.0063C678.183 88.3348 646.782 42.5661 580.436 46.2028C514.091 49.8394 473.617 91.9028 405.446 110.189C337.275 128.476 300.399 146.761 239.582 137.636C178.765 128.51 134.534 82.8461 101.361 64.5602Z" fill="url(#paint0_linear)"/>
<defs>
<linearGradient id="paint0_linear" x1="-188.265" y1="-180.875" x2="198.809" y2="776.633" gradientUnits="userSpaceOnUse">
<stop stop-color="#46B8E9"/>
<stop offset="0.843073" stop-color="#9A64EB"/>
</linearGradient>
</defs>
</svg>
