<svg width="1700" height="248" viewBox="0 0 1700 248" fill="none" xmlns="http://www.w3.org/2000/svg">
<path d="M0 23.0236L56.6603 33.4004C113.321 43.3893 214.038 36.9381 327.359 46.927C440.68 57.3038 566.603 101.99 679.924 76.0966C793.245 50.5911 906.565 -0.289081 1019.89 0.00185645C1133.21 -0.289081 1246.53 33.6914 1359.85 48.9171C1473.17 64.7247 1586.49 43.3893 1643.15 33.4004L1699.81 23.0236V178.191H1643.15C1586.49 178.191 1473.17 178.191 1359.85 178.191C1246.53 178.191 1133.21 178.191 1019.89 178.191C906.565 178.191 793.245 178.191 679.924 178.191C566.603 178.191 453.283 178.191 339.962 178.191C226.641 178.191 113.321 178.191 56.6603 178.191H0V23.0236Z" fill="#B1E2F6"/>
<path d="M330.759 51.6012C286.306 39.5291 301.124 41.9073 293.715 39.4838C293.715 75.7228 71.4528 184.44 293.715 220.679C515.978 256.918 1182.76 256.918 1405.03 220.679C1627.29 184.44 1412.44 73.2993 1405.03 39.4838C1397.62 5.66836 1412.44 45.5539 1367.98 51.6012C1323.53 57.6486 1261.82 72.1446 1182.76 69.7207C1103.71 67.2969 1061.64 37.0811 972.732 39.482C883.827 41.8828 829.591 69.6524 738.24 81.7249C646.889 93.7974 597.474 105.869 515.978 99.8444C434.481 93.8196 375.211 63.6733 330.759 51.6012Z" fill="#0099FF"/>
<path d="M330.759 51.6012C286.306 39.5291 301.124 41.9073 293.715 39.4838C293.715 75.7228 71.4528 184.44 293.715 220.679C515.978 256.918 1182.76 256.918 1405.03 220.679C1627.29 184.44 1412.44 73.2993 1405.03 39.4838C1397.62 5.66836 1412.44 45.5539 1367.98 51.6012C1323.53 57.6486 1261.82 72.1446 1182.76 69.7207C1103.71 67.2969 1061.64 37.0811 972.732 39.482C883.827 41.8828 829.591 69.6524 738.24 81.7249C646.889 93.7974 597.474 105.869 515.978 99.8444C434.481 93.8196 375.211 63.6733 330.759 51.6012Z" fill="url(#paint0_linear)"/>
<defs>
<linearGradient id="paint0_linear" x1="-57.3479" y1="-110.431" x2="83.5331" y2="596.944" gradientUnits="userSpaceOnUse">
<stop stop-color="#46B8E9"/>
<stop offset="0.843073" stop-color="#9A64EB"/>
</linearGradient>
</defs>
</svg>
