<svg width="439" height="390" viewBox="0 0 439 390" fill="none" xmlns="http://www.w3.org/2000/svg">
<path fill-rule="evenodd" clip-rule="evenodd" d="M153.29 31.3162C196.185 25.5191 221.618 69.894 257.692 89.2136C286.227 104.496 319.02 112.462 342.345 132.566C371.794 157.948 411.1 184.521 408.243 218.973C405.38 253.5 358.37 272.784 328.622 298.061C298.873 323.338 277.45 360.12 234.641 366.484C191.867 372.842 149.719 351.545 116.04 329.66C87.5628 311.156 78.0905 281.852 63.2433 255.108C49.9508 231.165 31.0679 208.159 34.1199 182.099C37.2217 155.613 62.0519 135.776 79.8574 113.247C102.861 84.1417 110.649 37.0789 153.29 31.3162Z" fill="#46B8E9" fill-opacity="0.4"/>
<path fill-rule="evenodd" clip-rule="evenodd" d="M171.472 51.9301C208.972 46.8621 231.207 85.6562 262.744 102.546C287.691 115.907 316.359 122.871 336.75 140.446C362.496 162.636 396.859 185.867 394.361 215.986C391.858 246.171 350.76 263.03 324.753 285.128C298.746 307.226 280.018 339.382 242.592 344.945C205.198 350.504 168.35 331.885 138.907 312.753C114.011 296.576 105.73 270.958 92.75 247.577C81.1292 226.645 64.6211 206.532 67.2893 183.75C70.001 160.595 91.7085 143.253 107.275 123.557C127.385 98.1121 134.194 56.9681 171.472 51.9301Z" fill="#C4C4C4"/>
<path fill-rule="evenodd" clip-rule="evenodd" d="M171.472 51.9301C208.972 46.8621 231.207 85.6562 262.744 102.546C287.691 115.907 316.359 122.871 336.75 140.446C362.496 162.636 396.859 185.867 394.361 215.986C391.858 246.171 350.76 263.03 324.753 285.128C298.746 307.226 280.018 339.382 242.592 344.945C205.198 350.504 168.35 331.885 138.907 312.753C114.011 296.576 105.73 270.958 92.75 247.577C81.1292 226.645 64.6211 206.532 67.2893 183.75C70.001 160.595 91.7085 143.253 107.275 123.557C127.385 98.1121 134.194 56.9681 171.472 51.9301Z" fill="url(#paint0_linear)"/>
<path d="M331.326 133.024C329.068 133.024 326.866 133.642 324.899 134.72C325.087 128.246 320.299 123.216 313.629 123.216C306.463 123.216 299.849 129.024 298.837 136.181C298.771 136.659 298.734 137.137 298.715 137.605C298.134 137.493 297.535 137.436 296.907 137.436C291.436 137.436 286.377 141.868 285.609 147.339C284.841 152.81 288.654 157.241 294.125 157.241H327.916C334.605 157.241 340.788 151.817 341.724 145.137C342.671 138.448 338.005 133.024 331.326 133.024Z" fill="#E9F8FF"/>
<path d="M282.733 89.3023C281.037 89.3023 279.389 89.7707 277.918 90.5764C278.058 85.7143 274.47 81.939 269.458 81.939C264.081 81.939 259.116 86.2952 258.357 91.6725C258.31 92.0285 258.282 92.3844 258.263 92.7404C257.832 92.6561 257.373 92.6093 256.905 92.6093C252.802 92.6093 249.008 95.935 248.427 100.038C247.846 104.141 250.713 107.467 254.816 107.467H280.175C285.197 107.467 289.834 103.401 290.537 98.3801C291.249 93.3681 287.754 89.3023 282.733 89.3023Z" fill="#E9F8FF"/>
<path opacity="0.5" d="M200.431 36.5481C198.923 36.5481 197.452 36.9603 196.15 37.6816C196.272 33.3629 193.086 29.9998 188.637 29.9998C183.859 29.9998 179.437 33.8688 178.772 38.6559C178.725 38.9744 178.697 39.293 178.688 39.6021C178.303 39.5272 177.901 39.4897 177.479 39.4897C173.835 39.4897 170.453 42.45 169.947 46.0942C169.432 49.7384 171.98 52.6988 175.624 52.6988H198.164C202.623 52.6988 206.745 49.0827 207.373 44.6234C207.991 40.1642 204.89 36.5481 200.431 36.5481Z" fill="#E9F8FF"/>
<path d="M230.684 103.533L231.209 99.7766C231.246 99.5237 231.068 99.3176 230.815 99.3176H229.672C229.466 99.3176 229.307 99.1677 229.288 98.971C229.176 97.5658 228.811 96.2449 228.22 95.0645C228.136 94.8865 228.183 94.6616 228.352 94.5117L229.27 93.7061C229.476 93.5281 229.513 93.2377 229.363 93.0503L227.077 90.3898C226.918 90.2118 226.628 90.2118 226.422 90.3898L225.504 91.1954C225.335 91.3453 225.101 91.364 224.942 91.2516C223.864 90.5022 222.628 89.9495 221.26 89.6403C221.063 89.5935 220.941 89.4155 220.969 89.2094L221.129 88.0665C221.166 87.8135 220.988 87.6074 220.735 87.6074H216.979C216.726 87.6074 216.491 87.8135 216.454 88.0665L216.295 89.2094C216.267 89.4155 216.098 89.5935 215.883 89.6403C214.43 89.9495 213.035 90.5022 211.751 91.2516C211.564 91.364 211.339 91.3453 211.208 91.1954L210.515 90.3898C210.355 90.2118 210.065 90.2118 209.859 90.3898L206.824 93.0503C206.617 93.2283 206.58 93.5187 206.73 93.7061L207.423 94.5117C207.554 94.6616 207.536 94.8865 207.404 95.0645C206.486 96.2449 205.756 97.5658 205.24 98.971C205.165 99.1771 204.969 99.3176 204.763 99.3176H203.62C203.367 99.3176 203.133 99.5237 203.095 99.7766L202.57 103.533C202.533 103.786 202.711 103.992 202.964 103.992H204.107C204.313 103.992 204.472 104.142 204.491 104.339C204.603 105.744 204.969 107.065 205.559 108.245C205.643 108.423 205.596 108.648 205.428 108.798L204.51 109.604C204.304 109.782 204.266 110.072 204.416 110.26L206.702 112.92C206.861 113.098 207.151 113.098 207.358 112.92L208.276 112.114C208.444 111.965 208.678 111.946 208.838 112.058C209.915 112.808 211.152 113.36 212.51 113.67C212.707 113.716 212.829 113.894 212.8 114.101L212.641 115.243C212.604 115.496 212.782 115.702 213.035 115.702H216.791C217.044 115.702 217.278 115.496 217.316 115.243L217.475 114.101C217.503 113.894 217.672 113.716 217.887 113.67C219.339 113.36 220.735 112.808 222.019 112.058C222.206 111.946 222.431 111.965 222.562 112.114L223.255 112.92C223.415 113.098 223.705 113.098 223.911 112.92L226.946 110.26C227.152 110.082 227.19 109.791 227.04 109.604L226.347 108.798C226.216 108.648 226.234 108.423 226.366 108.245C227.284 107.065 228.014 105.754 228.53 104.339C228.604 104.133 228.801 103.992 229.007 103.992H230.15C230.413 104.002 230.647 103.796 230.684 103.533ZM215.114 108.77C211.882 108.423 209.597 105.782 209.681 102.503C209.793 98.1747 213.681 94.5024 217.906 94.5024C221.859 94.5024 224.614 97.7063 224.052 101.66C223.471 105.866 219.358 109.238 215.114 108.77Z" fill="#E9F8FF"/>
<path d="M248.164 115.861L248.595 112.779C248.623 112.573 248.483 112.405 248.267 112.405H247.331C247.162 112.405 247.031 112.283 247.021 112.114C246.928 110.962 246.628 109.875 246.15 108.91C246.075 108.77 246.122 108.582 246.263 108.461L247.012 107.805C247.181 107.655 247.218 107.421 247.087 107.271L245.213 105.088C245.082 104.938 244.848 104.938 244.679 105.088L243.93 105.744C243.789 105.866 243.602 105.884 243.471 105.791C242.59 105.172 241.569 104.723 240.454 104.47C240.295 104.432 240.192 104.292 240.22 104.114L240.351 103.177C240.379 102.971 240.239 102.802 240.023 102.802H236.941C236.735 102.802 236.538 102.971 236.51 103.177L236.379 104.114C236.351 104.282 236.211 104.432 236.042 104.47C234.852 104.723 233.709 105.182 232.651 105.791C232.491 105.884 232.313 105.866 232.201 105.744L231.639 105.088C231.508 104.938 231.274 104.938 231.105 105.088L228.613 107.271C228.444 107.421 228.407 107.655 228.538 107.805L229.11 108.461C229.213 108.582 229.203 108.77 229.091 108.91C228.341 109.875 227.732 110.962 227.32 112.114C227.264 112.283 227.095 112.405 226.927 112.405H225.99C225.784 112.405 225.587 112.573 225.559 112.779L225.128 115.861C225.1 116.068 225.241 116.236 225.456 116.236H226.393C226.561 116.236 226.693 116.358 226.702 116.527C226.796 117.679 227.095 118.766 227.573 119.73C227.648 119.871 227.601 120.058 227.461 120.18L226.711 120.836C226.543 120.986 226.505 121.22 226.636 121.37L228.51 123.553C228.641 123.703 228.875 123.703 229.044 123.553L229.793 122.888C229.934 122.766 230.121 122.747 230.252 122.841C231.133 123.459 232.154 123.909 233.269 124.162C233.428 124.199 233.531 124.34 233.503 124.518L233.372 125.454C233.344 125.661 233.484 125.829 233.7 125.829H236.782C236.988 125.829 237.185 125.661 237.213 125.454L237.344 124.518C237.372 124.349 237.513 124.199 237.681 124.162C238.871 123.909 240.014 123.45 241.073 122.841C241.232 122.747 241.41 122.766 241.522 122.888L242.094 123.553C242.225 123.703 242.459 123.703 242.628 123.553L245.12 121.37C245.288 121.22 245.326 120.986 245.195 120.836L244.623 120.171C244.52 120.049 244.53 119.862 244.642 119.721C245.391 118.756 246 117.669 246.413 116.517C246.469 116.349 246.637 116.227 246.806 116.227H247.743C247.949 116.236 248.136 116.068 248.164 115.861ZM235.386 120.161C232.735 119.871 230.861 117.707 230.927 115.018C231.021 111.468 234.206 108.451 237.681 108.451C240.923 108.451 243.181 111.084 242.731 114.325C242.244 117.773 238.871 120.536 235.386 120.161Z" fill="#E9F8FF"/>
<path d="M176.789 139.937C175.468 139.937 174.55 138.869 174.737 137.549C174.925 136.228 176.142 135.16 177.463 135.16C178.784 135.16 179.702 136.228 179.515 137.549C179.337 138.869 178.11 139.937 176.789 139.937ZM177.37 135.862C176.442 135.862 175.58 136.621 175.449 137.549C175.318 138.476 175.964 139.235 176.892 139.235C177.819 139.235 178.681 138.476 178.812 137.549C178.943 136.621 178.297 135.862 177.37 135.862Z" fill="#E9F8FF"/>
<path d="M185.126 139.937C183.805 139.937 182.887 138.869 183.074 137.548C183.261 136.227 184.479 135.159 185.8 135.159C187.121 135.159 188.039 136.227 187.852 137.548C187.664 138.869 186.447 139.937 185.126 139.937ZM185.697 135.862C184.77 135.862 183.908 136.621 183.777 137.548C183.646 138.476 184.292 139.234 185.219 139.234C186.147 139.234 187.009 138.476 187.14 137.548C187.271 136.621 186.625 135.862 185.697 135.862Z" fill="#E9F8FF"/>
<path d="M329.041 186.338H325.781C325.574 186.338 325.425 186.169 325.453 185.954L325.912 182.693C325.94 182.487 326.136 182.309 326.343 182.309H329.603C329.809 182.309 329.959 182.478 329.931 182.693L329.472 185.954C329.453 186.16 329.256 186.338 329.041 186.338Z" fill="#E9F8FF"/>
<path d="M334.183 186.338H330.923C330.717 186.338 330.567 186.169 330.595 185.954L331.054 182.693C331.082 182.487 331.279 182.309 331.485 182.309H334.745C334.951 182.309 335.101 182.478 335.073 182.693L334.614 185.954C334.586 186.16 334.389 186.338 334.183 186.338Z" fill="#E9F8FF"/>
<path d="M339.561 186.338H336.3C336.094 186.338 335.945 186.169 335.973 185.954L336.432 182.693C336.46 182.487 336.656 182.309 336.863 182.309H340.123C340.329 182.309 340.479 182.478 340.451 182.693L339.992 185.954C339.963 186.16 339.767 186.338 339.561 186.338Z" fill="#E9F8FF"/>
<path d="M116.683 231.663H113.423C113.217 231.663 113.067 231.494 113.095 231.279L113.554 228.018C113.582 227.812 113.779 227.634 113.985 227.634H117.245C117.451 227.634 117.601 227.803 117.573 228.018L117.114 231.279C117.086 231.494 116.899 231.663 116.683 231.663Z" fill="#D2F0FC"/>
<path d="M122.061 231.661H118.801C118.594 231.661 118.445 231.492 118.473 231.277L118.932 228.016C118.96 227.81 119.157 227.632 119.363 227.632H122.623C122.829 227.632 122.979 227.801 122.951 228.016L122.492 231.277C122.463 231.492 122.267 231.661 122.061 231.661Z" fill="#D2F0FC"/>
<path d="M127.438 231.661H124.177C123.971 231.661 123.821 231.492 123.85 231.277L124.309 228.016C124.337 227.81 124.533 227.632 124.74 227.632H128C128.206 227.632 128.356 227.801 128.328 228.016L127.869 231.277C127.84 231.492 127.644 231.661 127.438 231.661Z" fill="#D2F0FC"/>
<path d="M162.727 116.798H159.467C159.261 116.798 159.111 116.629 159.139 116.414L159.598 113.154C159.626 112.948 159.823 112.77 160.029 112.77H163.289C163.495 112.77 163.645 112.938 163.617 113.154L163.158 116.414C163.13 116.629 162.943 116.798 162.727 116.798Z" fill="#A0D3FC"/>
<path d="M168.105 116.798H164.844C164.638 116.798 164.488 116.629 164.517 116.413L164.976 113.153C165.004 112.947 165.2 112.769 165.407 112.769H168.667C168.873 112.769 169.023 112.938 168.995 113.153L168.535 116.413C168.507 116.629 168.32 116.798 168.105 116.798Z" fill="#A0D3FC"/>
<path d="M173.482 116.798H170.222C170.016 116.798 169.866 116.629 169.894 116.413L170.353 113.153C170.381 112.947 170.578 112.769 170.784 112.769H174.044C174.25 112.769 174.4 112.938 174.372 113.153L173.913 116.413C173.885 116.629 173.697 116.798 173.482 116.798Z" fill="#A0D3FC"/>
<path d="M316.291 84.6841H313.031C312.825 84.6841 312.675 84.5154 312.703 84.3L313.162 81.0399C313.19 80.8338 313.387 80.6558 313.593 80.6558H316.853C317.059 80.6558 317.209 80.8244 317.181 81.0399L316.722 84.3C316.694 84.5154 316.507 84.6841 316.291 84.6841Z" fill="#E9F8FF"/>
<path d="M321.668 84.6838H318.408C318.202 84.6838 318.052 84.5152 318.08 84.2997L318.539 81.0396C318.567 80.8335 318.764 80.6555 318.97 80.6555H322.23C322.436 80.6555 322.586 80.8241 322.558 81.0396L322.099 84.2997C322.071 84.5152 321.884 84.6838 321.668 84.6838Z" fill="#E9F8FF"/>
<path d="M327.045 84.6838H323.785C323.579 84.6838 323.429 84.5152 323.457 84.2997L323.917 81.0396C323.945 80.8335 324.141 80.6555 324.347 80.6555H327.608C327.814 80.6555 327.964 80.8241 327.935 81.0396L327.476 84.2997C327.448 84.5152 327.261 84.6838 327.045 84.6838Z" fill="#E9F8FF"/>
<path d="M110.285 52.5222H107.025C106.819 52.5222 106.669 52.3536 106.697 52.1381L107.156 48.878C107.184 48.6719 107.381 48.4939 107.587 48.4939H110.847C111.053 48.4939 111.203 48.6625 111.175 48.878L110.716 52.1381C110.688 52.3536 110.491 52.5222 110.285 52.5222Z" fill="#E9F8FF"/>
<path d="M115.662 52.5222H112.402C112.195 52.5222 112.046 52.3536 112.074 52.1381L112.533 48.878C112.561 48.6719 112.758 48.4939 112.964 48.4939H116.224C116.43 48.4939 116.58 48.6625 116.552 48.878L116.093 52.1381C116.065 52.3536 115.868 52.5222 115.662 52.5222Z" fill="#E9F8FF"/>
<path d="M121.04 52.5222H117.78C117.574 52.5222 117.424 52.3536 117.452 52.1381L117.911 48.878C117.939 48.6719 118.136 48.4939 118.342 48.4939H121.602C121.808 48.4939 121.958 48.6625 121.93 48.878L121.471 52.1381C121.443 52.3536 121.246 52.5222 121.04 52.5222Z" fill="#E9F8FF"/>
<path d="M354.794 174.403C353.473 174.403 352.555 173.335 352.742 172.014C352.929 170.693 354.147 169.625 355.468 169.625C356.789 169.625 357.707 170.693 357.52 172.014C357.332 173.325 356.115 174.403 354.794 174.403ZM355.365 170.328C354.438 170.328 353.576 171.086 353.445 172.014C353.313 172.941 353.96 173.7 354.887 173.7C355.815 173.7 356.677 172.941 356.808 172.014C356.939 171.086 356.293 170.328 355.365 170.328Z" fill="#E9F8FF"/>
<path d="M357.164 219.923C357.005 221.047 355.965 221.955 354.841 221.955C353.717 221.955 352.93 221.047 353.089 219.923C353.248 218.798 354.288 217.89 355.412 217.89C356.536 217.88 357.323 218.789 357.164 219.923Z" fill="#A0D3FC"/>
<path d="M74.4046 279.785C74.2922 280.6 73.5334 281.265 72.7184 281.265C71.9033 281.265 71.3319 280.6 71.4443 279.785C71.5567 278.97 72.3155 278.305 73.1306 278.305C73.9456 278.305 74.517 278.97 74.4046 279.785Z" fill="#E9F8FF"/>
<path d="M140.375 181.054C140.262 181.869 139.504 182.535 138.689 182.535C137.874 182.535 137.302 181.869 137.415 181.054C137.527 180.239 138.286 179.574 139.101 179.574C139.916 179.574 140.487 180.239 140.375 181.054Z" fill="#E9F8FF"/>
<path d="M223.17 78.6509C223.086 79.2505 222.533 79.7376 221.934 79.7376C221.334 79.7376 220.922 79.2505 220.997 78.6509C221.081 78.0514 221.634 77.5642 222.234 77.5642C222.833 77.5642 223.255 78.0514 223.17 78.6509Z" fill="#E9F8FF"/>
<path d="M315.465 114.793H311.69C311.297 114.793 311.025 114.474 311.081 114.081C311.137 113.687 311.493 113.369 311.887 113.369H315.662C316.056 113.369 316.327 113.687 316.271 114.081C316.224 114.474 315.859 114.793 315.465 114.793Z" fill="#E9F8FF"/>
<path d="M313.32 116.676C312.927 116.676 312.655 116.357 312.711 115.964L313.245 112.189C313.302 111.795 313.658 111.477 314.051 111.477C314.445 111.477 314.716 111.795 314.66 112.189L314.126 115.964C314.07 116.357 313.704 116.676 313.32 116.676Z" fill="#E9F8FF"/>
<path d="M323.522 261.058H319.747C319.353 261.058 319.082 260.739 319.138 260.346C319.194 259.953 319.55 259.634 319.943 259.634H323.719C324.112 259.634 324.384 259.953 324.328 260.346C324.271 260.739 323.915 261.058 323.522 261.058Z" fill="#A0D3FC"/>
<path d="M321.377 262.941C320.984 262.941 320.712 262.623 320.768 262.229L321.302 258.454C321.358 258.06 321.714 257.751 322.108 257.751C322.501 257.751 322.773 258.07 322.717 258.454L322.183 262.229C322.126 262.623 321.761 262.941 321.377 262.941Z" fill="#A0D3FC"/>
<path d="M194.805 88.2902H191.03C190.636 88.2902 190.365 87.9717 190.421 87.5782C190.477 87.1847 190.833 86.8662 191.227 86.8662H195.002C195.395 86.8662 195.667 87.1847 195.611 87.5782C195.555 87.9717 195.189 88.2902 194.805 88.2902Z" fill="#E9F8FF"/>
<path d="M192.65 90.1734C192.257 90.1734 191.985 89.8548 192.041 89.4707L192.575 85.6954C192.631 85.3019 192.987 84.9834 193.381 84.9834C193.774 84.9834 194.046 85.3019 193.99 85.6954L193.456 89.4707C193.399 89.8548 193.043 90.1734 192.65 90.1734Z" fill="#E9F8FF"/>
<path d="M301.694 122.034L301.629 121.978C301.61 121.969 301.6 121.96 301.582 121.941L294.64 116.788L294.471 119.44C294.172 119.421 293.881 119.393 293.581 119.393H225.55C217.268 119.393 209.605 126.11 208.444 134.391L186.822 288.225C186.513 290.436 186.709 292.535 187.309 294.427L183.234 294.23L191.487 300.498C191.609 300.591 191.731 300.685 191.853 300.779L192.049 300.929L192.04 300.901C194.148 302.371 196.771 303.224 199.712 303.224H267.744C276.025 303.224 283.689 296.507 284.85 288.225L306.472 134.391C307.193 129.267 305.245 124.742 301.694 122.034Z" fill="#1B9ECC"/>
<path d="M260.578 297.903H192.546C184.265 297.903 178.494 291.186 179.656 282.905L201.277 129.07C202.439 120.789 210.102 114.072 218.383 114.072H286.415C294.696 114.072 300.467 120.789 299.306 129.07L277.674 282.914C276.513 291.196 268.859 297.903 260.578 297.903Z" fill="#D1EEFE"/>
<path d="M295.502 129.95L274.105 282.211C273.169 288.853 267.032 294.23 260.39 294.23H193.755C187.113 294.23 182.485 288.844 183.422 282.211L204.819 129.95C205.755 123.318 211.882 117.931 218.534 117.931H229.85C230.806 117.931 231.621 118.437 231.977 119.271L233.56 122.896C234.122 124.189 235.406 124.995 236.895 124.995H264.812C266.311 124.995 267.81 124.189 268.747 122.896L271.342 119.271C271.932 118.446 272.888 117.931 273.843 117.931H285.16C291.811 117.931 296.439 123.308 295.502 129.95Z" fill="white"/>
<path d="M258.77 121.913H239.302C238.581 121.913 238.085 121.332 238.178 120.611C238.281 119.89 238.947 119.309 239.668 119.309H259.135C259.856 119.309 260.353 119.89 260.25 120.611C260.156 121.332 259.491 121.913 258.77 121.913Z" fill="#1F7BA3"/>
<path d="M264.774 120.611C264.671 121.332 264.006 121.913 263.285 121.913C262.564 121.913 262.067 121.332 262.161 120.611C262.264 119.889 262.929 119.308 263.65 119.308C264.372 119.308 264.868 119.889 264.774 120.611Z" fill="#1F7BA3"/>
<path d="M300.758 144.696L300.936 144.34L299.652 144.799C298.94 145.071 298.369 145.726 298.256 146.495L295.633 165.128C295.474 166.271 296.289 167.207 297.441 167.207H297.451C297.657 167.207 297.863 167.17 298.05 167.104L299.24 166.692L298.865 166.627C299.221 166.299 299.465 165.868 299.54 165.39L302.163 146.747C302.322 145.726 301.704 144.874 300.758 144.696Z" fill="#0A617F"/>
<path d="M298.641 166.786H298.632C297.479 166.786 296.664 165.85 296.824 164.707L299.447 146.073C299.587 145.071 300.533 144.247 301.555 144.247C302.707 144.247 303.522 145.183 303.363 146.326L300.74 164.969C300.59 165.962 299.643 166.786 298.641 166.786Z" fill="#0583A5"/>
<path d="M297.085 169.773L297.263 169.417L295.979 169.876C295.267 170.148 294.696 170.804 294.583 171.572L291.96 190.205C291.801 191.348 292.616 192.285 293.768 192.285H293.778C293.984 192.285 294.19 192.247 294.377 192.182L295.567 191.77L295.192 191.704C295.548 191.376 295.792 190.945 295.867 190.467L298.49 171.825C298.649 170.804 298.031 169.961 297.085 169.773Z" fill="#0A617F"/>
<path d="M294.968 191.865H294.959C293.807 191.865 292.991 190.928 293.151 189.785L295.774 171.152C295.914 170.149 296.861 169.325 297.882 169.325C299.034 169.325 299.849 170.262 299.69 171.405L297.067 190.047C296.917 191.05 295.98 191.865 294.968 191.865Z" fill="#0583A5"/>
<path d="M282.321 157.1H209.877C208.219 157.1 207.058 155.751 207.292 154.092L210.233 133.164C210.468 131.506 212.004 130.157 213.662 130.157H286.106C287.764 130.157 288.926 131.506 288.692 133.164L285.75 154.092C285.516 155.751 283.979 157.1 282.321 157.1Z" stroke="#37A6CC" stroke-width="0.8513" stroke-miterlimit="10"/>
<path d="M264.241 282.98H191.797C190.139 282.98 188.977 281.631 189.212 279.972L192.153 259.044C192.387 257.386 193.924 256.037 195.582 256.037H268.026C269.684 256.037 270.846 257.386 270.612 259.044L267.67 279.972C267.436 281.631 265.899 282.98 264.241 282.98Z" fill="#E6F9FF"/>
<path d="M261.626 226.096H261.439L261.72 224.072C262.188 220.746 259.865 218.039 256.539 218.039C253.213 218.039 250.131 220.746 249.663 224.072L249.382 226.096H249.344C248.408 226.096 247.546 226.854 247.415 227.791L246.337 235.426C246.206 236.363 246.852 237.122 247.789 237.122H260.071C261.008 237.122 261.87 236.363 262.001 235.426L263.078 227.791C263.209 226.854 262.563 226.096 261.626 226.096ZM251.19 224.072C251.537 221.59 253.841 219.566 256.324 219.566C258.806 219.566 260.539 221.59 260.193 224.072L259.912 226.096H250.909L251.19 224.072Z" fill="#71B8FF"/>
<path d="M256.913 230.021C257.082 228.803 256.108 227.838 254.815 228.091C254.047 228.241 253.344 228.85 253.082 229.59C252.773 230.49 253.082 231.305 253.719 231.707C253.85 231.792 253.906 231.942 253.841 232.101L253.325 233.366C253.016 234.115 253.475 234.855 254.253 234.855C255.03 234.855 255.705 234.115 255.602 233.366L255.443 232.12C255.424 231.96 255.527 231.801 255.686 231.726C256.323 231.389 256.81 230.752 256.913 230.021Z" fill="white"/>
<path d="M260.671 239.792H246.459C246.056 239.792 245.775 239.464 245.831 239.071C245.888 238.668 246.262 238.349 246.656 238.349H260.867C261.27 238.349 261.551 238.677 261.495 239.071C261.439 239.464 261.064 239.792 260.671 239.792Z" fill="#71B8FF"/>
<path d="M260.324 242.247H246.103C245.7 242.247 245.419 241.919 245.475 241.526C245.532 241.123 245.906 240.804 246.3 240.804H260.511C260.914 240.804 261.195 241.132 261.139 241.526C261.092 241.928 260.717 242.247 260.324 242.247Z" fill="#71B8FF"/>
<path d="M268.428 249.442H236.483C234.825 249.442 233.672 248.102 233.907 246.444L238.394 214.499C238.628 212.84 240.155 211.501 241.813 211.501H273.759C275.417 211.501 276.569 212.84 276.335 214.499L271.848 246.444C271.613 248.102 270.077 249.442 268.428 249.442Z" stroke="#37A6CC" stroke-width="0.8513" stroke-miterlimit="10"/>
<path d="M240.37 171.733L238.608 170.356L238.046 171.377H208.79C207.609 171.377 206.522 172.333 206.354 173.513L202.578 200.362L201.08 200.924L203.15 202.573V202.564C203.468 202.817 203.871 202.976 204.34 202.976H234.796C235.976 202.976 237.063 202.021 237.231 200.84L241.072 173.513C241.185 172.764 240.894 172.117 240.37 171.733Z" fill="#0A9ABC"/>
<path d="M239.163 172.014L235.322 199.341C235.154 200.521 234.067 201.477 232.887 201.477H202.431C201.25 201.477 200.426 200.521 200.595 199.341L204.436 172.014C204.604 170.834 205.691 169.878 206.871 169.878H237.327C238.508 169.878 239.332 170.834 239.163 172.014Z" fill="#A9E2FC"/>
<path d="M220.566 201.468H202.429C201.249 201.468 200.425 200.512 200.593 199.332L202.617 184.905L207.32 178.356C208.191 177.148 209.943 177.148 210.467 178.356L218.43 196.577L220.566 201.468Z" fill="white"/>
<path d="M235.592 197.411L235.32 199.332C235.152 200.512 234.065 201.468 232.885 201.468H214.926L218.429 196.587L226.917 184.764C227.788 183.556 229.54 183.556 230.065 184.764L235.592 197.411Z" fill="white"/>
<path d="M233.972 176.53C233.625 179.031 231.311 181.055 228.81 181.055C226.309 181.055 224.575 179.031 224.922 176.53C225.269 174.028 227.583 172.005 230.084 172.005C232.585 172.014 234.328 174.038 233.972 176.53Z" fill="white"/>
<path d="M278.133 199.584H254.975C254.375 199.584 253.963 199.097 254.047 198.507C254.131 197.907 254.684 197.43 255.284 197.43H278.442C279.041 197.43 279.453 197.917 279.369 198.507C279.275 199.107 278.732 199.584 278.133 199.584Z" fill="#A9E2FC"/>
<path d="M245.27 194.834H270.002C270.602 194.834 271.155 194.347 271.239 193.757C271.323 193.157 270.911 192.68 270.311 192.68H245.58C244.98 192.68 244.427 193.167 244.343 193.757C244.259 194.347 244.671 194.834 245.27 194.834Z" fill="#A9E2FC"/>
<path d="M265.487 175.901H247.941C247.341 175.901 246.929 175.414 247.013 174.824C247.098 174.224 247.65 173.747 248.25 173.747H265.796C266.396 173.747 266.808 174.234 266.724 174.824C266.63 175.414 266.087 175.901 265.487 175.901Z" fill="#A9E2FC"/>
<path d="M253.879 180.651H247.266C246.666 180.651 246.254 180.164 246.338 179.574C246.422 178.974 246.975 178.497 247.575 178.497H254.189C254.788 178.497 255.2 178.984 255.116 179.574C255.022 180.164 254.47 180.651 253.879 180.651Z" fill="#A9E2FC"/>
<path d="M280.794 180.651H257.636C257.037 180.651 256.624 180.164 256.709 179.574C256.793 178.974 257.346 178.497 257.945 178.497H281.103C281.703 178.497 282.115 178.984 282.031 179.574C281.946 180.164 281.394 180.651 280.794 180.651Z" fill="#A9E2FC"/>
<path d="M281.459 175.901H269.421C268.821 175.901 268.409 175.414 268.493 174.824C268.578 174.224 269.13 173.747 269.73 173.747H281.768C282.368 173.747 282.78 174.234 282.695 174.824C282.611 175.414 282.058 175.901 281.459 175.901Z" fill="#A9E2FC"/>
<path d="M247.762 185.401H246.6C246 185.401 245.588 184.914 245.673 184.323C245.757 183.724 246.31 183.246 246.909 183.246H248.071C248.67 183.246 249.083 183.733 248.998 184.323C248.905 184.923 248.352 185.401 247.762 185.401Z" fill="#A9E2FC"/>
<path d="M264.419 185.401H251.275C250.676 185.401 250.264 184.914 250.348 184.323C250.432 183.724 250.985 183.246 251.584 183.246H264.728C265.328 183.246 265.74 183.733 265.655 184.323C265.571 184.923 265.018 185.401 264.419 185.401Z" fill="#A9E2FC"/>
<path d="M252.54 190.16H245.926C245.326 190.16 244.914 189.673 244.998 189.083C245.083 188.483 245.635 188.005 246.235 188.005H252.849C253.448 188.005 253.861 188.493 253.776 189.083C253.692 189.673 253.139 190.16 252.54 190.16Z" fill="#A9E2FC"/>
<path d="M279.455 190.16H256.297C255.697 190.16 255.285 189.673 255.369 189.083C255.454 188.483 256.006 188.005 256.606 188.005H279.764C280.364 188.005 280.776 188.493 280.691 189.083C280.607 189.673 280.054 190.16 279.455 190.16Z" fill="#A9E2FC"/>
<path d="M280.129 185.401H268.091C267.492 185.401 267.079 184.914 267.164 184.323C267.248 183.724 267.801 183.246 268.4 183.246H280.438C281.038 183.246 281.45 183.733 281.366 184.323C281.272 184.923 280.72 185.401 280.129 185.401Z" fill="#A9E2FC"/>
<path d="M273.628 194.834H278.799C279.399 194.834 279.951 194.347 280.036 193.757C280.12 193.157 279.708 192.68 279.108 192.68H273.937C273.337 192.68 272.785 193.167 272.7 193.757C272.616 194.347 273.028 194.834 273.628 194.834Z" fill="#A9E2FC"/>
<path d="M251.209 199.584H244.605C244.005 199.584 243.593 199.097 243.677 198.507C243.762 197.907 244.314 197.43 244.914 197.43H251.528C252.128 197.43 252.54 197.917 252.455 198.507C252.362 199.107 251.809 199.584 251.209 199.584Z" fill="#A9E2FC"/>
<path d="M218.364 237.375H205.174C201.342 237.375 198.654 234.246 199.188 230.414C199.722 226.583 203.3 223.454 207.132 223.454H220.322C224.154 223.454 226.842 226.583 226.309 230.414C225.765 234.237 222.196 237.375 218.364 237.375Z" fill="#A9E2FC"/>
<path d="M207.02 234.303C206.795 234.303 206.57 234.209 206.411 234.022L203.703 230.874C203.422 230.546 203.45 230.04 203.778 229.75L207.244 226.705C207.572 226.415 208.078 226.443 208.369 226.78C208.659 227.108 208.622 227.614 208.294 227.904L205.418 230.424L207.61 232.972C207.9 233.31 207.863 233.806 207.525 234.097C207.394 234.237 207.207 234.303 207.02 234.303Z" fill="white"/>
<path d="M217.606 234.302C217.382 234.302 217.166 234.209 217.007 234.031C216.716 233.703 216.754 233.197 217.082 232.907L220.08 230.283L217.981 227.838C217.691 227.501 217.728 227.005 218.065 226.714C218.393 226.424 218.899 226.461 219.19 226.799L221.803 229.843C222.084 230.171 222.056 230.677 221.728 230.967L218.14 234.115C217.981 234.237 217.794 234.302 217.606 234.302Z" fill="white"/>
<path d="M211.33 234.303C211.217 234.303 211.095 234.275 210.992 234.228C210.599 234.041 210.421 233.563 210.618 233.169L213.55 226.977C213.737 226.584 214.215 226.406 214.609 226.602C215.002 226.79 215.18 227.267 214.983 227.661L212.051 233.853C211.911 234.134 211.62 234.303 211.33 234.303Z" fill="white"/>
<path d="M143.466 216.813H102.949C102.34 216.813 101.909 216.316 101.993 215.707L105.3 192.203C105.385 191.594 105.956 191.097 106.565 191.097H147.082C147.691 191.097 148.122 191.594 148.038 192.203L144.731 215.707C144.637 216.316 144.075 216.813 143.466 216.813Z" fill="#E9F8FF"/>
<path d="M143.007 212.756H104.542C104.008 212.756 103.633 212.325 103.708 211.791L106.331 193.12C106.406 192.586 106.902 192.155 107.427 192.155H145.893C146.427 192.155 146.801 192.586 146.726 193.12L144.103 211.791C144.038 212.316 143.541 212.756 143.007 212.756Z" fill="#77BDE0"/>
<path d="M141.845 220.747H103.463C102.911 220.747 102.517 220.297 102.592 219.735C102.667 219.182 103.182 218.723 103.744 218.723H142.126C142.678 218.723 143.072 219.173 142.997 219.735C142.913 220.297 142.397 220.747 141.845 220.747Z" fill="#77BDE0"/>
<path opacity="0.31" d="M142.829 215.51H103.942C103.52 215.51 103.23 215.173 103.295 214.752C103.352 214.33 103.736 213.993 104.157 213.993H143.044C143.466 213.993 143.756 214.33 143.691 214.752C143.635 215.173 143.251 215.51 142.829 215.51Z" fill="#77BDE0"/>
<path d="M120.542 215.51H103.942C103.52 215.51 103.23 215.173 103.295 214.752C103.352 214.33 103.736 213.993 104.157 213.993H120.758C121.179 213.993 121.47 214.33 121.404 214.752C121.338 215.173 120.954 215.51 120.542 215.51Z" fill="#77BDE0"/>
<path opacity="0.2" d="M130.195 207.766C133.575 204.615 134.095 199.68 131.357 196.743C128.62 193.806 123.66 193.98 120.281 197.13C116.901 200.281 116.381 205.216 119.118 208.152C121.856 211.089 126.815 210.916 130.195 207.766Z" fill="white"/>
<path d="M124.177 199.079L128.655 201.899C129.049 202.142 128.964 202.76 128.496 203.013L123.222 205.833C122.762 206.077 122.266 205.768 122.332 205.28L123.128 199.65C123.212 199.144 123.784 198.835 124.177 199.079Z" fill="white"/>
<path d="M122.734 214.76C122.622 215.585 121.853 216.259 121.029 216.259C120.205 216.259 119.624 215.585 119.746 214.76C119.858 213.936 120.626 213.261 121.451 213.261C122.275 213.261 122.846 213.927 122.734 214.76Z" fill="#274F89"/>
<path d="M361.398 273.856L342.249 285.688L326.426 273.856H361.398Z" fill="#B8E6F4"/>
<path d="M361.398 273.856L347.542 257.368C346.924 256.637 345.743 256.637 344.919 257.368L326.426 273.856H361.398Z" fill="#B8E6F4"/>
<path d="M356.16 290.719H326.932L330.763 263.448C330.894 262.549 331.719 261.818 332.618 261.818H358.587C359.486 261.818 360.114 262.549 359.992 263.448L356.16 290.719Z" fill="#D1EEFE"/>
<path d="M359.673 265.687H330.444L330.763 263.448C330.894 262.549 331.718 261.818 332.618 261.818H358.586C359.486 261.818 360.113 262.549 359.991 263.448L359.673 265.687Z" fill="#01BBEC"/>
<path d="M333.882 263.748C333.816 264.207 333.395 264.572 332.945 264.572C332.495 264.572 332.177 264.207 332.242 263.748C332.308 263.289 332.73 262.923 333.179 262.923C333.629 262.933 333.947 263.298 333.882 263.748Z" fill="white"/>
<path d="M336.581 263.748C336.515 264.207 336.094 264.572 335.644 264.572C335.185 264.572 334.876 264.207 334.932 263.748C334.997 263.289 335.419 262.923 335.869 262.923C336.328 262.933 336.646 263.298 336.581 263.748Z" fill="white"/>
<path d="M339.279 263.748C339.213 264.207 338.792 264.572 338.342 264.572C337.883 264.572 337.574 264.207 337.64 263.748C337.705 263.289 338.127 262.923 338.576 262.923C339.026 262.933 339.335 263.298 339.279 263.748Z" fill="white"/>
<path d="M337.996 275.524H333.527L332.356 277.594H330.642L335.926 268.647H337.565L340.348 277.594H338.614L337.996 275.524ZM337.631 274.222L336.497 270.315L334.277 274.222H337.631Z" fill="white"/>
<path d="M356.854 269.322H343.598L343.72 268.488H356.967L356.854 269.322Z" fill="white"/>
<path d="M356.535 271.58H343.279L343.401 270.746H356.647L356.535 271.58Z" fill="white"/>
<path d="M356.217 273.828H342.97L343.083 273.004H356.329L356.217 273.828Z" fill="white"/>
<path d="M355.897 276.086H342.651L342.763 275.252H356.019L355.897 276.086Z" fill="white"/>
<path d="M355.579 278.344H342.333L342.454 277.51H355.701L355.579 278.344Z" fill="white"/>
<path d="M355.27 280.592H330.697L330.81 279.758H355.382L355.27 280.592Z" fill="white"/>
<path d="M354.952 282.85H330.379L330.491 282.016H355.064L354.952 282.85Z" fill="white"/>
<path d="M354.633 285.098H330.061L330.182 284.264H354.746L354.633 285.098Z" fill="white"/>
<path d="M354.315 287.356H329.742L329.864 286.522H354.437L354.315 287.356Z" fill="white"/>
<path d="M361.397 273.856L358.362 295.422C358.268 296.059 357.903 296.64 357.397 297.014C356.985 297.333 356.488 297.511 355.973 297.511H325.208C324.046 297.511 323.231 296.565 323.4 295.412L326.435 273.847L342.258 285.679H342.267L361.397 273.856Z" fill="white"/>
<path d="M361.397 273.856L358.362 295.422C358.268 296.059 357.903 296.64 357.397 297.014L342.258 285.679L361.397 273.856Z" fill="#E9F8FF"/>
<path d="M331.279 158.656L333.405 156.791L331.803 154.927" stroke="#41B3CE" stroke-width="0.7183" stroke-miterlimit="10" stroke-linecap="round" stroke-linejoin="round"/>
<path d="M333.405 156.791H325.452" stroke="#41B3CE" stroke-width="0.7183" stroke-miterlimit="10" stroke-linecap="round" stroke-dasharray="2.04 2.04"/>
<path d="M317.837 150.87L317.818 151.039C317.762 151.47 317.359 151.817 316.928 151.817H311.345C310.914 151.817 310.52 152.163 310.455 152.594L309.387 160.182C309.33 160.613 309.63 160.96 310.052 160.96H321.425C321.856 160.96 322.249 160.613 322.315 160.182L323.626 150.87C323.692 150.421 323.373 150.065 322.933 150.065H318.764C318.315 150.065 317.902 150.421 317.837 150.87Z" fill="#5699E8"/>
<path d="M320.431 160.201L320.403 159.967L319.813 155.03C319.757 154.561 319.382 154.233 318.895 154.233H309.105C308.777 154.233 308.487 154.543 308.524 154.87L309.152 160.079C309.217 160.604 309.639 160.969 310.173 160.969H320.085H320.515H321.359C320.693 160.96 320.487 160.491 320.431 160.201Z" fill="#71B8FF"/>
<path d="M344.489 150.87L344.47 151.039C344.414 151.47 344.011 151.817 343.58 151.817H337.996C337.566 151.817 337.172 152.163 337.106 152.594L336.039 160.182C335.982 160.613 336.282 160.96 336.704 160.96H348.077C348.508 160.96 348.901 160.613 348.967 160.182L350.278 150.87C350.344 150.421 350.025 150.065 349.585 150.065H345.416C344.957 150.065 344.545 150.421 344.489 150.87Z" fill="#5699E8"/>
<path d="M347.074 160.201L347.046 159.967L346.455 155.03C346.399 154.561 346.024 154.233 345.537 154.233H335.757C335.429 154.233 335.139 154.543 335.176 154.87L335.804 160.079C335.869 160.604 336.291 160.969 336.825 160.969H346.736H347.167H348.01C347.345 160.96 347.139 160.491 347.074 160.201Z" fill="#71B8FF"/>
<path d="M304.327 319.544L300.758 321.136L298.209 320.986L297.582 316.171L297.301 314.016L303.1 312.789L303.737 312.658L303.755 312.93L303.943 316.93L304.008 318.251L304.327 319.544Z" fill="#FEB3B0"/>
<path d="M303.887 315.646C301.301 315.871 298.547 315.384 297.451 315.159L297.301 314.016L303.1 312.789C303.334 312.845 303.549 312.892 303.755 312.929L303.887 315.646Z" fill="#E87C7C"/>
<path d="M274.939 311.74L274.799 312.405L273.899 316.611L273.834 316.93C273.647 317.792 273.656 318.682 273.871 319.534L270.302 321.118L267.745 320.968L267.923 314.963L267.969 313.333L273.75 312.002L274.939 311.74Z" fill="#FEB3B0"/>
<path d="M274.8 312.406L274.153 315.451C271.221 315.348 268.664 314.055 267.942 313.661L267.98 312.331L273.741 312.022C274.107 312.144 274.463 312.275 274.8 312.406Z" fill="#E87C7C"/>
<path d="M267.772 319.834C267.772 319.834 256.409 323.89 258.442 325.099C258.835 325.333 274.115 325.876 274.78 324.958C275.445 324.04 273.862 319.553 273.862 319.553C273.862 319.553 271.838 320.508 267.772 319.834Z" fill="#122835"/>
<path d="M296.383 240.729L281.759 242.744C281.759 242.744 274.724 257.227 271.417 268C271.36 268.066 269.393 274.314 269.131 276.675C268.484 282.689 267.37 312.827 267.37 312.827C267.37 312.827 270.826 314.494 275.267 313.67C275.267 313.67 279.033 298.128 280.054 293.641C281.478 287.336 281.478 278.642 281.478 278.642C281.478 278.642 296.336 257.03 298.022 253.236C299.699 249.451 296.383 240.729 296.383 240.729Z" fill="#002774"/>
<path d="M290.312 257.012L283.839 275.195L293.816 260.534L290.312 257.012Z" fill="#0A2530"/>
<path d="M310.257 251.307C310.257 251.307 302.388 277.116 301.901 279.083C301.414 281.051 303.746 283.383 304.486 290.634C305.226 297.885 304.477 313.877 304.477 313.877C304.477 313.877 299.98 314.823 296.345 314.317C296.345 314.317 288.692 282.709 289.001 278.221C289.31 273.734 291.024 245.349 291.024 245.349" fill="#002774"/>
<path d="M291.952 226.499L290.247 233.113C284.523 231.408 273.197 227.052 273.197 227.052C273.197 227.052 271.361 226.237 270.143 226.508C269.984 226.546 269.806 226.565 269.609 226.565C268.775 226.64 267.126 226.743 266.04 226.546C265.131 226.377 261.693 224.12 261.252 222.508C260.812 220.897 262.667 220.11 263.304 220.316C263.932 220.532 264.578 221.103 267.042 221.665C268.026 221.862 268.972 222.077 269.272 221.862C269.656 221.59 267.857 221.3 267.033 220.963C266.208 220.625 266.105 220.026 267.389 219.951C268.672 219.876 270.386 220.035 271.164 220.972C271.932 221.909 273.843 222.555 273.843 222.555C273.843 222.555 286.219 224.86 291.924 226.499C291.933 226.499 291.942 226.499 291.952 226.499Z" fill="#FEB3B0"/>
<path d="M311.287 229.853C311.259 231.726 311.212 233.647 311.156 235.549C310.922 242.875 310.5 249.976 310.266 253.217C308.458 253.564 302.106 253.236 296.233 252.402C290.256 251.549 285.394 249.798 279.688 246.285C279.688 246.285 283.248 231.37 284.269 226.059C284.335 225.731 284.391 225.431 284.429 225.169C284.447 225.103 284.457 225.028 284.466 224.953C284.944 222.546 286.246 216.691 288.56 211.875C291.239 206.311 294.218 205.936 294.818 205.917C297.647 207.538 301.797 208.887 306.744 210.789C307.812 211.201 309.011 211.716 310.266 212.288C310.257 212.297 310.257 212.297 310.257 212.297C310.257 212.297 311.222 217.225 311.297 224.616C311.315 226.274 311.306 228.035 311.287 229.853Z" fill="#F15A25"/>
<path d="M311.287 229.853C311.259 231.727 311.213 233.647 311.156 235.549C310.107 237.638 308.936 239.737 308.177 240.392C306.528 241.845 305.039 241.554 305.039 241.554L308.814 233.113C302.631 229.966 302.229 227.099 302.229 227.099L311.287 229.853Z" fill="#0C2D3D"/>
<path d="M304.965 207.351C304.674 208.878 305.864 210.067 306.745 210.789C306.52 211.182 305.639 212.316 305.058 212.756C298.295 217.843 293.957 212.784 294.191 208.971C294.266 207.754 294.613 206.227 294.931 205.917C295.606 206.124 296.393 206.189 296.974 205.299C297.133 205.056 297.273 204.746 297.395 204.353L297.414 204.344C296.402 204.063 294.847 203.463 294.163 202.507C291.98 199.463 296.983 188.877 296.983 188.877C300.449 181.129 310.323 186.254 310.81 190.582C311.12 193.289 310.117 196.493 308.431 199.2C308.356 199.313 305.405 205.121 304.965 207.351Z" fill="#FEB3B0"/>
<path d="M301.236 203.791C301.236 203.791 299.709 205.636 296.983 205.299C297.142 205.055 297.283 204.746 297.404 204.353L297.423 204.344C297.414 204.344 299.316 204.69 301.236 203.791Z" fill="#E87C7C"/>
<path d="M286.621 204.138L286.518 204.531C286.246 205.562 285.197 206.171 284.166 205.899L270.817 202.367C269.786 202.095 268.737 202.704 268.465 203.735L263.669 221.881C263.397 222.911 264.006 223.961 265.036 224.232L292.213 231.427C293.244 231.699 294.293 231.09 294.565 230.059L300.457 207.81C300.738 206.742 300.101 205.646 299.033 205.365L289.075 202.733C287.998 202.433 286.902 203.07 286.621 204.138Z" fill="#E28B2D"/>
<path d="M293.094 211.988L293.028 231.193L267.771 224.504C266.282 224.111 265.251 221.31 265.261 219.773L265.317 204.4C265.317 203.463 266.216 202.77 267.134 203.014L291.089 209.356C292.269 209.674 293.103 210.752 293.094 211.988Z" fill="#FFECD7"/>
<path d="M291.951 213.291L291.885 231.053L266.629 224.364C265.139 223.971 264.109 222.612 264.118 221.076L264.174 205.703C264.174 204.766 265.074 204.073 265.992 204.316L289.946 210.658C291.127 210.977 291.96 212.054 291.951 213.291Z" fill="#FFFAF5"/>
<path d="M290.049 228.907V228.298L290.096 215.679C290.096 214.489 289.3 213.44 288.147 213.131L264.755 206.939C263.968 206.732 263.191 207.323 263.181 208.147L263.134 221.45C263.125 222.78 264.024 223.951 265.317 224.298L289.019 230.565L290.049 230.837L292.073 231.371C290.461 230.958 290.115 229.675 290.049 228.907Z" fill="#F49F38"/>
<path d="M311.362 188.793C311.465 187.959 311.128 187.078 310.584 186.291C310.584 186.291 308.655 183.191 307.53 182.572C306.397 181.945 306.125 183.022 306.125 183.022C306.125 183.022 303.98 180.361 302.303 180.361C300.767 180.361 300.72 182.066 300.72 182.066C300.72 182.066 298.144 179.64 296.232 180.895C294.125 182.272 294.771 184.961 295.82 187.153C297.656 191.004 302.097 193.074 306.191 193.936L305.057 196.737C305.057 196.737 304.617 197.833 304.898 197.936C305.095 198.011 305.797 197.074 305.797 197.074C305.797 197.074 306.753 195.725 307.737 196.193C309.694 197.121 306.912 202.292 306.912 202.292C306.912 202.292 311.034 198.03 312.767 195.388C314.06 193.439 314.294 189.926 311.362 188.793Z" fill="#0E273A"/>
<path d="M307.475 198.695C306.941 199.454 305.798 199.95 305.517 199.5C305.348 199.238 305.526 198.788 305.76 198.376C305.938 198.151 306.407 198.329 306.641 197.955C306.884 197.561 306.566 197.346 306.763 197.121C306.978 196.952 307.212 196.83 307.4 196.877C307.784 196.99 308.112 197.795 307.475 198.695Z" fill="#E87C7C"/>
<path d="M311.822 229.085C311.766 228.776 311.728 228.476 311.738 228.176C311.766 228.467 311.794 228.776 311.822 229.085Z" fill="#12364C"/>
<path d="M311.737 229.863C311.737 229.863 311.625 230.134 311.428 230.603C311.147 231.268 310.688 232.326 310.163 233.516C308.945 236.233 307.334 239.624 306.407 240.655C304.795 242.444 299.081 238.978 299.83 235.249C300.242 233.244 301.591 230.453 302.762 228.307C303.109 227.67 303.437 227.09 303.718 226.602C304.261 225.666 304.636 225.075 304.636 225.075L309.601 228.42L310.397 228.963L311.737 229.863Z" fill="#FEB3B0"/>
<path d="M311.428 230.603C311.147 231.268 310.688 232.326 310.163 233.516C305.488 232.13 302.762 228.307 302.762 228.307C303.109 227.67 303.437 227.089 303.718 226.602L305.338 226.874L309.601 228.42L310.163 228.626C310.163 228.626 310.257 228.748 310.397 228.963C310.65 229.328 311.053 229.937 311.428 230.603Z" fill="#E87C7C"/>
<path d="M306.632 240.374L303.409 233.544C303.409 233.544 298.257 231.68 291.381 230.453C289.31 230.087 286.903 229.563 285.188 229.16C284.898 229.066 283.633 228.71 283.221 227.961C282.743 227.099 282.743 226.396 282.331 225.787C281.919 225.169 281.638 224.186 281.31 223.67C280.982 223.164 280.57 223.792 280.673 224.476C280.776 225.197 280.954 226.069 280.729 226.368C280.504 226.659 279.211 225.769 278.818 225.769C278.424 225.769 277.132 228.57 277.31 229.844C277.488 231.118 280.008 231.324 280.682 231.418C281.338 231.511 283.755 232.654 283.858 232.701C287.765 234.556 296.346 238.659 298.978 240.008C302.398 241.779 305.058 242.547 306.632 240.374Z" fill="#FEB3B0"/>
<path d="M310.267 212.288C310.267 212.288 313.986 213.89 315.204 217.197C316.422 220.504 311.738 231.699 311.738 231.699C311.738 231.699 304.918 229.788 302.22 227.099C302.576 224.86 310.267 212.288 310.267 212.288Z" fill="#F15A25"/>
<path d="M279.173 225.881C279.173 225.881 277.524 225.225 276.466 224.86C275.398 224.494 275.201 224.026 274.461 224.26C273.721 224.504 273.749 226.565 274.171 227.623C274.751 229.085 277.993 230.734 277.993 230.734L279.042 228.757L279.173 225.881Z" fill="#FEB3B0"/>
<path d="M298.098 320.18C298.098 320.18 286.725 323.89 288.757 325.099C289.151 325.333 304.571 325.876 305.236 324.958C305.901 324.04 304.318 319.553 304.318 319.553C304.318 319.553 300.374 320.461 298.098 320.18Z" fill="#122835"/>
<path d="M212.116 168.229L146.867 174.113C145.733 174.216 144.731 173.382 144.628 172.248L142.951 153.596C142.848 152.463 143.682 151.46 144.815 151.357L210.064 145.474C211.198 145.371 212.2 146.205 212.303 147.338L213.98 165.99C214.083 167.124 213.25 168.126 212.116 168.229Z" fill="#A0D3FC"/>
<path d="M178.642 235.521C178.642 235.521 178.38 237.807 175.073 238.088C159.391 239.381 155.091 233.751 152.665 232.505L173.546 232.411C173.546 232.402 178.493 233.133 178.642 235.521Z" fill="#C17B0A"/>
<path d="M175.711 245.526L167.589 245.695L156.741 243.475L152.216 241.976C153.199 240.664 154.314 236.982 155.064 234.134C155.607 232.083 155.963 230.472 155.963 230.472L164.113 229.6L168.029 229.179C168.029 229.179 173.191 228.457 174.353 231.268C174.521 231.671 174.606 232.139 174.578 232.701C174.521 233.975 174.587 235.568 174.718 237.198C175.037 241.254 175.711 245.526 175.711 245.526Z" fill="#E49191"/>
<path d="M174.719 237.198C174.719 237.198 173.754 235.652 169.651 234.772C161.098 232.935 155.064 234.135 155.064 234.135C155.608 232.083 155.964 230.472 155.964 230.472L164.114 229.6C167.496 230.013 171.899 230.584 173.211 230.903C173.66 231.015 174.035 231.137 174.353 231.268C174.522 231.671 174.606 232.139 174.578 232.701C174.522 233.975 174.588 235.568 174.719 237.198Z" fill="#C55F60"/>
<path d="M193.661 175.285C193.661 175.285 193.726 174.311 193.792 173.299C193.857 172.372 193.436 171.763 193.398 171.538C193.295 170.938 193.398 169.917 193.398 169.917L194.701 169.795C194.701 169.795 195.253 168.999 195.797 167.968C195.946 167.687 196.04 167.388 196.04 167.069C196.04 166.254 196.068 166.16 196.115 165.683C196.171 165.027 196.705 164.783 196.902 165.561C197.089 166.282 197.071 167.285 197.071 167.659C197.071 168.043 196.377 169.683 196.377 169.683C196.377 169.683 198.373 170.835 198.429 171.21C198.485 171.594 197.567 173.121 196.865 175.875" fill="#E49191"/>
<path d="M196.79 165.832C196.79 165.832 196.584 164.913 197.005 164.801C197.352 164.707 197.549 165.429 197.652 165.832C197.755 166.225 197.942 167.49 198.017 167.911C198.092 168.333 197.109 170.797 197.109 170.797L195.984 169.804L196.537 166.928" fill="#E49191"/>
<path d="M197.567 166.384C197.567 166.384 197.511 165.709 197.829 165.559C198.148 165.409 198.326 165.981 198.429 166.384C198.532 166.777 198.719 168.042 198.794 168.464C198.869 168.885 197.885 171.349 197.885 171.349L196.761 170.356L197.314 167.48" fill="#E49191"/>
<path d="M198.804 166.74C198.748 167.106 198.898 167.686 198.935 167.949C198.973 168.249 198.617 168.895 198.617 168.895L197.876 171.021L198.242 171.94L199.394 169.26L199.591 168.717C199.694 168.398 199.713 168.061 199.638 167.733C199.469 167.031 199.141 165.953 198.804 166.74Z" fill="#E49191"/>
<path d="M159.186 178.507C159.186 178.507 160.291 175.743 160.273 175.387C160.254 175.031 159.57 173.186 159.467 172.83C159.373 172.474 159.523 170.244 159.814 169.832C160.104 169.42 160.404 169.71 160.516 170.122C160.638 170.535 160.722 171.368 160.704 171.631C160.685 171.893 161.331 172.802 161.331 172.802L164.563 172.511L165.706 172.408C165.706 172.408 165.5 173.42 165.266 174.029C165.032 174.647 164.563 175.022 164.235 175.331C163.917 175.64 163.064 177.973 162.783 178.863" fill="#E49191"/>
<path d="M148.037 305.276L146.52 308.63L146.164 309.436L144.805 312.443C142.829 312.555 140.543 311.038 140.543 311.038L141.227 308.396L141.648 306.757L142.557 303.234L148.037 305.276Z" fill="#E49191"/>
<path d="M146.52 308.63L146.164 309.436C144.15 309.586 142.051 308.762 141.227 308.396L141.649 306.757L145.518 307.628L146.52 308.63Z" fill="#C55F60"/>
<path d="M159.148 177.869C159.148 177.869 161.79 178.113 163.308 178.731C163.308 178.731 161.453 190.142 159.617 194.535C158.146 198.067 160.956 207.566 160.956 207.566L155.607 211.201C155.607 211.201 153.106 198.348 152.797 195.144C152.487 191.94 159.148 177.869 159.148 177.869Z" fill="#FFA401"/>
<path d="M176.442 309.314L176.274 310.579L175.927 313.305L175.599 315.797C173.426 316.519 171.093 315.797 171.093 315.797L170.934 313.483L170.709 310.307L170.644 309.314H176.442Z" fill="#E49191"/>
<path d="M176.273 310.579L175.927 313.305C174.297 313.699 171.983 313.568 170.933 313.483L170.708 310.308C172.142 310.326 175.074 310.467 176.273 310.579Z" fill="#C55F60"/>
<path d="M169.959 317.558C169.959 317.558 169.968 315.928 171.261 315.123C171.261 315.123 172.095 314.514 173.706 315.076C174.221 315.254 175.14 315.928 175.599 315.788C175.599 315.788 176.432 317.483 177.407 319.441C177.856 320.341 178.437 321.596 179.187 322.421C180.498 322.805 181.276 323.638 181.454 324.303C181.679 325.156 181.594 325.39 179.187 325.39C179.187 325.39 175.898 324.585 174.99 323.657C174.081 322.72 169.959 317.558 169.959 317.558Z" fill="#2B37A5"/>
<path d="M175.281 325.39C174.203 325.39 173.201 324.828 172.648 323.901C171.646 322.214 170.278 319.563 170.025 318.814C169.145 316.21 172.573 316.359 173.417 317.287C174.138 318.093 175.178 320.182 176.124 322.046C177.07 323.91 177.754 325.016 179.187 325.4H175.281V325.39Z" fill="#202D74"/>
<path d="M175.711 245.526L175.065 240.702C175.065 240.702 173.847 242.322 167.092 241.601C161.865 241.039 155.757 239.259 153.977 237.919C151.682 239.755 149.143 243.943 149.602 250.079C149.883 253.817 150.211 257.564 149.761 261.283C148.871 268.591 148.44 277.237 148.197 279.008C144.843 286.09 141.189 307.328 141.189 307.328C141.189 307.328 143.953 309.042 146.717 309.033C146.717 309.033 154.801 292.208 158.118 281.809C159.139 278.605 160.3 274.699 161.406 270.53C162.53 266.38 163.598 261.958 164.441 257.705C165.387 252.889 166.053 248.308 166.165 244.571C168.638 245.236 170.456 245.704 170.559 245.685C170.905 245.639 175.711 245.526 175.711 245.526Z" fill="#2B37A5"/>
<path d="M164.432 257.714C163.589 261.968 162.521 266.38 161.397 270.539C158.025 260.694 157.406 250.173 157.406 250.173C157.406 250.173 162.39 255.728 164.432 257.714Z" fill="#0A2530"/>
<path d="M176.358 312.555C176.358 312.555 173.922 313.22 170.54 312.396C170.54 312.396 166.812 288.966 167.589 280.244C167.589 280.244 163.037 268.075 159.983 258.604C159.402 256.796 158.39 253.32 157.978 251.803C156.9 247.84 157.462 244.514 158.493 241.976L175.712 245.526C176.424 252.131 178.541 272.46 178.663 281.818C178.822 293.069 176.358 312.555 176.358 312.555Z" fill="#2B37A5"/>
<path d="M197.482 175.715C197.482 175.715 195.964 191.462 192.91 199.163C191.449 201.571 188.198 205.018 184.938 208.025C180.591 212.035 178.08 217.646 178.071 223.567C178.062 225.862 178.296 230.247 178.642 235.521C178.427 232.111 162.417 233.038 155.138 232.72C154.117 232.673 153.273 232.607 152.665 232.495C154.997 225.422 155.85 221.665 156.337 219.089C157.976 210.527 160.712 205.468 164.459 203.257L171.972 205.252C171.972 205.252 179.251 199.688 186.577 194.741C189.547 187.865 192.835 174.89 192.835 174.89C192.835 174.89 195.533 174.309 197.482 175.715Z" fill="#FFA401"/>
<path d="M171.861 205.299C171.393 205.449 169.435 205.955 167.58 204.681C165.453 203.22 167.618 200.465 167.618 200.465H171.562L171.468 201.196C171.468 201.196 171.43 201.749 171.458 202.489C171.477 203.351 171.571 204.466 171.861 205.299Z" fill="#E49191"/>
<path d="M171.467 201.196C171.467 201.196 171.43 201.749 171.458 202.489C169.894 202.358 168.638 201.477 168.638 201.477C168.638 201.477 170.1 201.13 170.568 200.465H171.561L171.467 201.196Z" fill="#C55F60"/>
<path d="M172.976 189.618C172.976 189.618 174.531 192.662 175.121 196.007C175.431 197.759 174.69 199.539 173.248 200.588C172.686 200.991 172.124 201.319 171.599 201.562C170.006 202.33 168.086 202.012 166.84 200.747C166.137 200.035 165.36 199.042 164.648 197.684C161.472 191.651 168.423 184.924 172.976 189.618Z" fill="#E49191"/>
<path d="M145.208 311.543C145.208 311.543 145.189 313.277 145.096 314.204C145.002 315.131 144.356 323.488 143.447 324.472C143.063 324.884 142.585 325.277 141.508 325.277C140.44 325.277 140.477 323.685 139.465 321.136C138.426 318.523 139.053 314.316 139.428 312.068C139.587 311.703 140.224 310.963 140.768 310.466C141.161 310.11 141.676 309.951 142.201 309.998C142.969 310.063 143.494 310.419 144.29 311.515C144.477 311.768 145.002 311.909 145.208 311.543Z" fill="#2B37A5"/>
<path d="M138.857 312.799C139.138 311.703 140.121 311.188 140.815 311.291C141.92 311.46 143.288 312.153 143.185 314.514C143.082 316.874 142.979 323.254 142.782 324.069C142.314 325.943 140.243 325.446 139.578 323.919C139.222 323.085 138.857 320.968 138.669 318.42C138.548 316.668 138.37 314.729 138.857 312.799Z" fill="#202D74"/>
<path d="M172.535 185.242C172.113 184.511 170.905 183.556 169.902 183.312C166.998 182.591 164.019 183.921 161.986 185.785C161.986 185.785 161.106 186.647 159.813 187.64C158.52 188.633 157.283 190.085 156.543 191.744C154.642 196.015 157.714 199.631 156.937 200.952C156.159 202.283 153.012 202.517 152.787 205.243C152.562 207.979 153.789 208.625 152.787 211.229C152.787 211.239 152.787 211.239 152.787 211.239C151.456 212.887 150.342 214.695 149.855 216.953C148.374 223.773 155.691 225.422 158.811 223.53C161.93 221.637 163.944 222.799 165.499 222.087C171.223 219.464 168.263 205.449 168.422 202.123C168.45 201.514 168.45 200.831 168.441 200.1C168.413 197.421 169.621 194.929 171.551 193.074C173.294 191.406 174.493 188.615 172.535 185.242Z" fill="#2E3AAA"/>
<path d="M118.2 325.402L352.368 325.402" stroke="#0A7CA4" stroke-miterlimit="10" stroke-linecap="round"/>
<defs>
<linearGradient id="paint0_linear" x1="78.7807" y1="96.5045" x2="316.185" y2="371.049" gradientUnits="userSpaceOnUse">
<stop stop-color="#46B8E9"/>
<stop offset="0.843073" stop-color="#9A64EB"/>
</linearGradient>
</defs>
</svg>
