<svg width="570" height="951" viewBox="0 0 570 951" fill="none" xmlns="http://www.w3.org/2000/svg">
<path fill-rule="evenodd" clip-rule="evenodd" d="M386.539 -186.672C494.703 -205.059 558.835 -64.3109 649.8 -3.03309C721.757 45.4403 804.446 70.7067 863.263 134.471C937.524 214.979 1036.64 299.262 1029.43 408.536C1022.21 518.05 903.672 579.214 828.659 659.387C753.644 739.562 699.624 856.227 591.674 876.411C483.817 896.577 377.533 829.028 292.609 759.614C220.8 700.921 196.915 607.978 159.476 523.151C125.957 447.206 78.3413 374.236 86.0373 291.579C93.859 207.573 156.471 144.653 201.37 73.1968C259.376 -19.12 279.015 -168.393 386.539 -186.672Z" fill="#46B8E9" fill-opacity="0.4"/>
<path fill-rule="evenodd" clip-rule="evenodd" d="M432.386 -121.289C526.946 -137.363 583.013 -14.3166 662.538 39.2546C725.445 81.6318 797.735 103.721 849.155 159.465C914.076 229.848 1000.73 303.532 994.428 399.063C988.116 494.804 884.481 548.276 818.902 618.366C753.322 688.458 706.096 790.45 611.722 808.096C517.429 825.726 424.513 766.672 350.268 705.988C287.491 654.677 266.609 573.422 233.879 499.264C204.575 432.87 162.948 369.077 169.676 296.815C176.514 223.374 231.252 168.367 270.504 105.898C321.215 25.1909 338.385 -105.309 432.386 -121.289Z" fill="#C4C4C4"/>
<path fill-rule="evenodd" clip-rule="evenodd" d="M432.386 -121.289C526.946 -137.363 583.013 -14.3166 662.538 39.2546C725.445 81.6318 797.735 103.721 849.155 159.465C914.076 229.848 1000.73 303.532 994.428 399.063C988.116 494.804 884.481 548.276 818.902 618.366C753.322 688.458 706.096 790.45 611.722 808.096C517.429 825.726 424.513 766.672 350.268 705.988C287.491 654.677 266.609 573.422 233.879 499.264C204.575 432.87 162.948 369.077 169.676 296.815C176.514 223.374 231.252 168.367 270.504 105.898C321.215 25.1909 338.385 -105.309 432.386 -121.289Z" fill="url(#paint0_linear)"/>
<path d="M503.384 408.406C500.679 408.406 498.042 409.146 495.686 410.437C495.91 402.683 490.176 396.657 482.186 396.657C473.602 396.657 465.679 403.614 464.468 412.187C464.389 412.76 464.344 413.332 464.322 413.893C463.626 413.758 462.908 413.691 462.156 413.691C455.603 413.691 449.543 418.999 448.623 425.552C447.703 432.105 452.27 437.413 458.823 437.413H499.299C507.311 437.413 514.717 430.916 515.839 422.915C516.973 414.903 511.384 408.406 503.384 408.406Z" fill="#E9F8FF"/>
<path d="M445.178 356.034C443.147 356.034 441.172 356.596 439.41 357.561C439.578 351.737 435.28 347.214 429.277 347.214C422.836 347.214 416.888 352.432 415.979 358.873C415.923 359.3 415.89 359.726 415.867 360.153C415.351 360.052 414.801 359.996 414.24 359.996C409.325 359.996 404.78 363.979 404.085 368.894C403.389 373.809 406.823 377.793 411.738 377.793H442.114C448.129 377.793 453.684 372.923 454.525 366.908C455.378 360.905 451.192 356.034 445.178 356.034Z" fill="#E9F8FF"/>
<path opacity="0.5" d="M346.594 292.844C344.787 292.844 343.026 293.338 341.466 294.202C341.612 289.029 337.796 285 332.466 285C326.743 285 321.447 289.634 320.65 295.369C320.594 295.75 320.56 296.132 320.549 296.502C320.089 296.412 319.606 296.367 319.101 296.367C314.736 296.367 310.685 299.913 310.079 304.278C309.462 308.644 312.514 312.19 316.88 312.19H343.878C349.22 312.19 354.157 307.858 354.909 302.517C355.65 297.175 351.935 292.844 346.594 292.844Z" fill="#E9F8FF"/>
<path d="M382.832 373.081L383.46 368.581C383.505 368.278 383.292 368.031 382.989 368.031H381.62C381.373 368.031 381.182 367.851 381.16 367.616C381.025 365.933 380.587 364.35 379.88 362.936C379.779 362.723 379.835 362.454 380.037 362.274L381.137 361.309C381.384 361.096 381.429 360.748 381.249 360.524L378.511 357.337C378.32 357.124 377.973 357.124 377.726 357.337L376.626 358.302C376.424 358.482 376.144 358.504 375.953 358.369C374.662 357.472 373.181 356.81 371.543 356.439C371.307 356.383 371.161 356.17 371.195 355.923L371.386 354.554C371.43 354.251 371.217 354.004 370.914 354.004H366.415C366.112 354.004 365.831 354.251 365.786 354.554L365.595 355.923C365.562 356.17 365.36 356.383 365.102 356.439C363.362 356.81 361.69 357.472 360.153 358.369C359.928 358.504 359.659 358.482 359.502 358.302L358.672 357.337C358.481 357.124 358.133 357.124 357.886 357.337L354.25 360.524C354.004 360.737 353.959 361.085 354.138 361.309L354.969 362.274C355.126 362.454 355.103 362.723 354.946 362.936C353.846 364.35 352.971 365.933 352.354 367.616C352.264 367.863 352.029 368.031 351.782 368.031H350.413C350.11 368.031 349.829 368.278 349.784 368.581L349.156 373.081C349.111 373.384 349.324 373.631 349.627 373.631H350.996C351.243 373.631 351.434 373.81 351.456 374.046C351.591 375.729 352.029 377.311 352.736 378.725C352.837 378.938 352.78 379.208 352.578 379.387L351.479 380.352C351.232 380.565 351.187 380.913 351.367 381.138L354.105 384.325C354.295 384.538 354.643 384.538 354.89 384.325L355.99 383.36C356.192 383.18 356.472 383.158 356.663 383.292C357.954 384.19 359.435 384.852 361.062 385.222C361.297 385.278 361.443 385.492 361.41 385.738L361.219 387.108C361.174 387.41 361.387 387.657 361.69 387.657H366.19C366.493 387.657 366.774 387.41 366.818 387.108L367.009 385.738C367.043 385.492 367.245 385.278 367.503 385.222C369.242 384.852 370.914 384.19 372.452 383.292C372.676 383.158 372.945 383.18 373.102 383.36L373.933 384.325C374.124 384.538 374.472 384.538 374.718 384.325L378.354 381.138C378.601 380.924 378.646 380.577 378.466 380.352L377.636 379.387C377.479 379.208 377.501 378.938 377.658 378.725C378.758 377.311 379.633 375.74 380.251 374.046C380.34 373.799 380.576 373.631 380.823 373.631H382.192C382.506 373.642 382.787 373.395 382.832 373.081ZM364.181 379.353C360.31 378.938 357.572 375.774 357.673 371.846C357.808 366.662 362.465 362.263 367.525 362.263C372.261 362.263 375.56 366.101 374.887 370.836C374.191 375.875 369.265 379.915 364.181 379.353Z" fill="#E9F8FF"/>
<path d="M403.771 387.848L404.287 384.156C404.321 383.909 404.152 383.707 403.894 383.707H402.772C402.57 383.707 402.413 383.561 402.402 383.359C402.289 381.979 401.93 380.678 401.358 379.522C401.268 379.353 401.324 379.129 401.493 378.983L402.39 378.198C402.592 378.018 402.637 377.737 402.48 377.558L400.236 374.943C400.079 374.764 399.798 374.764 399.596 374.943L398.699 375.729C398.53 375.875 398.306 375.897 398.149 375.785C397.094 375.044 395.871 374.506 394.535 374.203C394.345 374.158 394.221 373.99 394.255 373.776L394.412 372.654C394.446 372.407 394.277 372.205 394.019 372.205H390.327C390.081 372.205 389.845 372.407 389.811 372.654L389.654 373.776C389.62 373.978 389.452 374.158 389.25 374.203C387.825 374.506 386.456 375.056 385.188 375.785C384.997 375.897 384.784 375.875 384.649 375.729L383.976 374.943C383.819 374.764 383.538 374.764 383.336 374.943L380.352 377.558C380.15 377.737 380.105 378.018 380.262 378.198L380.946 378.983C381.07 379.129 381.058 379.353 380.924 379.522C380.026 380.678 379.297 381.979 378.803 383.359C378.736 383.561 378.534 383.707 378.332 383.707H377.21C376.963 383.707 376.727 383.909 376.693 384.156L376.177 387.848C376.143 388.095 376.312 388.297 376.57 388.297H377.692C377.894 388.297 378.051 388.443 378.062 388.645C378.175 390.025 378.534 391.327 379.106 392.483C379.196 392.651 379.14 392.875 378.971 393.021L378.074 393.807C377.872 393.986 377.827 394.267 377.984 394.446L380.228 397.061C380.385 397.24 380.666 397.24 380.868 397.061L381.765 396.264C381.934 396.118 382.158 396.096 382.315 396.208C383.37 396.949 384.593 397.487 385.929 397.79C386.119 397.835 386.243 398.003 386.209 398.217L386.052 399.339C386.018 399.586 386.187 399.788 386.445 399.788H390.137C390.384 399.788 390.619 399.586 390.653 399.339L390.81 398.217C390.844 398.015 391.012 397.835 391.214 397.79C392.639 397.487 394.008 396.937 395.276 396.208C395.467 396.096 395.68 396.118 395.815 396.264L396.499 397.061C396.656 397.24 396.937 397.24 397.139 397.061L400.124 394.446C400.326 394.267 400.371 393.986 400.214 393.807L399.529 393.01C399.406 392.864 399.417 392.64 399.551 392.471C400.449 391.315 401.179 390.014 401.672 388.634C401.74 388.432 401.942 388.286 402.144 388.286H403.266C403.513 388.297 403.737 388.095 403.771 387.848ZM388.465 392.999C385.289 392.651 383.045 390.059 383.123 386.838C383.235 382.585 387.051 378.972 391.214 378.972C395.097 378.972 397.801 382.125 397.262 386.008C396.679 390.137 392.639 393.448 388.465 392.999Z" fill="#E9F8FF"/>
<path d="M318.274 416.688C316.692 416.688 315.592 415.409 315.817 413.826C316.041 412.244 317.5 410.965 319.082 410.965C320.664 410.965 321.764 412.244 321.54 413.826C321.326 415.409 319.856 416.688 318.274 416.688ZM318.97 411.806C317.859 411.806 316.827 412.715 316.669 413.826C316.512 414.937 317.287 415.846 318.398 415.846C319.509 415.846 320.541 414.937 320.698 413.826C320.855 412.715 320.081 411.806 318.97 411.806Z" fill="#E9F8FF"/>
<path d="M328.261 416.687C326.679 416.687 325.58 415.408 325.804 413.826C326.028 412.243 327.487 410.964 329.069 410.964C330.652 410.964 331.751 412.243 331.527 413.826C331.302 415.408 329.844 416.687 328.261 416.687ZM328.946 411.806C327.835 411.806 326.803 412.715 326.646 413.826C326.488 414.937 327.263 415.845 328.374 415.845C329.485 415.845 330.517 414.937 330.674 413.826C330.831 412.715 330.057 411.806 328.946 411.806Z" fill="#E9F8FF"/>
<path d="M500.646 472.267H496.741C496.494 472.267 496.314 472.065 496.348 471.807L496.898 467.902C496.931 467.655 497.167 467.442 497.414 467.442H501.319C501.566 467.442 501.745 467.644 501.712 467.902L501.162 471.807C501.139 472.054 500.904 472.267 500.646 472.267Z" fill="#E9F8FF"/>
<path d="M506.806 472.267H502.901C502.654 472.267 502.475 472.065 502.508 471.807L503.058 467.902C503.092 467.655 503.328 467.442 503.574 467.442H507.48C507.726 467.442 507.906 467.644 507.872 467.902L507.322 471.807C507.289 472.054 507.053 472.267 506.806 472.267Z" fill="#E9F8FF"/>
<path d="M513.247 472.267H509.342C509.095 472.267 508.916 472.065 508.949 471.807L509.499 467.902C509.533 467.655 509.768 467.442 510.015 467.442H513.92C514.167 467.442 514.347 467.644 514.313 467.902L513.763 471.807C513.73 472.054 513.494 472.267 513.247 472.267Z" fill="#E9F8FF"/>
<path d="M246.277 526.557H242.372C242.125 526.557 241.945 526.355 241.979 526.097L242.529 522.192C242.563 521.945 242.798 521.732 243.045 521.732H246.95C247.197 521.732 247.377 521.934 247.343 522.192L246.793 526.097C246.76 526.355 246.535 526.557 246.277 526.557Z" fill="#D2F0FC"/>
<path d="M252.718 526.557H248.813C248.566 526.557 248.386 526.355 248.42 526.097L248.97 522.192C249.004 521.945 249.239 521.731 249.486 521.731H253.391C253.638 521.731 253.818 521.933 253.784 522.192L253.234 526.097C253.2 526.355 252.965 526.557 252.718 526.557Z" fill="#D2F0FC"/>
<path d="M259.159 526.557H255.254C255.007 526.557 254.828 526.355 254.861 526.097L255.411 522.192C255.445 521.945 255.681 521.731 255.928 521.731H259.833C260.079 521.731 260.259 521.933 260.225 522.192L259.676 526.097C259.642 526.355 259.406 526.557 259.159 526.557Z" fill="#D2F0FC"/>
<path d="M301.43 388.97H297.525C297.278 388.97 297.099 388.769 297.132 388.51L297.682 384.605C297.716 384.358 297.952 384.145 298.199 384.145H302.104C302.35 384.145 302.53 384.347 302.496 384.605L301.946 388.51C301.913 388.769 301.688 388.97 301.43 388.97Z" fill="#A0D3FC"/>
<path d="M307.872 388.97H303.967C303.72 388.97 303.54 388.768 303.574 388.51L304.124 384.605C304.157 384.358 304.393 384.145 304.64 384.145H308.545C308.792 384.145 308.971 384.347 308.938 384.605L308.388 388.51C308.354 388.768 308.13 388.97 307.872 388.97Z" fill="#A0D3FC"/>
<path d="M314.313 388.97H310.408C310.161 388.97 309.981 388.768 310.015 388.51L310.565 384.605C310.598 384.358 310.834 384.145 311.081 384.145H314.986C315.233 384.145 315.412 384.347 315.379 384.605L314.829 388.51C314.795 388.768 314.571 388.97 314.313 388.97Z" fill="#A0D3FC"/>
<path d="M485.373 350.503H481.468C481.221 350.503 481.042 350.301 481.075 350.043L481.625 346.138C481.659 345.891 481.895 345.678 482.141 345.678H486.046C486.293 345.678 486.473 345.88 486.439 346.138L485.889 350.043C485.856 350.301 485.631 350.503 485.373 350.503Z" fill="#E9F8FF"/>
<path d="M491.815 350.503H487.91C487.663 350.503 487.483 350.301 487.517 350.043L488.067 346.138C488.1 345.891 488.336 345.678 488.583 345.678H492.488C492.735 345.678 492.914 345.88 492.881 346.138L492.331 350.043C492.297 350.301 492.073 350.503 491.815 350.503Z" fill="#E9F8FF"/>
<path d="M498.255 350.503H494.35C494.104 350.503 493.924 350.301 493.958 350.043L494.508 346.138C494.541 345.891 494.777 345.678 495.024 345.678H498.929C499.176 345.678 499.355 345.88 499.322 346.138L498.772 350.043C498.738 350.301 498.514 350.503 498.255 350.503Z" fill="#E9F8FF"/>
<path d="M238.613 311.979H234.708C234.461 311.979 234.281 311.777 234.315 311.519L234.865 307.614C234.899 307.367 235.134 307.154 235.381 307.154H239.286C239.533 307.154 239.713 307.356 239.679 307.614L239.129 311.519C239.095 311.777 238.86 311.979 238.613 311.979Z" fill="#E9F8FF"/>
<path d="M245.054 311.979H241.149C240.902 311.979 240.722 311.777 240.756 311.518L241.306 307.613C241.34 307.367 241.575 307.153 241.822 307.153H245.727C245.974 307.153 246.154 307.355 246.12 307.613L245.57 311.518C245.536 311.777 245.301 311.979 245.054 311.979Z" fill="#E9F8FF"/>
<path d="M251.495 311.979H247.59C247.343 311.979 247.164 311.777 247.197 311.518L247.747 307.613C247.781 307.367 248.017 307.153 248.263 307.153H252.169C252.415 307.153 252.595 307.355 252.561 307.613L252.011 311.518C251.978 311.777 251.742 311.979 251.495 311.979Z" fill="#E9F8FF"/>
<path d="M531.493 457.971C529.911 457.971 528.811 456.692 529.036 455.11C529.26 453.528 530.719 452.248 532.301 452.248C533.884 452.248 534.983 453.528 534.759 455.11C534.534 456.681 533.076 457.971 531.493 457.971ZM532.178 453.09C531.067 453.09 530.035 453.999 529.878 455.11C529.72 456.221 530.495 457.13 531.606 457.13C532.717 457.13 533.749 456.221 533.906 455.11C534.063 453.999 533.289 453.09 532.178 453.09Z" fill="#E9F8FF"/>
<path d="M534.333 512.496C534.142 513.843 532.896 514.931 531.55 514.931C530.203 514.931 529.261 513.843 529.451 512.496C529.642 511.15 530.888 510.061 532.234 510.061C533.581 510.05 534.523 511.138 534.333 512.496Z" fill="#A0D3FC"/>
<path d="M195.635 584.201C195.5 585.178 194.591 585.974 193.615 585.974C192.639 585.974 191.954 585.178 192.089 584.201C192.223 583.225 193.132 582.428 194.109 582.428C195.085 582.428 195.769 583.225 195.635 584.201Z" fill="#E9F8FF"/>
<path d="M274.656 465.938C274.522 466.915 273.613 467.711 272.636 467.711C271.66 467.711 270.976 466.915 271.11 465.938C271.245 464.962 272.154 464.165 273.13 464.165C274.106 464.165 274.791 464.962 274.656 465.938Z" fill="#E9F8FF"/>
<path d="M373.832 343.276C373.731 343.994 373.069 344.578 372.35 344.578C371.632 344.578 371.139 343.994 371.228 343.276C371.329 342.558 371.991 341.975 372.71 341.975C373.428 341.975 373.933 342.558 373.832 343.276Z" fill="#E9F8FF"/>
<path d="M484.385 386.569H479.863C479.392 386.569 479.066 386.187 479.134 385.716C479.201 385.245 479.628 384.863 480.099 384.863H484.621C485.092 384.863 485.418 385.245 485.351 385.716C485.294 386.187 484.857 386.569 484.385 386.569Z" fill="#E9F8FF"/>
<path d="M481.816 388.824C481.345 388.824 481.019 388.443 481.086 387.971L481.726 383.449C481.793 382.978 482.22 382.596 482.691 382.596C483.162 382.596 483.488 382.978 483.421 383.449L482.781 387.971C482.714 388.443 482.276 388.824 481.816 388.824Z" fill="#E9F8FF"/>
<path d="M494.036 561.77H489.514C489.042 561.77 488.717 561.388 488.784 560.917C488.852 560.446 489.278 560.064 489.749 560.064H494.272C494.743 560.064 495.068 560.446 495.001 560.917C494.934 561.388 494.507 561.77 494.036 561.77Z" fill="#A0D3FC"/>
<path d="M491.467 564.025C490.995 564.025 490.67 563.644 490.737 563.172L491.377 558.65C491.444 558.179 491.871 557.809 492.342 557.809C492.813 557.809 493.139 558.19 493.071 558.65L492.432 563.172C492.364 563.644 491.927 564.025 491.467 564.025Z" fill="#A0D3FC"/>
<path d="M339.853 354.823H335.331C334.86 354.823 334.534 354.442 334.602 353.97C334.669 353.499 335.095 353.117 335.567 353.117H340.089C340.56 353.117 340.886 353.499 340.818 353.97C340.751 354.442 340.313 354.823 339.853 354.823Z" fill="#E9F8FF"/>
<path d="M337.272 357.079C336.801 357.079 336.476 356.697 336.543 356.237L337.183 351.715C337.25 351.243 337.676 350.862 338.148 350.862C338.619 350.862 338.944 351.243 338.877 351.715L338.237 356.237C338.17 356.697 337.744 357.079 337.272 357.079Z" fill="#E9F8FF"/>
<path d="M467.89 395.243L467.812 395.176C467.789 395.164 467.778 395.153 467.755 395.131L459.44 388.959L459.238 392.135C458.879 392.112 458.531 392.079 458.172 392.079H376.682C366.762 392.079 357.583 400.124 356.192 410.044L330.292 594.312C329.922 596.96 330.158 599.474 330.876 601.741L325.995 601.505L335.881 609.012C336.027 609.124 336.173 609.236 336.318 609.349L336.554 609.528L336.543 609.495C339.068 611.256 342.21 612.277 345.733 612.277H427.224C437.143 612.277 446.322 604.232 447.714 594.312L473.613 410.044C474.477 403.906 472.143 398.486 467.89 395.243Z" fill="#1B9ECC"/>
<path d="M418.639 605.904H337.149C327.229 605.904 320.316 597.858 321.708 587.938L347.607 403.67C348.999 393.751 358.178 385.705 368.097 385.705H449.588C459.508 385.705 466.42 393.751 465.029 403.67L439.118 587.949C437.727 597.869 428.559 605.904 418.639 605.904Z" fill="#D1EEFE"/>
<path d="M460.473 404.725L434.843 587.108C433.721 595.064 426.371 601.505 418.415 601.505H338.596C330.64 601.505 325.097 595.052 326.219 587.108L351.849 404.725C352.971 396.78 360.31 390.328 368.277 390.328H381.833C382.977 390.328 383.953 390.934 384.38 391.933L386.276 396.275C386.95 397.824 388.487 398.789 390.271 398.789H423.711C425.507 398.789 427.302 397.824 428.424 396.275L431.533 391.933C432.24 390.945 433.384 390.328 434.529 390.328H448.084C456.051 390.328 461.595 396.769 460.473 404.725Z" fill="white"/>
<path d="M416.474 395.097H393.156C392.291 395.097 391.697 394.402 391.809 393.538C391.932 392.674 392.729 391.978 393.593 391.978H416.911C417.775 391.978 418.37 392.674 418.247 393.538C418.135 394.402 417.338 395.097 416.474 395.097Z" fill="#1F7BA3"/>
<path d="M423.666 393.537C423.543 394.401 422.746 395.097 421.882 395.097C421.018 395.097 420.423 394.401 420.536 393.537C420.659 392.673 421.456 391.978 422.32 391.978C423.184 391.978 423.779 392.673 423.666 393.537Z" fill="#1F7BA3"/>
<path d="M466.768 422.389L466.981 421.962L465.444 422.512C464.591 422.837 463.906 423.623 463.772 424.543L460.63 446.863C460.439 448.232 461.415 449.354 462.796 449.354H462.807C463.054 449.354 463.3 449.309 463.525 449.23L464.95 448.737L464.501 448.658C464.928 448.265 465.219 447.749 465.309 447.177L468.451 424.846C468.642 423.623 467.901 422.602 466.768 422.389Z" fill="#0A617F"/>
<path d="M464.233 448.848H464.221C462.841 448.848 461.865 447.726 462.056 446.357L465.198 424.037C465.366 422.837 466.499 421.849 467.722 421.849C469.103 421.849 470.079 422.971 469.888 424.34L466.746 446.671C466.567 447.861 465.433 448.848 464.233 448.848Z" fill="#0583A5"/>
<path d="M462.369 452.427L462.582 452.001L461.045 452.551C460.192 452.876 459.508 453.661 459.373 454.582L456.231 476.901C456.04 478.27 457.016 479.392 458.397 479.392H458.408C458.655 479.392 458.902 479.347 459.126 479.269L460.551 478.775L460.102 478.697C460.529 478.304 460.82 477.788 460.91 477.215L464.052 454.885C464.243 453.662 463.502 452.652 462.369 452.427Z" fill="#0A617F"/>
<path d="M459.833 478.888H459.822C458.442 478.888 457.465 477.765 457.656 476.396L460.798 454.077C460.966 452.876 462.1 451.889 463.323 451.889C464.703 451.889 465.679 453.011 465.489 454.38L462.347 476.711C462.167 477.911 461.045 478.888 459.833 478.888Z" fill="#0583A5"/>
<path d="M444.684 437.245H357.908C355.922 437.245 354.531 435.629 354.811 433.643L358.335 408.574C358.615 406.588 360.456 404.972 362.442 404.972H449.218C451.204 404.972 452.595 406.588 452.315 408.574L448.791 433.643C448.511 435.629 446.67 437.245 444.684 437.245Z" stroke="#37A6CC" stroke-width="0.8513" stroke-miterlimit="10"/>
<path d="M423.027 588.028H336.251C334.265 588.028 332.874 586.412 333.154 584.426L336.678 559.357C336.958 557.371 338.799 555.755 340.785 555.755H427.56C429.547 555.755 430.938 557.371 430.658 559.357L427.134 584.426C426.853 586.412 425.013 588.028 423.027 588.028Z" fill="#E6F9FF"/>
<path d="M419.895 519.891H419.671L420.007 517.467C420.568 513.483 417.786 510.24 413.802 510.24C409.818 510.24 406.126 513.483 405.565 517.467L405.229 519.891H405.184C404.062 519.891 403.029 520.8 402.872 521.922L401.582 531.067C401.425 532.189 402.199 533.098 403.321 533.098H418.032C419.155 533.098 420.187 532.189 420.344 531.067L421.635 521.922C421.792 520.8 421.017 519.891 419.895 519.891ZM407.394 517.467C407.81 514.493 410.57 512.069 413.544 512.069C416.518 512.069 418.594 514.493 418.178 517.467L417.842 519.891H407.058L407.394 517.467Z" fill="#71B8FF"/>
<path d="M414.251 524.592C414.453 523.134 413.285 521.978 411.737 522.281C410.817 522.46 409.975 523.19 409.661 524.076C409.291 525.153 409.661 526.13 410.424 526.612C410.581 526.713 410.648 526.893 410.57 527.084L409.953 528.598C409.582 529.496 410.132 530.383 411.064 530.383C411.995 530.383 412.803 529.496 412.68 528.598L412.489 527.106C412.466 526.915 412.59 526.724 412.781 526.635C413.544 526.231 414.127 525.468 414.251 524.592Z" fill="white"/>
<path d="M418.751 536.296H401.728C401.245 536.296 400.909 535.904 400.976 535.432C401.043 534.95 401.492 534.568 401.963 534.568H418.986C419.469 534.568 419.805 534.961 419.738 535.432C419.671 535.904 419.222 536.296 418.751 536.296Z" fill="#71B8FF"/>
<path d="M418.336 539.237H401.301C400.819 539.237 400.482 538.844 400.55 538.373C400.617 537.89 401.066 537.509 401.537 537.509H418.56C419.043 537.509 419.379 537.901 419.312 538.373C419.256 538.855 418.807 539.237 418.336 539.237Z" fill="#71B8FF"/>
<path d="M428.043 547.855H389.778C387.792 547.855 386.411 546.25 386.692 544.264L392.067 505.999C392.348 504.013 394.177 502.408 396.163 502.408H434.428C436.414 502.408 437.795 504.013 437.514 505.999L432.139 544.264C431.858 546.25 430.018 547.855 428.043 547.855Z" stroke="#37A6CC" stroke-width="0.8513" stroke-miterlimit="10"/>
<path d="M394.434 454.773L392.325 453.124L391.652 454.347H356.607C355.193 454.347 353.891 455.492 353.689 456.905L349.167 489.066L347.372 489.739L349.852 491.714V491.703C350.233 492.006 350.716 492.197 351.277 492.197H387.758C389.172 492.197 390.473 491.052 390.675 489.638L395.276 456.905C395.411 456.008 395.063 455.233 394.434 454.773Z" fill="#0A9ABC"/>
<path d="M392.988 455.11L388.387 487.843C388.185 489.257 386.883 490.401 385.469 490.401H348.988C347.574 490.401 346.587 489.257 346.789 487.843L351.39 455.11C351.592 453.696 352.893 452.551 354.307 452.551H390.788C392.202 452.551 393.19 453.696 392.988 455.11Z" fill="#A9E2FC"/>
<path d="M370.713 490.39H348.988C347.574 490.39 346.586 489.246 346.788 487.832L349.212 470.551L354.845 462.707C355.889 461.259 357.987 461.259 358.616 462.707L368.154 484.533L370.713 490.39Z" fill="white"/>
<path d="M388.712 485.531L388.386 487.832C388.184 489.246 386.882 490.39 385.469 490.39H363.957L368.154 484.544L378.321 470.382C379.364 468.935 381.463 468.935 382.091 470.382L388.712 485.531Z" fill="white"/>
<path d="M386.77 460.519C386.355 463.515 383.583 465.939 380.587 465.939C377.591 465.939 375.515 463.515 375.93 460.519C376.345 457.522 379.117 455.099 382.113 455.099C385.109 455.11 387.197 457.534 386.77 460.519Z" fill="white"/>
<path d="M439.668 488.135H411.929C411.211 488.135 410.717 487.551 410.818 486.844C410.919 486.126 411.581 485.554 412.299 485.554H440.039C440.757 485.554 441.25 486.137 441.149 486.844C441.037 487.562 440.386 488.135 439.668 488.135Z" fill="#A9E2FC"/>
<path d="M400.304 482.445H429.928C430.647 482.445 431.309 481.862 431.41 481.155C431.511 480.437 431.017 479.864 430.299 479.864H400.674C399.956 479.864 399.294 480.448 399.193 481.155C399.092 481.862 399.586 482.445 400.304 482.445Z" fill="#A9E2FC"/>
<path d="M424.52 459.766H403.502C402.784 459.766 402.29 459.183 402.391 458.476C402.492 457.758 403.154 457.186 403.872 457.186H424.89C425.608 457.186 426.102 457.769 426.001 458.476C425.889 459.183 425.238 459.766 424.52 459.766Z" fill="#A9E2FC"/>
<path d="M410.616 465.456H402.694C401.976 465.456 401.482 464.872 401.583 464.165C401.684 463.447 402.346 462.875 403.064 462.875H410.987C411.705 462.875 412.198 463.458 412.097 464.165C411.985 464.872 411.323 465.456 410.616 465.456Z" fill="#A9E2FC"/>
<path d="M442.855 465.456H415.116C414.398 465.456 413.904 464.872 414.005 464.165C414.106 463.447 414.768 462.875 415.486 462.875H443.225C443.944 462.875 444.437 463.458 444.336 464.165C444.235 464.872 443.573 465.456 442.855 465.456Z" fill="#A9E2FC"/>
<path d="M443.652 459.766H429.232C428.514 459.766 428.021 459.183 428.121 458.476C428.222 457.758 428.885 457.186 429.603 457.186H444.022C444.741 457.186 445.234 457.769 445.133 458.476C445.032 459.183 444.37 459.766 443.652 459.766Z" fill="#A9E2FC"/>
<path d="M403.288 471.145H401.897C401.179 471.145 400.685 470.561 400.786 469.854C400.887 469.136 401.549 468.564 402.267 468.564H403.659C404.377 468.564 404.871 469.147 404.77 469.854C404.657 470.573 403.995 471.145 403.288 471.145Z" fill="#A9E2FC"/>
<path d="M423.24 471.145H407.497C406.778 471.145 406.285 470.561 406.386 469.854C406.487 469.136 407.149 468.564 407.867 468.564H423.611C424.329 468.564 424.823 469.147 424.722 469.854C424.621 470.573 423.958 471.145 423.24 471.145Z" fill="#A9E2FC"/>
<path d="M409.012 476.846H401.089C400.371 476.846 399.877 476.262 399.978 475.555C400.079 474.837 400.741 474.265 401.46 474.265H409.382C410.1 474.265 410.594 474.848 410.493 475.555C410.392 476.262 409.73 476.846 409.012 476.846Z" fill="#A9E2FC"/>
<path d="M441.251 476.846H413.511C412.793 476.846 412.299 476.262 412.4 475.555C412.501 474.837 413.163 474.265 413.882 474.265H441.621C442.339 474.265 442.833 474.848 442.732 475.555C442.631 476.262 441.969 476.846 441.251 476.846Z" fill="#A9E2FC"/>
<path d="M442.059 471.145H427.639C426.921 471.145 426.427 470.561 426.528 469.854C426.629 469.136 427.291 468.564 428.009 468.564H442.429C443.147 468.564 443.641 469.147 443.54 469.854C443.428 470.573 442.766 471.145 442.059 471.145Z" fill="#A9E2FC"/>
<path d="M434.271 482.445H440.465C441.183 482.445 441.846 481.862 441.947 481.155C442.047 480.437 441.554 479.864 440.836 479.864H434.641C433.923 479.864 433.261 480.448 433.16 481.155C433.059 481.862 433.553 482.445 434.271 482.445Z" fill="#A9E2FC"/>
<path d="M407.418 488.135H399.507C398.789 488.135 398.295 487.551 398.396 486.844C398.497 486.126 399.159 485.554 399.877 485.554H407.8C408.518 485.554 409.011 486.137 408.91 486.844C408.798 487.562 408.136 488.135 407.418 488.135Z" fill="#A9E2FC"/>
<path d="M368.075 533.401H352.275C347.686 533.401 344.465 529.653 345.105 525.064C345.745 520.474 350.031 516.726 354.621 516.726H370.421C375.01 516.726 378.231 520.474 377.591 525.064C376.94 529.642 372.665 533.401 368.075 533.401Z" fill="#A9E2FC"/>
<path d="M354.486 529.721C354.216 529.721 353.947 529.609 353.756 529.385L350.513 525.614C350.177 525.221 350.21 524.615 350.603 524.268L354.755 520.621C355.148 520.273 355.754 520.306 356.102 520.71C356.449 521.103 356.405 521.709 356.012 522.057L352.567 525.075L355.193 528.128C355.541 528.532 355.496 529.126 355.092 529.474C354.935 529.643 354.71 529.721 354.486 529.721Z" fill="white"/>
<path d="M367.166 529.721C366.897 529.721 366.639 529.609 366.448 529.396C366.1 529.003 366.145 528.397 366.538 528.049L370.129 524.907L367.615 521.978C367.267 521.574 367.312 520.98 367.716 520.632C368.109 520.284 368.715 520.329 369.063 520.733L372.193 524.38C372.53 524.773 372.496 525.378 372.104 525.726L367.806 529.497C367.615 529.643 367.391 529.721 367.166 529.721Z" fill="white"/>
<path d="M359.648 529.721C359.513 529.721 359.367 529.688 359.244 529.631C358.772 529.407 358.559 528.835 358.795 528.363L362.307 520.946C362.532 520.475 363.104 520.262 363.575 520.497C364.046 520.722 364.26 521.294 364.024 521.765L360.512 529.183C360.343 529.519 359.996 529.721 359.648 529.721Z" fill="white"/>
<path d="M278.359 508.771H229.826C229.097 508.771 228.581 508.176 228.682 507.447L232.643 479.292C232.744 478.563 233.428 477.968 234.158 477.968H282.691C283.42 477.968 283.936 478.563 283.835 479.292L279.874 507.447C279.762 508.176 279.088 508.771 278.359 508.771Z" fill="#E9F8FF"/>
<path d="M277.809 503.912H231.734C231.094 503.912 230.645 503.395 230.735 502.756L233.877 480.391C233.967 479.752 234.562 479.236 235.19 479.236H281.265C281.905 479.236 282.354 479.752 282.264 480.391L279.122 502.756C279.043 503.384 278.449 503.912 277.809 503.912Z" fill="#77BDE0"/>
<path d="M276.418 513.483H230.443C229.781 513.483 229.31 512.945 229.4 512.271C229.489 511.609 230.107 511.06 230.78 511.06H276.754C277.416 511.06 277.888 511.598 277.798 512.271C277.697 512.945 277.08 513.483 276.418 513.483Z" fill="#77BDE0"/>
<path opacity="0.31" d="M277.596 507.211H231.015C230.51 507.211 230.163 506.807 230.241 506.302C230.308 505.797 230.768 505.393 231.273 505.393H277.854C278.359 505.393 278.707 505.797 278.628 506.302C278.561 506.807 278.101 507.211 277.596 507.211Z" fill="#77BDE0"/>
<path d="M250.9 507.211H231.015C230.51 507.211 230.163 506.807 230.241 506.302C230.308 505.797 230.768 505.393 231.273 505.393H251.158C251.663 505.393 252.011 505.797 251.932 506.302C251.854 506.807 251.394 507.211 250.9 507.211Z" fill="#77BDE0"/>
<path opacity="0.2" d="M262.462 497.934C266.511 494.16 267.134 488.249 263.855 484.731C260.575 481.213 254.635 481.421 250.587 485.194C246.538 488.968 245.915 494.879 249.194 498.397C252.474 501.915 258.414 501.708 262.462 497.934Z" fill="white"/>
<path d="M255.254 487.528L260.618 490.906C261.089 491.198 260.988 491.938 260.427 492.241L254.109 495.619C253.559 495.911 252.965 495.54 253.043 494.957L253.997 488.213C254.098 487.607 254.782 487.237 255.254 487.528Z" fill="white"/>
<path d="M253.526 506.313C253.391 507.3 252.471 508.108 251.483 508.108C250.496 508.108 249.8 507.3 249.946 506.313C250.081 505.325 251.001 504.517 251.988 504.517C252.976 504.517 253.66 505.314 253.526 506.313Z" fill="#274F89"/>
<path d="M539.404 577.098L516.468 591.271L497.515 577.098H539.404Z" fill="#B8E6F4"/>
<path d="M539.404 577.098L522.808 557.348C522.067 556.473 520.653 556.473 519.666 557.348L497.515 577.098H539.404Z" fill="#B8E6F4"/>
<path d="M533.131 597.297H498.12L502.709 564.631C502.866 563.554 503.854 562.679 504.931 562.679H536.037C537.114 562.679 537.866 563.554 537.72 564.631L533.131 597.297Z" fill="#D1EEFE"/>
<path d="M537.339 567.313H502.328L502.709 564.631C502.866 563.554 503.854 562.679 504.931 562.679H536.037C537.114 562.679 537.866 563.554 537.72 564.631L537.339 567.313Z" fill="#01BBEC"/>
<path d="M506.446 564.99C506.367 565.54 505.862 565.978 505.324 565.978C504.785 565.978 504.403 565.54 504.482 564.99C504.56 564.44 505.065 564.003 505.604 564.003C506.143 564.014 506.524 564.452 506.446 564.99Z" fill="white"/>
<path d="M509.678 564.99C509.599 565.54 509.094 565.978 508.556 565.978C508.006 565.978 507.635 565.54 507.703 564.99C507.781 564.44 508.286 564.003 508.825 564.003C509.375 564.014 509.756 564.452 509.678 564.99Z" fill="white"/>
<path d="M512.91 564.99C512.831 565.54 512.326 565.978 511.788 565.978C511.238 565.978 510.867 565.54 510.946 564.99C511.025 564.44 511.53 564.003 512.068 564.003C512.607 564.014 512.977 564.452 512.91 564.99Z" fill="white"/>
<path d="M511.372 579.095H506.02L504.617 581.575H502.563L508.892 570.859H510.856L514.189 581.575H512.113L511.372 579.095ZM510.935 577.535L509.577 572.856L506.917 577.535H510.935Z" fill="white"/>
<path d="M533.961 571.667H518.083L518.229 570.668H534.096L533.961 571.667Z" fill="white"/>
<path d="M533.58 574.371H517.701L517.847 573.372H533.714L533.58 574.371Z" fill="white"/>
<path d="M533.198 577.064H517.331L517.466 576.077H533.333L533.198 577.064Z" fill="white"/>
<path d="M532.816 579.769H516.949L517.084 578.77H532.962L532.816 579.769Z" fill="white"/>
<path d="M532.435 582.473H516.568L516.714 581.474H532.581L532.435 582.473Z" fill="white"/>
<path d="M532.065 585.166H502.631L502.766 584.167H532.199L532.065 585.166Z" fill="white"/>
<path d="M531.683 587.871H502.249L502.384 586.872H531.818L531.683 587.871Z" fill="white"/>
<path d="M531.302 590.564H501.868L502.014 589.565H531.436L531.302 590.564Z" fill="white"/>
<path d="M530.92 593.268H501.486L501.632 592.27H531.066L530.92 593.268Z" fill="white"/>
<path d="M539.404 577.098L535.768 602.93C535.656 603.693 535.218 604.389 534.613 604.838C534.119 605.219 533.524 605.433 532.907 605.433H496.056C494.664 605.433 493.688 604.299 493.89 602.919L497.526 577.087L516.479 591.26H516.49L539.404 577.098Z" fill="white"/>
<path d="M539.404 577.098L535.768 602.93C535.656 603.693 535.218 604.389 534.612 604.838L516.479 591.26L539.404 577.098Z" fill="#E9F8FF"/>
<path d="M503.327 439.108L505.874 436.875L503.956 434.642" stroke="#41B3CE" stroke-width="0.7183" stroke-miterlimit="10" stroke-linecap="round" stroke-linejoin="round"/>
<path d="M505.874 436.875H496.347" stroke="#41B3CE" stroke-width="0.7183" stroke-miterlimit="10" stroke-linecap="round" stroke-dasharray="2.04 2.04"/>
<path d="M487.225 429.783L487.203 429.985C487.135 430.501 486.653 430.916 486.137 430.916H479.449C478.932 430.916 478.461 431.331 478.383 431.847L477.103 440.937C477.036 441.453 477.395 441.868 477.9 441.868H491.523C492.039 441.868 492.51 441.453 492.589 440.937L494.16 429.783C494.239 429.244 493.857 428.818 493.33 428.818H488.336C487.797 428.818 487.304 429.244 487.225 429.783Z" fill="#5699E8"/>
<path d="M490.333 440.959L490.299 440.678L489.592 434.765C489.525 434.204 489.076 433.811 488.492 433.811H476.766C476.373 433.811 476.025 434.181 476.07 434.574L476.822 440.813C476.901 441.441 477.406 441.879 478.045 441.879H489.918H490.434H491.444C490.647 441.868 490.4 441.307 490.333 440.959Z" fill="#71B8FF"/>
<path d="M519.149 429.783L519.127 429.985C519.06 430.501 518.577 430.916 518.061 430.916H511.373C510.857 430.916 510.385 431.331 510.307 431.847L509.028 440.937C508.96 441.453 509.319 441.868 509.824 441.868H523.447C523.963 441.868 524.435 441.453 524.513 440.937L526.084 429.783C526.163 429.244 525.781 428.818 525.254 428.818H520.26C519.711 428.818 519.217 429.244 519.149 429.783Z" fill="#5699E8"/>
<path d="M522.246 440.959L522.213 440.678L521.506 434.765C521.438 434.204 520.99 433.811 520.406 433.811H508.691C508.298 433.811 507.95 434.181 507.995 434.574L508.747 440.813C508.825 441.441 509.33 441.879 509.97 441.879H521.842H522.359H523.369C522.572 441.868 522.325 441.307 522.246 440.959Z" fill="#71B8FF"/>
<path d="M471.043 631.825L466.768 633.733L463.715 633.554L462.964 627.786L462.627 625.205L469.573 623.735L470.336 623.578L470.359 623.903L470.583 628.695L470.662 630.277L471.043 631.825Z" fill="#FEB3B0"/>
<path d="M470.516 627.158C467.419 627.427 464.119 626.843 462.807 626.574L462.627 625.205L469.573 623.735C469.854 623.802 470.112 623.859 470.359 623.903L470.516 627.158Z" fill="#E87C7C"/>
<path d="M435.841 622.478L435.673 623.275L434.596 628.313L434.517 628.695C434.293 629.727 434.304 630.793 434.562 631.814L430.287 633.711L427.223 633.531L427.436 626.338L427.492 624.386L434.416 622.792L435.841 622.478Z" fill="#FEB3B0"/>
<path d="M435.674 623.276L434.899 626.923C431.387 626.799 428.324 625.251 427.459 624.779L427.504 623.186L434.406 622.816C434.843 622.962 435.27 623.119 435.674 623.276Z" fill="#E87C7C"/>
<path d="M427.257 632.173C427.257 632.173 413.645 637.032 416.08 638.48C416.552 638.76 434.854 639.411 435.651 638.311C436.447 637.212 434.551 631.836 434.551 631.836C434.551 631.836 432.127 632.981 427.257 632.173Z" fill="#122835"/>
<path d="M461.527 537.419L444.011 539.832C444.011 539.832 435.583 557.18 431.622 570.085C431.555 570.163 429.198 577.648 428.884 580.476C428.11 587.68 426.774 623.78 426.774 623.78C426.774 623.78 430.915 625.777 436.234 624.79C436.234 624.79 440.745 606.173 441.968 600.798C443.674 593.246 443.674 582.832 443.674 582.832C443.674 582.832 461.471 556.945 463.491 552.4C465.5 547.866 461.527 537.419 461.527 537.419Z" fill="#002774"/>
<path d="M454.256 556.922L446.502 578.703L458.453 561.141L454.256 556.922Z" fill="#0A2530"/>
<path d="M478.146 550.089C478.146 550.089 468.72 581.004 468.137 583.36C467.553 585.717 470.347 588.511 471.234 597.196C472.12 605.882 471.223 625.037 471.223 625.037C471.223 625.037 465.836 626.17 461.482 625.564C461.482 625.564 452.314 587.703 452.685 582.328C453.055 576.953 455.109 542.952 455.109 542.952" fill="#002774"/>
<path d="M456.22 520.374L454.177 528.296C447.321 526.254 433.754 521.036 433.754 521.036C433.754 521.036 431.555 520.06 430.096 520.385C429.905 520.43 429.692 520.452 429.456 520.452C428.458 520.542 426.483 520.665 425.181 520.43C424.092 520.228 419.974 517.523 419.447 515.593C418.919 513.663 421.141 512.721 421.904 512.968C422.656 513.226 423.43 513.91 426.382 514.583C427.56 514.819 428.693 515.077 429.052 514.819C429.512 514.494 427.358 514.146 426.37 513.742C425.383 513.338 425.26 512.62 426.797 512.53C428.334 512.44 430.388 512.631 431.319 513.753C432.239 514.875 434.528 515.649 434.528 515.649C434.528 515.649 449.352 518.41 456.186 520.374C456.197 520.374 456.208 520.374 456.22 520.374Z" fill="#FEB3B0"/>
<path d="M479.381 524.391C479.347 526.635 479.291 528.936 479.224 531.214C478.943 539.989 478.438 548.495 478.158 552.377C475.992 552.793 468.384 552.4 461.348 551.401C454.189 550.38 448.365 548.282 441.531 544.074C441.531 544.074 445.795 526.209 447.018 519.846C447.097 519.454 447.164 519.095 447.209 518.78C447.231 518.702 447.242 518.612 447.254 518.522C447.826 515.638 449.386 508.625 452.157 502.857C455.367 496.192 458.935 495.743 459.653 495.72C463.042 497.662 468.013 499.277 473.938 501.555C475.218 502.049 476.654 502.666 478.158 503.351C478.146 503.362 478.146 503.362 478.146 503.362C478.146 503.362 479.302 509.265 479.392 518.118C479.414 520.104 479.403 522.214 479.381 524.391Z" fill="#F15A25"/>
<path d="M479.38 524.391C479.347 526.636 479.291 528.936 479.223 531.214C477.967 533.716 476.564 536.23 475.655 537.016C473.68 538.755 471.896 538.407 471.896 538.407L476.418 528.296C469.012 524.526 468.529 521.092 468.529 521.092L479.38 524.391Z" fill="#0C2D3D"/>
<path d="M471.806 497.437C471.458 499.266 472.884 500.691 473.938 501.556C473.669 502.027 472.614 503.385 471.919 503.912C463.817 510.005 458.621 503.946 458.902 499.379C458.991 497.92 459.407 496.091 459.788 495.72C460.596 495.967 461.539 496.046 462.234 494.98C462.425 494.688 462.594 494.318 462.739 493.846L462.762 493.835C461.55 493.499 459.687 492.78 458.868 491.636C456.253 487.989 462.246 475.309 462.246 475.309C466.398 466.028 478.225 472.166 478.809 477.351C479.179 480.594 477.978 484.432 475.958 487.675C475.869 487.809 472.334 494.767 471.806 497.437Z" fill="#FEB3B0"/>
<path d="M467.34 493.173C467.34 493.173 465.511 495.383 462.246 494.98C462.436 494.688 462.605 494.317 462.751 493.846L462.773 493.835C462.762 493.835 465.04 494.25 467.34 493.173Z" fill="#E87C7C"/>
<path d="M449.835 493.588L449.711 494.059C449.386 495.294 448.129 496.023 446.895 495.698L430.904 491.467C429.67 491.142 428.413 491.871 428.087 493.105L422.342 514.841C422.017 516.076 422.746 517.333 423.98 517.658L456.534 526.276C457.768 526.602 459.025 525.872 459.35 524.638L466.409 497.987C466.745 496.708 465.982 495.395 464.703 495.058L452.775 491.905C451.484 491.546 450.171 492.309 449.835 493.588Z" fill="#E28B2D"/>
<path d="M457.588 502.992L457.51 525.996L427.256 517.984C425.472 517.512 424.238 514.157 424.249 512.317L424.316 493.902C424.316 492.78 425.394 491.95 426.493 492.241L455.187 499.838C456.601 500.22 457.599 501.51 457.588 502.992Z" fill="#FFECD7"/>
<path d="M456.219 504.552L456.14 525.828L425.887 517.815C424.103 517.344 422.869 515.717 422.88 513.877L422.947 495.462C422.947 494.34 424.025 493.51 425.124 493.802L453.818 501.398C455.231 501.78 456.23 503.07 456.219 504.552Z" fill="#FFFAF5"/>
<path d="M453.941 523.257V522.528L453.997 507.413C453.997 505.988 453.043 504.731 451.663 504.36L423.643 496.943C422.7 496.696 421.769 497.403 421.758 498.391L421.702 514.325C421.691 515.919 422.768 517.321 424.316 517.736L452.707 525.244L453.941 525.569L456.365 526.209C454.435 525.715 454.02 524.178 453.941 523.257Z" fill="#F49F38"/>
<path d="M479.47 475.207C479.594 474.209 479.19 473.154 478.539 472.211C478.539 472.211 476.227 468.497 474.881 467.756C473.523 467.005 473.197 468.295 473.197 468.295C473.197 468.295 470.628 465.108 468.619 465.108C466.779 465.108 466.723 467.15 466.723 467.15C466.723 467.15 463.637 464.244 461.348 465.748C458.823 467.397 459.597 470.618 460.854 473.244C463.053 477.856 468.372 480.336 473.276 481.368L471.918 484.723C471.918 484.723 471.391 486.036 471.727 486.16C471.963 486.249 472.805 485.127 472.805 485.127C472.805 485.127 473.949 483.511 475.128 484.072C477.473 485.183 474.14 491.378 474.14 491.378C474.14 491.378 479.078 486.272 481.153 483.107C482.702 480.773 482.983 476.565 479.47 475.207Z" fill="#0E273A"/>
<path d="M474.814 487.069C474.174 487.978 472.805 488.572 472.468 488.034C472.266 487.72 472.48 487.181 472.76 486.687C472.973 486.418 473.534 486.631 473.815 486.182C474.107 485.711 473.725 485.453 473.961 485.184C474.219 484.982 474.499 484.836 474.724 484.892C475.184 485.026 475.577 485.991 474.814 487.069Z" fill="#E87C7C"/>
<path d="M480.021 523.471C479.953 523.101 479.908 522.742 479.92 522.383C479.953 522.73 479.987 523.101 480.021 523.471Z" fill="#12364C"/>
<path d="M479.919 524.402C479.919 524.402 479.785 524.728 479.549 525.289C479.212 526.086 478.663 527.354 478.034 528.779C476.575 532.033 474.645 536.095 473.534 537.329C471.604 539.473 464.759 535.321 465.657 530.855C466.151 528.453 467.767 525.109 469.169 522.54C469.584 521.777 469.977 521.081 470.314 520.497C470.965 519.375 471.413 518.668 471.413 518.668L477.361 522.674L478.315 523.325L479.919 524.402Z" fill="#FEB3B0"/>
<path d="M479.549 525.288C479.213 526.085 478.663 527.353 478.034 528.778C472.435 527.117 469.169 522.539 469.169 522.539C469.585 521.776 469.977 521.08 470.314 520.497L472.255 520.822L477.361 522.674L478.034 522.921C478.034 522.921 478.147 523.067 478.315 523.325C478.618 523.762 479.1 524.492 479.549 525.288Z" fill="#E87C7C"/>
<path d="M473.804 536.993L469.944 528.812C469.944 528.812 463.772 526.579 455.535 525.109C453.055 524.672 450.171 524.043 448.118 523.561C447.77 523.449 446.255 523.022 445.761 522.124C445.189 521.092 445.189 520.25 444.695 519.521C444.202 518.78 443.865 517.602 443.472 516.985C443.079 516.379 442.586 517.131 442.709 517.95C442.833 518.814 443.046 519.858 442.777 520.217C442.507 520.565 440.959 519.499 440.487 519.499C440.016 519.499 438.467 522.854 438.681 524.38C438.894 525.906 441.912 526.153 442.72 526.265C443.506 526.377 446.401 527.746 446.524 527.802C451.204 530.024 461.483 534.939 464.636 536.555C468.732 538.676 471.919 539.596 473.804 536.993Z" fill="#FEB3B0"/>
<path d="M478.158 503.351C478.158 503.351 482.613 505.27 484.071 509.231C485.53 513.192 479.92 526.602 479.92 526.602C479.92 526.602 471.75 524.313 468.519 521.092C468.945 518.41 478.158 503.351 478.158 503.351Z" fill="#F15A25"/>
<path d="M440.913 519.633C440.913 519.633 438.938 518.847 437.67 518.41C436.391 517.972 436.155 517.411 435.269 517.692C434.382 517.983 434.416 520.452 434.921 521.72C435.617 523.471 439.499 525.446 439.499 525.446L440.756 523.078L440.913 519.633Z" fill="#FEB3B0"/>
<path d="M463.581 632.588C463.581 632.588 449.958 637.032 452.393 638.48C452.864 638.76 471.335 639.411 472.132 638.311C472.928 637.212 471.032 631.836 471.032 631.836C471.032 631.836 466.308 632.925 463.581 632.588Z" fill="#122835"/>
<path d="M360.59 450.576L282.433 457.623C281.075 457.747 279.874 456.748 279.751 455.39L277.742 433.048C277.619 431.69 278.618 430.49 279.975 430.366L358.133 423.319C359.491 423.196 360.691 424.194 360.815 425.552L362.823 447.894C362.947 449.252 361.948 450.453 360.59 450.576Z" fill="#A0D3FC"/>
<path d="M320.496 531.18C320.496 531.18 320.181 533.918 316.22 534.255C297.435 535.803 292.285 529.059 289.378 527.567L314.391 527.455C314.391 527.443 320.316 528.319 320.496 531.18Z" fill="#C17B0A"/>
<path d="M316.984 543.165L307.255 543.367L294.26 540.707L288.84 538.912C290.019 537.341 291.354 532.931 292.252 529.519C292.903 527.062 293.329 525.132 293.329 525.132L303.092 524.088L307.782 523.583C307.782 523.583 313.965 522.719 315.357 526.086C315.559 526.568 315.66 527.129 315.626 527.803C315.559 529.329 315.637 531.236 315.794 533.189C316.176 538.048 316.984 543.165 316.984 543.165Z" fill="#E49191"/>
<path d="M315.794 533.189C315.794 533.189 314.638 531.337 309.723 530.282C299.478 528.083 292.251 529.519 292.251 529.519C292.902 527.062 293.329 525.132 293.329 525.132L303.091 524.088C307.142 524.582 312.416 525.266 313.987 525.648C314.526 525.783 314.975 525.928 315.356 526.086C315.558 526.568 315.659 527.129 315.626 527.802C315.558 529.329 315.637 531.236 315.794 533.189Z" fill="#C55F60"/>
<path d="M338.484 459.027C338.484 459.027 338.563 457.86 338.641 456.648C338.72 455.537 338.215 454.808 338.17 454.539C338.047 453.82 338.17 452.597 338.17 452.597L339.73 452.451C339.73 452.451 340.392 451.498 341.043 450.263C341.222 449.927 341.335 449.567 341.335 449.186C341.335 448.21 341.368 448.097 341.424 447.525C341.492 446.74 342.131 446.448 342.367 447.379C342.591 448.243 342.569 449.444 342.569 449.893C342.569 450.353 341.739 452.317 341.739 452.317C341.739 452.317 344.129 453.697 344.196 454.146C344.263 454.606 343.164 456.435 342.322 459.734" fill="#E49191"/>
<path d="M342.232 447.704C342.232 447.704 341.985 446.604 342.49 446.469C342.905 446.357 343.141 447.221 343.265 447.704C343.388 448.175 343.612 449.69 343.702 450.195C343.792 450.7 342.614 453.651 342.614 453.651L341.267 452.461L341.929 449.016" fill="#E49191"/>
<path d="M343.164 448.365C343.164 448.365 343.096 447.557 343.478 447.378C343.86 447.198 344.073 447.883 344.196 448.365C344.32 448.837 344.544 450.352 344.634 450.857C344.724 451.362 343.545 454.313 343.545 454.313L342.199 453.123L342.861 449.678" fill="#E49191"/>
<path d="M344.645 448.792C344.577 449.23 344.757 449.925 344.802 450.24C344.847 450.599 344.42 451.373 344.42 451.373L343.534 453.92L343.971 455.02L345.352 451.811L345.587 451.16C345.711 450.778 345.733 450.374 345.643 449.982C345.441 449.14 345.049 447.849 344.645 448.792Z" fill="#E49191"/>
<path d="M297.189 462.886C297.189 462.886 298.513 459.576 298.491 459.15C298.468 458.723 297.649 456.512 297.526 456.086C297.413 455.66 297.593 452.989 297.941 452.495C298.289 452.001 298.648 452.349 298.782 452.843C298.928 453.337 299.029 454.336 299.007 454.65C298.984 454.964 299.759 456.052 299.759 456.052L303.63 455.705L304.999 455.581C304.999 455.581 304.752 456.793 304.472 457.522C304.191 458.263 303.63 458.712 303.237 459.082C302.856 459.453 301.835 462.247 301.498 463.313" fill="#E49191"/>
<path d="M283.836 614.735L282.018 618.753L281.591 619.718L279.964 623.32C277.596 623.454 274.858 621.637 274.858 621.637L275.678 618.472L276.183 616.508L277.271 612.289L283.836 614.735Z" fill="#E49191"/>
<path d="M282.017 618.753L281.591 619.718C279.178 619.897 276.665 618.91 275.677 618.472L276.182 616.508L280.817 617.552L282.017 618.753Z" fill="#C55F60"/>
<path d="M297.144 462.123C297.144 462.123 300.309 462.415 302.126 463.155C302.126 463.155 299.905 476.823 297.705 482.086C295.943 486.317 299.31 497.695 299.31 497.695L292.902 502.049C292.902 502.049 289.906 486.653 289.536 482.815C289.166 478.978 297.144 462.123 297.144 462.123Z" fill="#FFA401"/>
<path d="M317.859 619.572L317.657 621.087L317.242 624.352L316.849 627.337C314.246 628.201 311.452 627.337 311.452 627.337L311.261 624.565L310.992 620.761L310.913 619.572H317.859Z" fill="#E49191"/>
<path d="M317.657 621.087L317.242 624.352C315.29 624.824 312.518 624.667 311.261 624.566L310.992 620.761C312.709 620.784 316.221 620.952 317.657 621.087Z" fill="#C55F60"/>
<path d="M310.094 629.447C310.094 629.447 310.105 627.494 311.654 626.529C311.654 626.529 312.653 625.8 314.583 626.473C315.2 626.686 316.3 627.494 316.85 627.326C316.85 627.326 317.848 629.357 319.015 631.702C319.554 632.779 320.25 634.283 321.147 635.271C322.718 635.731 323.65 636.729 323.863 637.526C324.132 638.547 324.031 638.828 321.147 638.828C321.147 638.828 317.209 637.863 316.12 636.752C315.032 635.63 310.094 629.447 310.094 629.447Z" fill="#2B37A5"/>
<path d="M316.468 638.828C315.178 638.828 313.977 638.155 313.315 637.044C312.114 635.024 310.476 631.848 310.173 630.95C309.118 627.831 313.225 628.01 314.235 629.121C315.099 630.086 316.345 632.589 317.478 634.822C318.611 637.055 319.43 638.379 321.147 638.839H316.468V638.828Z" fill="#202D74"/>
<path d="M316.984 543.165L316.21 537.386C316.21 537.386 314.751 539.327 306.66 538.463C300.399 537.789 293.082 535.657 290.95 534.053C288.201 536.252 285.16 541.268 285.71 548.618C286.046 553.096 286.439 557.584 285.9 562.039C284.834 570.792 284.318 581.149 284.026 583.27C280.009 591.754 275.633 617.193 275.633 617.193C275.633 617.193 278.943 619.246 282.254 619.235C282.254 619.235 291.938 599.081 295.91 586.625C297.133 582.788 298.525 578.108 299.849 573.115C301.195 568.144 302.475 562.847 303.485 557.752C304.618 551.985 305.415 546.497 305.549 542.02C308.512 542.817 310.689 543.378 310.812 543.355C311.227 543.299 316.984 543.165 316.984 543.165Z" fill="#2B37A5"/>
<path d="M303.473 557.764C302.463 562.858 301.184 568.144 299.837 573.126C295.798 561.332 295.057 548.73 295.057 548.73C295.057 548.73 301.027 555.385 303.473 557.764Z" fill="#0A2530"/>
<path d="M317.758 623.454C317.758 623.454 314.84 624.251 310.789 623.264C310.789 623.264 306.323 595.199 307.255 584.752C307.255 584.752 301.801 570.175 298.143 558.83C297.447 556.664 296.235 552.501 295.741 550.683C294.451 545.937 295.124 541.953 296.359 538.912L316.984 543.165C317.836 551.076 320.372 575.427 320.518 586.637C320.709 600.114 317.758 623.454 317.758 623.454Z" fill="#2B37A5"/>
<path d="M343.062 459.542C343.062 459.542 341.244 478.405 337.586 487.629C335.835 490.513 331.941 494.643 328.036 498.245C322.83 503.048 319.822 509.769 319.811 516.861C319.8 519.611 320.08 524.862 320.496 531.18C320.237 527.095 301.06 528.206 292.341 527.825C291.118 527.769 290.108 527.69 289.378 527.555C292.173 519.083 293.194 514.583 293.777 511.498C295.741 501.241 299.018 495.181 303.506 492.533L312.506 494.923C312.506 494.923 321.225 488.258 330 482.333C333.557 474.096 337.496 458.555 337.496 458.555C337.496 458.555 340.728 457.859 343.062 459.542Z" fill="#FFA401"/>
<path d="M312.371 494.979C311.81 495.159 309.465 495.765 307.243 494.239C304.696 492.488 307.288 489.189 307.288 489.189H312.012L311.9 490.064C311.9 490.064 311.855 490.727 311.889 491.613C311.911 492.645 312.024 493.981 312.371 494.979Z" fill="#E49191"/>
<path d="M311.9 490.064C311.9 490.064 311.855 490.727 311.889 491.613C310.015 491.456 308.511 490.401 308.511 490.401C308.511 490.401 310.262 489.986 310.823 489.189H312.012L311.9 490.064Z" fill="#C55F60"/>
<path d="M313.707 476.195C313.707 476.195 315.57 479.842 316.277 483.848C316.647 485.947 315.761 488.079 314.032 489.336C313.359 489.818 312.686 490.211 312.058 490.503C310.15 491.423 307.849 491.041 306.357 489.526C305.515 488.674 304.584 487.484 303.731 485.857C299.927 478.63 308.253 470.573 313.707 476.195Z" fill="#E49191"/>
<path d="M280.446 622.242C280.446 622.242 280.424 624.318 280.312 625.429C280.2 626.54 279.425 636.55 278.337 637.728C277.877 638.222 277.304 638.693 276.014 638.693C274.735 638.693 274.78 636.785 273.568 633.733C272.322 630.602 273.074 625.564 273.523 622.871C273.714 622.433 274.477 621.546 275.127 620.952C275.599 620.525 276.216 620.335 276.844 620.391C277.764 620.469 278.393 620.896 279.347 622.209C279.571 622.512 280.2 622.68 280.446 622.242Z" fill="#2B37A5"/>
<path d="M272.838 623.746C273.175 622.433 274.353 621.816 275.184 621.939C276.508 622.141 278.146 622.972 278.023 625.799C277.899 628.627 277.776 636.269 277.54 637.245C276.979 639.49 274.499 638.895 273.702 637.066C273.276 636.067 272.838 633.531 272.614 630.479C272.468 628.38 272.255 626.058 272.838 623.746Z" fill="#202D74"/>
<path d="M313.18 470.955C312.675 470.079 311.227 468.935 310.026 468.643C306.548 467.779 302.979 469.372 300.544 471.605C300.544 471.605 299.489 472.638 297.941 473.827C296.392 475.017 294.911 476.756 294.024 478.742C291.747 483.859 295.427 488.191 294.496 489.773C293.564 491.366 289.794 491.647 289.525 494.912C289.255 498.189 290.725 498.963 289.525 502.083C289.525 502.094 289.525 502.094 289.525 502.094C287.931 504.069 286.596 506.235 286.012 508.939C284.239 517.108 293.003 519.083 296.74 516.817C300.477 514.55 302.889 515.941 304.752 515.089C311.609 511.947 308.063 495.159 308.253 491.176C308.287 490.446 308.287 489.627 308.276 488.752C308.242 485.542 309.69 482.558 312.001 480.336C314.088 478.338 315.525 474.994 313.18 470.955Z" fill="#2E3AAA"/>
<path d="M248.094 638.843L528.588 638.843" stroke="#0A7CA4" stroke-miterlimit="10" stroke-linecap="round"/>
<defs>
<linearGradient id="paint0_linear" x1="198.653" y1="20.092" x2="956.938" y2="717.249" gradientUnits="userSpaceOnUse">
<stop stop-color="#46B8E9"/>
<stop offset="0.843073" stop-color="#9A64EB"/>
</linearGradient>
</defs>
</svg>
