<svg width="905" height="1155" viewBox="0 0 905 1155" fill="none" xmlns="http://www.w3.org/2000/svg">
<path fill-rule="evenodd" clip-rule="evenodd" d="M536.067 -423.248C686.073 -448.748 775.014 -253.553 901.167 -168.571C1000.96 -101.346 1115.64 -66.3059 1197.21 22.1245C1300.19 133.776 1437.65 250.663 1427.66 402.209C1417.65 554.086 1253.25 638.91 1149.21 750.098C1045.18 861.287 970.266 1023.08 820.556 1051.07C670.975 1079.04 523.578 985.362 405.801 889.097C306.214 807.699 273.089 678.801 221.167 561.16C174.682 455.838 108.647 354.64 119.32 240.009C130.168 123.505 217.001 36.246 279.268 -62.8526C359.712 -190.881 386.949 -397.899 536.067 -423.248Z" fill="#46B8E9" fill-opacity="0.4"/>
<path fill-rule="evenodd" clip-rule="evenodd" d="M599.649 -332.572C730.789 -354.865 808.545 -184.219 918.832 -109.925C1006.07 -51.1544 1106.33 -20.5208 1177.64 56.7881C1267.68 154.398 1387.84 256.584 1379.11 389.071C1370.36 521.847 1226.63 596.004 1135.68 693.208C1044.74 790.414 979.241 931.861 848.359 956.333C717.591 980.783 588.73 898.885 485.766 814.726C398.703 743.565 369.744 630.878 324.352 528.033C283.713 435.956 225.983 347.485 235.314 247.27C244.797 145.419 320.71 69.1337 375.146 -17.5018C445.473 -129.429 469.285 -310.411 599.649 -332.572Z" fill="#C4C4C4"/>
<path fill-rule="evenodd" clip-rule="evenodd" d="M599.649 -332.572C730.789 -354.865 808.545 -184.219 918.832 -109.925C1006.07 -51.1544 1106.33 -20.5208 1177.64 56.7881C1267.68 154.398 1387.84 256.584 1379.11 389.071C1370.36 521.847 1226.63 596.004 1135.68 693.208C1044.74 790.414 979.241 931.861 848.359 956.333C717.591 980.783 588.73 898.885 485.766 814.726C398.703 743.565 369.744 630.878 324.352 528.033C283.713 435.956 225.983 347.485 235.314 247.27C244.797 145.419 320.71 69.1337 375.146 -17.5018C445.473 -129.429 469.285 -310.411 599.649 -332.572Z" fill="url(#paint0_linear)"/>
<path d="M705.045 360.42C701.294 360.42 697.637 361.448 694.369 363.237C694.68 352.484 686.728 344.127 675.648 344.127C663.742 344.127 652.755 353.775 651.075 365.665C650.966 366.459 650.903 367.252 650.872 368.03C649.908 367.844 648.911 367.75 647.869 367.75C638.78 367.75 630.377 375.111 629.101 384.2C627.824 393.288 634.158 400.649 643.247 400.649H699.38C710.492 400.649 720.763 391.639 722.319 380.543C723.891 369.431 716.141 360.42 705.045 360.42Z" fill="#E9F8FF"/>
<path d="M624.323 287.791C621.506 287.791 618.767 288.569 616.324 289.907C616.557 281.83 610.597 275.559 602.271 275.559C593.338 275.559 585.09 282.795 583.83 291.728C583.752 292.319 583.705 292.911 583.674 293.502C582.958 293.362 582.196 293.284 581.418 293.284C574.601 293.284 568.299 298.809 567.334 305.625C566.369 312.441 571.131 317.966 577.947 317.966H620.075C628.416 317.966 636.119 311.212 637.286 302.871C638.469 294.545 632.664 287.791 624.323 287.791Z" fill="#E9F8FF"/>
<path opacity="0.5" d="M388.351 274.266C385.846 274.266 383.402 274.95 381.239 276.149C381.442 268.974 376.15 263.387 368.758 263.387C360.821 263.387 353.476 269.815 352.371 277.767C352.293 278.296 352.247 278.825 352.231 279.339C351.593 279.214 350.924 279.152 350.223 279.152C344.17 279.152 338.552 284.07 337.711 290.124C336.855 296.177 341.088 301.095 347.142 301.095H384.585C391.993 301.095 398.84 295.088 399.883 287.68C400.91 280.273 395.759 274.266 388.351 274.266Z" fill="#E9F8FF"/>
<path d="M537.859 311.43L538.73 305.19C538.792 304.769 538.497 304.427 538.076 304.427H536.178C535.835 304.427 535.571 304.178 535.54 303.851C535.353 301.517 534.746 299.323 533.766 297.362C533.626 297.066 533.703 296.693 533.984 296.444L535.509 295.105C535.851 294.81 535.913 294.327 535.664 294.016L531.867 289.596C531.603 289.3 531.12 289.3 530.778 289.596L529.253 290.935C528.972 291.184 528.583 291.215 528.319 291.028C526.529 289.783 524.475 288.865 522.203 288.351C521.876 288.273 521.674 287.978 521.72 287.635L521.985 285.737C522.047 285.317 521.752 284.974 521.331 284.974H515.091C514.671 284.974 514.282 285.317 514.219 285.737L513.955 287.635C513.908 287.978 513.628 288.273 513.27 288.351C510.858 288.865 508.539 289.783 506.407 291.028C506.096 291.215 505.722 291.184 505.504 290.935L504.353 289.596C504.088 289.3 503.606 289.3 503.263 289.596L498.221 294.016C497.879 294.312 497.817 294.794 498.066 295.105L499.217 296.444C499.435 296.693 499.404 297.066 499.186 297.362C497.661 299.323 496.447 301.517 495.591 303.851C495.467 304.194 495.14 304.427 494.798 304.427H492.899C492.479 304.427 492.09 304.769 492.027 305.19L491.156 311.43C491.094 311.85 491.389 312.193 491.81 312.193H493.708C494.051 312.193 494.315 312.442 494.346 312.768C494.533 315.103 495.14 317.297 496.12 319.258C496.26 319.554 496.183 319.927 495.902 320.176L494.377 321.515C494.035 321.81 493.973 322.293 494.222 322.604L498.019 327.024C498.284 327.319 498.766 327.319 499.108 327.024L500.633 325.685C500.914 325.436 501.303 325.405 501.567 325.592C503.357 326.837 505.411 327.755 507.668 328.269C507.994 328.346 508.197 328.642 508.15 328.984L507.886 330.883C507.823 331.303 508.119 331.646 508.539 331.646H514.78C515.2 331.646 515.589 331.303 515.651 330.883L515.916 328.984C515.962 328.642 516.243 328.346 516.6 328.269C519.013 327.755 521.331 326.837 523.463 325.592C523.775 325.405 524.148 325.436 524.366 325.685L525.518 327.024C525.782 327.319 526.265 327.319 526.607 327.024L531.649 322.604C531.992 322.308 532.054 321.826 531.805 321.515L530.653 320.176C530.435 319.927 530.466 319.554 530.684 319.258C532.209 317.297 533.423 315.118 534.279 312.768C534.404 312.426 534.731 312.193 535.073 312.193H536.972C537.407 312.208 537.796 311.866 537.859 311.43ZM511.994 320.129C506.625 319.554 502.828 315.165 502.968 309.718C503.155 302.528 509.613 296.428 516.632 296.428C523.199 296.428 527.774 301.75 526.84 308.318C525.876 315.305 519.044 320.908 511.994 320.129Z" fill="#E9F8FF"/>
<path d="M566.898 331.91L567.614 326.79C567.661 326.448 567.427 326.168 567.069 326.168H565.513C565.233 326.168 565.015 325.965 564.999 325.685C564.844 323.771 564.346 321.966 563.552 320.363C563.428 320.13 563.505 319.818 563.739 319.616L564.984 318.527C565.264 318.278 565.326 317.889 565.108 317.64L561.996 314.014C561.778 313.765 561.389 313.765 561.109 314.014L559.864 315.103C559.63 315.305 559.319 315.336 559.101 315.181C557.638 314.154 555.942 313.407 554.09 312.986C553.826 312.924 553.654 312.691 553.701 312.395L553.919 310.839C553.966 310.496 553.732 310.216 553.374 310.216H548.254C547.912 310.216 547.585 310.496 547.538 310.839L547.321 312.395C547.274 312.675 547.04 312.924 546.76 312.986C544.784 313.407 542.885 314.169 541.127 315.181C540.862 315.336 540.567 315.305 540.38 315.103L539.446 314.014C539.228 313.765 538.839 313.765 538.559 314.014L534.419 317.64C534.139 317.889 534.077 318.278 534.295 318.527L535.244 319.616C535.415 319.818 535.4 320.13 535.213 320.363C533.968 321.966 532.957 323.771 532.272 325.685C532.178 325.965 531.898 326.168 531.618 326.168H530.062C529.72 326.168 529.393 326.448 529.346 326.79L528.63 331.91C528.584 332.253 528.817 332.533 529.175 332.533H530.731C531.011 332.533 531.229 332.735 531.245 333.015C531.4 334.929 531.898 336.735 532.692 338.337C532.816 338.571 532.739 338.882 532.505 339.084L531.26 340.174C530.98 340.423 530.918 340.812 531.136 341.061L534.248 344.687C534.466 344.936 534.855 344.936 535.135 344.687L536.38 343.582C536.614 343.38 536.925 343.349 537.143 343.504C538.606 344.531 540.302 345.278 542.154 345.698C542.418 345.761 542.59 345.994 542.543 346.29L542.325 347.846C542.278 348.188 542.512 348.469 542.87 348.469H547.99C548.332 348.469 548.659 348.188 548.706 347.846L548.924 346.29C548.97 346.01 549.204 345.761 549.484 345.698C551.46 345.278 553.359 344.516 555.117 343.504C555.382 343.349 555.678 343.38 555.864 343.582L556.814 344.687C557.032 344.936 557.421 344.936 557.701 344.687L561.84 341.061C562.12 340.812 562.183 340.423 561.965 340.174L561.015 339.069C560.844 338.867 560.86 338.555 561.047 338.322C562.292 336.719 563.303 334.914 563.988 333C564.081 332.719 564.361 332.517 564.641 332.517H566.198C566.54 332.533 566.851 332.253 566.898 331.91ZM545.671 339.053C541.267 338.571 538.154 334.976 538.263 330.51C538.419 324.611 543.71 319.6 549.484 319.6C554.868 319.6 558.619 323.973 557.872 329.358C557.063 335.085 551.46 339.676 545.671 339.053Z" fill="#E9F8FF"/>
<path d="M448.329 371.906C446.134 371.906 444.609 370.132 444.92 367.938C445.232 365.743 447.255 363.969 449.449 363.969C451.643 363.969 453.168 365.743 452.857 367.938C452.562 370.132 450.523 371.906 448.329 371.906ZM449.293 365.136C447.753 365.136 446.321 366.397 446.103 367.938C445.885 369.478 446.959 370.739 448.5 370.739C450.04 370.739 451.472 369.478 451.69 367.938C451.908 366.397 450.834 365.136 449.293 365.136Z" fill="#E9F8FF"/>
<path d="M462.179 371.905C459.985 371.905 458.46 370.131 458.771 367.937C459.082 365.743 461.105 363.969 463.3 363.969C465.494 363.969 467.019 365.743 466.708 367.937C466.397 370.131 464.373 371.905 462.179 371.905ZM463.128 365.136C461.588 365.136 460.156 366.396 459.938 367.937C459.72 369.478 460.794 370.738 462.335 370.738C463.875 370.738 465.307 369.478 465.525 367.937C465.743 366.396 464.669 365.136 463.128 365.136Z" fill="#E9F8FF"/>
<path d="M701.248 448.986H695.832C695.49 448.986 695.241 448.706 695.288 448.348L696.05 442.932C696.097 442.59 696.424 442.294 696.766 442.294H702.182C702.524 442.294 702.773 442.574 702.727 442.932L701.964 448.348C701.933 448.69 701.606 448.986 701.248 448.986Z" fill="#E9F8FF"/>
<path d="M709.792 448.986H704.376C704.034 448.986 703.785 448.706 703.832 448.348L704.594 442.932C704.641 442.59 704.968 442.294 705.31 442.294H710.726C711.068 442.294 711.317 442.574 711.27 442.932L710.508 448.348C710.461 448.69 710.134 448.986 709.792 448.986Z" fill="#E9F8FF"/>
<path d="M718.725 448.986H713.309C712.967 448.986 712.718 448.706 712.764 448.348L713.527 442.932C713.574 442.59 713.9 442.294 714.243 442.294H719.659C720.001 442.294 720.25 442.574 720.203 442.932L719.441 448.348C719.394 448.69 719.067 448.986 718.725 448.986Z" fill="#E9F8FF"/>
<path d="M348.481 524.277H343.065C342.722 524.277 342.473 523.997 342.52 523.639L343.283 518.223C343.329 517.881 343.656 517.585 343.999 517.585H349.414C349.757 517.585 350.006 517.865 349.959 518.223L349.196 523.639C349.15 523.997 348.838 524.277 348.481 524.277Z" fill="#D2F0FC"/>
<path d="M357.413 524.277H351.998C351.655 524.277 351.406 523.996 351.453 523.638L352.216 518.223C352.262 517.88 352.589 517.585 352.931 517.585H358.347C358.69 517.585 358.939 517.865 358.892 518.223L358.129 523.638C358.083 523.996 357.756 524.277 357.413 524.277Z" fill="#D2F0FC"/>
<path d="M366.346 524.277H360.93C360.588 524.277 360.339 523.996 360.386 523.638L361.148 518.223C361.195 517.88 361.522 517.585 361.864 517.585H367.28C367.622 517.585 367.871 517.865 367.824 518.223L367.062 523.638C367.015 523.996 366.688 524.277 366.346 524.277Z" fill="#D2F0FC"/>
<path d="M424.969 333.467H419.554C419.211 333.467 418.962 333.187 419.009 332.829L419.772 327.413C419.818 327.071 420.145 326.775 420.487 326.775H425.903C426.246 326.775 426.495 327.055 426.448 327.413L425.685 332.829C425.639 333.187 425.327 333.467 424.969 333.467Z" fill="#A0D3FC"/>
<path d="M433.902 333.466H428.487C428.144 333.466 427.895 333.186 427.942 332.828L428.705 327.413C428.751 327.07 429.078 326.775 429.42 326.775H434.836C435.179 326.775 435.428 327.055 435.381 327.413L434.618 332.828C434.572 333.186 434.26 333.466 433.902 333.466Z" fill="#A0D3FC"/>
<path d="M442.835 333.466H437.419C437.077 333.466 436.828 333.186 436.875 332.828L437.637 327.413C437.684 327.07 438.011 326.775 438.353 326.775H443.769C444.111 326.775 444.36 327.055 444.313 327.413L443.551 332.828C443.504 333.186 443.193 333.466 442.835 333.466Z" fill="#A0D3FC"/>
<path d="M680.068 280.119H674.652C674.31 280.119 674.061 279.839 674.107 279.481L674.87 274.066C674.917 273.723 675.243 273.427 675.586 273.427H681.001C681.344 273.427 681.593 273.708 681.546 274.066L680.784 279.481C680.737 279.839 680.426 280.119 680.068 280.119Z" fill="#E9F8FF"/>
<path d="M689.001 280.119H683.585C683.243 280.119 682.994 279.839 683.04 279.481L683.803 274.065C683.85 273.723 684.176 273.427 684.519 273.427H689.934C690.277 273.427 690.526 273.707 690.479 274.065L689.717 279.481C689.67 279.839 689.359 280.119 689.001 280.119Z" fill="#E9F8FF"/>
<path d="M697.933 280.119H692.518C692.175 280.119 691.926 279.839 691.973 279.481L692.735 274.065C692.782 273.723 693.109 273.427 693.451 273.427H698.867C699.209 273.427 699.458 273.707 699.412 274.065L698.649 279.481C698.602 279.839 698.291 280.119 697.933 280.119Z" fill="#E9F8FF"/>
<path d="M337.852 226.692H332.436C332.094 226.692 331.845 226.412 331.891 226.054L332.654 220.638C332.7 220.296 333.027 220 333.37 220H338.785C339.128 220 339.377 220.28 339.33 220.638L338.567 226.054C338.521 226.412 338.194 226.692 337.852 226.692Z" fill="#E9F8FF"/>
<path d="M346.784 226.692H341.368C341.026 226.692 340.777 226.412 340.824 226.054L341.586 220.638C341.633 220.296 341.96 220 342.302 220H347.718C348.06 220 348.309 220.28 348.263 220.638L347.5 226.054C347.453 226.412 347.126 226.692 346.784 226.692Z" fill="#E9F8FF"/>
<path d="M355.717 226.692H350.302C349.959 226.692 349.71 226.412 349.757 226.054L350.519 220.638C350.566 220.296 350.893 220 351.235 220H356.651C356.993 220 357.242 220.28 357.196 220.638L356.433 226.054C356.386 226.412 356.06 226.692 355.717 226.692Z" fill="#E9F8FF"/>
<path d="M744.029 429.159C741.834 429.159 740.309 427.385 740.62 425.191C740.932 422.997 742.955 421.223 745.149 421.223C747.343 421.223 748.868 422.997 748.557 425.191C748.246 427.37 746.223 429.159 744.029 429.159ZM744.978 422.39C743.437 422.39 742.005 423.65 741.788 425.191C741.57 426.732 742.643 427.992 744.184 427.992C745.725 427.992 747.157 426.732 747.374 425.191C747.592 423.65 746.518 422.39 744.978 422.39Z" fill="#E9F8FF"/>
<path d="M747.966 504.777C747.702 506.644 745.974 508.154 744.107 508.154C742.239 508.154 740.932 506.644 741.197 504.777C741.461 502.909 743.189 501.4 745.056 501.4C746.924 501.384 748.231 502.894 747.966 504.777Z" fill="#A0D3FC"/>
<path d="M278.248 604.22C278.061 605.574 276.8 606.679 275.446 606.679C274.093 606.679 273.143 605.574 273.33 604.22C273.517 602.866 274.777 601.761 276.131 601.761C277.485 601.761 278.434 602.866 278.248 604.22Z" fill="#E9F8FF"/>
<path d="M387.838 440.209C387.651 441.563 386.39 442.667 385.036 442.667C383.682 442.667 382.733 441.563 382.92 440.209C383.107 438.855 384.367 437.75 385.721 437.75C387.075 437.75 388.024 438.855 387.838 440.209Z" fill="#E9F8FF"/>
<path d="M525.378 270.096C525.238 271.092 524.32 271.902 523.324 271.902C522.328 271.902 521.643 271.092 521.767 270.096C521.907 269.101 522.826 268.291 523.822 268.291C524.818 268.291 525.518 269.101 525.378 270.096Z" fill="#E9F8FF"/>
<path d="M678.698 330.136H672.426C671.773 330.136 671.321 329.607 671.415 328.953C671.508 328.3 672.1 327.771 672.753 327.771H679.025C679.678 327.771 680.13 328.3 680.036 328.953C679.959 329.607 679.352 330.136 678.698 330.136Z" fill="#E9F8FF"/>
<path d="M675.134 333.264C674.48 333.264 674.029 332.735 674.122 332.081L675.009 325.81C675.103 325.156 675.694 324.627 676.348 324.627C677.001 324.627 677.453 325.156 677.359 325.81L676.472 332.081C676.379 332.735 675.772 333.264 675.134 333.264Z" fill="#E9F8FF"/>
<path d="M692.082 573.111H685.81C685.156 573.111 684.705 572.582 684.798 571.929C684.892 571.275 685.483 570.746 686.137 570.746H692.408C693.062 570.746 693.513 571.275 693.42 571.929C693.327 572.582 692.735 573.111 692.082 573.111Z" fill="#A0D3FC"/>
<path d="M688.518 576.239C687.864 576.239 687.413 575.71 687.506 575.057L688.393 568.785C688.487 568.131 689.078 567.618 689.732 567.618C690.385 567.618 690.836 568.147 690.743 568.785L689.856 575.057C689.763 575.71 689.156 576.239 688.518 576.239Z" fill="#A0D3FC"/>
<path d="M478.255 286.11H471.983C471.33 286.11 470.878 285.581 470.972 284.927C471.065 284.274 471.657 283.745 472.31 283.745H478.582C479.235 283.745 479.687 284.274 479.593 284.927C479.5 285.581 478.893 286.11 478.255 286.11Z" fill="#E9F8FF"/>
<path d="M474.676 289.238C474.022 289.238 473.571 288.709 473.664 288.071L474.551 281.799C474.644 281.146 475.236 280.616 475.889 280.616C476.543 280.616 476.994 281.146 476.901 281.799L476.014 288.071C475.921 288.709 475.329 289.238 474.676 289.238Z" fill="#E9F8FF"/>
<path d="M655.822 342.166L655.713 342.073C655.682 342.057 655.666 342.042 655.635 342.01L644.103 333.451L643.823 337.855C643.325 337.824 642.843 337.778 642.345 337.778H529.331C515.574 337.778 502.844 348.936 500.914 362.693L464.996 618.242C464.483 621.915 464.809 625.401 465.805 628.544L459.036 628.218L472.746 638.629C472.949 638.784 473.151 638.94 473.353 639.096L473.68 639.345L473.664 639.298C477.166 641.741 481.523 643.158 486.41 643.158H599.424C613.181 643.158 625.911 631.999 627.841 618.242L663.758 362.693C664.957 354.18 661.72 346.664 655.822 342.166Z" fill="#1B9ECC"/>
<path d="M587.518 634.318H474.505C460.748 634.318 451.161 623.16 453.091 609.403L489.009 353.854C490.939 340.096 503.669 328.938 517.426 328.938H630.439C644.197 328.938 653.783 340.096 651.853 353.854L615.92 609.418C613.99 623.176 601.276 634.318 587.518 634.318Z" fill="#D1EEFE"/>
<path d="M645.535 355.316L609.99 608.251C608.434 619.284 598.241 628.217 587.207 628.217H476.512C465.478 628.217 457.791 619.269 459.347 608.251L494.891 355.316C496.448 344.298 506.625 335.349 517.675 335.349H536.474C538.061 335.349 539.415 336.19 540.007 337.575L542.637 343.597C543.57 345.745 545.702 347.083 548.177 347.083H594.553C597.043 347.083 599.533 345.745 601.089 343.597L605.4 337.575C606.38 336.205 607.967 335.349 609.555 335.349H628.354C639.403 335.349 647.091 344.282 645.535 355.316Z" fill="white"/>
<path d="M584.515 341.964H552.176C550.978 341.964 550.153 340.999 550.309 339.801C550.48 338.603 551.585 337.638 552.783 337.638H585.122C586.32 337.638 587.145 338.603 586.974 339.801C586.818 340.999 585.713 341.964 584.515 341.964Z" fill="#1F7BA3"/>
<path d="M594.49 339.801C594.319 340.999 593.214 341.964 592.016 341.964C590.818 341.964 589.993 340.999 590.148 339.801C590.32 338.602 591.424 337.637 592.623 337.637C593.821 337.637 594.646 338.602 594.49 339.801Z" fill="#1F7BA3"/>
<path d="M654.265 379.811L654.561 379.22L652.429 379.983C651.246 380.434 650.297 381.523 650.11 382.799L645.753 413.753C645.488 415.651 646.842 417.208 648.756 417.208H648.772C649.114 417.208 649.457 417.145 649.768 417.036L651.744 416.352L651.122 416.243C651.713 415.698 652.118 414.982 652.242 414.189L656.6 383.219C656.864 381.523 655.837 380.107 654.265 379.811Z" fill="#0A617F"/>
<path d="M650.748 416.507H650.733C648.819 416.507 647.465 414.951 647.729 413.053L652.087 382.099C652.32 380.434 653.892 379.064 655.588 379.064C657.503 379.064 658.856 380.621 658.592 382.519L654.234 413.488C653.985 415.138 652.414 416.507 650.748 416.507Z" fill="#0583A5"/>
<path d="M648.165 421.471L648.461 420.88L646.329 421.642C645.146 422.094 644.197 423.183 644.01 424.459L639.652 455.413C639.388 457.311 640.742 458.868 642.656 458.868H642.671C643.014 458.868 643.356 458.805 643.667 458.696L645.644 458.012L645.021 457.903C645.613 457.358 646.017 456.642 646.142 455.848L650.499 424.879C650.764 423.183 649.737 421.782 648.165 421.471Z" fill="#0A617F"/>
<path d="M644.648 458.168H644.632C642.718 458.168 641.364 456.611 641.629 454.713L645.986 423.759C646.22 422.094 647.791 420.725 649.488 420.725C651.402 420.725 652.756 422.281 652.491 424.179L648.134 455.149C647.885 456.814 646.329 458.168 644.648 458.168Z" fill="#0583A5"/>
<path d="M623.639 400.416H503.295C500.54 400.416 498.611 398.175 499 395.42L503.886 360.654C504.275 357.899 506.828 355.658 509.582 355.658H629.926C632.68 355.658 634.61 357.899 634.221 360.654L629.335 395.42C628.945 398.175 626.393 400.416 623.639 400.416Z" stroke="#37A6CC" stroke-width="0.8513" stroke-miterlimit="10"/>
<path d="M593.603 609.527H473.26C470.505 609.527 468.575 607.286 468.965 604.532L473.851 569.765C474.24 567.011 476.792 564.77 479.547 564.77H599.891C602.645 564.77 604.575 567.011 604.186 569.765L599.299 604.532C598.91 607.286 596.358 609.527 593.603 609.527Z" fill="#E6F9FF"/>
<path d="M589.261 515.032H588.95L589.417 511.671C590.195 506.146 586.336 501.649 580.811 501.649C575.286 501.649 570.166 506.146 569.388 511.671L568.921 515.032H568.859C567.303 515.032 565.871 516.293 565.653 517.849L563.864 530.532C563.646 532.089 564.72 533.349 566.276 533.349H586.678C588.234 533.349 589.666 532.089 589.884 530.532L591.674 517.849C591.891 516.293 590.818 515.032 589.261 515.032ZM571.925 511.671C572.501 507.547 576.329 504.185 580.453 504.185C584.577 504.185 587.456 507.547 586.88 511.671L586.413 515.032H571.458L571.925 511.671Z" fill="#71B8FF"/>
<path d="M581.433 521.553C581.714 519.53 580.095 517.927 577.947 518.347C576.671 518.596 575.504 519.608 575.068 520.837C574.555 522.331 575.068 523.685 576.127 524.354C576.345 524.494 576.438 524.743 576.329 525.008L575.473 527.109C574.96 528.354 575.722 529.583 577.014 529.583C578.305 529.583 579.426 528.354 579.255 527.109L578.99 525.039C578.959 524.774 579.13 524.51 579.395 524.385C580.453 523.825 581.262 522.767 581.433 521.553Z" fill="white"/>
<path d="M587.674 537.785H564.066C563.397 537.785 562.93 537.24 563.023 536.586C563.117 535.917 563.739 535.388 564.393 535.388H588.001C588.67 535.388 589.137 535.933 589.043 536.586C588.95 537.24 588.328 537.785 587.674 537.785Z" fill="#71B8FF"/>
<path d="M587.098 541.862H563.475C562.805 541.862 562.339 541.317 562.432 540.664C562.525 539.994 563.148 539.465 563.801 539.465H587.41C588.079 539.465 588.546 540.01 588.452 540.664C588.374 541.333 587.752 541.862 587.098 541.862Z" fill="#71B8FF"/>
<path d="M600.56 553.814H547.492C544.737 553.814 542.823 551.589 543.212 548.834L550.667 495.767C551.056 493.012 553.592 490.787 556.347 490.787H609.415C612.169 490.787 614.083 493.012 613.694 495.767L606.24 548.834C605.851 551.589 603.299 553.814 600.56 553.814Z" stroke="#37A6CC" stroke-width="0.8513" stroke-miterlimit="10"/>
<path d="M553.95 424.725L551.025 422.437L550.091 424.133H501.49C499.529 424.133 497.724 425.721 497.443 427.682L491.172 472.283L488.682 473.217L492.121 475.956V475.94C492.65 476.361 493.319 476.625 494.098 476.625H544.691C546.652 476.625 548.457 475.038 548.737 473.077L555.118 427.682C555.304 426.437 554.822 425.363 553.95 424.725Z" fill="#0A9ABC"/>
<path d="M551.943 425.192L545.563 470.587C545.282 472.548 543.477 474.135 541.516 474.135H490.923C488.962 474.135 487.593 472.548 487.873 470.587L494.253 425.192C494.534 423.231 496.339 421.643 498.3 421.643H548.893C550.854 421.643 552.223 423.231 551.943 425.192Z" fill="#A9E2FC"/>
<path d="M521.052 474.12H490.923C488.962 474.12 487.593 472.532 487.873 470.571L491.234 446.605L499.047 435.727C500.494 433.72 503.404 433.72 504.276 435.727L517.504 465.996L521.052 474.12Z" fill="white"/>
<path d="M546.014 467.381L545.562 470.571C545.282 472.532 543.477 474.12 541.516 474.12H511.683L517.504 466.012L531.603 446.372C533.05 444.364 535.961 444.364 536.832 446.372L546.014 467.381Z" fill="white"/>
<path d="M543.321 432.693C542.746 436.848 538.902 440.209 534.747 440.209C530.592 440.209 527.712 436.848 528.288 432.693C528.864 428.537 532.708 425.176 536.863 425.176C541.018 425.192 543.913 428.553 543.321 432.693Z" fill="white"/>
<path d="M616.682 470.991H578.212C577.216 470.991 576.531 470.182 576.671 469.202C576.811 468.206 577.73 467.412 578.726 467.412H617.196C618.192 467.412 618.876 468.221 618.736 469.202C618.581 470.198 617.678 470.991 616.682 470.991Z" fill="#A9E2FC"/>
<path d="M562.09 463.101H603.174C604.17 463.101 605.088 462.292 605.228 461.312C605.368 460.316 604.684 459.522 603.688 459.522H562.603C561.607 459.522 560.689 460.331 560.549 461.312C560.409 462.292 561.094 463.101 562.09 463.101Z" fill="#A9E2FC"/>
<path d="M595.673 431.65H566.525C565.529 431.65 564.844 430.84 564.984 429.86C565.124 428.864 566.043 428.07 567.039 428.07H596.187C597.183 428.07 597.868 428.88 597.728 429.86C597.572 430.84 596.669 431.65 595.673 431.65Z" fill="#A9E2FC"/>
<path d="M576.391 439.54H565.404C564.408 439.54 563.724 438.731 563.864 437.75C564.004 436.754 564.922 435.96 565.918 435.96H576.905C577.901 435.96 578.586 436.77 578.446 437.75C578.29 438.731 577.372 439.54 576.391 439.54Z" fill="#A9E2FC"/>
<path d="M621.102 439.54H582.632C581.636 439.54 580.951 438.731 581.091 437.75C581.231 436.754 582.149 435.96 583.145 435.96H621.616C622.612 435.96 623.296 436.77 623.156 437.75C623.016 438.731 622.098 439.54 621.102 439.54Z" fill="#A9E2FC"/>
<path d="M622.207 431.65H602.209C601.213 431.65 600.529 430.84 600.669 429.86C600.809 428.864 601.727 428.07 602.723 428.07H622.721C623.717 428.07 624.401 428.88 624.261 429.86C624.121 430.84 623.203 431.65 622.207 431.65Z" fill="#A9E2FC"/>
<path d="M566.229 447.43H564.299C563.303 447.43 562.619 446.62 562.759 445.64C562.899 444.644 563.817 443.85 564.813 443.85H566.743C567.739 443.85 568.423 444.66 568.283 445.64C568.128 446.636 567.21 447.43 566.229 447.43Z" fill="#A9E2FC"/>
<path d="M593.899 447.43H572.065C571.069 447.43 570.384 446.62 570.525 445.64C570.665 444.644 571.583 443.85 572.579 443.85H594.413C595.409 443.85 596.093 444.66 595.953 445.64C595.813 446.636 594.895 447.43 593.899 447.43Z" fill="#A9E2FC"/>
<path d="M574.166 455.336H563.179C562.183 455.336 561.498 454.526 561.638 453.546C561.778 452.55 562.696 451.756 563.692 451.756H574.679C575.675 451.756 576.36 452.566 576.22 453.546C576.08 454.526 575.162 455.336 574.166 455.336Z" fill="#A9E2FC"/>
<path d="M618.877 455.336H580.407C579.411 455.336 578.726 454.526 578.866 453.546C579.006 452.55 579.924 451.756 580.92 451.756H619.39C620.386 451.756 621.071 452.566 620.931 453.546C620.791 454.526 619.873 455.336 618.877 455.336Z" fill="#A9E2FC"/>
<path d="M619.997 447.43H600C599.004 447.43 598.319 446.62 598.459 445.64C598.599 444.644 599.517 443.85 600.513 443.85H620.511C621.507 443.85 622.192 444.66 622.051 445.64C621.896 446.636 620.978 447.43 619.997 447.43Z" fill="#A9E2FC"/>
<path d="M609.197 463.101H617.787C618.783 463.101 619.702 462.292 619.842 461.312C619.982 460.316 619.297 459.522 618.301 459.522H609.71C608.714 459.522 607.796 460.331 607.656 461.312C607.516 462.292 608.201 463.101 609.197 463.101Z" fill="#A9E2FC"/>
<path d="M571.956 470.991H560.985C559.989 470.991 559.304 470.182 559.444 469.202C559.584 468.206 560.502 467.412 561.498 467.412H572.485C573.481 467.412 574.166 468.221 574.026 469.202C573.87 470.198 572.952 470.991 571.956 470.991Z" fill="#A9E2FC"/>
<path d="M517.395 533.769H495.483C489.118 533.769 484.651 528.572 485.538 522.207C486.425 515.842 492.37 510.644 498.735 510.644H520.647C527.012 510.644 531.479 515.842 530.591 522.207C529.689 528.556 523.76 533.769 517.395 533.769Z" fill="#A9E2FC"/>
<path d="M498.548 528.665C498.175 528.665 497.801 528.51 497.537 528.198L493.039 522.97C492.573 522.425 492.619 521.584 493.164 521.102L498.922 516.044C499.467 515.562 500.307 515.609 500.789 516.169C501.272 516.713 501.21 517.554 500.665 518.036L495.887 522.223L499.529 526.456C500.011 527.016 499.949 527.841 499.389 528.323C499.171 528.556 498.86 528.665 498.548 528.665Z" fill="white"/>
<path d="M516.134 528.665C515.76 528.665 515.402 528.51 515.138 528.214C514.655 527.67 514.718 526.829 515.262 526.347L520.242 521.989L516.756 517.927C516.274 517.367 516.336 516.542 516.896 516.06C517.441 515.578 518.281 515.64 518.764 516.2L523.106 521.258C523.573 521.803 523.526 522.643 522.981 523.125L517.021 528.354C516.756 528.557 516.445 528.665 516.134 528.665Z" fill="white"/>
<path d="M505.707 528.665C505.52 528.665 505.318 528.619 505.147 528.541C504.493 528.229 504.197 527.436 504.524 526.782L509.395 516.495C509.706 515.842 510.5 515.546 511.154 515.873C511.807 516.184 512.103 516.978 511.776 517.631L506.905 527.918C506.672 528.385 506.189 528.665 505.707 528.665Z" fill="white"/>
<path d="M392.974 499.61H325.667C324.655 499.61 323.939 498.785 324.079 497.774L329.573 458.728C329.713 457.716 330.662 456.891 331.674 456.891H398.981C399.992 456.891 400.708 457.716 400.568 458.728L395.075 497.774C394.919 498.785 393.985 499.61 392.974 499.61Z" fill="#E9F8FF"/>
<path d="M392.211 492.872H328.312C327.425 492.872 326.803 492.156 326.927 491.269L331.285 460.253C331.409 459.366 332.234 458.65 333.105 458.65H397.004C397.891 458.65 398.514 459.366 398.389 460.253L394.032 491.269C393.923 492.14 393.098 492.872 392.211 492.872Z" fill="#77BDE0"/>
<path d="M390.282 506.146H326.523C325.604 506.146 324.951 505.399 325.075 504.465C325.2 503.547 326.056 502.784 326.989 502.784H390.748C391.667 502.784 392.32 503.531 392.196 504.465C392.056 505.399 391.2 506.146 390.282 506.146Z" fill="#77BDE0"/>
<path opacity="0.31" d="M391.915 497.447H327.316C326.616 497.447 326.133 496.886 326.242 496.186C326.336 495.486 326.974 494.926 327.674 494.926H392.273C392.974 494.926 393.456 495.486 393.347 496.186C393.254 496.886 392.616 497.447 391.915 497.447Z" fill="#77BDE0"/>
<path d="M354.893 497.447H327.316C326.616 497.447 326.133 496.886 326.242 496.186C326.336 495.486 326.974 494.926 327.674 494.926H355.25C355.951 494.926 356.433 495.486 356.324 496.186C356.215 496.886 355.577 497.447 354.893 497.447Z" fill="#77BDE0"/>
<path opacity="0.2" d="M370.928 484.581C376.543 479.348 377.407 471.15 372.859 466.271C368.311 461.392 360.073 461.68 354.458 466.914C348.844 472.147 347.979 480.345 352.527 485.224C357.075 490.103 365.314 489.815 370.928 484.581Z" fill="white"/>
<path d="M360.931 470.15L368.37 474.835C369.023 475.239 368.883 476.266 368.105 476.687L359.344 481.371C358.581 481.775 357.756 481.262 357.865 480.453L359.188 471.1C359.328 470.259 360.277 469.746 360.931 470.15Z" fill="white"/>
<path d="M358.534 496.201C358.348 497.571 357.071 498.691 355.702 498.691C354.332 498.691 353.368 497.571 353.57 496.201C353.757 494.832 355.033 493.711 356.402 493.711C357.772 493.711 358.721 494.816 358.534 496.201Z" fill="#274F89"/>
<path d="M755.001 594.369L723.191 614.025L696.906 594.369H755.001Z" fill="#B8E6F4"/>
<path d="M755.001 594.369L731.984 566.979C730.957 565.766 728.996 565.766 727.626 566.979L696.906 594.369H755.001Z" fill="#B8E6F4"/>
<path d="M746.301 622.382H697.746L704.111 577.08C704.329 575.586 705.699 574.372 707.193 574.372H750.332C751.826 574.372 752.868 575.586 752.666 577.08L746.301 622.382Z" fill="#D1EEFE"/>
<path d="M752.137 580.799H703.582L704.112 577.079C704.329 575.585 705.699 574.372 707.193 574.372H750.332C751.826 574.372 752.868 575.585 752.666 577.079L752.137 580.799Z" fill="#01BBEC"/>
<path d="M709.294 577.577C709.185 578.34 708.485 578.947 707.738 578.947C706.991 578.947 706.461 578.34 706.57 577.577C706.679 576.815 707.38 576.208 708.127 576.208C708.874 576.223 709.403 576.83 709.294 577.577Z" fill="white"/>
<path d="M713.776 577.577C713.667 578.34 712.966 578.947 712.219 578.947C711.457 578.947 710.943 578.34 711.037 577.577C711.146 576.815 711.846 576.208 712.593 576.208C713.355 576.223 713.885 576.83 713.776 577.577Z" fill="white"/>
<path d="M718.258 577.577C718.149 578.34 717.449 578.947 716.702 578.947C715.939 578.947 715.425 578.34 715.534 577.577C715.643 576.815 716.344 576.208 717.091 576.208C717.838 576.223 718.351 576.83 718.258 577.577Z" fill="white"/>
<path d="M716.126 597.139H708.702L706.757 600.578H703.909L712.686 585.716H715.41L720.032 600.578H717.153L716.126 597.139ZM715.519 594.976L713.636 588.486L709.947 594.976H715.519Z" fill="white"/>
<path d="M747.453 586.837H725.432L725.634 585.452H747.639L747.453 586.837Z" fill="white"/>
<path d="M746.924 590.587H724.903L725.105 589.202H747.11L746.924 590.587Z" fill="white"/>
<path d="M746.395 594.322H724.389L724.576 592.953H746.581L746.395 594.322Z" fill="white"/>
<path d="M745.865 598.073H723.86L724.047 596.688H746.068L745.865 598.073Z" fill="white"/>
<path d="M745.336 601.823H723.331L723.533 600.438H745.539L745.336 601.823Z" fill="white"/>
<path d="M744.823 605.558H704.003L704.189 604.173H745.009L744.823 605.558Z" fill="white"/>
<path d="M744.293 609.309H703.473L703.66 607.924H744.48L744.293 609.309Z" fill="white"/>
<path d="M743.764 613.044H702.944L703.147 611.659H743.951L743.764 613.044Z" fill="white"/>
<path d="M743.235 616.794H702.415L702.618 615.409H743.438L743.235 616.794Z" fill="white"/>
<path d="M755.001 594.37L749.958 630.194C749.803 631.252 749.196 632.217 748.356 632.84C747.671 633.369 746.846 633.664 745.99 633.664H694.883C692.954 633.664 691.6 632.093 691.88 630.179L696.922 594.354L723.207 614.009H723.222L755.001 594.37Z" fill="white"/>
<path d="M755.001 594.369L749.958 630.194C749.803 631.252 749.196 632.217 748.356 632.84L723.207 614.009L755.001 594.369Z" fill="#E9F8FF"/>
<path d="M704.968 402.999L708.5 399.902L705.839 396.805" stroke="#41B3CE" stroke-width="0.7183" stroke-miterlimit="10" stroke-linecap="round" stroke-linejoin="round"/>
<path d="M708.5 399.902H695.288" stroke="#41B3CE" stroke-width="0.7183" stroke-miterlimit="10" stroke-linecap="round" stroke-dasharray="2.04 2.04"/>
<path d="M682.636 390.066L682.605 390.347C682.511 391.062 681.842 391.638 681.126 391.638H671.851C671.135 391.638 670.482 392.214 670.373 392.93L668.599 405.535C668.505 406.251 669.003 406.827 669.703 406.827H688.596C689.312 406.827 689.966 406.251 690.075 405.535L692.253 390.066C692.362 389.319 691.833 388.728 691.102 388.728H684.176C683.429 388.728 682.745 389.319 682.636 390.066Z" fill="#5699E8"/>
<path d="M686.946 405.566L686.9 405.177L685.919 396.976C685.826 396.198 685.203 395.653 684.394 395.653H668.132C667.587 395.653 667.104 396.166 667.167 396.711L668.209 405.364C668.318 406.235 669.019 406.842 669.906 406.842H686.371H687.086H688.487C687.382 406.827 687.04 406.048 686.946 405.566Z" fill="#71B8FF"/>
<path d="M726.911 390.066L726.88 390.347C726.786 391.062 726.117 391.638 725.401 391.638H716.126C715.41 391.638 714.757 392.214 714.648 392.93L712.873 405.535C712.78 406.251 713.278 406.827 713.978 406.827H732.871C733.587 406.827 734.241 406.251 734.35 405.535L736.528 390.066C736.637 389.319 736.108 388.728 735.377 388.728H728.451C727.689 388.728 727.004 389.319 726.911 390.066Z" fill="#5699E8"/>
<path d="M731.206 405.566L731.159 405.177L730.179 396.976C730.085 396.198 729.463 395.653 728.654 395.653H712.406C711.862 395.653 711.379 396.166 711.442 396.711L712.484 405.364C712.593 406.235 713.294 406.842 714.181 406.842H730.646H731.361H732.762C731.657 406.827 731.315 406.048 731.206 405.566Z" fill="#71B8FF"/>
<path d="M660.195 670.267L654.265 672.913L650.032 672.664L648.99 664.665L648.523 661.085L658.156 659.047L659.214 658.829L659.245 659.28L659.557 665.925L659.666 668.12L660.195 670.267Z" fill="#FEB3B0"/>
<path d="M659.463 663.793C655.168 664.167 650.593 663.358 648.772 662.984L648.523 661.086L658.156 659.047C658.545 659.14 658.903 659.218 659.245 659.28L659.463 663.793Z" fill="#E87C7C"/>
<path d="M611.375 657.304L611.142 658.409L609.648 665.396L609.539 665.926C609.228 667.357 609.243 668.836 609.601 670.252L603.672 672.882L599.424 672.633L599.719 662.657L599.797 659.95L609.399 657.74L611.375 657.304Z" fill="#FEB3B0"/>
<path d="M611.143 658.41L610.069 663.467C605.198 663.296 600.949 661.149 599.751 660.495L599.813 658.285L609.384 657.771C609.991 657.974 610.582 658.192 611.143 658.41Z" fill="#E87C7C"/>
<path d="M599.47 670.75C599.47 670.75 580.593 677.488 583.97 679.496C584.624 679.885 610.006 680.787 611.111 679.262C612.216 677.737 609.586 670.283 609.586 670.283C609.586 670.283 606.224 671.87 599.47 670.75Z" fill="#122835"/>
<path d="M646.998 539.341L622.705 542.687C622.705 542.687 611.018 566.746 605.524 584.643C605.431 584.752 602.163 595.132 601.727 599.054C600.653 609.045 598.801 659.109 598.801 659.109C598.801 659.109 604.544 661.879 611.92 660.51C611.92 660.51 618.176 634.692 619.873 627.237C622.238 616.764 622.238 602.322 622.238 602.322C622.238 602.322 646.92 566.42 649.721 560.117C652.507 553.83 646.998 539.341 646.998 539.341Z" fill="#002774"/>
<path d="M636.913 566.389L626.16 596.595L642.734 572.24L636.913 566.389Z" fill="#0A2530"/>
<path d="M670.046 556.911C670.046 556.911 656.973 599.786 656.164 603.054C655.355 606.322 659.23 610.197 660.459 622.242C661.689 634.287 660.444 660.852 660.444 660.852C660.444 660.852 652.974 662.424 646.936 661.584C646.936 661.584 634.221 609.076 634.735 601.622C635.248 594.168 638.096 547.014 638.096 547.014" fill="#002774"/>
<path d="M639.637 515.702L636.804 526.689C627.296 523.857 608.481 516.62 608.481 516.62C608.481 516.62 605.431 515.266 603.408 515.717C603.143 515.78 602.847 515.811 602.521 515.811C601.135 515.935 598.397 516.106 596.591 515.78C595.082 515.5 589.37 511.749 588.639 509.072C587.907 506.396 590.989 505.088 592.047 505.431C593.09 505.789 594.164 506.738 598.256 507.672C599.891 507.999 601.462 508.356 601.96 507.999C602.598 507.547 599.61 507.065 598.241 506.505C596.871 505.944 596.7 504.948 598.832 504.824C600.964 504.699 603.812 504.964 605.104 506.52C606.38 508.076 609.555 509.15 609.555 509.15C609.555 509.15 630.113 512.978 639.59 515.702C639.606 515.702 639.621 515.702 639.637 515.702Z" fill="#FEB3B0"/>
<path d="M671.758 521.273C671.711 524.386 671.633 527.576 671.54 530.735C671.151 542.905 670.45 554.701 670.061 560.086C667.058 560.662 656.506 560.117 646.749 558.732C636.82 557.316 628.743 554.406 619.266 548.57C619.266 548.57 625.179 523.794 626.876 514.971C626.985 514.426 627.078 513.928 627.14 513.492C627.171 513.383 627.187 513.259 627.203 513.134C627.996 509.135 630.159 499.408 634.003 491.409C638.454 482.165 643.403 481.543 644.399 481.511C649.099 484.204 655.993 486.445 664.21 489.604C665.984 490.289 667.976 491.145 670.061 492.094C670.046 492.109 670.046 492.109 670.046 492.109C670.046 492.109 671.649 500.295 671.773 512.574C671.804 515.328 671.789 518.254 671.758 521.273Z" fill="#F15A25"/>
<path d="M671.758 521.274C671.711 524.386 671.633 527.577 671.54 530.736C669.797 534.206 667.851 537.692 666.591 538.781C663.852 541.194 661.377 540.711 661.377 540.711L667.649 526.689C657.378 521.461 656.709 516.698 656.709 516.698L671.758 521.274Z" fill="#0C2D3D"/>
<path d="M661.253 483.893C660.77 486.429 662.747 488.406 664.21 489.604C663.836 490.258 662.373 492.141 661.408 492.872C650.172 501.323 642.967 492.919 643.356 486.585C643.481 484.562 644.056 482.025 644.585 481.512C645.706 481.854 647.013 481.963 647.978 480.485C648.243 480.08 648.476 479.566 648.678 478.913L648.71 478.897C647.029 478.43 644.445 477.434 643.309 475.847C639.683 470.789 647.994 453.204 647.994 453.204C653.752 440.334 670.154 448.846 670.964 456.036C671.477 460.534 669.812 465.856 667.011 470.353C666.886 470.54 661.984 480.189 661.253 483.893Z" fill="#FEB3B0"/>
<path d="M655.059 477.979C655.059 477.979 652.522 481.045 647.994 480.484C648.258 480.08 648.492 479.566 648.694 478.913L648.725 478.897C648.71 478.897 651.869 479.473 655.059 477.979Z" fill="#E87C7C"/>
<path d="M630.782 478.555L630.61 479.208C630.159 480.92 628.416 481.932 626.704 481.48L604.528 475.613C602.816 475.162 601.073 476.173 600.622 477.885L592.654 508.03C592.203 509.742 593.214 511.484 594.926 511.936L640.072 523.888C641.784 524.339 643.527 523.327 643.979 521.616L653.767 484.655C654.234 482.881 653.176 481.06 651.402 480.593L634.859 476.22C633.069 475.722 631.249 476.78 630.782 478.555Z" fill="#E28B2D"/>
<path d="M641.535 491.596L641.426 523.499L599.47 512.387C596.996 511.734 595.284 507.08 595.299 504.528L595.393 478.99C595.393 477.434 596.887 476.282 598.412 476.687L638.205 487.223C640.166 487.752 641.551 489.542 641.535 491.596Z" fill="#FFECD7"/>
<path d="M639.637 493.759L639.528 523.265L597.572 512.154C595.097 511.5 593.385 509.244 593.401 506.691L593.494 481.154C593.494 479.597 594.988 478.446 596.513 478.85L636.306 489.386C638.267 489.915 639.652 491.705 639.637 493.759Z" fill="#FFFAF5"/>
<path d="M636.477 519.701V518.689L636.555 497.727C636.555 495.751 635.233 494.008 633.318 493.494L594.459 483.207C593.152 482.865 591.86 483.845 591.845 485.215L591.767 507.313C591.751 509.523 593.245 511.469 595.393 512.044L634.766 522.456L636.477 522.907L639.839 523.794C637.162 523.109 636.586 520.977 636.477 519.701Z" fill="#F49F38"/>
<path d="M671.882 453.064C672.053 451.679 671.493 450.216 670.59 448.909C670.59 448.909 667.384 443.757 665.517 442.73C663.634 441.688 663.183 443.477 663.183 443.477C663.183 443.477 659.619 439.058 656.833 439.058C654.281 439.058 654.203 441.89 654.203 441.89C654.203 441.89 649.923 437.859 646.749 439.945C643.247 442.232 644.321 446.699 646.064 450.34C649.114 456.736 656.491 460.176 663.292 461.607L661.408 466.261C661.408 466.261 660.677 468.081 661.144 468.253C661.471 468.377 662.638 466.821 662.638 466.821C662.638 466.821 664.225 464.58 665.859 465.358C669.112 466.899 664.49 475.489 664.49 475.489C664.49 475.489 671.337 468.408 674.216 464.02C676.364 460.783 676.753 454.947 671.882 453.064Z" fill="#0E273A"/>
<path d="M665.424 469.513C664.537 470.774 662.638 471.599 662.171 470.852C661.891 470.416 662.187 469.669 662.576 468.984C662.871 468.611 663.65 468.906 664.039 468.284C664.443 467.63 663.914 467.272 664.241 466.899C664.599 466.619 664.988 466.416 665.299 466.494C665.937 466.681 666.482 468.019 665.424 469.513Z" fill="#E87C7C"/>
<path d="M672.644 519.997C672.551 519.484 672.489 518.986 672.504 518.488C672.551 518.97 672.598 519.484 672.644 519.997Z" fill="#12364C"/>
<path d="M672.504 521.289C672.504 521.289 672.318 521.74 671.991 522.518C671.524 523.623 670.762 525.382 669.89 527.358C667.867 531.871 665.19 537.505 663.649 539.217C660.973 542.189 651.48 536.431 652.725 530.237C653.409 526.907 655.65 522.269 657.596 518.705C658.172 517.647 658.716 516.682 659.183 515.873C660.086 514.317 660.708 513.336 660.708 513.336L668.956 518.892L670.279 519.795L672.504 521.289Z" fill="#FEB3B0"/>
<path d="M671.991 522.518C671.524 523.623 670.761 525.381 669.89 527.358C662.124 525.055 657.596 518.705 657.596 518.705C658.171 517.647 658.716 516.682 659.183 515.873L661.875 516.324L668.956 518.892L669.89 519.234C669.89 519.234 670.045 519.437 670.279 519.795C670.699 520.401 671.368 521.413 671.991 522.518Z" fill="#E87C7C"/>
<path d="M664.023 538.75L658.67 527.405C658.67 527.405 650.11 524.308 638.688 522.27C635.248 521.663 631.249 520.791 628.401 520.122C627.918 519.966 625.818 519.375 625.133 518.13C624.339 516.698 624.339 515.531 623.654 514.52C622.97 513.492 622.503 511.858 621.958 511.002C621.413 510.162 620.729 511.205 620.9 512.341C621.071 513.539 621.367 514.986 620.993 515.484C620.62 515.967 618.472 514.488 617.818 514.488C617.165 514.488 615.017 519.142 615.313 521.258C615.609 523.375 619.795 523.717 620.915 523.873C622.005 524.028 626.02 525.927 626.191 526.005C632.681 529.086 646.936 535.902 651.309 538.143C656.989 541.085 661.409 542.361 664.023 538.75Z" fill="#FEB3B0"/>
<path d="M670.061 492.094C670.061 492.094 676.239 494.755 678.263 500.249C680.286 505.742 672.504 524.339 672.504 524.339C672.504 524.339 661.175 521.165 656.693 516.698C657.284 512.979 670.061 492.094 670.061 492.094Z" fill="#F15A25"/>
<path d="M618.41 514.675C618.41 514.675 615.671 513.585 613.912 512.979C612.138 512.372 611.811 511.593 610.582 511.982C609.352 512.387 609.399 515.811 610.099 517.569C611.064 519.997 616.449 522.736 616.449 522.736L618.192 519.452L618.41 514.675Z" fill="#FEB3B0"/>
<path d="M649.846 671.325C649.846 671.325 630.953 677.488 634.33 679.496C634.984 679.885 660.599 680.787 661.704 679.262C662.809 677.737 660.179 670.283 660.179 670.283C660.179 670.283 653.627 671.792 649.846 671.325Z" fill="#122835"/>
<path d="M507.015 418.904L398.623 428.677C396.74 428.848 395.075 427.463 394.903 425.58L392.118 394.595C391.947 392.712 393.332 391.047 395.215 390.876L503.606 381.103C505.489 380.932 507.155 382.317 507.326 384.2L510.111 415.184C510.283 417.068 508.898 418.733 507.015 418.904Z" fill="#A0D3FC"/>
<path d="M451.41 530.688C451.41 530.688 450.974 534.486 445.481 534.952C419.43 537.1 412.286 527.747 408.256 525.677L442.944 525.522C442.944 525.506 451.161 526.72 451.41 530.688Z" fill="#C17B0A"/>
<path d="M446.539 547.309L433.047 547.589L415.025 543.901L407.509 541.411C409.143 539.232 410.995 533.116 412.24 528.385C413.142 524.977 413.734 522.3 413.734 522.3L427.273 520.853L433.778 520.153C433.778 520.153 442.353 518.954 444.283 523.623C444.563 524.292 444.703 525.07 444.656 526.004C444.563 528.121 444.672 530.766 444.89 533.474C445.419 540.213 446.539 547.309 446.539 547.309Z" fill="#E49191"/>
<path d="M444.89 533.474C444.89 533.474 443.287 530.906 436.47 529.443C422.262 526.393 412.24 528.385 412.24 528.385C413.142 524.977 413.734 522.3 413.734 522.3L427.273 520.853C432.891 521.538 440.205 522.487 442.384 523.016C443.131 523.203 443.754 523.405 444.283 523.623C444.563 524.292 444.703 525.07 444.656 526.004C444.563 528.12 444.672 530.766 444.89 533.474Z" fill="#C55F60"/>
<path d="M476.357 430.624C476.357 430.624 476.466 429.005 476.575 427.324C476.684 425.784 475.983 424.772 475.921 424.399C475.75 423.403 475.921 421.706 475.921 421.706L478.084 421.504C478.084 421.504 479.002 420.181 479.905 418.469C480.154 418.002 480.31 417.504 480.31 416.975C480.31 415.621 480.356 415.466 480.434 414.672C480.527 413.583 481.414 413.178 481.741 414.47C482.052 415.668 482.021 417.333 482.021 417.956C482.021 418.594 480.87 421.317 480.87 421.317C480.87 421.317 484.185 423.231 484.278 423.854C484.371 424.492 482.846 427.029 481.679 431.604" fill="#E49191"/>
<path d="M481.555 414.92C481.555 414.92 481.212 413.395 481.912 413.208C482.488 413.053 482.815 414.251 482.986 414.92C483.157 415.574 483.469 417.675 483.593 418.375C483.718 419.075 482.084 423.168 482.084 423.168L480.216 421.519L481.134 416.741" fill="#E49191"/>
<path d="M482.846 415.838C482.846 415.838 482.753 414.718 483.282 414.469C483.811 414.22 484.107 415.169 484.278 415.838C484.449 416.492 484.76 418.593 484.885 419.293C485.009 419.994 483.375 424.086 483.375 424.086L481.508 422.437L482.426 417.659" fill="#E49191"/>
<path d="M484.9 416.43C484.807 417.037 485.056 418.002 485.118 418.437C485.181 418.935 484.589 420.009 484.589 420.009L483.36 423.542L483.967 425.067L485.881 420.616L486.208 419.713C486.379 419.184 486.41 418.624 486.285 418.079C486.005 416.912 485.461 415.123 484.9 416.43Z" fill="#E49191"/>
<path d="M419.087 435.976C419.087 435.976 420.924 431.385 420.893 430.794C420.862 430.202 419.725 427.137 419.554 426.545C419.399 425.954 419.648 422.25 420.13 421.565C420.612 420.88 421.11 421.363 421.297 422.048C421.5 422.732 421.64 424.117 421.608 424.553C421.577 424.989 422.651 426.498 422.651 426.498L428.02 426.016L429.919 425.845C429.919 425.845 429.576 427.526 429.187 428.537C428.798 429.564 428.02 430.187 427.475 430.7C426.946 431.214 425.53 435.089 425.063 436.567" fill="#E49191"/>
<path d="M400.568 646.566L398.047 652.137L397.456 653.475L395.199 658.471C391.916 658.658 388.118 656.137 388.118 656.137L389.254 651.748L389.955 649.025L391.464 643.173L400.568 646.566Z" fill="#E49191"/>
<path d="M398.047 652.137L397.456 653.476C394.11 653.725 390.624 652.355 389.254 651.748L389.954 649.025L396.382 650.472L398.047 652.137Z" fill="#C55F60"/>
<path d="M419.025 434.918C419.025 434.918 423.414 435.322 425.935 436.349C425.935 436.349 422.853 455.304 419.803 462.603C417.36 468.47 422.029 484.25 422.029 484.25L413.142 490.289C413.142 490.289 408.987 468.937 408.474 463.615C407.96 458.292 419.025 434.918 419.025 434.918Z" fill="#FFA401"/>
<path d="M447.753 653.273L447.473 655.374L446.897 659.903L446.353 664.042C442.742 665.24 438.867 664.042 438.867 664.042L438.603 660.198L438.229 654.923L438.12 653.273H447.753Z" fill="#E49191"/>
<path d="M447.473 655.374L446.897 659.903C444.189 660.556 440.345 660.339 438.602 660.199L438.229 654.923C440.61 654.954 445.481 655.187 447.473 655.374Z" fill="#C55F60"/>
<path d="M436.984 666.968C436.984 666.968 437 664.26 439.147 662.922C439.147 662.922 440.532 661.91 443.209 662.844C444.065 663.139 445.59 664.26 446.353 664.026C446.353 664.026 447.738 666.843 449.356 670.096C450.103 671.59 451.068 673.675 452.313 675.045C454.492 675.683 455.783 677.068 456.079 678.173C456.453 679.589 456.313 679.978 452.313 679.978C452.313 679.978 446.851 678.64 445.341 677.099C443.832 675.543 436.984 666.968 436.984 666.968Z" fill="#2B37A5"/>
<path d="M445.823 679.978C444.034 679.978 442.369 679.044 441.45 677.504C439.785 674.703 437.513 670.298 437.093 669.053C435.63 664.727 441.326 664.976 442.727 666.517C443.925 667.855 445.652 671.326 447.224 674.422C448.796 677.519 449.932 679.356 452.313 679.994H445.823V679.978Z" fill="#202D74"/>
<path d="M446.539 547.309L445.465 539.294C445.465 539.294 443.442 541.987 432.222 540.788C423.538 539.855 413.392 536.898 410.435 534.672C406.622 537.723 402.404 544.679 403.167 554.872C403.634 561.082 404.179 567.307 403.432 573.485C401.953 585.624 401.237 599.988 400.833 602.929C395.261 614.694 389.192 649.974 389.192 649.974C389.192 649.974 393.783 652.822 398.374 652.806C398.374 652.806 411.804 624.856 417.313 607.582C419.009 602.26 420.939 595.77 422.776 588.845C424.643 581.951 426.417 574.605 427.818 567.54C429.39 559.541 430.495 551.931 430.681 545.722C434.79 546.827 437.809 547.605 437.98 547.574C438.556 547.496 446.539 547.309 446.539 547.309Z" fill="#2B37A5"/>
<path d="M427.802 567.556C426.402 574.621 424.627 581.951 422.76 588.86C417.157 572.504 416.13 555.028 416.13 555.028C416.13 555.028 424.41 564.256 427.802 567.556Z" fill="#0A2530"/>
<path d="M447.613 658.658C447.613 658.658 443.567 659.763 437.949 658.393C437.949 658.393 431.755 619.472 433.047 604.983C433.047 604.983 425.483 584.768 420.41 569.034C419.445 566.031 417.764 560.257 417.08 557.736C415.29 551.153 416.224 545.629 417.936 541.411L446.539 547.309C447.722 558.281 451.239 592.051 451.441 607.598C451.706 626.288 447.613 658.658 447.613 658.658Z" fill="#2B37A5"/>
<path d="M482.706 431.338C482.706 431.338 480.185 457.498 475.112 470.291C472.684 474.29 467.284 480.017 461.868 485.013C454.647 491.673 450.476 500.995 450.461 510.831C450.445 514.643 450.834 521.927 451.41 530.688C451.052 525.023 424.456 526.564 412.364 526.035C410.668 525.957 409.267 525.848 408.256 525.661C412.131 513.912 413.547 507.671 414.356 503.392C417.08 489.168 421.624 480.764 427.849 477.091L440.33 480.406C440.33 480.406 452.422 471.162 464.591 462.945C469.525 451.522 474.987 429.969 474.987 429.969C474.987 429.969 479.469 429.004 482.706 431.338Z" fill="#FFA401"/>
<path d="M440.143 480.484C439.365 480.733 436.112 481.574 433.031 479.457C429.498 477.029 433.093 472.454 433.093 472.454H439.645L439.49 473.668C439.49 473.668 439.427 474.586 439.474 475.816C439.505 477.247 439.661 479.099 440.143 480.484Z" fill="#E49191"/>
<path d="M439.489 473.668C439.489 473.668 439.427 474.586 439.474 475.816C436.875 475.598 434.79 474.135 434.79 474.135C434.79 474.135 437.217 473.559 437.996 472.454H439.645L439.489 473.668Z" fill="#C55F60"/>
<path d="M441.995 454.433C441.995 454.433 444.578 459.491 445.559 465.047C446.072 467.957 444.843 470.914 442.446 472.657C441.513 473.326 440.579 473.871 439.707 474.275C437.062 475.551 433.871 475.022 431.802 472.921C430.635 471.739 429.343 470.089 428.16 467.832C422.884 457.81 434.432 446.637 441.995 454.433Z" fill="#E49191"/>
<path d="M395.868 656.977C395.868 656.977 395.837 659.856 395.682 661.397C395.526 662.937 394.452 676.819 392.943 678.453C392.304 679.138 391.511 679.791 389.721 679.791C387.947 679.791 388.009 677.146 386.329 672.913C384.601 668.571 385.644 661.583 386.266 657.848C386.531 657.241 387.589 656.012 388.492 655.187C389.145 654.596 390.001 654.331 390.873 654.409C392.149 654.518 393.02 655.109 394.343 656.93C394.654 657.35 395.526 657.584 395.868 656.977Z" fill="#2B37A5"/>
<path d="M385.317 659.062C385.784 657.241 387.418 656.385 388.569 656.557C390.406 656.837 392.678 657.988 392.507 661.91C392.336 665.832 392.164 676.43 391.838 677.784C391.059 680.896 387.62 680.071 386.515 677.535C385.924 676.15 385.317 672.632 385.006 668.4C384.803 665.489 384.508 662.268 385.317 659.062Z" fill="#202D74"/>
<path d="M441.264 447.165C440.563 445.951 438.556 444.364 436.891 443.959C432.066 442.761 427.118 444.971 423.74 448.068C423.74 448.068 422.278 449.5 420.13 451.149C417.982 452.799 415.928 455.211 414.699 457.966C411.54 465.062 416.644 471.069 415.352 473.263C414.061 475.473 408.832 475.862 408.458 480.391C408.085 484.935 410.123 486.009 408.458 490.335C408.458 490.351 408.458 490.351 408.458 490.351C406.248 493.09 404.396 496.093 403.587 499.844C401.128 511.173 413.283 513.912 418.465 510.769C423.647 507.625 426.993 509.555 429.576 508.372C439.085 504.015 434.167 480.733 434.432 475.209C434.478 474.197 434.479 473.061 434.463 471.847C434.416 467.396 436.424 463.257 439.63 460.175C442.524 457.405 444.516 452.768 441.264 447.165Z" fill="#2E3AAA"/>
<path d="M351 680L740.001 680" stroke="#0A7CA4" stroke-miterlimit="10" stroke-linecap="round"/>
<defs>
<linearGradient id="paint0_linear" x1="275.5" y1="-136.5" x2="1327.12" y2="830.344" gradientUnits="userSpaceOnUse">
<stop stop-color="#46B8E9"/>
<stop offset="0.843073" stop-color="#9A64EB"/>
</linearGradient>
</defs>
</svg>
