<svg width="160" height="159" viewBox="0 0 160 159" fill="none" xmlns="http://www.w3.org/2000/svg">
<path d="M68.8674 83.798C68.8674 83.798 65.6839 85.6505 71.1368 86.2767C77.7422 87.0309 81.1186 86.9223 88.3968 85.5468C88.3968 85.5468 90.3152 86.7459 92.9869 87.7851C76.6662 94.7773 56.0491 87.3799 68.8674 83.798ZM66.8714 74.6711C66.8714 74.6711 63.3002 77.3166 68.7569 77.8808C75.8141 78.6088 81.3852 78.6689 91.0326 76.8116C91.0326 76.8116 92.3636 78.1648 94.4604 78.9025C74.7313 84.6743 52.7561 79.3572 66.8714 74.6711Z" fill="#0074BD"/>
<path d="M83.6829 59.1886C87.7069 63.8203 82.6282 67.9849 82.6282 67.9849C82.6282 67.9849 92.8389 62.7143 88.1499 56.1117C83.7692 49.957 80.4122 46.9005 98.5912 36.3574C98.5922 36.3574 70.0542 43.4825 83.6829 59.1886Z" fill="#EA2D2E"/>
<path d="M105.269 90.5488C105.269 90.5488 107.626 92.4924 102.672 93.995C93.2539 96.8479 63.4664 97.7088 55.1926 94.1084C52.2204 92.8143 57.7973 91.019 59.551 90.6419C61.3802 90.2454 62.4252 90.3181 62.4252 90.3181C59.1177 87.9886 41.0453 94.8927 53.246 96.8731C86.5195 102.266 113.898 94.4438 105.269 90.5488ZM70.3995 65.2147C70.3995 65.2147 55.2488 68.814 65.0348 70.1227C69.1683 70.6753 77.4024 70.5483 85.078 69.9046C91.349 69.3782 97.6423 68.2528 97.6423 68.2528C97.6423 68.2528 95.4331 69.2008 93.8326 70.2924C78.4444 74.3396 48.7238 72.4541 57.2807 68.3167C64.5152 64.8163 70.3995 65.2147 70.3995 65.2147ZM97.5793 80.4051C113.22 72.2796 105.988 64.4702 100.94 65.522C99.7062 65.7798 99.1517 66.0028 99.1517 66.0028C99.1517 66.0028 99.6121 65.2816 100.487 64.9723C110.474 61.4631 118.153 75.3264 97.2672 80.8171C97.2672 80.8171 97.5066 80.5999 97.5793 80.4051Z" fill="#0074BD"/>
<path d="M88.151 19.3296C88.151 19.3296 96.8125 27.995 79.9344 41.3174C66.3998 52.0069 76.8479 58.1005 79.9286 65.0656C72.0281 57.9366 66.233 51.6608 70.1203 45.8212C75.8291 37.2498 91.6447 33.0921 88.151 19.3296Z" fill="#EA2D2E"/>
<path d="M71.9382 102.432C86.9483 103.391 110.005 101.898 110.551 94.7949C110.551 94.7949 109.502 97.4869 98.1438 99.6235C85.3304 102.035 69.5244 101.755 60.1523 100.208C60.1523 100.208 62.0717 101.798 71.9382 102.432Z" fill="#0074BD"/>
<path d="M109.858 115.171H109.4V114.915H110.631V115.171H110.176V116.448H109.857L109.858 115.171ZM112.315 115.235H112.309L111.856 116.448H111.646L111.196 115.235H111.191V116.448H110.888V114.915H111.331L111.749 116L112.168 114.915H112.608V116.448H112.315V115.235ZM69.4778 129.573C68.0625 130.8 66.5658 131.49 65.2212 131.49C63.3076 131.49 62.2694 130.34 62.2694 128.5C62.2694 126.507 63.3803 125.049 67.8318 125.049H69.4768V129.573H69.4778ZM73.3854 133.981V120.335C73.3854 116.846 71.3953 114.545 66.6026 114.545C63.8049 114.545 61.3524 115.237 59.3583 116.117L59.9322 118.534C61.5026 117.957 63.5335 117.422 65.5266 117.422C68.2893 117.422 69.4768 118.534 69.4768 120.836V122.56H68.0964C61.3873 122.56 58.3598 125.163 58.3598 129.077C58.3598 132.45 60.3548 134.366 64.1112 134.366C66.525 134.366 68.3291 133.37 70.0129 131.911L70.3192 133.982H73.3854V133.981ZM86.4257 133.981H81.5526L75.6868 114.895H79.9434L83.5844 126.624L84.3939 130.148C86.2318 125.05 87.5347 119.876 88.1861 114.896H92.3264C91.2184 121.179 89.2215 128.078 86.4257 133.981ZM105.123 129.573C103.703 130.8 102.206 131.49 100.866 131.49C98.9503 131.49 97.913 130.34 97.913 128.5C97.913 126.507 99.0269 125.049 103.473 125.049H105.122V129.573H105.123ZM109.033 133.981V120.335C109.033 116.846 107.037 114.545 102.248 114.545C99.4476 114.545 96.996 115.237 95.0019 116.117L95.5768 118.534C97.1472 117.957 99.181 117.422 101.174 117.422C103.933 117.422 105.123 118.534 105.123 120.836V122.56H103.743C97.0318 122.56 94.0054 125.163 94.0054 129.077C94.0054 132.45 95.9985 134.366 99.7539 134.366C102.169 134.366 103.97 133.37 105.658 131.911L105.967 133.982H109.033V133.981ZM54.0751 137.225C52.9632 138.853 51.1621 140.141 49.1923 140.867L47.2642 138.594C48.7638 137.824 50.0483 136.582 50.6464 135.425C51.1621 134.394 51.3763 133.069 51.3763 129.898V108.104H55.5292V129.599C55.5292 133.84 55.1919 135.555 54.0751 137.225Z" fill="#EA2D2E"/>
</svg>
