<svg width="158" height="158" viewBox="0 0 158 158" fill="none" xmlns="http://www.w3.org/2000/svg">
<path d="M112.905 68.2707C112.905 87.6731 97.5788 103.417 78.6631 103.417C59.7475 103.417 44.4219 87.6731 44.4219 68.2707C44.4219 48.8681 59.7478 33.1243 78.6631 33.1243C97.579 33.1243 112.905 48.8681 112.905 68.2707" fill="#D33833"/>
<path d="M45.8302 76.974C45.8302 76.974 43.345 40.3314 77.0065 39.2777L74.6594 35.3418L56.4063 41.4952L51.1874 47.51L46.6311 56.2688L44.0352 66.4691L44.8085 73.2878" fill="#EF3D3A"/>
<path d="M55.2189 44.2947C49.2268 50.4758 45.4988 58.9854 45.4988 68.4094C45.4988 77.8333 49.2268 86.3427 55.2189 92.5237C61.2387 98.7047 69.4956 102.502 78.6633 102.502C87.8312 102.502 96.0878 98.7047 102.108 92.524C108.1 86.3427 111.828 77.8333 111.828 68.4094C111.828 58.9851 108.1 50.4758 102.108 44.2947C96.0881 38.1414 87.8312 34.3166 78.6633 34.3166C69.5231 34.3166 61.239 38.1137 55.2189 44.2947ZM53.7002 93.9928C47.3216 87.4514 43.3726 78.3878 43.3726 68.4094C43.3726 58.4309 47.3216 49.3671 53.7002 42.798C60.0791 36.2566 68.9156 32.1821 78.6635 32.1821C88.4112 32.1821 97.2477 36.2566 103.627 42.798C110.005 49.3394 113.954 58.403 113.954 68.4094C113.954 78.3875 110.005 87.4514 103.627 93.9928C97.2477 100.562 88.4112 104.609 78.6633 104.609C68.9156 104.609 60.0791 100.562 53.7002 93.9928Z" fill="#231F20"/>
<path d="M93.078 68.4645L87.8588 69.2405L80.8173 70.0444L76.261 70.1553L71.8152 70.0168L68.4186 68.9637L65.4085 65.6925L63.0613 59.0126L62.5367 57.5712L59.4165 56.5181L57.5936 53.497L56.2959 49.1727L57.7319 45.3756L61.1285 44.1836L63.8623 45.4865L65.16 48.3693L66.734 48.1196L67.2586 47.4545L66.734 44.4331L66.596 40.6357L67.3691 35.3972L67.3415 32.4037L69.7163 28.5787L73.886 25.5573L81.1763 22.4253L89.2673 23.617L96.3088 28.7172L99.5674 33.9558L101.666 37.7532L102.191 47.1771L100.617 55.2984L97.7445 62.5052L95.0386 66.3579" fill="#F0D6B7"/>
<path d="M88.6598 91.1103L70.0202 91.8863V95.0183L71.5942 106.022L70.8208 106.937L57.787 102.475L56.8759 100.895L55.5779 86.0933L52.5127 77.2236L51.8501 75.117L62.2882 67.9105L65.5468 66.6077L68.4186 70.1553L70.9038 72.373L73.7758 73.2876L75.0735 73.6759L76.6476 80.4944L77.8351 81.9358L80.8449 80.8824L78.7462 84.9566L90.068 90.334L88.6598 91.11" fill="#335061"/>
<path d="M57.7321 45.4312L61.1287 44.2395L63.8625 45.5421L65.1602 48.4249L66.7342 48.1755L67.1211 46.5955L66.3477 43.5741L67.1208 36.3676L66.4581 32.4317L68.8053 29.6877L73.8862 25.6408L72.4502 23.6729L65.2707 27.2205L62.2609 29.5768L60.5763 33.2353L57.9806 36.7833L57.2075 40.9687L57.7321 45.4312Z" fill="#6D6B6D"/>
<path d="M63.0894 33.1241C63.0894 33.1241 65.0497 28.2736 72.8646 25.9176C80.6792 23.5616 73.2514 24.2268 73.2514 24.2268L64.7733 27.4976L61.5153 30.7681L60.0793 33.3736L63.0894 33.1241ZM59.1681 44.5163C59.1681 44.5163 56.4341 35.3416 66.8723 34.039L66.4857 32.459L59.3062 34.1499L57.2075 40.9686L57.7321 45.4309L59.1681 44.5163Z" fill="#DCD9D8"/>
<path d="M63.3375 56.6845L65.0493 55.0213C65.0493 55.0213 65.8227 55.1045 65.9608 56.0191C66.0988 56.934 66.4854 65.1939 72.0911 69.6287C72.6157 70.0444 67.9214 68.9633 67.9214 68.9633L63.7514 62.4219L63.3375 56.6845ZM87.3341 54.1897C87.3341 54.1897 87.6377 50.2261 88.7147 50.5311C89.7917 50.8359 89.7917 51.9167 89.7917 51.9167C89.7917 51.9167 87.196 53.5799 87.3341 54.1897ZM98.1588 39.6658C98.1588 39.6658 96.0047 40.1091 95.8116 42.0218C95.6182 43.9341 98.1588 42.4098 98.5453 42.2712L98.1588 39.6658ZM82.3912 39.8043C82.3912 39.8043 79.5192 40.1923 79.5192 42.0218C79.5192 43.8509 82.7778 43.7123 83.6889 42.9363L82.3912 39.8043ZM64.6628 48.3137C64.6628 48.3137 59.7202 45.2923 59.1956 48.1751C58.671 51.0577 57.5111 53.1363 59.9687 56.1577L58.2842 55.6311L56.7104 51.5842L56.1855 47.6483L59.1956 44.5163L62.592 44.7657L64.5526 46.3457L64.6631 48.3137H64.6628ZM67.0102 40.0538C67.0102 40.0538 69.2191 28.523 80.4306 26.3056C89.6534 24.4762 94.5136 26.6939 96.3362 28.8001C96.3362 28.8001 88.1072 18.9882 80.2923 21.9816C72.4777 25.003 66.7339 30.491 66.8719 34.0113C67.0929 40.0535 67.01 40.0535 67.01 40.0535L67.0102 40.0538ZM97.2473 30.103C97.2473 30.103 93.4644 29.9644 93.3261 33.3736C93.3261 33.3736 93.3261 33.9004 93.5749 34.427C93.5749 34.427 96.5847 31.0176 98.4073 32.847" fill="#F7E4CD"/>
<path d="M80.7065 34.7877C80.7065 34.7877 80.0439 29.5768 75.6256 32.5979C72.7536 34.5659 73.0297 37.3099 73.527 37.8367C74.0516 38.3633 73.9135 39.4164 74.3001 38.696C74.6866 37.9753 74.5762 35.6193 76.0122 34.9539C77.4204 34.2888 79.7954 33.5683 80.7065 34.7877Z" fill="#F7E4CD"/>
<path d="M68.446 70.1555L56.1847 75.6432C56.1847 75.6432 61.2659 95.9327 58.6699 102.225L56.8476 101.56L56.7096 93.8262L53.313 79.1914L51.877 75.1443L64.6623 66.4963L68.4454 70.1552L68.446 70.1555ZM69.6883 81.3809L71.428 83.5154V91.3593H69.3571C69.3571 91.3593 69.1086 85.8713 69.1086 85.2062C69.1086 84.5408 69.3571 82.1848 69.3571 82.1848L69.6883 81.3809ZM69.7437 92.5513L63.8619 92.8007L65.5464 93.9927L69.7159 94.6581" fill="#49728B"/>
<path d="M89.8196 91.2487L94.6517 91.1101L95.8392 103.139L90.8963 103.805L89.8193 91.2484" fill="#335061"/>
<path d="M91.1177 91.2489L98.4077 90.8607C98.4077 90.8607 101.418 83.2661 101.418 82.8781C101.418 82.4898 104.013 71.8742 104.013 71.8742L98.1316 65.7209L96.9441 64.6677L93.8238 67.7997V79.9679L91.1177 91.2489Z" fill="#335061"/>
<path d="M94.3756 90.334L89.8193 91.2489L90.4822 94.9077C92.1665 95.6838 95.0385 93.6049 95.0385 93.6049L94.3756 90.334ZM94.5137 67.4117L103.654 74.2302L103.903 71.0979L96.9992 64.6953L94.514 67.4117" fill="#49728B"/>
<path d="M74.2729 117.026L71.5667 106.022L70.2136 97.9011L69.9927 91.8863L82.2256 91.2212H89.8195L89.1293 104.969L90.3165 115.585L90.1785 117.553L80.2649 118.329L74.2729 117.026Z" fill="white"/>
<path d="M88.1349 91.11C88.1349 91.11 87.4722 104.72 89.4329 114.421C89.4329 114.421 85.5116 116.915 79.7954 117.553L90.7584 117.165L92.0561 116.389L90.4823 94.9351L90.0679 90.3337" fill="#DCD9D8"/>
<path d="M96.0323 102.114L101.113 100.673L110.751 100.146L112.187 95.6836L109.591 87.9503L106.581 87.5623L102.411 88.8651L98.4346 90.8331L96.3084 90.4448L94.6514 91.1102" fill="white"/>
<path d="M95.9497 99.481C95.9497 99.481 99.3463 97.9011 99.8709 98.0396L98.4349 90.8331L100.119 90.1677C100.119 90.1677 101.307 96.9865 101.307 97.7625C101.307 97.7625 108.597 98.1505 109.26 98.1505C109.26 98.1505 110.834 95.1292 110.447 91.9971L111.883 96.1826L112.021 98.5385L109.922 101.671L107.575 102.197L103.654 102.059L102.356 100.368L97.7998 101.033L96.3638 101.56" fill="#DCD9D8"/>
<path d="M90.8135 90.1954L87.9414 82.878L84.9316 78.5538C84.9316 78.5538 85.5945 76.7246 86.5057 76.7246H89.5158L92.3878 77.7777L92.139 82.6285L90.8135 90.1954Z" fill="white"/>
<path d="M91.3937 87.701C91.3937 87.701 87.7486 80.633 87.7486 79.5796C87.7486 79.5796 88.4115 77.9996 89.3226 78.3879C90.2341 78.7759 92.1947 79.8293 92.1947 79.8293V77.3345L87.7486 76.4199L84.7388 76.8079L89.8197 88.8929L90.8689 89.0315" fill="#DCD9D8"/>
<path d="M75.4324 70.4326L71.8151 70.0443L68.4185 68.9912V70.1832L70.0752 72.0126L75.2944 74.3686" fill="white"/>
<path d="M69.6066 70.8208C69.6066 70.8208 73.638 72.5117 74.9638 72.1237L75.1016 73.7036L71.4567 72.9273L69.2476 71.3474L69.6066 70.8208Z" fill="#DCD9D8"/>
<path d="M96.0326 77.1681C93.8235 77.1125 91.8075 76.8354 90.0678 76.3365C90.1783 75.6158 89.9574 74.9231 90.1508 74.3962C90.6478 74.0359 91.4485 74.0359 92.194 73.9529C91.559 73.6479 90.6478 73.5093 89.9298 73.7034C89.902 73.2045 89.6813 72.8995 89.543 72.5115C90.7858 72.0679 93.713 69.1577 95.3697 70.0999C96.1706 70.5712 96.5021 73.1766 96.5572 74.4795C96.6123 75.5326 96.4467 76.586 96.0326 77.1681Z" fill="#D33833"/>
<path d="M96.0326 77.1681C93.8235 77.1125 91.8075 76.8354 90.0678 76.3365C90.1783 75.6158 89.9574 74.9231 90.1508 74.3962C90.6478 74.0359 91.4485 74.0359 92.194 73.9529C91.559 73.6479 90.6478 73.5093 89.9298 73.7034C89.902 73.2045 89.6813 72.8995 89.543 72.5115C90.7858 72.0679 93.713 69.1577 95.3697 70.0999C96.1706 70.5712 96.5021 73.1766 96.5572 74.4795C96.6123 75.5326 96.4467 76.586 96.0326 77.1681Z" fill="black" stroke="#D33833" stroke-width="11.9904"/>
<path d="M85.4569 73.5369C85.4569 73.7034 85.4569 73.8693 85.429 74.0358C84.7389 74.4794 83.634 74.4794 82.8609 74.8674C83.9658 74.9227 84.8494 75.1999 85.6225 75.5602C85.5946 75.9761 85.5946 76.4197 85.5674 76.8354C84.2969 77.6947 83.1373 78.9975 81.6461 79.8289C80.9281 80.2171 78.4705 81.215 77.7249 81.0208C77.3105 80.9099 77.2554 80.3833 77.0898 79.8844C76.7308 78.8313 75.9023 77.1125 75.8194 75.5049C75.7365 73.4816 75.5158 70.0722 77.6971 70.4879C79.4643 70.8206 81.5078 71.6245 82.8609 72.3729C83.717 72.8718 84.1864 73.426 85.4569 73.5369Z" fill="#D33833"/>
<path d="M85.4569 73.5369C85.4569 73.7034 85.4569 73.8693 85.429 74.0358C84.7389 74.4794 83.634 74.4794 82.8609 74.8674C83.9658 74.9227 84.8494 75.1999 85.6225 75.5602C85.5946 75.9761 85.5946 76.4197 85.5674 76.8354C84.2969 77.6947 83.1373 78.9975 81.6461 79.8289C80.9281 80.2171 78.4705 81.215 77.7249 81.0208C77.3105 80.9099 77.2554 80.3833 77.0898 79.8844C76.7308 78.8313 75.9023 77.1125 75.8194 75.5049C75.7365 73.4816 75.5158 70.0722 77.6971 70.4879C79.4643 70.8206 81.5078 71.6245 82.8609 72.3729C83.717 72.8718 84.1864 73.426 85.4569 73.5369Z" fill="black" stroke="#D33833" stroke-width="11.9904"/>
<path d="M86.699 75.9486C86.5056 74.8396 86.2846 74.5351 86.3675 73.5647C89.3222 71.5967 89.8468 76.9464 86.6987 75.9486" fill="#D33833"/>
<path d="M86.699 75.9486C86.5056 74.8396 86.2846 74.5351 86.3675 73.5647C89.3222 71.5967 89.8468 76.9464 86.6987 75.9486H86.699Z" fill="black" stroke="#D33833" stroke-width="11.9904"/>
<path d="M90.9514 76.8355C90.9514 76.8355 90.0402 75.5327 90.7028 75.1447C91.3658 74.7567 92.0008 75.1447 92.3874 74.4795C92.7742 73.8141 92.3874 73.4264 92.5254 72.6501C92.6635 71.8741 93.2985 71.7356 93.9614 71.597C94.6241 71.4582 96.4466 71.2087 96.6952 71.8465L95.922 69.4902L94.348 68.9636L89.4051 71.8465L89.1566 73.2879V76.1704L90.9514 76.8355ZM77.2549 81.1595C77.0893 79.1083 76.9238 77.085 76.7579 75.0338C76.4818 71.985 77.4759 72.5113 80.1267 72.5113C80.5411 72.5113 82.6119 72.9828 82.7502 73.2879C83.4682 74.7567 81.5627 74.424 83.5784 75.5327C85.263 76.4475 88.273 74.9785 87.5826 72.8996C87.1957 72.4283 85.5944 72.761 85.0144 72.456L81.9493 70.8763C80.6516 70.2109 77.669 69.2131 76.2884 70.1556C72.7813 72.5392 76.5094 78.5264 77.752 81.0209" fill="#EF3D3A"/>
<path d="M80.7072 34.7878C77.145 33.9562 75.3778 36.2845 74.3007 38.6958C73.3342 38.4743 73.7208 37.1438 73.9696 36.4787C74.6044 34.7325 77.1728 32.3763 79.2712 32.7089C80.1547 32.8198 81.3698 33.6515 80.7072 34.7878ZM98.0212 38.8344H98.1868C98.9877 40.4976 99.6779 42.2717 100.7 43.7684C100.01 45.3761 95.5636 46.7619 95.6187 43.9346C96.5852 43.519 98.2422 43.8514 99.0982 43.2972C98.6012 41.939 97.9107 40.7747 98.0212 38.8347V38.8344ZM82.5022 38.8903C83.2753 40.3037 83.5235 41.7728 84.6006 42.8262C85.0979 43.2972 86.0366 43.8793 85.5674 45.2096C85.4569 45.5146 84.6559 46.2077 84.1865 46.3462C82.5022 46.8451 78.5531 46.4571 79.8787 44.3227C81.2869 44.3782 83.1648 45.2375 84.2143 44.2118C83.4133 42.9368 81.9773 40.3867 82.5022 38.8903ZM97.3861 53.1368C94.8455 54.7723 92.0011 56.5741 87.8041 56.1582C86.9205 55.3821 86.5614 53.6357 87.445 52.4996C87.8867 53.2756 87.6106 54.717 88.8811 54.9385C91.2558 55.3545 94.0171 53.4695 95.7291 52.8323C96.7783 51.0305 95.6465 50.3931 94.68 49.2288C92.7194 46.8728 90.1237 43.9346 90.2063 40.4146C91.0073 39.8325 91.0624 41.3016 91.1728 41.551C92.1945 43.9346 94.7629 47.0113 96.6127 49.0626C97.0822 49.5615 97.8278 50.0604 97.9107 50.3931C98.1592 51.3353 97.2756 52.4993 97.3861 53.1371V53.1368ZM63.7519 51.4185C62.9512 50.9473 62.7581 48.9517 61.8191 48.8961C60.466 48.8131 60.7145 51.5018 60.7145 53.0815C59.8034 52.2501 59.6375 49.6444 60.3004 48.3142C59.5273 47.9259 59.1956 48.7299 58.7539 49.007C59.3339 44.9881 64.6357 47.1499 63.7521 51.4185H63.7519ZM98.9877 54.8277C97.8002 57.1007 96.1157 59.5952 92.6364 59.6785C92.5535 58.9577 92.4984 57.8214 92.6364 57.3778C95.315 57.1007 96.9717 55.7425 98.9877 54.8277ZM82.3088 56.2967C84.5179 57.461 88.6047 57.5996 91.6423 57.5163C91.8079 58.1817 91.8079 59.0131 91.8079 59.817C87.9145 59.9832 83.3304 59.0131 82.3088 56.2967ZM81.8947 58.4588C83.4409 62.3392 88.7152 61.8959 93.161 61.785C92.9679 62.2839 92.5535 62.8937 92.0013 63.0876C90.5653 63.6697 86.6441 64.1133 84.6559 63.0599C83.4133 62.3948 82.5848 60.8701 81.8947 59.9832C81.5908 59.5675 79.9341 58.4865 81.8947 58.4588Z" fill="#231F20"/>
<path d="M97.1923 79.8287C95.3973 82.9331 93.6579 86.1207 91.5317 88.837C92.4151 86.2039 92.8016 81.7691 92.9399 78.3876C94.8176 77.5004 96.4192 78.5815 97.1923 79.829" fill="#81B0C4"/>
<path d="M106.885 90.9717C104.869 91.3873 103.461 93.3553 101.473 93.2168C102.577 91.6921 104.455 91.027 106.885 90.9717ZM107.769 94.1313C106.112 94.2978 104.179 94.5749 102.522 94.4364C103.323 93.2168 106.36 93.6601 107.769 94.1313ZM108.349 96.8756C106.498 96.9032 104.206 96.8756 102.439 96.7368C103.488 95.6004 107.161 96.3211 108.349 96.8756Z" fill="#231F20"/>
<path d="M93.7131 104.359C93.9892 106.688 94.9006 109.044 94.7901 111.594C93.7682 111.926 93.1885 112.231 91.8076 112.231C91.7249 110.069 91.421 106.743 91.5039 104.664C92.1666 104.72 93.1607 104.193 93.7131 104.359Z" fill="#DCD9D8"/>
<path d="M90.7309 69.9893C89.7919 70.5988 89.0188 71.3472 88.1074 72.0126C86.1192 72.1235 85.0422 71.874 83.6064 70.7376C83.634 70.6544 83.772 70.6821 83.772 70.5712C85.8982 71.5137 88.6044 70.1832 90.7309 69.989" fill="#F0D6B7"/>
<path d="M79.6299 84.4854C80.2099 81.9629 82.5019 80.6326 84.5727 79.2468C86.6989 81.9632 87.9969 85.4555 89.4329 88.837C86.0363 87.8115 82.5846 86.1762 79.6299 84.4854Z" fill="#81B0C4"/>
<path d="M91.5037 104.692C91.4207 106.771 91.6968 110.069 91.8073 112.259C93.1882 112.259 93.7679 111.954 94.7898 111.621C94.9003 109.071 93.9889 106.715 93.7128 104.387C93.1604 104.193 92.1663 104.719 91.5037 104.692ZM70.1855 92.9395C71.0969 101.282 72.3946 108.267 74.7969 115.668C80.1266 117.303 86.533 117.442 91.2552 115.973C90.3991 111.815 90.7581 106.743 90.2611 102.28C89.8742 98.9264 90.0677 95.5726 89.5431 92.1632C83.8268 90.9715 75.7637 91.8861 70.1855 92.9395ZM90.8962 92.2188C90.8408 95.7944 91.0617 99.3421 91.3381 102.918C92.7184 102.724 93.6299 102.585 94.9003 102.28C94.4859 98.8432 94.5413 94.9352 93.6853 91.8861C92.7187 91.914 91.8624 91.8861 90.8962 92.2185V92.2188ZM97.8272 91.6367C97.1645 91.4981 96.419 91.6367 95.8115 91.6367C96.1151 94.5471 96.8055 97.7624 97.0541 100.839C98.0206 100.867 98.5452 100.395 99.3461 100.257C99.4012 97.5682 99.1251 93.8541 97.8272 91.6367ZM108.348 101.282C110.392 100.783 111.662 98.289 111.082 95.7112C110.695 93.9927 110.033 90.7221 109.287 89.6131C108.762 88.8094 107.299 87.7284 106.112 88.4767C104.206 89.6963 100.865 90.0567 99.4842 91.5258C100.174 93.8541 100.395 97.014 100.671 99.9519C103.046 100.091 105.946 99.287 107.934 100.146C106.553 100.59 104.786 100.59 103.599 101.255C104.593 101.726 106.857 101.643 108.348 101.283V101.282ZM89.405 88.8371C87.969 85.4556 86.6713 81.9633 84.5448 79.2469C82.4737 80.6325 80.2095 81.9633 79.602 84.4855C82.5842 86.1763 86.0362 87.8116 89.405 88.8371ZM92.9394 78.3877C92.8014 81.7691 92.4148 86.204 91.5312 88.8371C93.6574 86.0931 95.3973 82.9332 97.1921 79.8288C96.419 78.5815 94.8174 77.5005 92.9397 78.3874L92.9394 78.3877ZM88.9355 76.9742C88.1346 76.8907 87.4444 77.9164 86.395 77.4728C86.1464 77.7499 85.9255 78.0273 85.6769 78.3044C87.9966 81.1314 89.0736 85.1232 90.8686 88.4214C91.8351 85.2341 91.7246 81.7691 91.9456 78.3044C90.6201 78.3597 89.8745 77.0572 88.9355 76.9739V76.9742ZM86.3674 73.5645C86.2845 74.5347 86.5054 74.8397 86.6986 75.9484C89.8467 76.9463 89.3221 71.5966 86.3674 73.5645ZM82.8603 72.4005C81.5072 71.6519 79.4639 70.8482 77.6965 70.5158C75.5152 70.0998 75.7359 73.5092 75.8188 75.5328C75.9017 77.1401 76.7302 78.831 77.0892 79.912C77.2548 80.411 77.3099 80.9375 77.7243 81.0484C78.4699 81.2149 80.9551 80.2448 81.6455 79.8565C83.1366 79.0528 84.2963 77.7502 85.5667 76.863C85.5943 76.4474 85.5943 76.0038 85.6218 75.5881C84.8487 75.1998 83.9927 74.9506 82.8603 74.8953C83.6061 74.507 84.7382 74.507 85.4284 74.0637C85.4284 73.8972 85.4284 73.731 85.4563 73.5645C84.1858 73.426 83.7163 72.8718 82.8603 72.4005ZM69.8819 70.0445C68.7497 71.2085 73.0572 72.7609 74.4106 72.8441C74.4106 72.1234 74.8247 71.4306 74.7418 70.9038C73.1126 70.6267 70.9864 70.8205 69.8819 70.0445ZM83.7995 70.5711C83.7995 70.682 83.6612 70.6543 83.6337 70.7376C85.0973 71.8739 86.174 72.1231 88.1346 72.0125C89.0185 71.375 89.8191 70.599 90.7581 69.9889C88.6041 70.1831 85.8979 71.5136 83.7993 70.5711H83.7995ZM96.557 74.4517C96.5019 73.1765 96.1702 70.5434 95.3695 70.0722C93.7128 69.102 90.7857 72.0401 89.5431 72.4837C89.6811 72.8718 89.9021 73.1765 89.9296 73.6754C90.6755 73.4816 91.5588 73.6201 92.1939 73.9249C91.4483 74.0081 90.6476 74.0081 90.1506 74.3685C89.9847 74.895 90.2057 75.5881 90.0677 76.3088C91.8073 76.8077 93.8233 77.0572 96.0324 77.1401C96.4465 76.5859 96.6121 75.5325 96.557 74.4517ZM67.9763 71.1532C67.6173 70.9038 65.2151 67.7715 64.8836 67.9101C60.5483 69.6289 56.489 72.5946 52.8714 75.4216C56.3232 82.8778 57.7316 91.997 57.9802 100.783C61.9292 102.641 65.4082 105.329 70.793 105.606C70.1579 101.199 69.6058 97.2355 69.2468 93.0778C67.8937 92.4959 65.9606 93.1057 64.6905 92.9116C64.6905 91.3872 66.6233 92.2465 66.7889 91.221C66.8996 90.4447 65.7118 90.3894 66.0987 89.1698C67.0928 89.5301 67.6173 90.3338 68.6668 90.6388C69.6333 88.5323 68.6668 84.7905 68.8048 83.0164C68.8327 82.684 68.9704 81.187 69.716 81.4364C70.3789 81.6582 69.6884 85.4556 69.7438 87.1186C69.7989 88.6709 69.5504 90.1399 70.1855 91.1101C75.3771 90.3894 80.6514 89.9458 86.2845 89.7796C85.0419 89.253 83.5783 88.7541 81.9767 87.8393C81.0931 87.3404 78.3594 86.3149 78.1109 85.4833C77.6965 84.1528 79.16 83.46 79.4086 82.3233C76.7853 83.7648 76.2883 80.9378 75.6532 78.9695C75.1008 77.1678 74.7696 75.8099 74.6316 74.7841C72.3395 73.6201 69.9094 72.5391 67.9763 71.1532ZM94.265 68.2704C97.8826 66.5245 98.5452 74.8397 97.1092 77.5284C97.3301 78.3321 98.0757 78.6371 98.3796 79.3576C96.3636 82.9887 94.1272 86.3702 92.0558 89.9458C93.5748 88.9756 95.7839 89.7796 97.5787 89.0589C98.2416 88.8094 98.711 87.285 99.2081 86.0654C100.588 82.7393 102.024 78.5259 102.66 75.3666C102.798 74.6459 103.212 73.0656 103.101 72.4282C102.936 71.2641 101.389 70.4049 100.588 69.7118C99.1251 68.3813 98.2137 67.2452 96.6672 65.9977C96.0875 66.9125 94.762 67.522 94.265 68.2707V68.2704ZM59.7198 36.09C58.0077 38.0027 58.3667 41.5506 58.5601 44.1005C61.6804 42.1328 65.795 44.267 65.7672 47.5931C67.2583 47.5652 66.3196 45.736 66.0436 44.5441C65.1597 40.6914 67.5347 36.5336 66.1538 33.0136C63.4754 33.2351 61.2939 34.3162 59.7198 36.0903V36.09ZM72.0356 25.0308C68.1422 26.1395 63.144 28.9944 61.5424 32.5144C62.785 32.3206 63.641 31.7108 64.8561 31.6275C65.3256 31.5999 65.9331 31.8217 66.4577 31.6831C67.5069 31.406 68.4183 29.0221 69.2189 28.1352C69.9923 27.2759 70.931 26.8879 71.5664 26.1119C71.9805 25.9177 72.5877 25.9177 72.6156 25.3079C72.45 25.1138 72.2566 24.9755 72.0356 25.0308ZM92.3319 26.0839C88.2729 23.7836 81.4246 22.065 77.1168 24.2269C73.6372 25.973 68.9432 28.8556 67.3413 32.4871C68.8324 36.0068 66.8996 39.222 66.7613 42.7976C66.7062 44.7103 67.6452 46.3459 67.7278 48.4247C67.2032 49.284 65.6567 49.367 64.58 49.3116C64.221 47.4819 63.5859 45.431 61.708 45.2092C59.0572 44.9044 57.0966 47.1219 56.9861 49.4225C56.848 52.1389 59.0572 56.629 62.205 56.3243C63.4201 56.2134 63.724 54.9938 65.0492 54.9938C65.7672 56.4352 63.9449 56.8785 63.7515 57.904C63.6961 58.1814 63.8895 59.2068 64.0276 59.7057C64.6075 62.0617 65.8777 65.1384 67.1203 66.9402C68.7219 69.2406 71.8425 69.5733 75.2113 69.7951C75.8188 68.4922 78.0279 68.6031 79.4637 68.9358C77.7243 68.243 76.1227 66.5798 74.7972 65.1108C73.2782 63.4199 71.732 61.6184 71.649 59.401C74.5486 63.4199 76.9234 66.9402 82.1701 68.7143C86.1464 70.0445 90.7857 68.1042 93.8508 65.9424C95.121 65.0552 95.8666 63.614 96.778 62.3388C100.147 57.4607 101.721 50.531 101.389 43.7957C101.251 41.0241 101.251 38.2522 100.312 36.3951C99.3461 34.4548 96.06 32.6809 94.1269 34.4548C93.7679 32.5424 95.7285 31.3781 98.0203 32.0711C96.3914 29.9369 94.6793 27.4145 92.3319 26.0839ZM99.8983 88.7541C103.074 87.1741 108.983 84.5131 110.944 88.7541C111.69 90.3338 112.546 92.9672 112.905 94.6024C113.429 96.8755 112.325 101.698 109.977 102.446C107.906 103.112 105.504 103.084 103.019 102.585C102.715 102.336 102.411 101.92 102.163 101.476C100.396 101.421 98.711 101.56 97.3301 102.308C97.4682 103.638 96.5846 103.833 95.7285 104.11C95.121 106.577 96.9711 109.792 96.5295 112.009C96.2256 113.617 94.2649 113.866 92.8292 114.143C92.7738 115.031 92.8843 115.779 92.9948 116.527C92.6636 117.747 91.1998 118.44 89.7916 118.606C85.1802 119.16 78.1938 119.41 73.7755 117.802C72.5326 114.753 71.5664 111.067 70.5445 107.602C66.2367 108.073 62.7299 105.745 59.4437 104.193C58.3116 103.666 56.7376 103.361 56.2956 102.447C55.8815 101.56 56.0471 99.8689 55.9366 98.289C55.6881 94.2144 55.4396 90.2785 54.3904 86.1207C53.9209 84.236 53.0649 82.6007 52.4849 80.7992C51.9327 79.136 50.9938 77.0572 50.7452 75.3939C50.3862 72.9273 52.7058 72.7885 54.1694 71.7075C56.4615 70.0445 58.2562 69.1297 60.7414 67.6329C61.4873 67.1896 63.6961 66.0809 63.9446 65.5541C64.442 64.5289 63.0889 63.0875 62.7299 62.2835C62.1499 61.0086 61.846 59.9275 61.7633 58.68C59.6922 58.3476 58.0906 57.1003 57.1519 55.7145C55.5776 53.3861 54.473 49.0898 55.854 45.8469C55.9644 45.5975 56.489 45.0706 56.572 44.6826C56.7376 43.9066 56.2681 42.8809 56.2405 42.0495C56.1025 37.8086 56.9585 34.1497 59.8027 32.8748C60.9624 28.2461 65.1043 26.7217 68.9983 24.421C70.4618 23.5618 72.0634 23.0075 73.7201 22.3975C79.6571 20.208 88.7975 20.6236 93.7404 24.3654C95.839 25.9454 99.1803 29.2992 100.368 31.7384C103.543 38.1413 103.295 48.868 101.086 56.6846C100.782 57.7378 100.368 59.2621 99.7602 60.5373C99.3461 61.4243 98.0481 63.1704 98.1862 63.9465C98.352 64.7504 101.169 66.8846 101.776 67.4667C102.853 68.5199 104.924 69.906 105.09 71.2365C105.283 72.65 104.482 74.5903 104.068 75.9484C102.742 80.4942 101.417 84.6796 99.8983 88.7541Z" fill="#231F20"/>
<path d="M78.7738 57.2665C78.9394 57.0447 79.8781 56.6846 81.2036 57.3221C81.2036 57.3221 79.6296 57.5716 79.7676 60.2049L79.105 60.0661C79.1328 60.094 78.4424 57.7101 78.7738 57.2665Z" fill="#F7E4CD"/>
<path d="M90.206 79.7737C90.206 80.1617 89.8749 80.4944 89.488 80.4944C89.1015 80.4944 88.77 80.1617 88.77 79.7737C88.77 79.3854 89.1015 79.053 89.488 79.053C89.9024 79.053 90.206 79.3854 90.206 79.7737ZM90.924 83.1275C90.924 83.5158 90.5929 83.8482 90.206 83.8482C89.8195 83.8482 89.488 83.5158 89.488 83.1275C89.488 82.7392 89.8195 82.4068 90.206 82.4068C90.6204 82.4068 90.924 82.7118 90.924 83.1275Z" fill="#1D1919"/>
<path d="M53.3134 125.536C53.0925 125.564 52.8993 125.591 52.7335 125.619C52.5679 125.647 52.4023 125.674 52.1813 125.73C51.9328 125.785 51.7945 125.896 51.7394 126.062C51.6843 126.229 51.6289 126.395 51.6289 126.617V133.38C51.6288 133.974 51.4968 134.561 51.2423 135.098C50.9938 135.625 50.6624 136.041 50.2207 136.401C49.7788 136.733 49.2817 137.011 48.7296 137.177C48.1772 137.344 47.5972 137.454 46.9897 137.454C45.9127 137.454 45.0569 137.205 44.394 136.678C43.7314 136.152 43.3999 135.459 43.3999 134.544C43.3999 134.017 43.5379 133.574 43.8418 133.213C44.1455 132.853 44.5598 132.687 45.0844 132.687C45.5815 132.687 45.968 132.825 46.2719 133.131C46.5756 133.435 46.7136 133.796 46.7136 134.212C46.7136 134.572 46.5756 134.932 46.327 135.237C46.0785 135.542 45.7749 135.847 45.4434 136.096V136.207C45.4985 136.318 45.609 136.429 45.7746 136.512C45.9405 136.595 46.1336 136.623 46.2995 136.623C46.9897 136.623 47.5421 136.373 47.9286 135.874C48.3155 135.376 48.5086 134.627 48.5086 133.629V126.7C48.5086 126.506 48.4808 126.312 48.4257 126.173C48.3706 126.035 48.2047 125.924 47.9562 125.813C47.7906 125.73 47.5696 125.674 47.3211 125.619C47.0726 125.563 46.8795 125.536 46.7136 125.508V124.843H53.2305V125.536H53.3134ZM63.5306 135.071C63.3375 135.403 63.0889 135.708 62.8126 136.013C62.5365 136.318 62.2051 136.54 61.8461 136.761C61.4595 136.983 61.0729 137.15 60.6864 137.26C60.2996 137.371 59.8303 137.427 59.3333 137.427C58.4773 137.427 57.7593 137.316 57.1242 137.066C56.5167 136.817 55.9921 136.512 55.6055 136.096C55.1911 135.68 54.915 135.209 54.6941 134.655C54.4928 134.076 54.3901 133.467 54.3905 132.853C54.3905 132.271 54.5009 131.689 54.7216 131.163C54.9426 130.636 55.2465 130.137 55.6331 129.721C56.0196 129.305 56.5167 128.972 57.1242 128.723C57.7552 128.464 58.4307 128.333 59.1123 128.335C59.9133 128.335 60.5762 128.446 61.1005 128.64C61.6254 128.834 62.0395 129.111 62.3709 129.444C62.7021 129.776 62.9231 130.165 63.0889 130.608C63.227 131.052 63.3096 131.523 63.3096 132.022V132.576H57.4832C57.4832 133.768 57.7041 134.655 58.1734 135.265C58.6153 135.874 59.3609 136.179 60.3274 136.179C60.8798 136.179 61.349 136.041 61.791 135.736C62.2321 135.436 62.608 135.049 62.8955 134.599L63.5306 135.071V135.071ZM60.2447 131.772C60.2447 131.439 60.2172 131.079 60.1896 130.719C60.1618 130.358 60.1067 130.054 59.9962 129.832C59.8857 129.555 59.7755 129.36 59.5821 129.222C59.4165 129.083 59.1953 129.028 58.947 129.028C58.5051 129.028 58.1461 129.25 57.8978 129.693C57.6215 130.137 57.4832 130.857 57.4559 131.827L60.2447 131.772ZM75.7084 137.122H70.517V136.484C70.6275 136.484 70.7655 136.456 70.9038 136.429C71.0694 136.401 71.1796 136.373 71.2628 136.346C71.373 136.29 71.456 136.179 71.5111 136.068C71.5665 135.957 71.594 135.764 71.594 135.542V131.495C71.594 130.913 71.4835 130.47 71.2628 130.165C71.0416 129.86 70.738 129.721 70.296 129.721C70.0751 129.721 69.8544 129.749 69.661 129.832C69.4675 129.888 69.2741 129.999 69.081 130.137C68.9154 130.248 68.7774 130.359 68.6669 130.497C68.5564 130.608 68.4735 130.719 68.4184 130.83V135.459C68.4184 135.653 68.4462 135.819 68.5013 135.958C68.5564 136.097 68.6669 136.207 68.7774 136.263C68.8603 136.318 68.9705 136.374 69.1085 136.401L69.5229 136.485V137.122H64.2762V136.485C64.4142 136.485 64.5522 136.457 64.7181 136.429C64.8561 136.401 64.9942 136.374 65.1047 136.346C65.2981 136.29 65.4083 136.18 65.4915 136.041C65.5466 135.902 65.6017 135.736 65.6017 135.514V130.47C65.6017 130.304 65.5466 130.109 65.4637 129.943C65.3807 129.777 65.2427 129.638 65.1047 129.527C64.9942 129.472 64.8837 129.389 64.7178 129.361C64.5489 129.304 64.3717 129.276 64.1935 129.278V128.64L68.3079 128.419L68.4459 128.557V129.805H68.4737C68.6751 129.638 68.8686 129.462 69.0534 129.278C69.2568 129.101 69.4688 128.935 69.6885 128.779C69.9095 128.64 70.1855 128.529 70.517 128.419C70.8482 128.308 71.235 128.28 71.6216 128.28C72.5605 128.28 73.2507 128.557 73.7202 129.084C74.1897 129.611 74.4104 130.331 74.4104 131.218V135.459C74.4104 135.681 74.4382 135.847 74.4933 135.958C74.5487 136.097 74.6867 136.18 74.8523 136.263C74.9353 136.291 75.0457 136.346 75.1838 136.374C75.3218 136.402 75.4599 136.429 75.6533 136.457V137.122H75.7084ZM87.5825 137.122H83.5233C83.0952 136.354 82.6345 135.605 82.1426 134.877C81.7282 134.267 81.3417 133.685 80.9827 133.186L80.4856 133.629V135.514C80.4856 135.708 80.5135 135.902 80.5686 136.013C80.6237 136.152 80.7342 136.235 80.9276 136.318C81.0381 136.373 81.1485 136.401 81.2866 136.429C81.4246 136.457 81.5627 136.484 81.7007 136.484V137.122H76.3434V136.484C76.4818 136.484 76.6198 136.456 76.7854 136.429C76.9234 136.401 77.0615 136.373 77.1722 136.346C77.3654 136.29 77.4756 136.179 77.5585 136.041C77.6139 135.902 77.669 135.736 77.669 135.514V125.868C77.669 125.674 77.6139 125.48 77.5309 125.286C77.448 125.092 77.3378 124.926 77.1719 124.815C77.0615 124.76 76.8959 124.676 76.6749 124.649C76.4539 124.593 76.2608 124.566 76.0674 124.566V123.928L80.3476 123.706L80.4856 123.845V132.77C80.9 132.382 81.3971 131.939 81.9217 131.44C82.4462 130.941 82.8882 130.525 83.1918 130.192C83.3852 129.998 83.4957 129.86 83.4957 129.749C83.5233 129.638 83.5233 129.583 83.5233 129.555C83.5233 129.444 83.4403 129.361 83.2472 129.305C83.0538 129.25 82.8053 129.167 82.4187 129.111V128.502H86.7816V129.111C86.2019 129.278 85.7602 129.416 85.4563 129.555C85.1524 129.693 84.821 129.887 84.4622 130.109C84.2274 130.269 83.9972 130.435 83.7718 130.608C83.5508 130.774 83.3023 130.996 82.9987 131.246C83.5508 132.077 84.0757 132.825 84.5449 133.519C85.0144 134.211 85.5114 134.96 86.036 135.736C86.2019 136.013 86.4228 136.179 86.6989 136.29C86.975 136.373 87.2235 136.429 87.4996 136.457V137.121H87.5825V137.122ZM93.1053 137.122H87.6655V136.484C87.8035 136.484 87.9691 136.456 88.1071 136.429C88.2451 136.401 88.3832 136.373 88.4661 136.346C88.6595 136.29 88.77 136.179 88.853 136.041C88.9356 135.902 88.9632 135.736 88.9632 135.514V130.469C88.9632 130.275 88.9081 130.081 88.8251 129.943C88.7528 129.793 88.6375 129.667 88.4939 129.583C88.3832 129.527 88.2451 129.444 88.0245 129.388C87.8035 129.333 87.6101 129.278 87.4445 129.278V128.64L91.6693 128.418L91.8074 128.557V135.431C91.8074 135.625 91.8627 135.792 91.9454 135.958C92.0283 136.097 92.1664 136.207 92.3044 136.263C92.4149 136.318 92.5529 136.374 92.6912 136.401C92.8293 136.429 92.9673 136.457 93.1329 136.485V137.122H93.1051L93.1053 137.122ZM91.8627 125.342C91.8627 125.785 91.6969 126.146 91.3657 126.45C91.0342 126.755 90.6199 126.922 90.1782 126.922C89.7087 126.922 89.3222 126.755 88.9632 126.45C88.632 126.146 88.4661 125.758 88.4661 125.342C88.4661 124.898 88.6317 124.538 88.9632 124.205C89.2943 123.9 89.709 123.734 90.1782 123.734C90.6477 123.734 91.0342 123.9 91.3657 124.205C91.6969 124.51 91.8627 124.898 91.8627 125.342V125.342ZM105.283 137.122H100.092V136.484C100.202 136.484 100.34 136.456 100.478 136.429C100.644 136.401 100.754 136.373 100.837 136.346C100.948 136.29 101.03 136.179 101.086 136.068C101.141 135.957 101.169 135.764 101.169 135.542V131.495C101.169 130.913 101.058 130.47 100.837 130.165C100.616 129.86 100.313 129.721 99.8708 129.721C99.6498 129.721 99.4288 129.749 99.2357 129.832C99.0423 129.915 98.8489 129.999 98.6557 130.137C98.4901 130.248 98.3521 130.359 98.2416 130.497C98.1311 130.608 98.0482 130.719 97.9931 130.83V135.459C97.9931 135.653 98.0206 135.819 98.0758 135.958C98.1311 136.097 98.2416 136.207 98.3521 136.263C98.4348 136.318 98.5452 136.374 98.6833 136.401L99.0977 136.485V137.122H93.8509V136.485C93.9889 136.485 94.127 136.457 94.2928 136.429C94.4309 136.401 94.5689 136.374 94.6794 136.346C94.8725 136.29 94.983 136.18 95.066 136.041C95.1211 135.902 95.1764 135.736 95.1764 135.514V130.47C95.1764 130.304 95.1211 130.109 95.0384 129.943C94.9555 129.777 94.8174 129.638 94.6794 129.527C94.5689 129.472 94.4584 129.389 94.2926 129.361C94.1235 129.304 93.9462 129.276 93.768 129.278V128.64L97.8826 128.419L98.0206 128.557V129.805H98.0485C98.2499 129.638 98.4433 129.462 98.6282 129.278C98.8316 129.101 99.0435 128.935 99.2632 128.779C99.4842 128.64 99.7603 128.529 100.092 128.419C100.423 128.308 100.81 128.28 101.196 128.28C102.135 128.28 102.825 128.557 103.295 129.084C103.764 129.611 103.985 130.331 103.985 131.218V135.459C103.985 135.681 104.013 135.847 104.068 135.958C104.123 136.097 104.261 136.18 104.427 136.263C104.51 136.291 104.62 136.346 104.758 136.374C104.897 136.402 105.035 136.429 105.228 136.457V137.122H105.283ZM110.06 137.427C109.508 137.427 108.956 137.344 108.431 137.177C107.906 137.011 107.492 136.845 107.189 136.651L106.94 137.233H106.277L106.167 134.017H106.802C106.885 134.267 107.023 134.572 107.244 134.904C107.437 135.237 107.686 135.514 107.934 135.791C108.219 136.05 108.534 136.274 108.873 136.457C109.232 136.623 109.591 136.734 109.978 136.734C110.502 136.734 110.889 136.623 111.137 136.429C111.386 136.235 111.524 135.902 111.524 135.486C111.524 135.265 111.469 135.071 111.358 134.904C111.248 134.766 111.082 134.627 110.889 134.516C110.668 134.405 110.419 134.295 110.143 134.212C109.867 134.128 109.536 134.045 109.149 133.907C108.762 133.796 108.431 133.685 108.155 133.546C107.879 133.435 107.575 133.241 107.299 132.992C107.05 132.77 106.83 132.493 106.692 132.188C106.526 131.883 106.471 131.495 106.471 131.052C106.471 130.248 106.802 129.582 107.492 129.084C108.182 128.585 109.066 128.335 110.171 128.335C110.695 128.335 111.165 128.391 111.607 128.502C112.049 128.612 112.408 128.723 112.711 128.862L112.905 128.363H113.567L113.706 131.301H113.098C112.905 130.691 112.546 130.192 112.076 129.749C111.579 129.305 111.054 129.084 110.502 129.084C110.06 129.084 109.701 129.167 109.453 129.361C109.204 129.555 109.066 129.804 109.066 130.137C109.066 130.58 109.259 130.885 109.618 131.079C109.977 131.273 110.502 131.468 111.165 131.634C112.187 131.911 112.932 132.271 113.429 132.715C113.899 133.186 114.147 133.768 114.147 134.461C114.147 135.403 113.788 136.152 113.043 136.651C112.214 137.149 111.248 137.427 110.06 137.427H110.06Z" fill="#231F20"/>
</svg>
