<svg width="158" height="158" viewBox="0 0 158 158" fill="none" xmlns="http://www.w3.org/2000/svg">
<path fill-rule="evenodd" clip-rule="evenodd" d="M27.2627 102.116H30.6932V87.9348L36.0506 100.299C36.6575 101.785 37.5287 102.336 39.2173 102.336C40.9065 102.336 41.7245 101.785 42.358 100.299L47.6888 87.9348V102.116H51.1459V87.9348C51.1459 86.5585 50.6178 85.8963 49.5094 85.5383C46.8969 84.7126 45.155 85.4285 44.3636 87.2732L39.1126 99.5001L34.0456 87.2732C33.2802 85.4291 31.5118 84.7132 28.8732 85.5383C27.7915 85.8963 27.2633 86.5579 27.2633 87.9348V102.116H27.2627ZM53.9956 90.5782H57.4527V98.3713C57.4267 98.8114 57.5846 99.8032 59.4583 99.8297C60.4348 99.8575 66.9001 99.8297 66.9528 99.8297V90.5227H70.4099V103.272C70.4099 106.411 66.689 107.099 64.9471 107.127H54.0743V104.732H64.9731C67.1899 104.484 66.9261 103.328 66.9261 102.942V102.005H59.6163C56.2118 101.977 54.0216 100.408 53.9956 98.6182C53.9956 98.4534 54.0743 90.6325 53.9956 90.5782ZM128.15 81.5458C126.039 81.4909 124.402 81.7112 123.03 82.3173C122.635 82.4833 122.001 82.4833 121.949 83.0061C122.16 83.2252 122.185 83.5837 122.37 83.8874C122.687 84.4385 123.242 85.181 123.743 85.5667C124.297 86.008 124.852 86.4481 125.431 86.8338C126.46 87.4942 127.621 87.8799 128.624 88.5409C129.205 88.9266 129.785 89.4222 130.366 89.8358C130.656 90.0561 130.841 90.4147 131.21 90.5517V90.4684C131.026 90.2215 130.973 89.8635 130.789 89.587C130.524 89.3124 130.26 89.0637 129.996 88.789C129.231 87.7151 128.281 86.7782 127.251 86.008C126.407 85.4019 124.559 84.5762 124.216 83.5572L124.164 83.5017C124.744 83.4461 125.431 83.2258 125.985 83.0604C126.883 82.8135 127.7 82.8678 128.623 82.6203C129.046 82.5098 129.468 82.3722 129.891 82.2346V81.9871C129.416 81.4915 129.073 80.8305 128.572 80.3627C127.226 79.1512 125.748 77.9668 124.217 76.9756C123.399 76.4251 122.343 76.0665 121.473 75.5993C121.156 75.4339 120.629 75.3512 120.444 75.0759C119.968 74.4705 119.705 73.6719 119.362 72.9553C118.597 71.4408 117.858 69.7614 117.198 68.1642C116.723 67.0903 116.432 66.0164 115.852 65.0252C113.134 60.3439 110.178 57.5074 105.639 54.7264C104.663 54.1481 103.502 53.9 102.261 53.5975C101.602 53.5698 100.942 53.5148 100.282 53.4871C99.8593 53.2945 99.4376 52.7711 99.068 52.523C97.5639 51.5318 93.6845 49.3841 92.5755 52.22C91.8628 54.0098 93.6312 55.7719 94.2381 56.681C94.6876 57.3142 95.2672 58.0301 95.5848 58.746C95.7688 59.2139 95.8214 59.7101 96.0066 60.2057C96.4283 61.4172 96.8245 62.7663 97.3787 63.8958C97.6686 64.4741 97.985 65.0801 98.3547 65.6035C98.5658 65.9065 98.9355 66.0442 99.0141 66.5398C98.6445 67.0909 98.619 67.9167 98.4079 68.6054C97.4574 71.7173 97.8271 75.5722 99.1726 77.8576C99.5955 78.5457 100.598 80.0603 101.944 79.482C103.132 78.9864 102.868 77.4169 103.211 76.04C103.29 75.7098 103.237 75.4895 103.395 75.2691V75.324C103.765 76.0949 104.134 76.8386 104.477 77.6095C105.295 78.9586 106.721 80.3633 107.909 81.2996C108.541 81.7952 109.043 82.6493 109.834 82.9517V82.8684H109.782C109.624 82.6216 109.386 82.5111 109.175 82.3179C108.7 81.8223 108.172 81.2162 107.803 80.6657C106.695 79.124 105.719 77.4163 104.848 75.6542C104.425 74.8007 104.055 73.8644 103.713 73.0109C103.554 72.6801 103.554 72.1845 103.29 72.0197C102.894 72.6251 102.314 73.1491 102.023 73.8922C101.521 75.0759 101.469 76.5356 101.285 78.0501C101.178 78.0779 101.232 78.0501 101.178 78.105C100.335 77.8853 100.044 76.9762 99.7274 76.2054C98.9361 74.2502 98.8036 71.1112 99.4897 68.8529C99.6742 68.2746 100.467 66.4571 100.15 65.9065C99.9906 65.3832 99.4642 65.0807 99.1732 64.6672C98.8302 64.1439 98.4617 63.4835 98.2239 62.9052C97.5911 61.3629 97.2746 59.6558 96.588 58.1134C96.2703 57.3975 95.7167 56.6538 95.2678 55.9934C94.7663 55.2497 94.2132 54.7264 93.817 53.8456C93.6851 53.5426 93.5005 53.047 93.7117 52.7168C93.7637 52.4965 93.8702 52.4138 94.0802 52.3589C94.4232 52.0558 95.4003 52.4416 95.7434 52.6063C96.7193 53.0192 97.5373 53.405 98.3552 53.9827C98.7249 54.2579 99.1212 54.7813 99.5961 54.9195H100.151C100.996 55.1121 101.945 54.9745 102.736 55.222C104.135 55.6904 105.401 56.3785 106.537 57.1222C109.993 59.4076 112.844 62.6571 114.77 66.5398C115.087 67.173 115.218 67.7513 115.509 68.4123C116.064 69.762 116.75 71.1383 117.303 72.4603C117.858 73.7546 118.386 75.0766 119.177 76.1504C119.573 76.7287 121.156 77.0312 121.869 77.3342C122.397 77.5817 123.214 77.8026 123.691 78.105C124.587 78.6833 125.484 79.3443 126.329 79.9776C126.751 80.3071 128.071 80.9953 128.15 81.5458Z" fill="#00678C"/>
<path fill-rule="evenodd" clip-rule="evenodd" d="M101.232 57.6167C100.784 57.6167 100.467 57.6716 100.151 57.7543V57.8093H100.203C100.414 58.2499 100.784 58.553 101.048 58.9381C101.259 59.3787 101.444 59.8194 101.655 60.2601L101.707 60.2051C102.077 59.9299 102.262 59.4892 102.262 58.8282C102.103 58.6357 102.077 58.4425 101.945 58.2499C101.787 57.9747 101.444 57.837 101.232 57.6167Z" fill="#00678C"/>
<path fill-rule="evenodd" clip-rule="evenodd" d="M73.0488 102.116H82.9712C84.1322 102.116 85.2412 101.869 86.1379 101.427C87.642 100.711 88.3547 99.7481 88.3547 98.4816V95.8383C88.3547 94.8199 87.5367 93.8553 85.9013 93.1949C85.0567 92.8647 84.0009 92.6715 82.9718 92.6715H78.8026C77.4038 92.6715 76.7443 92.2302 76.5592 91.2675C76.5331 91.1576 76.5331 91.0471 76.5331 90.9373V89.3122C76.5331 89.2289 76.5331 89.1197 76.5592 89.0098C76.7437 88.2661 77.1134 88.0729 78.3276 87.9359H88.4872V85.5394H78.828C77.4292 85.5394 76.6905 85.6228 76.031 85.8431C73.9987 86.5035 73.1015 87.5502 73.1015 89.3943V91.4884C73.1015 93.1122 74.8433 94.4897 77.7989 94.8199C78.1153 94.8477 78.4583 94.8477 78.8014 94.8477H82.3644C82.4963 94.8477 82.6276 94.8477 82.7328 94.8755C83.8152 94.9853 84.2902 95.1779 84.6066 95.5902C84.8177 95.8105 84.871 96.0037 84.871 96.2518V98.3446C84.871 98.5915 84.7125 98.9235 84.396 99.1982C84.0784 99.4728 83.5769 99.666 82.9174 99.6938C82.7855 99.6938 82.7074 99.7215 82.5743 99.7215H73.0488V102.116ZM109.835 97.9583C109.835 100.409 111.603 101.785 115.14 102.061C115.483 102.089 115.799 102.116 116.142 102.116H125.115V99.7203H116.064C114.057 99.7203 113.292 99.1969 113.292 97.9305V85.5388H109.834V97.9583H109.835ZM90.5443 98.0675V89.5319C90.5443 87.3564 92.0218 86.0338 94.8992 85.6215C95.2156 85.5937 95.5321 85.566 95.8225 85.566H102.366C102.709 85.566 103 85.5937 103.344 85.6215C106.22 86.0338 107.671 87.3564 107.671 89.5319V98.0675C107.671 99.8295 107.064 100.766 105.638 101.4L109.016 104.594H105.032L102.287 102.006L99.5156 102.171H95.8213C95.2151 102.171 94.5284 102.089 93.8157 101.896C91.6267 101.262 90.5443 100.05 90.5443 98.0675ZM94.2652 97.8762C94.2652 97.986 94.3184 98.0953 94.345 98.2341C94.5296 99.2247 95.4262 99.7759 96.7984 99.7759H99.913L97.0634 97.0769H101.047L103.554 99.4457C104.03 99.1698 104.32 98.7841 104.425 98.2885C104.452 98.1786 104.452 98.0416 104.452 97.9305V89.7517C104.452 89.6418 104.452 89.5326 104.425 89.4215C104.241 88.4858 103.344 87.9631 101.998 87.9631H96.7984C95.2677 87.9631 94.2652 88.6512 94.2652 89.7517V97.8762ZM126.699 102.143H127.2V100.134H127.86V99.7203H126.012V100.134H126.699V102.143ZM130.525 102.143H131V99.7203H130.288L129.707 101.373L129.074 99.7203H128.388V102.143H128.837V100.299H128.863L129.523 102.143H129.866L130.525 100.299V102.143H130.525Z" fill="#CE8B2C"/>
</svg>
