<svg width="158" height="159" viewBox="0 0 158 159" fill="none" xmlns="http://www.w3.org/2000/svg">
<path d="M71.622 81.3072H78.6003L74.9098 75.3698L68.1366 86.1049H65.0539L73.2927 73.21C73.6511 72.6891 74.2473 72.3743 74.9098 72.3743C75.5504 72.3743 76.1475 72.6783 76.4942 73.1883L84.7647 86.1049H81.6821L80.2283 83.7057H73.162L71.622 81.3072ZM103.641 83.7057V72.5049H101.026V84.8027C101.026 85.1393 101.157 85.4651 101.406 85.7147C101.656 85.9642 101.993 86.1049 102.362 86.1049H114.29L115.832 83.7057H103.641ZM60.3651 81.6983C62.9051 81.6983 64.9677 79.6474 64.9677 77.1075C64.9677 74.5675 62.9059 72.5049 60.3651 72.5049H48.9215V86.1058H51.5368V74.9033H60.1918C61.4077 74.9033 62.3842 75.8915 62.3842 77.1066C62.3842 78.3218 61.4069 79.3099 60.1918 79.3099L52.8173 79.2991L60.6256 86.1049H64.4259L59.1718 81.6975H60.3651V81.6983ZM32.8251 86.1049C29.0709 86.1049 26.0234 83.0659 26.0234 79.3099C26.0234 75.554 29.07 72.5041 32.8251 72.5041H40.7297C44.4856 72.5041 47.5305 75.5549 47.5305 79.3099C47.5305 83.065 44.4856 86.1049 40.7297 86.1049H32.8251ZM40.5538 83.7057C42.9866 83.7057 44.9571 81.741 44.9571 79.3099C44.9571 76.8789 42.9866 74.9025 40.5538 74.9025H32.9993C30.5691 74.9025 28.5977 76.878 28.5977 79.3099C28.5977 81.741 30.5691 83.7057 32.9993 83.7057H40.5538ZM90.2257 86.1049C86.4706 86.1049 83.4206 83.0659 83.4206 79.3099C83.4206 75.554 86.4706 72.5041 90.2257 72.5041H99.615L98.0834 74.9025H90.3999C87.9679 74.9025 85.9916 76.878 85.9916 79.3099C85.9916 81.741 87.9679 83.7057 90.3999 83.7057H99.8319L98.291 86.1049H90.2257ZM122.213 83.7057C120.206 83.7057 118.501 82.3599 117.98 80.5033H129.16L130.701 78.1049H117.98C118.501 76.26 120.206 74.9025 122.213 74.9025H129.887L131.439 72.5041H122.039C118.284 72.5041 115.234 75.5549 115.234 79.3099C115.234 83.065 118.284 86.1049 122.039 86.1049H130.104L131.646 83.7057H122.213Z" fill="#EA1B22"/>
</svg>
