<svg width="158" height="158" viewBox="0 0 158 158" fill="none" xmlns="http://www.w3.org/2000/svg">
<path d="M113.45 71.2881C111.647 72.2726 111.722 75.4533 113.675 76.2106C115.779 76.9679 118.033 77.0436 120.136 77.5737C120.662 77.7252 121.188 77.9524 121.414 78.4825C121.94 79.5427 121.489 81.133 120.287 81.5117C118.559 82.0418 116.53 82.0418 114.878 81.3602C113.751 80.9058 113.225 79.7699 113.15 78.7097C112.699 78.7097 112.173 78.7097 111.722 78.7854C111.797 79.8456 112.023 80.9816 112.849 81.6631C114.201 82.7233 115.929 82.8748 117.582 82.9505C119.085 82.9505 120.737 82.7991 122.015 81.966C123.517 80.9058 123.667 78.1038 121.864 77.1951C120.212 76.362 118.333 76.2863 116.605 75.9077C115.779 75.6805 114.802 75.6047 114.051 75.0746C113.074 74.1659 113.525 72.2726 114.802 71.9697C116.455 71.5153 118.258 71.4396 119.836 72.0454C120.813 72.3484 121.188 73.4086 121.338 74.2416C121.789 74.2416 122.24 74.2416 122.766 74.2416C122.766 73.3328 122.465 72.3484 121.714 71.7425C120.512 70.758 118.859 70.6823 117.432 70.6823C116.155 70.6066 114.727 70.6066 113.45 71.2881Z" fill="#326690"/>
<path d="M59.8841 71.6668C59.1328 70.9852 58.0059 70.7581 57.0293 70.7581C54.8506 70.7581 52.6719 70.8338 50.4932 70.8338C50.4932 74.696 50.4932 78.634 50.4932 82.4962C50.8688 82.4962 51.2444 82.4962 51.6201 82.4962C51.6201 80.8301 51.5449 79.1641 51.6201 77.5737C53.4983 77.5737 55.3013 77.5737 57.1795 77.5737C58.5318 77.498 60.1095 76.8922 60.6354 75.529C61.0861 74.2416 60.9359 72.5756 59.8841 71.6668ZM59.2831 75.3018C58.9074 76.2863 57.7805 76.5893 56.8039 76.665C55.0759 76.7407 53.348 76.665 51.6952 76.665C51.6952 75.0747 51.6952 73.4086 51.6952 71.8183C53.348 71.8183 55.0008 71.8183 56.6536 71.8183C57.48 71.8183 58.4567 71.9697 58.9826 72.6513C59.5085 73.3329 59.5836 74.3931 59.2831 75.3018Z" fill="black"/>
<path d="M139.068 70.8338C139.068 74.696 139.068 78.5582 139.068 82.4962C142.374 82.4962 145.755 82.4962 149.06 82.4962C149.06 82.1933 149.06 81.8903 149.06 81.5117C146.205 81.436 143.351 81.5117 140.421 81.436C140.421 77.8767 140.421 74.3174 140.421 70.7581C139.97 70.8338 139.519 70.8338 139.068 70.8338Z" fill="#326690"/>
<path d="M81.3707 72.3482C81.3707 73.1812 81.3707 74.0142 81.3707 74.8473C80.8448 74.8473 80.3941 74.8473 79.8682 74.8473C79.8682 75.0745 79.8682 75.3774 79.8682 75.6046C80.3941 75.6046 80.9199 75.6046 81.3707 75.6046C81.3707 77.3464 81.3707 79.1639 81.3707 80.9057C81.3707 81.4358 81.521 81.9659 81.9717 82.2688C82.7981 82.6474 83.6997 82.5717 84.6012 82.496C84.6012 82.2688 84.6012 81.9659 84.6012 81.7387C84.0002 81.8144 83.3991 81.8901 82.8733 81.5872C82.4976 81.36 82.5727 80.9057 82.4976 80.527C82.4976 78.861 82.4976 77.2706 82.4976 75.6046C83.1738 75.6046 83.8499 75.6046 84.5261 75.6046C84.5261 75.3017 84.5261 75.0745 84.4509 74.7715C83.7748 74.7715 83.0986 74.7715 82.4225 74.7715C82.4225 73.9385 82.4225 73.1055 82.4225 72.2725C82.1971 72.3482 81.7463 72.3482 81.3707 72.3482Z" fill="white"/>
<path d="M71.8301 75.3019C70.7783 75.9834 70.7783 77.9524 72.0555 78.4825C73.7834 79.0884 75.7367 78.9369 77.5398 79.467C78.4413 79.7699 78.5165 81.1331 77.6901 81.5875C76.488 82.1933 75.0606 82.1176 73.7834 81.8904C72.8819 81.7389 72.1306 81.1331 72.0555 80.1486C71.6047 80.1486 71.154 80.1486 70.7783 80.1486C70.9286 80.8302 71.0788 81.5875 71.6799 82.0418C72.6565 82.7234 73.9337 82.7234 75.0606 82.7991C76.2626 82.7991 77.5398 82.7234 78.5916 82.1176C79.4931 81.5875 79.7936 80.3758 79.2677 79.5427C78.8921 78.9369 78.2159 78.7097 77.5398 78.5583C76.1124 78.2553 74.6098 78.2553 73.1824 77.9524C72.6565 77.801 72.2057 77.4223 72.2057 76.8922C72.2057 76.1349 73.0321 75.7563 73.7083 75.6048C74.7601 75.4533 75.9621 75.3776 77.0139 75.832C77.6149 76.0592 77.7652 76.665 77.9154 77.2708C78.3662 77.2708 78.7418 77.2708 79.1926 77.2708C79.1175 76.5893 78.8921 75.832 78.2911 75.4533C77.1642 74.696 75.8119 74.696 74.5347 74.7718C73.6332 74.696 72.6565 74.7718 71.8301 75.3019Z" fill="white"/>
<path d="M98.5 74.9231C97.9742 75.1502 97.6736 75.6804 97.3731 76.2105C97.3731 75.7561 97.3731 75.3017 97.3731 74.9231C96.9975 74.9231 96.6219 74.9231 96.1711 74.9231C96.096 77.4979 96.1711 79.997 96.1711 82.5718C96.5467 82.5718 96.9224 82.5718 97.298 82.5718C97.298 81.2844 97.298 79.9212 97.298 78.6338C97.298 77.7251 97.5985 76.6648 98.3498 76.1347C99.1762 75.5289 100.228 75.6804 101.205 75.6804C101.205 75.3774 101.205 74.9988 101.205 74.6959C100.303 74.6201 99.4016 74.5444 98.5 74.9231Z" fill="white"/>
<path d="M126.748 71.4397C128.401 70.6066 130.279 70.4552 132.082 70.6066C133.81 70.7581 135.538 71.3639 136.665 72.7271C138.092 74.2417 138.393 76.665 137.792 78.634C137.491 79.7699 136.74 80.603 135.913 81.3603C136.59 81.8147 137.266 82.269 137.942 82.7991C137.641 83.1021 137.341 83.3293 137.04 83.6322C136.364 83.1778 135.688 82.6477 135.012 82.269C134.486 82.269 133.96 82.572 133.359 82.7234C131.857 83.0263 130.204 83.0263 128.701 82.7234C127.048 82.4205 125.396 81.436 124.494 79.9214C123.593 78.4825 123.517 76.5893 123.893 74.999C124.344 73.4086 125.396 72.1212 126.748 71.4397ZM129.002 71.7426C127.424 72.1212 125.922 73.2572 125.396 74.8475C124.87 76.5893 125.02 78.634 126.297 80.0729C127.424 81.3603 129.077 81.8904 130.73 81.8904C132.533 81.9661 134.486 81.436 135.688 79.9971C137.341 77.8767 137.116 74.4689 134.937 72.8028C133.284 71.3639 131.03 71.2882 129.002 71.7426Z" fill="#326690"/>
<path d="M81.3709 72.3486C81.7465 72.3486 82.1221 72.3486 82.5729 72.3486C82.5729 73.1817 82.5729 74.0147 82.5729 74.8477C83.249 74.8477 83.9252 74.8477 84.6013 74.8477C84.6013 75.1506 84.6013 75.3778 84.6765 75.6807C84.0003 75.6807 83.3242 75.6807 82.648 75.6807C82.648 77.3468 82.648 78.9371 82.648 80.6032C82.648 80.9818 82.648 81.4362 83.0237 81.6634C83.5495 81.8906 84.1506 81.8149 84.7516 81.8149C84.7516 82.0421 84.7516 82.345 84.7516 82.5722C83.8501 82.6479 82.9485 82.7236 82.1221 82.345C81.5962 82.1178 81.446 81.5119 81.5211 80.9818C81.5211 79.24 81.5211 77.4225 81.5211 75.6807C80.9952 75.6807 80.4693 75.6807 80.0186 75.6807C80.0186 75.4536 80.0186 75.1506 80.0186 74.9234C80.5444 74.9234 80.9952 74.9234 81.5211 74.9234C81.3708 74.0147 81.3709 73.1817 81.3709 72.3486Z" fill="black"/>
<path d="M68.4485 75.302C67.0962 74.5447 65.4434 74.469 63.9409 74.6962C62.6637 74.9234 61.4617 75.6049 60.9358 76.8166C60.4099 78.0283 60.4099 79.4672 61.0109 80.6788C61.6871 81.9662 63.1145 82.6478 64.4668 82.7235C66.1947 82.875 68.148 82.6478 69.4252 81.2847C70.7775 79.5429 70.477 76.438 68.4485 75.302ZM68.2232 80.9818C67.547 81.6633 66.5703 81.9662 65.6688 81.9662C64.617 82.042 63.4901 81.8148 62.7388 81.1332C61.7622 80.2245 61.6119 78.7099 61.9876 77.4225C62.3632 76.2865 63.415 75.6049 64.5419 75.4535C65.5937 75.302 66.7957 75.3778 67.7724 75.9836C68.5237 76.438 68.8993 77.271 68.9744 78.104C69.1247 79.1642 68.9744 80.2245 68.2232 80.9818Z" fill="black"/>
<path d="M71.8295 75.3017C72.5808 74.7716 73.5575 74.6959 74.459 74.6202C75.7362 74.5444 77.1636 74.5444 78.2154 75.3017C78.8164 75.6804 79.0418 76.4377 79.1169 77.1192C78.6662 77.1192 78.2905 77.1192 77.8397 77.1192C77.7646 76.5134 77.5392 75.9833 76.9382 75.6804C75.8864 75.226 74.7595 75.226 73.6326 75.4532C72.9565 75.5289 72.1301 75.9076 72.1301 76.7406C72.0549 77.2707 72.5808 77.7251 73.1067 77.8008C74.5341 78.1795 76.0367 78.1037 77.4641 78.4066C78.1403 78.5581 78.8164 78.861 79.192 79.3911C79.7179 80.2242 79.4174 81.5116 78.5159 81.9659C77.4641 82.5718 76.1869 82.6475 74.9849 82.6475C73.858 82.5718 72.5808 82.5718 71.6042 81.8902C71.0032 81.4358 70.7778 80.7543 70.7026 79.997C71.1534 79.997 71.6042 79.997 71.9798 79.997C71.9798 80.9815 72.8062 81.663 73.7077 81.7388C74.9849 81.8902 76.4123 82.0417 77.6144 81.4358C78.4408 80.9815 78.3656 79.6183 77.4641 79.3154C75.6611 78.7853 73.7077 78.9368 71.9798 78.3309C70.7778 77.9523 70.7778 75.9833 71.8295 75.3017Z" fill="black"/>
<path d="M88.2074 74.7717C89.4094 74.4688 90.7617 74.4688 91.9638 74.8475C92.6399 75.0747 93.1658 75.6048 93.6917 76.0591C93.6917 75.6048 93.7668 75.2261 93.7668 74.8475C94.1425 74.8475 94.5181 74.8475 94.8937 74.8475C94.9689 77.1951 94.8937 79.5427 94.9689 81.8903C95.044 82.8748 94.8186 83.9351 94.0673 84.6166C93.0907 85.5254 91.6633 85.6768 90.3861 85.6768C89.2592 85.6768 88.0571 85.6011 87.0053 85.071C86.3292 84.6924 85.9536 83.9351 85.8033 83.1778C86.1789 83.1778 86.5546 83.1778 86.9302 83.1778C87.1556 83.7079 87.381 84.3137 87.9069 84.5409C88.7333 84.9195 89.6348 84.9195 90.5363 84.9195C91.513 84.8438 92.6399 84.6923 93.2409 83.8593C93.842 83.0263 93.6917 81.9661 93.6917 80.9816C92.4897 82.269 90.6115 82.4962 88.9587 82.269C87.9069 82.1175 86.8551 81.7389 86.1038 80.9059C85.2774 79.8456 85.2023 78.4068 85.5028 77.1951C85.8033 75.9834 87.0053 75.0747 88.2074 74.7717ZM89.184 75.529C88.3576 75.6805 87.4561 76.0591 87.0053 76.8164C86.4795 77.7252 86.4795 78.9369 86.78 79.8456C87.1556 80.8301 88.2825 81.3602 89.2592 81.5117C90.5363 81.6632 92.0389 81.5117 92.9404 80.5272C93.9922 79.2398 93.842 77.0436 92.4897 76.0591C91.5881 75.3776 90.311 75.3776 89.184 75.529Z" fill="black"/>
<path d="M98.4996 74.9231C99.4011 74.5445 100.303 74.6202 101.204 74.6202C101.204 74.9231 101.204 75.3018 101.204 75.6047C100.227 75.6047 99.1757 75.4532 98.3493 76.0591C97.598 76.5892 97.2975 77.6494 97.2975 78.5582C97.2975 79.8456 97.2975 81.2087 97.2975 82.4961C96.9219 82.4961 96.5462 82.4961 96.1706 82.4961C96.0955 79.9213 96.0955 77.4222 96.1706 74.8474C96.5462 74.8474 96.9219 74.8474 97.3726 74.8474C97.3726 75.3018 97.3726 75.7561 97.3726 76.1348C97.6732 75.6804 97.9737 75.1503 98.4996 74.9231Z" fill="black"/>
<path d="M101.655 76.5134C102.406 75.226 103.984 74.6959 105.411 74.6201C106.914 74.5444 108.566 74.7716 109.618 75.9075C110.445 76.6648 110.67 77.8008 110.745 78.9367C107.89 78.9367 105.111 78.9367 102.256 78.9367C102.331 79.694 102.556 80.5271 103.157 81.0572C104.284 82.0417 105.937 82.1931 107.289 81.8145C108.191 81.5873 108.942 80.9057 109.243 79.9969C109.693 79.9969 110.144 79.9969 110.52 79.9969C110.144 81.2844 109.017 82.1931 107.74 82.496C106.012 82.8747 103.984 82.799 102.481 81.7387C100.979 80.6785 100.678 78.1794 101.655 76.5134ZM103.833 75.9075C103.007 76.3619 102.556 77.2707 102.406 78.1794C104.81 78.1794 107.214 78.1794 109.618 78.1794C109.543 77.6493 109.393 77.0435 109.017 76.6648C107.74 75.1502 105.411 74.9988 103.833 75.9075Z" fill="black"/>
<path d="M28.4058 62.5792C26.9783 62.352 25.4758 62.2763 24.0484 62.5035C23.222 62.655 22.3956 63.0336 21.7194 63.4122C19.3905 62.655 16.761 62.2006 14.3569 62.655C12.629 62.9579 10.9762 64.0181 10.0747 65.6084C8.94775 67.5017 8.72236 69.7736 8.87262 71.9697C9.17313 74.3931 9.77415 76.8164 10.4503 79.1641C11.0513 81.2088 11.7275 83.2535 12.8544 85.071C13.4554 86.0555 14.3569 87.1157 15.559 87.4186C16.5356 87.6458 17.5123 87.3429 18.2636 86.737C18.6392 87.1157 19.09 87.4186 19.6158 87.5701C21.0433 88.1002 22.6209 88.1002 24.0484 87.4943C24.1235 89.4633 24.0484 91.508 24.7996 93.3255C25.1002 94.2343 25.5509 95.0673 26.3773 95.5974C27.2788 96.2033 28.3306 96.279 29.3824 96.1275C30.2839 95.9761 31.2606 95.6732 32.0119 95.2188C32.8383 94.6887 33.5144 93.9314 33.8901 93.0226C34.7916 90.9779 34.8667 88.7818 34.9418 86.5856C37.0454 86.737 39.2241 86.2069 40.8018 84.7681C41.4028 84.238 41.9287 83.4049 41.7033 82.5719C41.4779 81.8146 40.6515 81.2845 39.9003 81.3602C39.0739 81.436 38.3226 81.6631 37.4962 81.6631C39.2992 78.4825 40.7267 75.0746 41.3277 71.5153C41.5531 70.0007 41.7784 68.4862 41.3277 66.9716C41.1023 66.1385 40.5013 65.457 39.9003 64.8511C38.548 63.488 36.6698 62.5792 34.7916 62.2006C32.6129 61.7462 30.4342 61.9734 28.4058 62.5792Z" fill="white"/>
<path d="M28.3309 63.4878C30.5847 62.8063 32.9888 62.5791 35.2426 63.2606C37.0457 63.7908 38.6985 64.851 39.8254 66.3656C40.2762 66.9714 40.4264 67.8044 40.4264 68.5617C40.5015 69.9249 40.201 71.288 39.9005 72.5754C39.0741 76.059 37.5716 79.3154 35.6934 82.3446C36.7452 82.7989 37.9472 82.5718 38.999 82.4203C39.4498 82.3446 40.0508 82.1931 40.3513 82.6475C40.6518 83.1019 40.3513 83.632 40.0508 83.9349C38.4731 85.5252 36.069 85.9039 33.9655 85.5252C33.7401 87.4185 33.5147 89.3117 33.2142 91.2807C33.0639 92.3409 32.6883 93.4769 31.8619 94.1584C31.1106 94.84 30.0588 95.1429 29.0822 95.2944C28.1055 95.4458 26.9035 95.3701 26.1522 94.6128C25.3258 93.8555 24.7999 92.7196 24.7248 91.6593C24.4994 89.7661 24.4994 87.7971 24.4994 85.9039C23.5979 86.6612 22.3958 87.1155 21.1938 87.0398C20.3674 86.9641 19.3907 86.8126 18.7897 86.2068C18.4141 85.9039 18.4892 85.298 18.8648 84.9951C19.541 84.465 20.4425 84.5407 21.1938 84.2378C21.7948 84.0864 22.0953 83.4805 22.3958 83.1019C21.7197 83.0261 21.0435 82.8747 20.5176 82.5718C19.6161 83.5562 18.7146 84.6165 17.8882 85.601C17.3623 86.2068 16.6861 86.7369 15.8597 86.5854C14.9582 86.434 14.2821 85.7524 13.7562 85.0708C12.7795 83.632 12.1034 81.9659 11.5775 80.2999C10.7511 77.5736 10.0749 74.8473 9.69929 72.0453C9.4739 69.9249 9.69929 67.653 10.9013 65.9112C11.878 64.4723 13.5308 63.715 15.1836 63.5636C17.4374 63.3364 19.6912 63.7908 21.7948 64.5481C23.5227 63.4121 25.7766 63.1849 27.805 63.6393C28.0304 63.4878 28.1806 63.5636 28.3309 63.4878ZM29.9837 64.0937C30.4345 64.3966 30.8852 64.6238 31.336 64.9267C33.1391 66.1384 34.5665 67.8802 35.3929 69.8491C35.6183 70.455 35.9188 70.9851 35.8436 71.6667C35.8436 72.9541 35.3929 74.2415 35.5431 75.5289C35.6934 76.892 35.9939 78.3309 35.6183 79.694C35.5431 80.1484 35.2426 80.6028 35.0924 81.0572C35.0924 81.1329 35.1675 81.2844 35.1675 81.2844C35.3177 81.0572 35.468 80.83 35.6183 80.6028C37.0457 78.2552 38.0975 75.6803 38.8487 73.0298C39.2244 71.5909 39.5249 70.0763 39.5249 68.5617C39.5249 67.9559 39.4498 67.2743 39.0741 66.7442C38.2477 65.684 37.1208 64.851 35.8436 64.3209C33.9655 63.715 31.937 63.6393 29.9837 64.0937ZM24.7248 64.2451C23.2974 64.3966 21.9451 65.2296 21.1187 66.3656C19.9917 67.9559 19.4659 69.9249 19.3156 71.8181C20.5176 71.288 21.7948 70.7579 23.1471 71.0608C23.9735 71.288 24.6497 72.0453 24.7999 72.8783C25.1755 74.6201 25.4009 76.3619 25.0253 78.1037C24.7248 79.4668 23.8984 80.6785 23.5979 82.1174C23.9735 82.1174 24.3491 82.1931 24.6497 82.3446C25.3258 82.7232 25.7014 83.4805 25.6263 84.2378C25.5512 86.1311 25.5512 88.0243 25.7014 89.9176C25.7766 90.6749 25.7766 91.5079 26.0019 92.2652C26.3025 93.1739 26.9035 94.0827 27.8801 94.3099C28.9319 94.4613 29.9837 94.1584 30.9604 93.704C31.8619 93.2497 32.3127 92.1894 32.4629 91.205C32.7634 89.1603 32.9888 87.1156 33.2142 85.0708C33.2893 84.3135 33.1391 83.5562 33.5898 82.8747C33.8152 82.4203 34.266 82.2688 34.6416 82.0417C34.3411 81.5873 33.9655 81.1329 33.6649 80.6785C32.6883 78.5581 31.336 76.5891 30.8852 74.3172C30.735 73.3327 30.8101 72.1968 31.6365 71.5152C32.538 70.7579 33.7401 70.8336 34.867 70.8336C34.1908 68.9404 32.9888 67.2743 31.4863 66.0627C29.5329 64.6238 27.0537 63.9422 24.7248 64.2451ZM14.7328 64.3966C13.4557 64.6238 12.1785 65.3811 11.5023 66.5928C10.6008 68.1831 10.5257 70.0006 10.6759 71.7424C10.9765 74.0143 11.5023 76.2862 12.1785 78.5581C12.7795 80.4513 13.3805 82.3446 14.4323 84.0106C14.808 84.6165 15.2587 85.2223 15.9349 85.4495C16.5359 85.601 16.9866 85.0708 17.3623 84.6922C18.1136 83.7077 19.0151 82.7989 19.8415 81.8145C18.6395 80.7542 18.0384 79.0882 18.1887 77.4221C18.3389 76.2105 18.4141 74.923 18.3389 73.6356C18.1887 71.8939 18.4892 70.0763 19.0151 68.3345C19.3907 67.0471 20.0669 65.9112 20.9684 64.9267C18.94 64.4723 16.7613 64.0179 14.7328 64.3966ZM32.2375 72.1968C31.6365 72.6512 31.6365 73.5599 31.7868 74.2415C32.2375 76.4376 33.5147 78.2552 34.4162 80.2241C35.1675 78.7853 34.7167 77.1192 34.5665 75.5289C34.4162 74.2415 34.7919 73.0298 34.867 71.8181C34.0406 71.8181 33.0639 71.6667 32.2375 72.1968ZM19.2405 73.0298C19.2405 74.09 19.3156 75.1502 19.2405 76.1347C19.1653 77.0435 18.94 77.9522 19.1653 78.861C19.4659 80.5271 20.8933 81.8902 22.6212 81.8902C22.8466 81.0572 23.1471 80.2241 23.5227 79.4668C24.5745 77.4221 24.3491 75.0745 23.8233 72.9541C23.673 72.3482 23.1471 71.8939 22.5461 71.8939C21.344 71.8939 20.2171 72.424 19.2405 73.0298ZM34.4913 83.2533C34.1908 83.5562 34.1908 84.0106 34.1908 84.3893C34.867 84.6165 35.6183 84.6165 36.3695 84.5407C37.4213 84.3893 38.5482 84.0864 39.3746 83.2533C38.0975 83.4048 36.67 83.7077 35.3929 83.1019C35.0924 82.9504 34.7167 83.1019 34.4913 83.2533ZM22.0953 84.7679C21.344 85.2223 20.4425 85.1466 19.7664 85.5252C21.2689 86.2825 23.4476 86.0553 24.4994 84.6165C25.0253 84.0864 24.4994 83.0261 23.8233 83.1019C23.072 83.5562 22.7715 84.3893 22.0953 84.7679Z" fill="white"/>
<path d="M32.5376 72.5C32.9884 72.1971 33.5894 72.1971 34.0401 72.3485C34.0401 72.9544 33.2889 73.4087 32.763 73.1058C32.6127 73.0301 32.3122 72.7272 32.5376 72.5Z" fill="white"/>
<path d="M21.945 72.5755C22.3958 72.424 22.9217 72.4998 23.2973 72.8027C23.5227 73.0299 23.2973 73.4085 23.072 73.4842C22.5461 73.8629 21.7197 73.4842 21.6445 72.8784C21.6445 72.7269 21.7948 72.5755 21.945 72.5755Z" fill="white"/>
<path d="M29.9834 64.0938C31.8616 63.6394 33.9651 63.7151 35.7682 64.3967C37.0454 64.8511 38.1723 65.7598 38.9987 66.82C39.4495 67.3502 39.4494 68.0317 39.4494 68.6376C39.4494 70.1522 39.1489 71.591 38.7733 73.1056C38.022 75.7562 36.9702 78.331 35.5428 80.6786C35.3926 80.9058 35.2423 81.133 35.0921 81.3602C35.0921 81.2844 35.0169 81.133 35.0169 81.133C35.1672 80.6786 35.4677 80.2242 35.5428 79.7699C35.9185 78.4067 35.618 76.9678 35.4677 75.6047C35.3174 74.3173 35.7682 73.0299 35.7682 71.7425C35.8433 71.1366 35.5428 70.5308 35.3174 69.925C34.4159 67.956 33.0636 66.2142 31.2606 65.0025C30.9601 64.6239 30.4342 64.3967 29.9834 64.0938Z" fill="#326690"/>
<path d="M24.7245 64.2453C27.0535 63.9424 29.5327 64.624 31.4109 66.0628C32.9134 67.2745 34.1906 68.9406 34.7916 70.8338C33.7398 70.8338 32.4627 70.7581 31.5611 71.5154C30.7347 72.1969 30.6596 73.3329 30.8099 74.3174C31.2606 76.665 32.6129 78.634 33.5896 80.6787C33.815 81.2088 34.1906 81.5875 34.5662 82.0418C34.1155 82.269 33.7398 82.4205 33.5145 82.8749C33.1388 83.5564 33.2891 84.3137 33.1388 85.071C32.9134 87.1157 32.688 89.1604 32.3875 91.2051C32.2373 92.1896 31.7865 93.2499 30.885 93.7042C29.9835 94.1586 28.8565 94.4615 27.8048 94.3101C26.8281 94.1586 26.152 93.1741 25.9266 92.2654C25.7012 91.5081 25.7012 90.675 25.6261 89.9177C25.5509 88.0245 25.5509 86.1312 25.5509 84.238C25.6261 83.4807 25.2504 82.7234 24.5743 82.3447C24.2738 82.1933 23.8981 82.1176 23.5225 82.1176C23.823 80.7544 24.6494 79.5427 24.9499 78.1039C25.3256 76.3621 25.1002 74.6203 24.7245 72.8785C24.5743 72.0455 23.8981 71.2882 23.0717 71.061C21.7194 70.7581 20.4423 71.2125 19.2402 71.8183C19.3905 69.9251 19.9164 67.9561 21.0433 66.3658C21.9448 65.2298 23.2971 64.4725 24.7245 64.2453Z" fill="#326690"/>
<path d="M14.7327 64.3967C16.8362 64.0181 18.9398 64.3967 20.9682 65.0026C20.0667 65.987 19.3906 67.123 19.0149 68.4104C18.489 70.0765 18.2637 71.894 18.3388 73.7115C18.4139 74.9989 18.4139 76.2106 18.1885 77.498C17.9631 79.0883 18.6393 80.7544 19.8413 81.8903C19.0149 82.8748 18.1885 83.7836 17.3621 84.7681C16.9865 85.2224 16.5357 85.6768 15.9347 85.5254C15.2586 85.2982 14.8078 84.6923 14.4322 84.0865C13.3804 82.4204 12.7794 80.5272 12.1783 78.6339C11.5022 76.4378 10.9763 74.1659 10.6758 71.8182C10.5255 70.0765 10.6007 68.1832 11.5022 66.6686C12.1783 65.4569 13.3804 64.6996 14.7327 64.3967Z" fill="#326690"/>
<path d="M32.2373 72.1968C32.9886 71.6667 34.0404 71.7425 34.8668 71.8182C34.7916 73.0299 34.416 74.2416 34.5663 75.529C34.7165 77.0436 35.0921 78.7096 34.416 80.2242C33.4393 78.2552 32.1622 76.4377 31.7865 74.2416C31.7114 73.56 31.7114 72.727 32.2373 72.1968ZM32.5378 72.4998C32.3124 72.727 32.5378 73.0299 32.7632 73.1056C33.2891 73.4085 34.0404 72.9541 34.0404 72.3483C33.5896 72.1968 32.9886 72.1968 32.5378 72.4998Z" fill="#326690"/>
<path d="M19.2404 73.0299C20.2171 72.424 21.344 71.8939 22.4709 71.9696C23.0719 71.9696 23.5978 72.424 23.7481 73.0299C24.274 75.1503 24.4242 77.4979 23.4476 79.5426C23.0719 80.2999 22.7714 81.1329 22.546 81.966C20.8181 81.966 19.3907 80.5271 19.0902 78.9368C18.8648 78.028 19.1653 77.1193 19.1653 76.2105C19.3155 75.0746 19.2404 74.0901 19.2404 73.0299ZM21.945 72.5755C21.7948 72.6512 21.6445 72.7269 21.6445 72.8784C21.7196 73.4842 22.546 73.8629 23.0719 73.4842C23.2973 73.3328 23.5227 73.0299 23.2973 72.8027C22.9217 72.4997 22.3958 72.424 21.945 72.5755Z" fill="#326690"/>
<path d="M34.4914 83.2534C34.7168 83.102 35.0924 82.8748 35.393 83.102C36.595 83.7835 38.0224 83.4049 39.3747 83.2534C38.5483 84.0107 37.4965 84.3894 36.3696 84.5408C35.6183 84.6166 34.8671 84.6923 34.1909 84.3894C34.1909 84.0107 34.1909 83.5564 34.4914 83.2534Z" fill="#326690"/>
<path d="M22.0955 84.7681C22.7716 84.3894 23.0721 83.5564 23.7483 83.102C24.4244 83.0263 25.0255 84.0865 24.4244 84.6166C23.3726 86.0555 21.194 86.3584 19.6914 85.5254C20.4427 85.2224 21.3442 85.2224 22.0955 84.7681Z" fill="#326690"/>
<path d="M28.4058 62.5782C30.4342 62.048 32.6129 61.8209 34.7165 62.1995C36.5947 62.5024 38.3977 63.4869 39.8252 64.85C40.4262 65.4559 41.0272 66.1375 41.2526 66.9705C41.7034 68.4851 41.478 69.9997 41.2526 71.5143C40.5764 75.0736 39.2241 78.4814 37.4211 81.6621C38.2475 81.6621 38.9988 81.4349 39.8252 81.3592C40.5764 81.2834 41.478 81.8135 41.6282 82.5708C41.8536 83.4039 41.3277 84.2369 40.7267 84.767C39.0739 86.2059 36.8201 86.6602 34.7916 86.5845C34.6414 88.7807 34.6414 90.9768 33.7398 93.0216C33.2891 93.9303 32.6881 94.6876 31.8617 95.2177C31.0353 95.7478 30.1337 95.975 29.2322 96.1265C28.2555 96.2779 27.1286 96.2022 26.2271 95.5964C25.4007 95.0663 24.9499 94.2332 24.6494 93.3245C23.9733 91.4312 24.0484 89.4622 23.8981 87.4933C22.4707 88.0991 20.893 88.0991 19.4656 87.569C18.9397 87.4175 18.489 87.1146 18.1133 86.736C17.3621 87.3418 16.3854 87.6447 15.4087 87.4175C14.2067 87.1146 13.3803 86.0544 12.7042 85.0699C11.5772 83.2524 10.9011 81.2077 10.3001 79.163C9.62393 76.8154 9.02291 74.4677 8.7224 71.9687C8.57214 69.7725 8.7224 67.5006 9.92444 65.6073C10.826 64.0927 12.4788 63.0325 14.2067 62.6539C16.6859 62.1238 19.2402 62.6539 21.5692 63.3354C22.3205 62.9568 23.0717 62.5782 23.8981 62.4267C25.4758 62.1995 26.9784 62.351 28.4058 62.5782ZM28.3307 63.4869C28.1804 63.5626 27.955 63.4112 27.8048 63.4112C25.7763 62.9568 23.5225 63.184 21.7946 64.3199C19.691 63.5626 17.4372 63.1083 15.1834 63.3354C13.5306 63.4869 11.8026 64.3199 10.9011 65.6831C9.69905 67.5006 9.5488 69.7725 9.69905 71.8172C10.0747 74.6192 10.7508 77.3455 11.5772 79.996C12.1783 81.6621 12.7793 83.3281 13.7559 84.767C14.2818 85.4486 14.958 86.2059 15.8595 86.2816C16.6859 86.3573 17.3621 85.9029 17.8879 85.2971C18.7895 84.2369 19.6159 83.2524 20.5174 82.2679C21.1184 82.5708 21.7946 82.7223 22.3956 82.798C22.02 83.2524 21.7194 83.7825 21.1936 83.934C20.4423 84.2369 19.5407 84.1612 18.8646 84.6913C18.489 84.9942 18.4138 85.6 18.7895 85.9029C19.3905 86.5088 20.3672 86.6602 21.1936 86.736C22.3956 86.8117 23.5976 86.4331 24.4992 85.6C24.4992 87.4933 24.4992 89.4622 24.7245 91.3555C24.7997 92.4914 25.3256 93.6274 26.152 94.309C26.9032 94.9905 28.1053 95.142 29.0819 94.9905C30.0586 94.7633 31.1104 94.4604 31.8617 93.8546C32.6881 93.0973 33.0637 92.0371 33.2139 90.9768C33.5145 89.0836 33.7398 87.1903 33.9652 85.2214C36.0688 85.6 38.4729 85.1456 40.0505 83.631C40.3511 83.3281 40.7267 82.7223 40.3511 82.3436C40.0505 81.965 39.4495 82.0407 38.9988 82.1165C37.947 82.3436 36.7449 82.5708 35.6932 82.0407C37.5713 79.0115 39.0739 75.7551 39.9003 72.2716C40.2008 70.9842 40.4262 69.621 40.4262 68.2579C40.3511 67.5006 40.2759 66.6676 39.8252 66.0617C38.6983 64.5471 37.0455 63.4869 35.2424 62.9568C33.0637 62.6539 30.5845 62.8053 28.3307 63.4869Z" fill="black"/>
</svg>
