<svg width="158" height="158" viewBox="0 0 158 158" fill="none" xmlns="http://www.w3.org/2000/svg">
<path d="M79.0775 73.7333C83.0555 73.7333 86.2804 70.5084 86.2804 66.5303C86.2804 62.5523 83.0555 59.3274 79.0775 59.3274C75.0994 59.3274 71.8745 62.5523 71.8745 66.5303C71.8745 70.5084 75.0994 73.7333 79.0775 73.7333Z" fill="#61DAFB"/>
<path d="M79.0773 93.0187C84.7313 98.5177 90.3077 101.771 94.7999 101.771C96.2715 101.771 97.6656 101.461 98.8273 100.764C102.855 98.4402 104.326 92.6314 102.932 84.3442C102.7 82.8726 102.39 81.401 102.003 79.852C103.552 79.3873 104.946 78.9226 106.34 78.4579C114.163 75.4373 118.5 71.2549 118.5 66.6853C118.5 62.0383 114.163 57.8559 106.34 54.9128C104.946 54.3706 103.552 53.9059 102.003 53.5187C102.39 51.9696 102.7 50.4981 102.932 49.0265C104.249 40.5843 102.777 34.6981 98.7499 32.3745C97.5881 31.6775 96.194 31.3677 94.7224 31.3677C90.3077 31.3677 84.6538 34.6206 78.9999 40.1196C73.4234 34.6206 67.8469 31.3677 63.3548 31.3677C61.8832 31.3677 60.4891 31.6775 59.3273 32.3745C55.2999 34.6981 53.8283 40.5069 55.2224 48.7941C55.4548 50.2657 55.7646 51.7373 56.1518 53.2863C54.6028 53.751 53.2087 54.2157 51.8146 54.6804C43.992 57.701 39.6548 61.8834 39.6548 66.453C39.6548 71.1 43.992 75.2824 51.8146 78.2255C53.2087 78.7677 54.6028 79.2324 56.1518 79.6196C55.7646 81.1687 55.4548 82.6402 55.2224 84.1118C53.9058 92.3991 55.3773 98.2853 59.3273 100.531C60.4891 101.228 61.8832 101.538 63.3548 101.538C67.8469 101.693 73.4234 98.4402 79.0773 93.0187ZM74.7401 82.5628C76.1342 82.6402 77.6058 82.6402 79.0773 82.6402C80.5489 82.6402 82.0205 82.6402 83.4146 82.5628C82.0205 84.4216 80.5489 86.1255 79.0773 87.752C77.6058 86.1255 76.1342 84.4216 74.7401 82.5628ZM65.1362 74.5853C65.9107 75.902 66.6077 77.1412 67.4597 78.3804C65.0587 78.0706 62.8126 77.6834 60.644 77.2187C61.3411 75.1275 62.1156 72.9589 63.045 70.7902C63.6646 72.0294 64.3616 73.3461 65.1362 74.5853ZM60.644 55.9196C62.8126 55.4549 65.0587 55.0677 67.4597 54.7579C66.6852 55.9971 65.9107 57.2363 65.1362 58.553C64.3616 59.8696 63.6646 61.1089 63.045 62.4255C62.0381 60.1794 61.2636 58.0108 60.644 55.9196ZM64.9038 66.5304C65.9107 64.4392 66.995 62.3481 68.2342 60.2569C69.396 58.2432 70.7126 56.2294 72.0293 54.2157C74.3528 54.0608 76.6763 53.9834 79.0773 53.9834C81.5558 53.9834 83.8793 54.0608 86.1254 54.2157C87.5195 56.2294 88.7587 58.2432 89.9205 60.2569C91.1597 62.3481 92.244 64.4392 93.2509 66.5304C92.244 68.6216 91.1597 70.7128 89.9205 72.804C88.7587 74.8177 87.442 76.8314 86.1254 78.8451C83.8018 79 81.4783 79.0775 79.0773 79.0775C76.5989 79.0775 74.2754 79 72.0293 78.8451C70.6352 76.8314 69.396 74.8177 68.2342 72.804C66.995 70.7128 65.9107 68.6216 64.9038 66.5304ZM95.1871 62.3481L93.096 58.4755C92.3214 57.1589 91.6244 55.9196 90.7724 54.6804C93.1734 54.9902 95.4195 55.3775 97.5881 55.8422C96.8911 58.0108 96.1165 60.1794 95.1871 62.3481ZM95.1871 70.7128C96.1165 72.8814 96.8911 75.05 97.5881 77.1412C95.4195 77.6059 93.1734 77.9932 90.7724 78.303C91.5469 77.0638 92.3214 75.8245 93.096 74.5079C93.793 73.3461 94.4901 72.0294 95.1871 70.7128ZM96.9685 97.5883C96.3489 97.9755 95.5744 98.1304 94.7224 98.1304C90.9273 98.1304 86.2028 95.0324 81.5558 90.3853C83.8018 87.9843 85.9705 85.2736 88.1391 82.253C91.7793 81.9432 95.2646 81.401 98.5175 80.6265C98.9048 82.0206 99.1371 83.4147 99.3695 84.8089C100.454 91.3922 99.6018 96.1167 96.9685 97.5883ZM100.996 56.7716C109.67 59.25 114.86 63.0451 114.86 66.5304C114.86 69.551 111.297 72.5716 105.023 74.9726C103.784 75.4373 102.39 75.902 100.996 76.2892C99.9891 73.1138 98.7499 69.8608 97.2009 66.5304C98.7499 63.2 100.067 59.9471 100.996 56.7716ZM94.7999 34.9304C95.6518 34.9304 96.3489 35.0853 97.046 35.4726C99.6018 36.9441 100.531 41.5912 99.4469 48.252C99.2146 49.5687 98.9048 50.9628 98.595 52.4343C95.342 51.7373 91.8567 51.1951 88.2165 50.8079C86.1254 47.7873 83.8793 45.0765 81.6332 42.6755C86.2803 38.1059 91.0048 34.9304 94.7999 34.9304ZM83.4146 50.4981C82.0205 50.4206 80.5489 50.4206 79.0773 50.4206C77.6058 50.4206 76.1342 50.4206 74.7401 50.4981C76.1342 48.6392 77.6058 46.9353 79.0773 45.3089C80.5489 46.9353 82.0205 48.7167 83.4146 50.4981ZM61.1862 35.4726C61.8058 35.0853 62.5803 34.9304 63.4322 34.9304C67.2273 34.9304 71.9518 38.0285 76.5989 42.6755C74.3528 45.0765 72.1842 47.7873 70.0156 50.8079C66.3754 51.1177 62.8901 51.6598 59.6371 52.4343C59.2499 51.0402 59.0175 49.6461 58.7852 48.252C57.7009 41.6687 58.5528 37.0216 61.1862 35.4726ZM57.1587 76.2892C48.4842 73.8108 43.295 70.0157 43.295 66.5304C43.295 63.5098 46.8577 60.4892 53.1313 58.0883C54.3705 57.6236 55.7646 57.1589 57.1587 56.7716C58.1656 59.9471 59.4048 63.2 60.9538 66.5304C59.4048 69.8608 58.0881 73.1912 57.1587 76.2892ZM58.7852 84.8089C59.0175 83.4922 59.3273 82.0981 59.6371 80.6265C62.8901 81.3236 66.3754 81.8657 70.0156 82.253C72.1067 85.2736 74.3528 87.9843 76.5989 90.3853C71.9518 94.9549 67.2273 98.1304 63.4322 98.1304C62.5803 98.1304 61.8832 97.9755 61.1862 97.5883C58.5528 96.1167 57.7009 91.3922 58.7852 84.8089ZM55.5322 116.719C57.2362 114.627 57.3136 112.304 56.3842 109.98C55.4548 107.657 53.5185 106.573 51.1175 106.495C48.2518 106.418 45.3087 106.495 42.443 106.495H41.9009V126.555H44.2244V118.965H47.8646C48.3293 118.965 48.7165 119.12 48.9489 119.507L53.596 126.71C53.6734 126.865 53.9058 127.097 54.0607 127.097H57.0813C55.2224 124.231 53.4411 121.521 51.5822 118.732C53.2087 118.5 54.6028 117.958 55.5322 116.719ZM44.2244 116.564V108.896H45.0764C46.8577 108.896 48.7165 108.819 50.4979 108.974C52.5891 109.051 54.0607 110.677 54.0607 112.769C54.0607 114.86 52.3567 116.486 50.2656 116.564C48.4067 116.641 46.5479 116.564 44.2244 116.564ZM74.1979 117.571C72.9587 112.149 68.0018 110.755 64.2067 112.459C61.2636 113.776 59.9469 116.331 59.8695 119.507C59.792 121.908 60.4891 124.077 62.3479 125.703C64.4391 127.562 66.995 127.794 69.6283 127.329C71.0999 127.02 72.4165 126.323 73.4234 125.238C73.0362 124.696 72.6489 124.154 72.2616 123.689C70.093 125.548 67.692 126.168 65.0587 124.928C63.3548 124.077 62.5028 121.985 62.3479 120.436H74.3528V119.429C74.4303 118.732 74.3528 118.113 74.1979 117.571ZM62.5028 118.81C62.2705 116.486 64.594 114.008 67.1499 114.008C70.093 113.93 71.9518 115.712 72.0293 118.81H62.5028ZM86.2803 112.072C85.1185 111.839 83.8793 111.762 82.7175 111.839C80.8587 111.994 79.2322 112.846 77.9156 114.24C78.3028 114.782 78.6126 115.325 79.0773 115.944C79.2322 115.789 79.3871 115.634 79.542 115.557C80.7812 114.395 82.2528 113.776 84.0342 113.93C85.4283 114.008 86.745 114.473 87.1322 115.867C87.442 116.951 87.3646 118.113 87.442 119.275C87.2097 119.275 87.1322 119.197 87.0548 119.12C85.196 117.571 83.1048 117.261 80.8587 117.803C78.7675 118.345 77.4509 119.972 77.296 122.063C77.1411 124.464 78.2254 126.245 80.3165 127.097C81.6332 127.639 83.1048 127.639 84.4989 127.329C85.5832 127.097 86.0479 126.477 87.5969 125.626V126.632H89.7656C89.7656 123.534 89.843 119.739 89.7656 116.177C89.7656 113.93 88.4489 112.536 86.2803 112.072ZM87.3646 121.83C87.2871 122.063 87.3646 122.295 87.3646 122.527C87.3646 124.154 86.9773 124.696 85.4283 125.316C84.344 125.703 83.1822 125.858 82.0205 125.471C80.7038 125.083 79.7744 123.922 79.7744 122.605C79.6969 121.288 80.5489 119.972 81.8656 119.584C83.6469 118.965 85.2734 119.352 86.745 120.436C87.2097 120.824 87.5195 121.211 87.3646 121.83ZM99.4469 114.163C101.461 113.543 103.319 113.93 104.714 115.634L104.946 115.789C105.488 115.325 105.953 114.86 106.572 114.318C106.34 114.085 106.263 113.93 106.108 113.698C103.862 111.297 99.4469 110.987 96.7362 112.924C92.9411 115.712 93.0185 121.133 94.8773 123.999C96.6587 126.71 99.2146 127.639 102.235 127.252C104.017 127.02 105.488 126.168 106.65 124.696C106.108 124.231 105.566 123.767 105.023 123.225C104.869 123.379 104.791 123.457 104.714 123.612C102.622 125.935 99.1371 125.703 97.2783 123.225C96.194 121.753 95.9616 120.049 96.2714 118.345C96.4263 116.409 97.4332 114.86 99.4469 114.163ZM115.557 124.696C115.402 124.774 115.324 124.851 115.324 124.851C114.705 125.316 114.085 125.393 113.388 125.161C112.691 124.851 112.614 124.231 112.536 123.612V114.782C112.536 114.627 112.536 114.937 112.614 114.163H115.557V111.839H112.459V107.967H110.135V112.149H108.121C107.967 112.149 107.734 112.304 107.734 112.459C107.657 113.001 107.734 113.388 107.734 114.163H110.213V124.077C110.213 125.316 110.522 126.4 111.607 127.02C112.769 127.717 115.015 127.562 116.021 126.71C116.176 126.632 116.254 126.323 116.254 126.245C116.021 125.78 115.789 125.238 115.557 124.696Z" fill="#61DAFB"/>
</svg>
