<svg width="218" height="63" viewBox="0 0 218 63" fill="none" xmlns="http://www.w3.org/2000/svg">
<path d="M4.13785 30.7054C4.13785 30.4765 4.1435 30.249 4.15472 30.0228L0.0225041 29.8176C0.00843937 30.1121 0 30.4081 0 30.7054C0 35.6135 2.00423 40.0581 5.24616 43.2757L8.17586 40.368C5.68357 37.8916 4.13785 34.4744 4.13785 30.7054Z" fill="url(#paint0_linear)"/>
<path d="M17.9104 17.0348C18.1411 17.0348 18.3703 17.0432 18.5982 17.0544L18.805 12.9518C18.5082 12.9378 18.2101 12.9294 17.9104 12.9294C12.9653 12.9294 8.48703 14.9186 5.24512 18.1362L8.17482 21.0439C10.6699 18.5676 14.1129 17.0348 17.9104 17.0348Z" fill="url(#paint1_linear)"/>
<path d="M17.9112 44.3749C17.6805 44.3749 17.4513 44.3693 17.2234 44.3581L17.0166 48.4593C17.3134 48.4733 17.6115 48.4816 17.9112 48.4816C22.8563 48.4816 27.3346 46.4925 30.5764 43.2749L27.6467 40.3672C25.1516 42.8408 21.7086 44.3749 17.9112 44.3749Z" fill="url(#paint2_linear)"/>
<path d="M25.6778 19.4205L29.1616 16.8729C26.0871 14.4063 22.1743 12.9294 17.9126 12.9294V17.0362C20.7917 17.0348 23.4654 17.9171 25.6778 19.4205Z" fill="url(#paint3_linear)"/>
<path d="M35.5349 27.522C35.7233 28.5567 35.8218 29.6208 35.8218 30.7086C35.8218 35.7513 33.707 40.3045 30.3112 43.5393L29.9286 43.8933L27.148 40.8422C29.9328 38.3384 31.6853 34.7218 31.6853 30.7072L31.6836 30.5249L31.6797 30.3427L35.5349 27.522ZM64.6223 22.411L65.0367 22.7247L65.2564 22.9202L61.8397 25.3523C60.5809 24.4848 59.0785 24.0291 57.544 24.0494C54.9518 23.9484 52.5115 25.2575 51.185 27.4609C49.8584 29.6643 49.8584 32.4084 51.185 34.6118C52.5115 36.8151 54.9518 38.1243 57.544 38.0233C58.8124 38.0271 60.0646 37.7596 61.2153 37.2413L61.6419 37.0352L62.7076 36.4598L65.7948 38.6313C63.5433 40.8131 60.4869 41.99 57.3353 41.8886C54.2265 41.9538 51.2107 40.8385 48.9088 38.7725C46.7573 36.7154 45.5641 33.8695 45.6129 30.9115L45.6125 30.547C45.6593 27.7577 46.8448 25.0988 48.9088 23.1808C51.2404 21.1685 54.2518 20.0951 57.3463 20.1732C59.9605 20.1007 62.5194 20.8909 64.6223 22.411ZM213.517 30.542C214.805 30.5355 216.065 30.914 217.131 31.6281V34.1905C216.376 32.9229 215.006 32.1367 213.517 32.1167C211.144 32.1167 209.837 33.4847 209.837 36.1558V36.2209C209.837 39.0005 211.166 40.2817 213.561 40.2817C215.048 40.3926 216.474 39.6716 217.252 38.4142V40.5206C216.28 41.4781 214.928 41.9594 213.561 41.8343V41.8235C209.99 41.8235 207.936 39.9342 207.936 36.134C207.936 32.3338 210.331 30.542 213.517 30.542ZM201.047 30.5423C204.245 30.5423 206.035 32.4533 206.035 35.6672V36.8398H197.389C197.329 37.8078 197.708 38.7519 198.424 39.4153C199.14 40.0786 200.118 40.3923 201.091 40.2708C203.289 40.2708 204.64 39.4456 205.255 38.4033V40.5097C204.695 41.1829 203.3 41.8235 201.091 41.8235C197.51 41.8235 195.455 39.9342 195.455 36.134C195.455 32.3338 197.85 30.5423 201.047 30.5423ZM175.713 30.4879C178.569 30.4879 179.547 31.5738 179.547 33.311C179.617 34.4336 178.9 35.4573 177.811 35.7866C179.306 36.0689 180.119 36.8724 180.119 38.2622C180.119 40.7051 178.064 41.7801 175.548 41.7801C174.047 41.9053 172.558 41.4278 171.417 40.4554L171.461 38.4033C172.417 39.6921 173.981 40.399 175.592 40.2708C177.152 40.2708 178.284 39.6411 178.284 38.4359C178.284 37.2307 177.361 36.8615 175.592 36.8615H173.9V35.374H175.263C176.68 35.374 177.702 34.8528 177.702 33.6368C177.702 32.6161 177.152 32.095 175.713 32.0515C174.084 32.0358 172.547 32.7954 171.582 34.0928V31.5738C172.724 30.9227 174.005 30.5539 175.318 30.4959L175.713 30.4879ZM154.586 26.4272V28.1645H145.797V31.6281H148.895C153.29 31.6281 155.586 33.159 155.586 36.5575C155.586 39.956 153.213 41.6172 148.895 41.6172H143.754V26.4272H154.586ZM160.508 30.7703V38.8376L166.88 30.7703H168.528V41.6172H166.649V33.4739L160.508 41.3566L160.299 41.6172H158.629V30.7703H160.508ZM184.865 30.7703V35.3088H190.83V30.7703H192.709V41.6172H190.83V36.9266H184.865V41.6172H182.986V30.7703H184.865ZM109.586 20.4555L104.609 23.9734H97.6771V29.1525H107.839V32.6704H97.6771V38.0884H109.586V41.6063H92.931V20.4555H109.586ZM88.7892 20.4555L83.8123 23.9734H74.5619V28.7073H80.3517C85.6031 28.7073 88.5035 30.9223 88.4815 34.9614C88.4815 39.0677 85.4389 41.4704 80.1512 41.6007L79.6925 41.6063H69.8048V20.4555H88.7892ZM123.077 20.4555C128.856 20.4555 132.46 23.3545 132.46 28.0233C132.46 32.5724 129.049 35.4722 123.519 35.618L123.077 35.6237H118.782V41.6063H114.014V20.4555H123.077ZM145.786 33.3762V39.8908H148.818C151.829 39.8908 153.455 38.9788 153.455 36.4489C153.455 34.1579 152.005 33.3979 148.753 33.3979L145.786 33.3762ZM79.5167 32.2253H74.5619V38.0993H79.5167C82.4281 38.0884 83.9112 37.1112 83.9112 35.1568C83.9112 33.2024 82.5379 32.2253 79.5167 32.2253ZM32.1813 19.7532C33.0327 20.8577 33.7526 22.0587 34.3263 23.3317L18.0168 35.4225L11.2031 31.1257V25.9578L18.0168 30.242L32.1813 19.7532ZM198.511 32.9168C197.874 33.4736 197.482 34.2497 197.411 35.0809L197.4 35.2972L204.157 35.298C204.242 34.4503 203.947 33.6083 203.348 32.9956C202.749 32.3828 201.908 32.0614 201.047 32.1167C200.126 32.0188 199.205 32.3093 198.511 32.9168ZM122.99 23.9734H118.771V32.1167H122.99C126.033 32.1167 127.714 30.6509 127.714 28.0342C127.714 25.4175 126.033 23.9734 122.99 23.9734Z" fill="#21A038"/>
<path d="M17.9123 44.3757C13.8686 44.3757 10.2258 42.6365 7.70399 39.8726L4.63086 42.6322C7.90791 46.2254 12.645 48.4825 17.9123 48.4825V44.3757Z" fill="url(#paint4_linear)"/>
<path d="M8.67513 20.574L5.89454 17.5239C2.27427 20.7764 0 25.4778 0 30.7056H4.13785C4.13925 26.691 5.8903 23.0769 8.67513 20.574Z" fill="url(#paint5_linear)"/>
<defs>
<linearGradient id="paint0_linear" x1="4.83295" y1="42.7609" x2="0.664463" y2="30.6204" gradientUnits="userSpaceOnUse">
<stop offset="0.1444" stop-color="#F2E913"/>
<stop offset="0.3037" stop-color="#E7E518"/>
<stop offset="0.5823" stop-color="#CADB26"/>
<stop offset="0.891" stop-color="#A3CD39"/>
</linearGradient>
<linearGradient id="paint1_linear" x1="6.42772" y1="17.6509" x2="17.0754" y2="13.5625" gradientUnits="userSpaceOnUse">
<stop offset="0.0592" stop-color="#0FA8E0"/>
<stop offset="0.5385" stop-color="#0099F9"/>
<stop offset="0.9234" stop-color="#0291EB"/>
</linearGradient>
<linearGradient id="paint2_linear" x1="16.7435" y1="44.9834" x2="29.4777" y2="42.0837" gradientUnits="userSpaceOnUse">
<stop offset="0.1226" stop-color="#A3CD39"/>
<stop offset="0.2846" stop-color="#86C339"/>
<stop offset="0.8693" stop-color="#21A038"/>
</linearGradient>
<linearGradient id="paint3_linear" x1="17.047" y1="15.5592" x2="27.6185" y2="18.8457" gradientUnits="userSpaceOnUse">
<stop offset="0.0566" stop-color="#0291EB"/>
<stop offset="0.79" stop-color="#0C8ACB"/>
</linearGradient>
<linearGradient id="paint4_linear" x1="5.6687" y1="43.3273" x2="17.0041" y2="47.5947" gradientUnits="userSpaceOnUse">
<stop offset="0.1324" stop-color="#F2E913"/>
<stop offset="0.2977" stop-color="#EBE716"/>
<stop offset="0.5306" stop-color="#D9E01F"/>
<stop offset="0.8023" stop-color="#BBD62D"/>
<stop offset="0.9829" stop-color="#A3CD39"/>
</linearGradient>
<linearGradient id="paint5_linear" x1="3.11323" y1="31.203" x2="7.62454" y2="19.3786" gradientUnits="userSpaceOnUse">
<stop offset="0.0698" stop-color="#A3CD39"/>
<stop offset="0.2599" stop-color="#81C55F"/>
<stop offset="0.9216" stop-color="#0FA8E0"/>
</linearGradient>
</defs>
</svg>
