<svg width="810" height="689" viewBox="0 0 810 689" fill="none" xmlns="http://www.w3.org/2000/svg">
<path fill-rule="evenodd" clip-rule="evenodd" d="M368.636 0.0664029C438.097 -2.24883 489.977 56.5434 551.84 88.1023C629.035 127.482 731.331 133.268 775.506 207.628C821.802 285.558 818.231 390.333 780.267 472.613C743.925 551.375 661.791 598.889 580.601 630.04C513.012 655.973 440.722 623.544 368.636 630.547C284.225 638.746 194.384 722.028 124.355 674.358C54.8671 627.056 100.139 514.299 78.7342 433.204C59.1899 359.158 -20.2223 293.95 4.84404 221.574C29.9441 149.101 128.469 140.003 194.126 100.025C252.815 64.2903 299.894 2.35767 368.636 0.0664029Z" fill="#46B8E9" fill-opacity="0.4"/>
<path fill-rule="evenodd" clip-rule="evenodd" d="M371.318 37.5436C433.044 35.4803 479.147 87.8755 534.122 116C602.72 151.096 693.625 156.252 732.881 222.52C774.021 291.971 770.848 385.346 737.111 458.673C704.817 528.865 631.829 571.21 559.68 598.971C499.617 622.082 435.377 593.182 371.318 599.422C296.307 606.73 216.47 680.95 154.239 638.467C92.4893 596.312 132.72 495.823 113.699 423.552C96.3307 357.563 25.7616 299.45 48.0366 234.949C70.3416 170.362 157.895 162.254 216.241 126.626C268.395 94.7794 310.231 39.5856 371.318 37.5436Z" fill="#C4C4C4"/>
<path fill-rule="evenodd" clip-rule="evenodd" d="M371.318 37.5436C433.044 35.4803 479.147 87.8755 534.122 116C602.72 151.096 693.625 156.252 732.881 222.52C774.021 291.971 770.848 385.346 737.111 458.673C704.817 528.865 631.829 571.21 559.68 598.971C499.617 622.082 435.377 593.182 371.318 599.422C296.307 606.73 216.47 680.95 154.239 638.467C92.4893 596.312 132.72 495.823 113.699 423.552C96.3307 357.563 25.7616 299.45 48.0366 234.949C70.3416 170.362 157.895 162.254 216.241 126.626C268.395 94.7794 310.231 39.5856 371.318 37.5436Z" fill="url(#paint0_linear)"/>
<path d="M318.688 251.105V243.792C318.688 243.08 318.113 242.494 317.391 242.494H315.507C314.953 242.494 314.472 242.118 314.346 241.584C313.697 238.748 312.588 236.08 311.092 233.684C310.789 233.203 310.851 232.586 311.249 232.188L312.567 230.87C313.069 230.367 313.069 229.541 312.567 229.039L307.398 223.87C306.896 223.367 306.07 223.367 305.567 223.87L304.249 225.188C303.851 225.586 303.234 225.648 302.753 225.345C300.357 223.849 297.689 222.74 294.853 222.08C294.319 221.955 293.943 221.474 293.943 220.919V219.046C293.943 218.335 293.367 217.749 292.645 217.749H285.332C284.62 217.749 284.034 218.324 284.034 219.046V220.919C284.034 221.474 283.657 221.955 283.124 222.08C280.288 222.729 277.62 223.838 275.224 225.335C274.743 225.638 274.125 225.575 273.728 225.178L272.409 223.859C271.907 223.357 271.081 223.357 270.578 223.859L265.41 229.028C264.907 229.53 264.907 230.357 265.41 230.859L266.728 232.177C267.126 232.575 267.188 233.192 266.885 233.674C265.389 236.07 264.28 238.738 263.631 241.573C263.505 242.107 263.024 242.484 262.469 242.484H260.586C259.875 242.484 259.289 243.059 259.289 243.781V251.095C259.289 251.806 259.864 252.392 260.586 252.392H262.469C263.024 252.392 263.505 252.769 263.631 253.303C264.28 256.138 265.389 258.806 266.885 261.202C267.188 261.684 267.126 262.301 266.728 262.699L265.41 264.017C264.907 264.519 264.907 265.346 265.41 265.848L270.578 271.017C271.081 271.519 271.907 271.519 272.409 271.017L273.738 269.688C274.136 269.29 274.753 269.228 275.234 269.531C277.631 271.027 280.299 272.136 283.134 272.785C283.668 272.911 284.045 273.392 284.045 273.947V275.83C284.045 276.541 284.62 277.127 285.342 277.127H292.656C293.367 277.127 293.953 276.552 293.953 275.83V273.947C293.953 273.392 294.33 272.911 294.863 272.785C297.699 272.136 300.367 271.027 302.763 269.531C303.245 269.228 303.862 269.29 304.259 269.688L305.588 271.017C306.091 271.519 306.917 271.519 307.419 271.017L312.588 265.848C313.09 265.346 313.09 264.519 312.588 264.017L311.259 262.688C310.862 262.291 310.799 261.673 311.102 261.192C312.599 258.796 313.708 256.128 314.356 253.292C314.482 252.759 314.963 252.382 315.518 252.382H317.401C318.113 252.392 318.688 251.817 318.688 251.105ZM289.004 266.894C278.269 266.894 269.574 258.179 269.574 247.443C269.574 236.718 278.269 228.013 289.004 228.013C299.739 228.013 308.434 236.729 308.434 247.443C308.434 258.179 299.739 266.894 289.004 266.894Z" fill="#37A6CC"/>
<path d="M192.179 444.622C194.138 444.622 195.726 443.034 195.726 441.075C195.726 439.116 194.138 437.528 192.179 437.528C190.22 437.528 188.632 439.116 188.632 441.075C188.632 443.034 190.22 444.622 192.179 444.622Z" fill="#A0DDFF"/>
<path d="M648.625 221.306C650.584 221.306 652.172 219.718 652.172 217.759C652.172 215.8 650.584 214.212 648.625 214.212C646.666 214.212 645.078 215.8 645.078 217.759C645.078 219.718 646.666 221.306 648.625 221.306Z" fill="#A0DDFF"/>
<path d="M521.246 176.973C522.471 176.973 523.464 175.98 523.464 174.755C523.464 173.53 522.471 172.537 521.246 172.537C520.02 172.537 519.027 173.53 519.027 174.755C519.027 175.98 520.02 176.973 521.246 176.973Z" fill="#A0DDFF"/>
<path d="M194.94 145.155C194.94 146.379 193.946 147.373 192.722 147.373C191.497 147.373 190.503 146.379 190.503 145.155C190.503 143.931 191.497 142.937 192.722 142.937C193.935 142.937 194.94 143.931 194.94 145.155Z" fill="#A0DDFF"/>
<path d="M244.127 282.014C244.127 283.238 243.133 284.232 241.909 284.232C240.685 284.232 239.691 283.238 239.691 282.014C239.691 280.789 240.685 279.795 241.909 279.795C243.133 279.785 244.127 280.779 244.127 282.014Z" fill="#A0DDFF"/>
<path d="M162.588 444.622C162.588 445.846 161.594 446.84 160.37 446.84C159.145 446.84 158.151 445.846 158.151 444.622C158.151 443.398 159.145 442.404 160.37 442.404C161.594 442.394 162.588 443.388 162.588 444.622Z" fill="#A0DDFF"/>
<path d="M256.014 139.044C257.973 139.044 259.561 137.456 259.561 135.497C259.561 133.538 257.973 131.95 256.014 131.95C254.055 131.95 252.467 133.538 252.467 135.497C252.467 137.456 254.055 139.044 256.014 139.044Z" fill="#A0DDFF"/>
<path d="M500.466 296.693C500.466 299.309 498.341 301.433 495.726 301.433C493.11 301.433 490.986 299.309 490.986 296.693C490.986 294.078 493.11 291.954 495.726 291.954C498.341 291.954 500.466 294.067 500.466 296.693Z" fill="#A0DDFF"/>
<path d="M150.817 238.068C150.817 240.684 148.693 242.808 146.077 242.808C143.461 242.808 141.337 240.684 141.337 238.068C141.337 235.452 143.461 233.328 146.077 233.328C148.693 233.328 150.817 235.452 150.817 238.068Z" fill="#A0DDFF"/>
<path d="M144.422 167.306H138.458C138.071 167.306 137.768 166.992 137.768 166.616V160.652C137.768 160.264 138.081 159.961 138.458 159.961H144.422C144.809 159.961 145.113 160.275 145.113 160.652V166.616C145.113 166.992 144.799 167.306 144.422 167.306Z" fill="#A0DDFF"/>
<path d="M154.247 167.305H148.283C147.896 167.305 147.592 166.992 147.592 166.615V160.651C147.592 160.264 147.906 159.96 148.283 159.96H154.247C154.634 159.96 154.937 160.274 154.937 160.651V166.615C154.948 166.992 154.634 167.305 154.247 167.305Z" fill="#A0DDFF"/>
<path d="M164.082 167.305H158.118C157.731 167.305 157.428 166.992 157.428 166.615V160.651C157.428 160.264 157.742 159.96 158.118 159.96H164.082C164.469 159.96 164.773 160.274 164.773 160.651V166.615C164.783 166.992 164.469 167.305 164.082 167.305Z" fill="#A0DDFF"/>
<path d="M194.754 421.437H188.79C188.403 421.437 188.099 421.123 188.099 420.746V414.782C188.099 414.395 188.413 414.091 188.79 414.091H194.754C195.141 414.091 195.444 414.405 195.444 414.782V420.746C195.444 421.133 195.141 421.437 194.754 421.437Z" fill="#A0DDFF"/>
<path d="M204.589 421.436H198.625C198.238 421.436 197.935 421.122 197.935 420.745V414.781C197.935 414.394 198.248 414.091 198.625 414.091H204.589C204.976 414.091 205.28 414.405 205.28 414.781V420.745C205.28 421.132 204.966 421.436 204.589 421.436Z" fill="#A0DDFF"/>
<path d="M214.414 421.436H208.45C208.063 421.436 207.76 421.122 207.76 420.745V414.781C207.76 414.394 208.074 414.091 208.45 414.091H214.414C214.801 414.091 215.105 414.405 215.105 414.781V420.745C215.115 421.132 214.801 421.436 214.414 421.436Z" fill="#A0DDFF"/>
<path d="M20.043 547.39L611.224 547.39" stroke="#0A7CA4" stroke-miterlimit="10" stroke-linecap="round"/>
<path d="M450.138 484.623H308.57C296.234 484.623 286.231 474.621 286.231 462.284V147.174C286.231 134.838 296.234 124.835 308.57 124.835H450.138C462.474 124.835 472.477 134.838 472.477 147.174V462.284C472.477 474.621 462.474 484.623 450.138 484.623Z" fill="#1B9ECC"/>
<path d="M449.426 479.507H309.282C298.474 479.507 289.716 470.749 289.716 459.941V147.551C289.716 136.743 298.474 127.985 309.282 127.985H449.416C460.224 127.985 468.982 136.743 468.982 147.551V459.941C468.993 470.749 460.224 479.507 449.426 479.507Z" fill="white"/>
<path d="M461.145 146.934V458.967C461.145 466.281 455.212 472.214 447.899 472.214H310.82C303.506 472.214 297.574 466.281 297.574 458.967V146.934C297.574 139.62 303.506 133.687 310.82 133.687H333.682C334.948 133.687 336.11 134.399 336.675 135.539L339.102 140.384C340.211 142.623 342.492 144.025 344.972 144.025H413.736C416.216 144.025 418.508 142.623 419.606 140.384L422.034 135.539C422.599 134.409 423.76 133.687 425.026 133.687H447.888C455.212 133.687 461.145 139.62 461.145 146.934Z" fill="#E6F9FF"/>
<path d="M408.212 138.354H352.83C351.543 138.354 350.497 137.308 350.497 136.021C350.497 134.734 351.543 133.687 352.83 133.687H408.212C409.499 133.687 410.545 134.734 410.545 136.021C410.545 137.308 409.499 138.354 408.212 138.354Z" fill="#E6F9FF"/>
<path d="M439.381 461.385H316.135C311.291 461.385 307.367 457.461 307.367 452.616V409.1C307.367 404.255 311.291 400.332 316.135 400.332H439.381C444.226 400.332 448.15 404.255 448.15 409.1V452.616C448.15 457.461 444.226 461.385 439.381 461.385Z" stroke="#37A6CC" stroke-miterlimit="10" stroke-linecap="round" stroke-linejoin="round" stroke-dasharray="2.84 2.84"/>
<path d="M433.135 311.572H371.998C368.504 311.572 365.679 308.737 365.679 305.252V275.035C365.679 271.54 368.514 268.715 371.998 268.715H433.135C436.63 268.715 439.455 271.55 439.455 275.035V305.252C439.455 308.737 436.63 311.572 433.135 311.572Z" stroke="#37A6CC" stroke-miterlimit="10" stroke-linecap="round" stroke-linejoin="round" stroke-dasharray="2.84 2.84"/>
<path d="M446.298 390.182H320.028C315.863 390.182 312.494 386.813 312.494 382.649V329.391C312.494 325.227 315.863 321.858 320.028 321.858H446.298C450.462 321.858 453.831 325.227 453.831 329.391V382.649C453.831 386.803 450.462 390.182 446.298 390.182Z" fill="#1B9ECC"/>
<path d="M448.15 323.846V377.135C448.15 381.289 444.781 384.647 440.627 384.647H314.89C310.736 384.647 307.367 381.289 307.367 377.135V323.846C307.367 319.692 310.736 316.323 314.89 316.323H440.627C444.781 316.323 448.15 319.692 448.15 323.846Z" fill="#D1EEFE"/>
<path d="M356 379.092H318.961C316.156 379.092 313.875 376.811 313.875 374.006V336.967C313.875 334.163 316.156 331.882 318.961 331.882H356C358.804 331.882 361.085 334.163 361.085 336.967V374.006C361.085 376.821 358.804 379.092 356 379.092Z" fill="white"/>
<path d="M399.904 337.856H367.279C366.39 337.856 365.668 337.134 365.668 336.245C365.668 335.355 366.39 334.633 367.279 334.633H399.904C400.793 334.633 401.515 335.355 401.515 336.245C401.504 337.134 400.793 337.856 399.904 337.856Z" fill="#A0DDFF"/>
<path d="M385.035 344.27H367.279C366.39 344.27 365.668 343.548 365.668 342.658C365.668 341.769 366.39 341.047 367.279 341.047H385.035C385.925 341.047 386.647 341.769 386.647 342.658C386.636 343.548 385.925 344.27 385.035 344.27Z" fill="#A0DDFF"/>
<path d="M439.622 344.27H391.575C390.685 344.27 389.963 343.548 389.963 342.658C389.963 341.769 390.685 341.047 391.575 341.047H439.622C440.511 341.047 441.233 341.769 441.233 342.658C441.223 343.548 440.511 344.27 439.622 344.27Z" fill="#A0DDFF"/>
<path d="M394.756 350.684H367.279C366.39 350.684 365.668 349.962 365.668 349.072C365.668 348.183 366.39 347.461 367.279 347.461H394.756C395.645 347.461 396.367 348.183 396.367 349.072C396.357 349.962 395.635 350.684 394.756 350.684Z" fill="#A0DDFF"/>
<path d="M418.068 350.684H400.804C399.914 350.684 399.203 349.962 399.203 349.072C399.203 348.183 399.925 347.461 400.804 347.461H418.068C418.957 347.461 419.679 348.183 419.679 349.072C419.679 349.962 418.957 350.684 418.068 350.684Z" fill="#A0DDFF"/>
<path d="M439.622 350.684H423.718C422.828 350.684 422.106 349.962 422.106 349.072C422.106 348.183 422.828 347.461 423.718 347.461H439.622C440.511 347.461 441.233 348.183 441.233 349.072C441.223 349.962 440.511 350.684 439.622 350.684Z" fill="#A0DDFF"/>
<path d="M439.622 357.098H367.279C366.39 357.098 365.668 356.376 365.668 355.486C365.668 354.597 366.39 353.875 367.279 353.875H439.622C440.511 353.875 441.233 354.597 441.233 355.486C441.223 356.376 440.511 357.098 439.622 357.098Z" fill="#A0DDFF"/>
<path d="M407.092 363.512H367.279C366.39 363.512 365.668 362.79 365.668 361.9C365.668 361.011 366.39 360.289 367.279 360.289H407.092C407.981 360.289 408.703 361.011 408.703 361.9C408.703 362.79 407.981 363.512 407.092 363.512Z" fill="#A0DDFF"/>
<path d="M439.622 363.512H413.516C412.627 363.512 411.905 362.79 411.905 361.9C411.905 361.011 412.627 360.289 413.516 360.289H439.622C440.511 360.289 441.233 361.011 441.233 361.9C441.223 362.79 440.511 363.512 439.622 363.512Z" fill="#A0DDFF"/>
<path d="M390.675 369.915H367.279C366.39 369.915 365.668 369.193 365.668 368.304C365.668 367.415 366.39 366.693 367.279 366.693H390.675C391.564 366.693 392.286 367.415 392.286 368.304C392.276 369.204 391.554 369.915 390.675 369.915Z" fill="#A0DDFF"/>
<path d="M420.39 369.915H396.995C396.105 369.915 395.383 369.193 395.383 368.304C395.383 367.415 396.105 366.693 396.995 366.693H420.39C421.28 366.693 422.002 367.415 422.002 368.304C422.002 369.204 421.28 369.915 420.39 369.915Z" fill="#A0DDFF"/>
<path d="M439.622 369.915H426.051C425.161 369.915 424.439 369.193 424.439 368.304C424.439 367.415 425.161 366.693 426.051 366.693H439.622C440.511 366.693 441.233 367.415 441.233 368.304C441.222 369.204 440.511 369.915 439.622 369.915Z" fill="#A0DDFF"/>
<path d="M399.904 376.329H367.279C366.39 376.329 365.668 375.607 365.668 374.718C365.668 373.829 366.39 373.107 367.279 373.107H399.904C400.793 373.107 401.515 373.829 401.515 374.718C401.504 375.618 400.793 376.329 399.904 376.329Z" fill="#A0DDFF"/>
<path d="M439.622 337.856H406.998C406.108 337.856 405.386 337.134 405.386 336.245C405.386 335.355 406.108 334.633 406.998 334.633H439.622C440.511 334.633 441.233 335.355 441.233 336.245C441.223 337.134 440.511 337.856 439.622 337.856Z" fill="#A0DDFF"/>
<path d="M448.15 323.846V326.085H307.367V323.846C307.367 319.692 310.736 316.323 314.89 316.323H440.627C444.781 316.323 448.15 319.692 448.15 323.846Z" fill="#0294C8"/>
<path d="M421.615 321.376C421.615 322.339 420.831 323.124 419.868 323.124C418.905 323.124 418.121 322.339 418.121 321.376C418.121 320.414 418.905 319.629 419.868 319.629C420.831 319.629 421.615 320.414 421.615 321.376Z" fill="#DEE3FC"/>
<path d="M430.54 321.376C430.54 322.339 429.755 323.124 428.793 323.124C427.83 323.124 427.045 322.339 427.045 321.376C427.045 320.414 427.83 319.629 428.793 319.629C429.755 319.629 430.54 320.414 430.54 321.376Z" fill="#DEE3FC"/>
<path d="M439.455 321.376C439.455 322.339 438.67 323.124 437.707 323.124C436.745 323.124 435.96 322.339 435.96 321.376C435.96 320.414 436.745 319.629 437.707 319.629C438.68 319.64 439.455 320.414 439.455 321.376Z" fill="#DEE3FC"/>
<path d="M350.957 311.572H323.094C318.961 311.572 315.612 308.224 315.612 304.091V276.228C315.612 272.095 318.961 268.746 323.094 268.746H350.957C355.09 268.746 358.438 272.095 358.438 276.228V304.091C358.438 308.214 355.09 311.572 350.957 311.572Z" stroke="#37A6CC" stroke-width="0.8956" stroke-miterlimit="10"/>
<path d="M330.344 283.96L324.171 290.133L330.386 296.348" stroke="#37A6CC" stroke-width="1.6716" stroke-miterlimit="10" stroke-linecap="round" stroke-linejoin="round"/>
<path d="M343.706 283.96L349.868 290.133L343.653 296.348" stroke="#37A6CC" stroke-width="1.6716" stroke-miterlimit="10" stroke-linecap="round" stroke-linejoin="round"/>
<path d="M339.908 283.96L334.132 296.348" stroke="#37A6CC" stroke-width="1.6716" stroke-miterlimit="10" stroke-linecap="round" stroke-linejoin="round"/>
<path d="M448.15 164.208V251.336C448.15 256.065 444.32 259.894 439.591 259.894H315.926C311.207 259.894 307.367 256.065 307.367 251.336V164.208C307.367 159.479 311.207 155.649 315.926 155.649H439.591C444.32 155.649 448.15 159.479 448.15 164.208Z" fill="#A9E2FC"/>
<path d="M419.638 203.582C430.906 203.582 440.041 194.447 440.041 183.178C440.041 171.91 430.906 162.775 419.638 162.775C408.369 162.775 399.234 171.91 399.234 183.178C399.234 194.447 408.369 203.582 419.638 203.582Z" fill="white"/>
<path d="M390.121 259.895H315.926C311.207 259.895 307.367 256.065 307.367 251.336V237.618L339.835 181.379C341.53 178.438 345.778 178.438 347.473 181.379L371.988 223.838L390.194 255.374C391.073 256.881 390.937 258.597 390.121 259.895Z" fill="white"/>
<path d="M422.118 259.894H351.167L371.988 223.838L383.205 204.408C384.732 201.761 388.552 201.761 390.079 204.408L422.118 259.894Z" fill="white"/>
<path d="M203.457 317.4H258.975C262.533 317.4 265.42 320.288 265.42 323.845V336.966C265.42 340.252 262.962 342.962 259.791 343.359C259.331 343.422 258.975 343.809 258.975 344.28V351.458C258.975 351.876 258.441 352.044 258.201 351.709L252.54 343.799C252.362 343.558 252.08 343.412 251.776 343.412H203.447C199.889 343.412 197.001 340.524 197.001 336.966V323.845C197.012 320.288 199.9 317.4 203.457 317.4Z" stroke="white" stroke-width="0.8956" stroke-miterlimit="10"/>
<path d="M250.458 330.385C250.458 331.557 251.411 332.509 252.583 332.509C253.754 332.509 254.707 331.557 254.707 330.385C254.707 329.213 253.754 328.261 252.583 328.261C251.411 328.261 250.458 329.213 250.458 330.385Z" stroke="white" stroke-width="0.8956" stroke-miterlimit="10"/>
<path d="M239.775 330.385C239.775 331.557 240.728 332.509 241.899 332.509C243.071 332.509 244.023 331.557 244.023 330.385C244.023 329.213 243.071 328.261 241.899 328.261C240.728 328.261 239.775 329.213 239.775 330.385Z" stroke="white" stroke-width="0.8956" stroke-miterlimit="10"/>
<path d="M229.103 330.385C229.103 331.557 230.055 332.509 231.227 332.509C232.398 332.509 233.351 331.557 233.351 330.385C233.351 329.213 232.398 328.261 231.227 328.261C230.044 328.261 229.103 329.213 229.103 330.385Z" stroke="white" stroke-width="0.8956" stroke-miterlimit="10"/>
<path d="M218.42 330.385C218.42 331.557 219.372 332.509 220.544 332.509C221.716 332.509 222.668 331.557 222.668 330.385C222.668 329.213 221.716 328.261 220.544 328.261C219.362 328.261 218.42 329.213 218.42 330.385Z" stroke="white" stroke-width="0.8956" stroke-miterlimit="10"/>
<path d="M207.737 330.385C207.737 331.557 208.689 332.509 209.861 332.509C211.033 332.509 211.985 331.557 211.985 330.385C211.985 329.213 211.033 328.261 209.861 328.261C208.679 328.261 207.737 329.213 207.737 330.385Z" stroke="white" stroke-width="0.8956" stroke-miterlimit="10"/>
<path d="M538.771 229.635H437.571C431.994 229.635 427.464 225.115 427.464 219.527C427.464 213.95 431.984 209.42 437.571 209.42H538.771C544.348 209.42 548.879 213.94 548.879 219.527C548.879 225.115 544.348 229.635 538.771 229.635Z" fill="white" stroke="#37A6CC" stroke-width="0.8956" stroke-miterlimit="10"/>
<path d="M537.286 218.837C537.286 221.808 534.879 224.215 531.908 224.215C528.936 224.215 526.53 221.808 526.53 218.837C526.53 215.865 528.936 213.459 531.908 213.459C534.879 213.459 537.286 215.865 537.286 218.837Z" stroke="#37A6CC" stroke-width="1.6716" stroke-miterlimit="10"/>
<path d="M535.716 222.635L538.677 225.607" stroke="#37A6CC" stroke-width="1.6716" stroke-miterlimit="10" stroke-linecap="round"/>
<path d="M385.475 504.482H360.018C355.561 504.482 351.951 500.873 351.951 496.415V470.958C351.951 466.501 355.561 462.891 360.018 462.891H385.475C389.933 462.891 393.542 466.501 393.542 470.958V496.415C393.542 500.873 389.933 504.482 385.475 504.482Z" fill="#1B9ECC"/>
<path d="M377.9 504.482H352.443C347.985 504.482 344.375 500.873 344.375 496.415V470.958C344.375 466.501 347.985 462.891 352.443 462.891H377.9C382.357 462.891 385.967 466.501 385.967 470.958V496.415C385.956 500.873 382.346 504.482 377.9 504.482Z" fill="#80D2FF"/>
<path d="M360.259 475.834L372.197 482.729C372.93 483.158 372.93 484.215 372.197 484.644L360.259 491.539C359.526 491.968 358.606 491.435 358.606 490.587V476.807C358.595 475.939 359.516 475.416 360.259 475.834Z" fill="white"/>
<path d="M500.685 241.28H479.309C478.42 241.28 477.708 240.558 477.708 239.669C477.708 238.78 478.43 238.058 479.309 238.058H500.685C501.575 238.058 502.297 238.78 502.297 239.669C502.297 240.558 501.575 241.28 500.685 241.28Z" fill="#A0DDFF"/>
<path d="M522.072 241.28H506.607C505.718 241.28 504.996 240.558 504.996 239.669C504.996 238.78 505.718 238.058 506.607 238.058H522.072C522.961 238.058 523.683 238.78 523.683 239.669C523.683 240.558 522.961 241.28 522.072 241.28Z" fill="#A0DDFF"/>
<path d="M488.401 248.343H479.319C478.43 248.343 477.718 247.621 477.718 246.732C477.718 245.842 478.44 245.12 479.319 245.12H488.401C489.291 245.12 490.013 245.842 490.013 246.732C490.002 247.621 489.28 248.343 488.401 248.343Z" fill="#A0DDFF"/>
<path d="M522.072 248.343H493.79C492.901 248.343 492.179 247.621 492.179 246.732C492.179 245.842 492.901 245.12 493.79 245.12H522.072C522.961 245.12 523.683 245.842 523.683 246.732C523.683 247.621 522.961 248.343 522.072 248.343Z" fill="#A0DDFF"/>
<path d="M507.486 255.406H479.309C478.42 255.406 477.708 254.684 477.708 253.794C477.708 252.905 478.43 252.183 479.309 252.183H507.486C508.376 252.183 509.098 252.905 509.098 253.794C509.098 254.684 508.376 255.406 507.486 255.406Z" fill="#A0DDFF"/>
<path d="M522.072 255.406H512.99C512.101 255.406 511.379 254.684 511.379 253.794C511.379 252.905 512.101 252.183 512.99 252.183H522.072C522.962 252.183 523.684 252.905 523.684 253.794C523.684 254.684 522.962 255.406 522.072 255.406Z" fill="#A0DDFF"/>
<path d="M223.436 203.745H202.059C201.17 203.745 200.458 203.023 200.458 202.134C200.458 201.244 201.18 200.522 202.059 200.522H223.436C224.325 200.522 225.047 201.244 225.047 202.134C225.047 203.023 224.325 203.745 223.436 203.745Z" fill="#A0DDFF"/>
<path d="M244.823 203.745H229.358C228.469 203.745 227.747 203.023 227.747 202.134C227.747 201.244 228.469 200.522 229.358 200.522H244.823C245.712 200.522 246.434 201.244 246.434 202.134C246.434 203.023 245.712 203.745 244.823 203.745Z" fill="#A0DDFF"/>
<path d="M211.152 210.808H202.07C201.18 210.808 200.469 210.086 200.469 209.196C200.469 208.307 201.191 207.585 202.07 207.585H211.152C212.041 207.585 212.763 208.307 212.763 209.196C212.753 210.086 212.031 210.808 211.152 210.808Z" fill="#A0DDFF"/>
<path d="M244.823 210.808H216.541C215.651 210.808 214.929 210.086 214.929 209.196C214.929 208.307 215.651 207.585 216.541 207.585H244.823C245.712 207.585 246.434 208.307 246.434 209.196C246.434 210.086 245.712 210.808 244.823 210.808Z" fill="#A0DDFF"/>
<path d="M230.237 217.87H202.059C201.17 217.87 200.458 217.148 200.458 216.259C200.458 215.37 201.18 214.648 202.059 214.648H230.237C231.126 214.648 231.848 215.37 231.848 216.259C231.848 217.148 231.126 217.87 230.237 217.87Z" fill="#A0DDFF"/>
<path d="M244.822 217.87H235.74C234.851 217.87 234.129 217.148 234.129 216.259C234.129 215.37 234.851 214.648 235.74 214.648H244.822C245.712 214.648 246.434 215.37 246.434 216.259C246.434 217.148 245.712 217.87 244.822 217.87Z" fill="#A0DDFF"/>
<path d="M230.023 405.333H155.399C153.192 405.333 151.402 403.544 151.402 401.336V363.668C151.402 361.461 153.192 359.671 155.399 359.671H230.023C232.231 359.671 234.02 361.461 234.02 363.668V401.336C234.02 403.544 232.231 405.333 230.023 405.333Z" fill="#1B9ECC"/>
<path d="M154.918 365.834H230.515" stroke="white" stroke-width="0.8956" stroke-miterlimit="10" stroke-linecap="round"/>
<path d="M228.516 363.616C229.024 363.616 229.437 363.204 229.437 362.695C229.437 362.187 229.024 361.775 228.516 361.775C228.007 361.775 227.595 362.187 227.595 362.695C227.595 363.204 228.007 363.616 228.516 363.616Z" fill="white"/>
<path d="M223.745 363.616C224.254 363.616 224.666 363.204 224.666 362.695C224.666 362.187 224.254 361.775 223.745 361.775C223.236 361.775 222.824 362.187 222.824 362.695C222.824 363.204 223.236 363.616 223.745 363.616Z" fill="white"/>
<path d="M218.963 363.616C219.472 363.616 219.884 363.204 219.884 362.695C219.884 362.187 219.472 361.775 218.963 361.775C218.455 361.775 218.042 362.187 218.042 362.695C218.042 363.204 218.455 363.616 218.963 363.616Z" fill="white"/>
<path d="M169.002 371.987H156.174C155.473 371.987 154.908 371.422 154.908 370.721C154.908 370.02 155.473 369.455 156.174 369.455H169.002C169.703 369.455 170.268 370.02 170.268 370.721C170.268 371.422 169.703 371.987 169.002 371.987Z" fill="#1574A8"/>
<path d="M169.002 377.825H156.174C155.473 377.825 154.908 377.26 154.908 376.559C154.908 375.858 155.473 375.293 156.174 375.293H169.002C169.703 375.293 170.268 375.858 170.268 376.559C170.268 377.26 169.703 377.825 169.002 377.825Z" fill="#1574A8"/>
<path d="M169.002 383.664H156.174C155.473 383.664 154.908 383.099 154.908 382.398C154.908 381.697 155.473 381.132 156.174 381.132H169.002C169.703 381.132 170.268 381.697 170.268 382.398C170.268 383.099 169.703 383.664 169.002 383.664Z" fill="#1574A8"/>
<path d="M169.002 389.513H156.174C155.473 389.513 154.908 388.948 154.908 388.247C154.908 387.546 155.473 386.981 156.174 386.981H169.002C169.703 386.981 170.268 387.546 170.268 388.247C170.268 388.948 169.703 389.513 169.002 389.513Z" fill="#1574A8"/>
<path d="M169.002 395.351H156.174C155.473 395.351 154.908 394.786 154.908 394.085C154.908 393.384 155.473 392.819 156.174 392.819H169.002C169.703 392.819 170.268 393.384 170.268 394.085C170.268 394.786 169.703 395.351 169.002 395.351Z" fill="#1574A8"/>
<path d="M169.002 401.19H156.174C155.473 401.19 154.908 400.625 154.908 399.924C154.908 399.222 155.473 398.657 156.174 398.657H169.002C169.703 398.657 170.268 399.222 170.268 399.924C170.268 400.625 169.703 401.19 169.002 401.19Z" fill="#1574A8"/>
<path d="M229.249 371.987H173.972C173.271 371.987 172.706 371.422 172.706 370.721C172.706 370.02 173.271 369.455 173.972 369.455H229.249C229.95 369.455 230.515 370.02 230.515 370.721C230.515 371.422 229.95 371.987 229.249 371.987Z" fill="#7FD2FF"/>
<path d="M229.249 377.825H173.972C173.271 377.825 172.706 377.26 172.706 376.559C172.706 375.858 173.271 375.293 173.972 375.293H229.249C229.95 375.293 230.515 375.858 230.515 376.559C230.515 377.26 229.95 377.825 229.249 377.825Z" fill="#7FD2FF"/>
<path d="M229.249 383.664H173.972C173.271 383.664 172.706 383.099 172.706 382.398C172.706 381.697 173.271 381.132 173.972 381.132H229.249C229.95 381.132 230.515 381.697 230.515 382.398C230.515 383.099 229.95 383.664 229.249 383.664Z" fill="#7FD2FF"/>
<path d="M229.249 389.513H173.972C173.271 389.513 172.706 388.948 172.706 388.247C172.706 387.546 173.271 386.981 173.972 386.981H229.249C229.95 386.981 230.515 387.546 230.515 388.247C230.515 388.948 229.95 389.513 229.249 389.513Z" fill="#7FD2FF"/>
<path d="M229.249 395.351H173.972C173.271 395.351 172.706 394.786 172.706 394.085C172.706 393.384 173.271 392.819 173.972 392.819H229.249C229.95 392.819 230.515 393.384 230.515 394.085C230.515 394.786 229.95 395.351 229.249 395.351Z" fill="#7FD2FF"/>
<path d="M229.249 401.19H173.972C173.271 401.19 172.706 400.625 172.706 399.924C172.706 399.223 173.271 398.658 173.972 398.658H229.249C229.95 398.658 230.515 399.223 230.515 399.924C230.515 400.625 229.95 401.19 229.249 401.19Z" fill="#7FD2FF"/>
<path d="M180.197 330.008H142.843C137.319 330.008 132.83 325.53 132.83 319.995V282.641C132.83 277.117 137.308 272.628 142.843 272.628H180.197C185.722 272.628 190.21 277.106 190.21 282.641V319.995C190.21 325.52 185.722 330.008 180.197 330.008Z" fill="#1B9ECC"/>
<path d="M177.738 325.038H136.409C131.983 325.038 128.383 321.449 128.383 317.013V275.683C128.383 271.257 131.972 267.658 136.409 267.658H177.738C182.164 267.658 185.764 271.247 185.764 275.683V317.013C185.764 321.449 182.164 325.038 177.738 325.038Z" fill="#7FD2FF" stroke="#DEE3FC" stroke-miterlimit="10"/>
<path d="M167.013 289.777H166.71V286.492C166.71 281.093 162.326 276.709 156.927 276.709C151.528 276.709 147.144 281.093 147.144 286.492V289.777H147.081C145.564 289.777 144.339 291.001 144.339 292.519V304.907C144.339 306.424 145.564 307.648 147.081 307.648H167.013C168.53 307.648 169.754 306.424 169.754 304.907V292.519C169.754 291.012 168.52 289.777 167.013 289.777ZM149.623 286.492C149.623 282.464 152.898 279.189 156.927 279.189C160.955 279.189 164.23 282.464 164.23 286.492V289.777H149.623V286.492Z" fill="#DEE3FC"/>
<path d="M160.265 296.149C160.265 294.172 158.465 292.613 156.414 293.021C155.211 293.262 154.207 294.256 153.955 295.459C153.652 296.913 154.343 298.242 155.462 298.901C155.692 299.037 155.818 299.288 155.755 299.54L155.201 301.59C154.866 302.804 155.786 304.007 157.053 304.007C158.319 304.007 159.229 302.804 158.905 301.59L158.36 299.56C158.287 299.299 158.423 299.048 158.653 298.912C159.616 298.368 160.265 297.332 160.265 296.149Z" fill="#7FD2FF"/>
<path d="M168.572 312.001H145.511C144.863 312.001 144.329 311.478 144.329 310.819C144.329 310.17 144.852 309.636 145.511 309.636H168.572C169.221 309.636 169.755 310.16 169.755 310.819C169.755 311.468 169.232 312.001 168.572 312.001Z" fill="#DEE3FC"/>
<path d="M168.572 315.988H145.511C144.863 315.988 144.329 315.465 144.329 314.805C144.329 314.157 144.852 313.623 145.511 313.623H168.572C169.221 313.623 169.755 314.146 169.755 314.805C169.755 315.465 169.232 315.988 168.572 315.988Z" fill="#DEE3FC"/>
<path d="M224.362 290.154H211.283C210.488 290.154 209.85 289.516 209.85 288.721C209.85 287.925 210.488 287.287 211.283 287.287H224.362C225.157 287.287 225.796 287.925 225.796 288.721C225.796 289.516 225.157 290.154 224.362 290.154Z" fill="#A0DDFF"/>
<path d="M237.535 296.516H211.283C210.488 296.516 209.85 295.877 209.85 295.082C209.85 294.287 210.488 293.649 211.283 293.649H237.535C238.33 293.649 238.969 294.287 238.969 295.082C238.969 295.877 238.33 296.516 237.535 296.516Z" fill="#A0DDFF"/>
<path d="M214.39 302.888H211.293C210.498 302.888 209.86 302.249 209.86 301.454C209.86 300.659 210.498 300.021 211.293 300.021H214.39C215.186 300.021 215.824 300.659 215.824 301.454C215.824 302.239 215.175 302.888 214.39 302.888Z" fill="#A0DDFF"/>
<path d="M237.535 302.888H219.256C218.461 302.888 217.822 302.249 217.822 301.454C217.822 300.659 218.461 300.021 219.256 300.021H237.535C238.33 300.021 238.968 300.659 238.968 301.454C238.968 302.239 238.33 302.888 237.535 302.888Z" fill="#A0DDFF"/>
<path d="M237.535 290.154H229.604C228.809 290.154 228.171 289.516 228.171 288.721C228.171 287.925 228.809 287.287 229.604 287.287H237.535C238.331 287.287 238.969 287.925 238.969 288.721C238.969 289.516 238.331 290.154 237.535 290.154Z" fill="#A0DDFF"/>
<path d="M482.427 438.441L486.652 442.612C492.651 442.035 497.274 440.168 500.825 437.798C498.689 432.48 496.519 429.324 494.814 427.476C489.229 435.338 482.427 438.441 482.427 438.441Z" fill="url(#paint1_linear)"/>
<path d="M511.841 422.835L501.867 407.229C501.212 416.032 498.241 422.648 494.812 427.475C496.517 429.323 498.687 432.479 500.824 437.797C509.685 431.884 511.841 422.835 511.841 422.835Z" fill="#C17B0A"/>
<path d="M522.447 546.178C517.475 546.408 512.662 546.263 509.448 546.099C512.373 544.014 519.114 539.479 524.754 537.674L528.625 537.443C528.625 537.443 529.938 539.44 530.405 544.01C529.765 544.81 527.889 545.928 522.447 546.178Z" fill="#002774"/>
<path d="M509.408 546.126C509.421 546.116 509.435 546.107 509.448 546.097C512.662 546.263 517.475 546.406 522.447 546.177C527.889 545.926 529.766 544.809 530.407 544.008C530.429 544.219 530.45 544.427 530.469 544.649C530.55 545.652 529.806 546.532 528.802 546.609C524.73 546.917 514.634 547.615 509.765 547.36C509.123 547.326 508.884 546.5 509.408 546.126Z" fill="url(#paint2_linear)"/>
<path d="M558.009 544.847C558.373 542.511 558.957 539.133 559.407 538.269C560.115 536.915 562.538 538.269 562.538 538.269C562.538 538.269 564.24 539.063 565.022 540.387C565.521 541.23 566.9 543.63 567.835 545.258C567.944 545.446 567.988 545.646 567.982 545.839L558.281 546.178C558.044 545.797 557.934 545.333 558.009 544.847Z" fill="#002774"/>
<path d="M567.982 545.839C567.966 546.394 567.527 546.896 566.907 546.913L559.996 547.103C559.266 547.124 558.633 546.743 558.281 546.178L567.982 545.839Z" fill="url(#paint3_linear)"/>
<path d="M557.268 530.504C557.353 530.784 558.605 536.866 559.154 539.535C559.306 540.274 559.97 540.792 560.722 540.754C561.133 540.733 561.61 540.696 562.111 540.631C563 540.516 563.676 539.773 563.711 538.877C563.8 536.539 563.843 532.049 562.986 530.309C561.801 527.911 557.268 530.504 557.268 530.504Z" fill="url(#paint4_linear)"/>
<path d="M529.389 532.245C528.852 532.227 529.604 535.023 528.79 537.772C528.606 538.392 528.143 538.878 527.497 538.886C527.078 538.891 526.583 538.883 526.08 538.843C525.323 538.783 524.714 538.194 524.644 537.437L523.983 530.311L529.389 532.245Z" fill="url(#paint5_linear)"/>
<path d="M514.349 456.488C514.589 457.657 523.059 507.105 523.573 532.693C523.581 533.122 523.897 533.482 524.322 533.541C525.397 533.691 527.491 533.884 529.522 533.508C529.801 533.457 530.01 533.227 530.027 532.945C530.324 528.177 532.704 487.861 529.788 468.884C529.788 468.884 553.873 519.616 557.523 533.605C557.612 533.945 557.924 534.174 558.275 534.155C559.305 534.101 561.451 533.914 563.155 533.288C563.765 533.063 564.112 532.42 563.959 531.789C561.92 523.417 547.626 465.74 537.92 453.031L514.349 456.488Z" fill="#002774"/>
<path d="M529.788 469.198C529.868 469.198 529.948 469.168 530.01 469.108C530.134 468.985 530.137 468.785 530.014 468.659L526.79 465.359C526.667 465.234 526.468 465.231 526.342 465.354C526.218 465.477 526.215 465.676 526.337 465.802L529.562 469.103C529.624 469.167 529.705 469.198 529.788 469.198Z" fill="url(#paint6_linear)"/>
<path d="M500.582 394.579C506.769 392.957 518.179 390.417 527.263 390.959C529.351 391.083 531.022 392.734 531.14 394.823C532.511 419.036 534.387 440.525 537.919 453.026C529.981 456.171 522.113 457.628 514.349 456.487C508.534 444.019 503.448 429.624 499.104 413.278C499.104 413.278 496.555 400.241 499.03 395.894C499.416 395.218 499.924 394.753 500.582 394.579Z" fill="#FFA401"/>
<path d="M515.462 377.617C515.462 377.617 517.024 386.945 517.491 391.259C517.567 391.96 517.201 392.622 516.573 392.946C514.865 393.826 511.221 395.242 507.25 393.942C506.595 393.729 506.166 393.096 506.182 392.407L506.455 379.955L515.462 377.617Z" fill="url(#paint7_linear)"/>
<path d="M505.274 367.283C505.274 367.283 502.26 374.213 502.058 377.85C501.855 381.487 501.071 383.847 505.274 384.579C509.476 385.311 513.016 383.216 514.934 379.593C514.934 379.593 517.939 374.01 517.265 371.724C516.591 369.439 505.274 367.283 505.274 367.283Z" fill="url(#paint8_linear)"/>
<path d="M513.498 376.989H512.967C512.967 376.989 515.157 372.495 513.234 371.706C511.311 370.917 503.692 369.362 502.049 366.656C500.464 364.047 501.877 360.68 503.991 359.736C504.125 359.677 504.283 359.739 504.351 359.868L504.527 360.2C504.646 360.426 504.982 360.393 505.052 360.145C505.121 359.911 505.435 359.86 505.564 360.067C506.067 360.876 507.43 362.191 511.083 362.867C516.267 363.826 519.696 365.926 519.778 369.512C519.783 369.738 520.027 369.864 520.22 369.746C520.602 369.514 521.215 369.404 522.034 370.092C523.459 371.29 522.876 374.398 519.755 376.955C519.606 377.077 519.608 377.309 519.769 377.413C520.334 377.781 521.177 378.658 518.993 379.827C516.758 381.023 515.435 380.892 514.935 380.765C514.801 380.73 514.71 380.609 514.718 380.47L514.914 377.292C514.924 377.128 514.793 376.989 514.629 376.989H513.498Z" fill="url(#paint9_linear)"/>
<path d="M513.367 377.654C513.367 377.654 514.517 373.227 516.499 374.468C518.483 375.709 515.47 379.427 513.877 379.593L513.367 377.654Z" fill="url(#paint10_linear)"/>
<path d="M576.896 449.486L454.901 424.171L451.818 436.38L571.18 472.126C571.446 472.206 571.714 472.279 571.985 472.348L576.055 473.378C583.04 475.145 589.667 472.756 590.858 468.042L592.272 462.439C593.462 457.725 588.766 452.471 581.78 450.704L577.709 449.674C577.44 449.604 577.169 449.542 576.896 449.486ZM584.048 463.338C583.258 466.465 578.354 467.923 573.097 466.593C567.838 465.263 564.215 461.648 565.005 458.521C565.795 455.394 570.699 453.937 575.956 455.267C581.216 456.596 584.839 460.211 584.048 463.338Z" fill="#91B3FA"/>
<path d="M415.214 407.582L438.833 413.557C440.516 413.983 441.903 415.165 442.593 416.759L446.127 424.925C447.135 427.256 446.449 429.975 444.454 431.546L437.468 437.05C436.106 438.123 434.321 438.504 432.639 438.079L409.02 432.104C405.457 431.203 402.43 434.925 404.113 438.193C408.137 446.016 415.52 452.203 424.918 454.581C441.903 458.878 456.937 448.577 461.066 432.225C465.196 415.873 456.859 399.66 439.874 395.363C430.475 392.986 421.042 394.918 413.787 399.888C410.756 401.966 411.652 406.68 415.214 407.582Z" fill="#91B3FA"/>
<path d="M414.651 409.81L438.271 415.785C439.953 416.211 441.341 417.392 442.031 418.987L445.564 427.153C446.573 429.484 445.886 432.203 443.891 433.773L436.905 439.278C435.543 440.351 433.759 440.732 432.076 440.306L408.459 434.331C404.896 433.43 401.869 437.152 403.552 440.421C407.576 448.244 414.959 454.431 424.357 456.808C441.342 461.106 456.376 450.805 460.505 434.454C464.635 418.102 456.298 401.89 439.313 397.592C429.914 395.215 420.481 397.147 413.226 402.118C410.192 404.194 411.089 408.909 414.651 409.81Z" fill="#BDD0FB"/>
<path d="M576.447 451.262L454.451 425.949L451.368 438.158L570.73 473.904C570.996 473.984 571.264 474.057 571.535 474.125L575.606 475.156C582.59 476.922 589.218 474.534 590.408 469.82L591.823 464.217C593.013 459.503 588.316 454.249 581.331 452.482L577.261 451.452C576.99 451.382 576.719 451.32 576.447 451.262ZM583.599 465.115C582.808 468.241 577.905 469.699 572.647 468.369C567.388 467.039 563.765 463.424 564.555 460.297C565.345 457.17 570.249 455.713 575.507 457.043C580.766 458.374 584.389 461.988 583.599 465.115Z" fill="#BDD0FB"/>
<path d="M547.149 426.829C550.208 435.419 548.486 444.629 548.486 444.629L552.518 445.705C552.518 445.705 557.728 439.504 556.537 425.743C552.813 425.174 549.327 426.048 547.149 426.829Z" fill="url(#paint11_linear)"/>
<path d="M556.535 425.743C556.401 424.196 556.191 422.557 555.877 420.817C553.152 405.64 533.711 393.965 529.137 391.409C528.711 391.171 528.193 391.492 528.209 391.98L528.859 412.612C539.687 414.068 544.812 420.269 547.148 426.831C549.327 426.048 552.813 425.174 556.535 425.743Z" fill="#F99B04"/>
<path d="M473.922 446.012C473.166 445.803 472.551 445.265 472.233 444.548C471.613 443.159 470.917 440.935 472.405 440.258C474.623 439.249 478.655 443.387 478.655 443.387L480.626 446.583L482.428 447.46C480.775 447.914 477.594 447.157 473.922 446.012Z" fill="url(#paint12_linear)"/>
<path d="M548.754 442.612H543.769C543.769 442.612 547.814 445.039 547.947 447.594C548.081 450.147 546.342 455.436 545.527 456.876C544.637 458.45 556.817 454.532 552.517 442.614H548.754V442.612Z" fill="url(#paint13_linear)"/>
<defs>
<linearGradient id="paint0_linear" x1="122.512" y1="98.8267" x2="468.212" y2="744.917" gradientUnits="userSpaceOnUse">
<stop stop-color="#46B8E9"/>
<stop offset="0.843073" stop-color="#9A64EB"/>
</linearGradient>
<linearGradient id="paint1_linear" x1="488.022" y1="428.562" x2="509.562" y2="485.593" gradientUnits="userSpaceOnUse">
<stop stop-color="#FF928E"/>
<stop offset="1" stop-color="#FEB3B1"/>
</linearGradient>
<linearGradient id="paint2_linear" x1="519.619" y1="538.999" x2="521.111" y2="595.085" gradientUnits="userSpaceOnUse">
<stop stop-color="#09005D"/>
<stop offset="1" stop-color="#1A0F91"/>
</linearGradient>
<linearGradient id="paint3_linear" x1="563.135" y1="545.891" x2="563.508" y2="529.307" gradientUnits="userSpaceOnUse">
<stop stop-color="#09005D"/>
<stop offset="1" stop-color="#1A0F91"/>
</linearGradient>
<linearGradient id="paint4_linear" x1="563.755" y1="535.024" x2="557.268" y2="535.024" gradientUnits="userSpaceOnUse">
<stop stop-color="#FF928E"/>
<stop offset="1" stop-color="#FEB3B1"/>
</linearGradient>
<linearGradient id="paint5_linear" x1="529.388" y1="534.599" x2="523.981" y2="534.599" gradientUnits="userSpaceOnUse">
<stop stop-color="#FF928E"/>
<stop offset="1" stop-color="#FEB3B1"/>
</linearGradient>
<linearGradient id="paint6_linear" x1="515.943" y1="451.402" x2="538.096" y2="480.019" gradientUnits="userSpaceOnUse">
<stop stop-color="#09005D"/>
<stop offset="1" stop-color="#1A0F91"/>
</linearGradient>
<linearGradient id="paint7_linear" x1="509.137" y1="373.923" x2="511.935" y2="392.183" gradientUnits="userSpaceOnUse">
<stop stop-color="#FF928E"/>
<stop offset="1" stop-color="#FEB3B1"/>
</linearGradient>
<linearGradient id="paint8_linear" x1="545.357" y1="707.725" x2="543.119" y2="687.042" gradientUnits="userSpaceOnUse">
<stop stop-color="#FF928E"/>
<stop offset="1" stop-color="#FEB3B1"/>
</linearGradient>
<linearGradient id="paint9_linear" x1="516.748" y1="362.966" x2="501.128" y2="383.058" gradientUnits="userSpaceOnUse">
<stop stop-color="#09005D"/>
<stop offset="1" stop-color="#1A0F91"/>
</linearGradient>
<linearGradient id="paint10_linear" x1="550.96" y1="707.117" x2="548.722" y2="686.435" gradientUnits="userSpaceOnUse">
<stop stop-color="#FF928E"/>
<stop offset="1" stop-color="#FEB3B1"/>
</linearGradient>
<linearGradient id="paint11_linear" x1="585.131" y1="416.694" x2="571.348" y2="424.324" gradientUnits="userSpaceOnUse">
<stop stop-color="#FF928E"/>
<stop offset="1" stop-color="#FEB3B1"/>
</linearGradient>
<linearGradient id="paint12_linear" x1="472.896" y1="434.275" x2="494.436" y2="491.306" gradientUnits="userSpaceOnUse">
<stop stop-color="#FF928E"/>
<stop offset="1" stop-color="#FEB3B1"/>
</linearGradient>
<linearGradient id="paint13_linear" x1="589.826" y1="425.176" x2="576.043" y2="432.805" gradientUnits="userSpaceOnUse">
<stop stop-color="#FF928E"/>
<stop offset="1" stop-color="#FEB3B1"/>
</linearGradient>
</defs>
</svg>
