<svg width="557" height="474" viewBox="0 0 557 474" fill="none" xmlns="http://www.w3.org/2000/svg">
<path fill-rule="evenodd" clip-rule="evenodd" d="M253.604 0.0456821C301.39 -1.54709 337.082 38.8992 379.641 60.6103C432.747 87.7018 503.122 91.6821 533.512 142.838C565.362 196.45 562.905 268.531 536.787 325.136C511.786 379.32 455.282 412.008 399.427 433.438C352.928 451.279 303.196 428.97 253.604 433.787C195.534 439.428 133.727 496.722 85.5505 463.927C37.746 431.386 68.8909 353.814 54.1654 298.024C40.7199 247.084 -13.912 202.224 3.33247 152.433C20.6002 102.574 88.381 96.3153 133.55 68.8128C173.925 44.2287 206.313 1.62197 253.604 0.0456821Z" fill="#46B8E9" fill-opacity="0.4"/>
<path fill-rule="evenodd" clip-rule="evenodd" d="M255.45 25.8283C297.914 24.4088 329.631 60.4542 367.451 79.8029C414.643 103.947 477.182 107.494 504.188 153.084C532.491 200.862 530.308 265.1 507.098 315.546C484.881 363.835 434.669 392.966 385.034 412.064C343.713 427.964 299.519 408.082 255.45 412.375C203.845 417.402 148.921 468.462 106.109 439.236C63.6282 410.235 91.3049 341.103 78.2192 291.384C66.271 245.987 17.7227 206.008 33.0468 161.634C48.3916 117.201 108.625 111.623 148.763 87.113C184.643 65.2038 213.424 27.233 255.45 25.8283Z" fill="#C4C4C4"/>
<path fill-rule="evenodd" clip-rule="evenodd" d="M255.45 25.8283C297.914 24.4088 329.631 60.4542 367.451 79.8029C414.643 103.947 477.182 107.494 504.188 153.084C532.491 200.862 530.308 265.1 507.098 315.546C484.881 363.835 434.669 392.966 385.034 412.064C343.713 427.964 299.519 408.082 255.45 412.375C203.845 417.402 148.921 468.462 106.109 439.236C63.6282 410.235 91.3049 341.103 78.2192 291.384C66.271 245.987 17.7227 206.008 33.0468 161.634C48.3916 117.201 108.625 111.623 148.763 87.113C184.643 65.2038 213.424 27.233 255.45 25.8283Z" fill="url(#paint0_linear)"/>
<path d="M219.243 172.749V167.717C219.243 167.228 218.847 166.825 218.351 166.825H217.055C216.673 166.825 216.342 166.566 216.256 166.198C215.81 164.248 215.047 162.412 214.017 160.764C213.808 160.433 213.852 160.008 214.125 159.734L215.032 158.828C215.378 158.482 215.378 157.913 215.032 157.568L211.476 154.012C211.131 153.666 210.562 153.666 210.217 154.012L209.31 154.919C209.036 155.192 208.611 155.236 208.28 155.027C206.632 153.998 204.796 153.235 202.846 152.781C202.478 152.695 202.219 152.364 202.219 151.982V150.694C202.219 150.204 201.823 149.801 201.327 149.801H196.295C195.806 149.801 195.403 150.197 195.403 150.694V151.982C195.403 152.364 195.144 152.695 194.776 152.781C192.826 153.227 190.99 153.99 189.342 155.02C189.011 155.228 188.586 155.185 188.312 154.912L187.405 154.005C187.06 153.659 186.491 153.659 186.146 154.005L182.59 157.561C182.244 157.906 182.244 158.475 182.59 158.82L183.497 159.727C183.77 160.001 183.814 160.426 183.605 160.757C182.575 162.405 181.812 164.241 181.366 166.191C181.28 166.558 180.949 166.818 180.567 166.818H179.271C178.782 166.818 178.379 167.213 178.379 167.71V172.742C178.379 173.231 178.775 173.634 179.271 173.634H180.567C180.949 173.634 181.28 173.893 181.366 174.26C181.812 176.211 182.575 178.047 183.605 179.695C183.814 180.026 183.77 180.451 183.497 180.724L182.59 181.631C182.244 181.977 182.244 182.546 182.59 182.891L186.146 186.447C186.491 186.793 187.06 186.793 187.405 186.447L188.32 185.533C188.593 185.259 189.018 185.216 189.349 185.425C190.997 186.454 192.833 187.217 194.784 187.664C195.151 187.75 195.41 188.081 195.41 188.463V189.758C195.41 190.248 195.806 190.651 196.302 190.651H201.334C201.823 190.651 202.227 190.255 202.227 189.758V188.463C202.227 188.081 202.486 187.75 202.853 187.664C204.804 187.217 206.639 186.454 208.287 185.425C208.619 185.216 209.043 185.259 209.317 185.533L210.231 186.447C210.576 186.793 211.145 186.793 211.491 186.447L215.047 182.891C215.392 182.546 215.392 181.977 215.047 181.631L214.132 180.717C213.859 180.444 213.816 180.019 214.024 179.688C215.054 178.04 215.817 176.204 216.263 174.253C216.349 173.886 216.681 173.627 217.062 173.627H218.358C218.847 173.634 219.243 173.238 219.243 172.749ZM198.822 183.611C191.436 183.611 185.455 177.615 185.455 170.229C185.455 162.851 191.436 156.862 198.822 156.862C206.207 156.862 212.189 162.859 212.189 170.229C212.189 177.615 206.207 183.611 198.822 183.611Z" fill="#37A6CC"/>
<path d="M132.211 305.88C133.558 305.88 134.651 304.787 134.651 303.439C134.651 302.092 133.558 300.999 132.211 300.999C130.863 300.999 129.771 302.092 129.771 303.439C129.771 304.787 130.863 305.88 132.211 305.88Z" fill="#A0DDFF"/>
<path d="M446.224 152.248C447.572 152.248 448.664 151.156 448.664 149.808C448.664 148.46 447.572 147.368 446.224 147.368C444.876 147.368 443.784 148.46 443.784 149.808C443.784 151.156 444.876 152.248 446.224 152.248Z" fill="#A0DDFF"/>
<path d="M358.593 121.749C359.436 121.749 360.119 121.066 360.119 120.223C360.119 119.381 359.436 118.697 358.593 118.697C357.75 118.697 357.067 119.381 357.067 120.223C357.067 121.066 357.75 121.749 358.593 121.749Z" fill="#A0DDFF"/>
<path d="M134.11 99.8598C134.11 100.702 133.426 101.386 132.584 101.386C131.741 101.386 131.058 100.702 131.058 99.8598C131.058 99.0176 131.741 98.3337 132.584 98.3337C133.419 98.3337 134.11 99.0176 134.11 99.8598Z" fill="#A0DDFF"/>
<path d="M167.949 194.012C167.949 194.854 167.265 195.538 166.423 195.538C165.58 195.538 164.896 194.854 164.896 194.012C164.896 193.17 165.58 192.486 166.423 192.486C167.265 192.479 167.949 193.163 167.949 194.012Z" fill="#A0DDFF"/>
<path d="M111.853 305.879C111.853 306.722 111.169 307.405 110.327 307.405C109.485 307.405 108.801 306.722 108.801 305.879C108.801 305.037 109.485 304.353 110.327 304.353C111.169 304.346 111.853 305.03 111.853 305.879Z" fill="#A0DDFF"/>
<path d="M176.126 95.656C177.473 95.656 178.566 94.5635 178.566 93.2158C178.566 91.8681 177.473 90.7756 176.126 90.7756C174.778 90.7756 173.686 91.8681 173.686 93.2158C173.686 94.5635 174.778 95.656 176.126 95.656Z" fill="#A0DDFF"/>
<path d="M344.297 204.111C344.297 205.911 342.836 207.372 341.037 207.372C339.237 207.372 337.776 205.911 337.776 204.111C337.776 202.312 339.237 200.85 341.037 200.85C342.836 200.85 344.297 202.305 344.297 204.111Z" fill="#A0DDFF"/>
<path d="M103.755 163.78C103.755 165.579 102.294 167.041 100.494 167.041C98.6946 167.041 97.2334 165.579 97.2334 163.78C97.2334 161.98 98.6946 160.519 100.494 160.519C102.294 160.519 103.755 161.98 103.755 163.78Z" fill="#A0DDFF"/>
<path d="M99.3559 115.099H95.2529C94.9866 115.099 94.7778 114.883 94.7778 114.624V110.521C94.7778 110.255 94.9938 110.046 95.2529 110.046H99.3559C99.6222 110.046 99.831 110.262 99.831 110.521V114.624C99.831 114.883 99.615 115.099 99.3559 115.099Z" fill="#A0DDFF"/>
<path d="M106.115 115.098H102.012C101.746 115.098 101.537 114.882 101.537 114.623V110.52C101.537 110.254 101.753 110.045 102.012 110.045H106.115C106.381 110.045 106.59 110.261 106.59 110.52V114.623C106.597 114.882 106.381 115.098 106.115 115.098Z" fill="#A0DDFF"/>
<path d="M112.881 115.098H108.778C108.512 115.098 108.303 114.882 108.303 114.623V110.52C108.303 110.254 108.519 110.045 108.778 110.045H112.881C113.148 110.045 113.356 110.261 113.356 110.52V114.623C113.364 114.882 113.148 115.098 112.881 115.098Z" fill="#A0DDFF"/>
<path d="M133.982 289.929H129.879C129.613 289.929 129.404 289.713 129.404 289.454V285.351C129.404 285.085 129.62 284.876 129.879 284.876H133.982C134.248 284.876 134.457 285.092 134.457 285.351V289.454C134.457 289.72 134.248 289.929 133.982 289.929Z" fill="#A0DDFF"/>
<path d="M140.748 289.928H136.645C136.379 289.928 136.17 289.712 136.17 289.453V285.35C136.17 285.084 136.386 284.875 136.645 284.875H140.748C141.014 284.875 141.223 285.091 141.223 285.35V289.453C141.223 289.72 141.007 289.928 140.748 289.928Z" fill="#A0DDFF"/>
<path d="M147.507 289.928H143.404C143.138 289.928 142.929 289.712 142.929 289.453V285.35C142.929 285.084 143.145 284.875 143.404 284.875H147.507C147.774 284.875 147.982 285.091 147.982 285.35V289.453C147.99 289.72 147.774 289.928 147.507 289.928Z" fill="#A0DDFF"/>
<path d="M13.7886 376.579L420.494 376.579" stroke="#0A7CA4" stroke-miterlimit="10" stroke-linecap="round"/>
<path d="M309.674 333.398H212.282C203.796 333.398 196.914 326.517 196.914 318.03V101.249C196.914 92.7625 203.796 85.881 212.282 85.881H309.674C318.161 85.881 325.042 92.7625 325.042 101.249V318.03C325.042 326.517 318.161 333.398 309.674 333.398Z" fill="#1B9ECC"/>
<path d="M309.184 329.878H212.772C205.336 329.878 199.311 323.854 199.311 316.418V101.508C199.311 94.0725 205.336 88.0476 212.772 88.0476H309.177C316.613 88.0476 322.638 94.0725 322.638 101.508V316.418C322.645 323.854 316.613 329.878 309.184 329.878Z" fill="white"/>
<path d="M317.247 101.084V315.748C317.247 320.78 313.165 324.861 308.134 324.861H213.83C208.799 324.861 204.717 320.78 204.717 315.748V101.084C204.717 96.052 208.799 91.9706 213.83 91.9706H229.558C230.429 91.9706 231.228 92.4601 231.617 93.2447L233.287 96.5774C234.05 98.1179 235.619 99.0824 237.325 99.0824H284.632C286.338 99.0824 287.914 98.1179 288.67 96.5774L290.34 93.2447C290.729 92.4673 291.528 91.9706 292.399 91.9706H308.127C313.165 91.9706 317.247 96.052 317.247 101.084Z" fill="#E6F9FF"/>
<path d="M280.831 95.181H242.731C241.845 95.181 241.125 94.4612 241.125 93.5758C241.125 92.6904 241.845 91.9706 242.731 91.9706H280.831C281.716 91.9706 282.436 92.6904 282.436 93.5758C282.436 94.4612 281.716 95.181 280.831 95.181Z" fill="#E6F9FF"/>
<path d="M302.274 317.411H217.487C214.154 317.411 211.455 314.712 211.455 311.379V281.442C211.455 278.109 214.154 275.41 217.487 275.41H302.274C305.607 275.41 308.306 278.109 308.306 281.442V311.379C308.306 314.712 305.607 317.411 302.274 317.411Z" stroke="#37A6CC" stroke-miterlimit="10" stroke-linecap="round" stroke-linejoin="round" stroke-dasharray="2.84 2.84"/>
<path d="M297.977 214.347H255.918C253.514 214.347 251.57 212.396 251.57 209.999V189.211C251.57 186.807 253.521 184.863 255.918 184.863H297.977C300.381 184.863 302.325 186.814 302.325 189.211V209.999C302.325 212.396 300.381 214.347 297.977 214.347Z" stroke="#37A6CC" stroke-miterlimit="10" stroke-linecap="round" stroke-linejoin="round" stroke-dasharray="2.84 2.84"/>
<path d="M307.032 268.427H220.164C217.299 268.427 214.981 266.11 214.981 263.245V226.606C214.981 223.741 217.299 221.423 220.164 221.423H307.032C309.897 221.423 312.215 223.741 312.215 226.606V263.245C312.215 266.102 309.897 268.427 307.032 268.427Z" fill="#1B9ECC"/>
<path d="M308.306 222.791V259.451C308.306 262.309 305.989 264.62 303.131 264.62H216.63C213.772 264.62 211.455 262.309 211.455 259.451V222.791C211.455 219.933 213.772 217.615 216.63 217.615H303.131C305.989 217.615 308.306 219.933 308.306 222.791Z" fill="#D1EEFE"/>
<path d="M244.912 260.797H219.43C217.501 260.797 215.932 259.228 215.932 257.299V231.817C215.932 229.888 217.501 228.319 219.43 228.319H244.912C246.841 228.319 248.41 229.888 248.41 231.817V257.299C248.41 259.235 246.841 260.797 244.912 260.797Z" fill="white"/>
<path d="M275.116 232.429H252.671C252.06 232.429 251.563 231.933 251.563 231.321C251.563 230.709 252.06 230.212 252.671 230.212H275.116C275.727 230.212 276.224 230.709 276.224 231.321C276.217 231.933 275.727 232.429 275.116 232.429Z" fill="#A0DDFF"/>
<path d="M264.886 236.842H252.671C252.059 236.842 251.562 236.345 251.562 235.733C251.562 235.121 252.059 234.625 252.671 234.625H264.886C265.498 234.625 265.995 235.121 265.995 235.733C265.988 236.345 265.498 236.842 264.886 236.842Z" fill="#A0DDFF"/>
<path d="M302.44 236.842H269.385C268.774 236.842 268.277 236.345 268.277 235.733C268.277 235.121 268.774 234.625 269.385 234.625H302.44C303.051 234.625 303.548 235.121 303.548 235.733C303.541 236.345 303.051 236.842 302.44 236.842Z" fill="#A0DDFF"/>
<path d="M271.573 241.254H252.671C252.059 241.254 251.562 240.758 251.562 240.146C251.562 239.534 252.059 239.037 252.671 239.037H271.573C272.185 239.037 272.682 239.534 272.682 240.146C272.675 240.758 272.178 241.254 271.573 241.254Z" fill="#A0DDFF"/>
<path d="M287.611 241.254H275.734C275.122 241.254 274.633 240.758 274.633 240.146C274.633 239.534 275.129 239.037 275.734 239.037H287.611C288.223 239.037 288.72 239.534 288.72 240.146C288.72 240.758 288.223 241.254 287.611 241.254Z" fill="#A0DDFF"/>
<path d="M302.439 241.254H291.498C290.886 241.254 290.39 240.758 290.39 240.146C290.39 239.534 290.886 239.037 291.498 239.037H302.439C303.051 239.037 303.548 239.534 303.548 240.146C303.541 240.758 303.051 241.254 302.439 241.254Z" fill="#A0DDFF"/>
<path d="M302.439 245.667H252.671C252.059 245.667 251.562 245.17 251.562 244.558C251.562 243.946 252.059 243.45 252.671 243.45H302.439C303.051 243.45 303.548 243.946 303.548 244.558C303.541 245.17 303.051 245.667 302.439 245.667Z" fill="#A0DDFF"/>
<path d="M280.06 250.079H252.671C252.059 250.079 251.562 249.583 251.562 248.971C251.562 248.359 252.059 247.862 252.671 247.862H280.06C280.672 247.862 281.169 248.359 281.169 248.971C281.169 249.583 280.672 250.079 280.06 250.079Z" fill="#A0DDFF"/>
<path d="M302.439 250.079H284.48C283.868 250.079 283.371 249.583 283.371 248.971C283.371 248.359 283.868 247.862 284.48 247.862H302.439C303.051 247.862 303.548 248.359 303.548 248.971C303.54 249.583 303.051 250.079 302.439 250.079Z" fill="#A0DDFF"/>
<path d="M268.766 254.485H252.671C252.059 254.485 251.562 253.988 251.562 253.376C251.562 252.764 252.059 252.267 252.671 252.267H268.766C269.378 252.267 269.875 252.764 269.875 253.376C269.868 253.995 269.371 254.485 268.766 254.485Z" fill="#A0DDFF"/>
<path d="M289.209 254.485H273.114C272.502 254.485 272.005 253.988 272.005 253.376C272.005 252.764 272.502 252.267 273.114 252.267H289.209C289.821 252.267 290.318 252.764 290.318 253.376C290.318 253.995 289.821 254.485 289.209 254.485Z" fill="#A0DDFF"/>
<path d="M302.439 254.485H293.103C292.491 254.485 291.995 253.988 291.995 253.376C291.995 252.764 292.491 252.267 293.103 252.267H302.439C303.051 252.267 303.548 252.764 303.548 253.376C303.541 253.995 303.051 254.485 302.439 254.485Z" fill="#A0DDFF"/>
<path d="M275.115 258.897H252.671C252.059 258.897 251.562 258.4 251.562 257.789C251.562 257.177 252.059 256.68 252.671 256.68H275.115C275.727 256.68 276.224 257.177 276.224 257.789C276.216 258.408 275.727 258.897 275.115 258.897Z" fill="#A0DDFF"/>
<path d="M302.439 232.429H279.995C279.383 232.429 278.887 231.933 278.887 231.321C278.887 230.709 279.383 230.212 279.995 230.212H302.439C303.051 230.212 303.548 230.709 303.548 231.321C303.541 231.933 303.051 232.429 302.439 232.429Z" fill="#A0DDFF"/>
<path d="M308.306 222.791V224.331H211.455V222.791C211.455 219.933 213.772 217.615 216.63 217.615H303.131C305.989 217.615 308.306 219.933 308.306 222.791Z" fill="#0294C8"/>
<path d="M290.052 221.092C290.052 221.754 289.512 222.294 288.85 222.294C288.188 222.294 287.648 221.754 287.648 221.092C287.648 220.43 288.188 219.89 288.85 219.89C289.512 219.89 290.052 220.43 290.052 221.092Z" fill="#DEE3FC"/>
<path d="M296.192 221.092C296.192 221.754 295.652 222.294 294.99 222.294C294.327 222.294 293.788 221.754 293.788 221.092C293.788 220.43 294.327 219.89 294.99 219.89C295.652 219.89 296.192 220.43 296.192 221.092Z" fill="#DEE3FC"/>
<path d="M302.325 221.092C302.325 221.754 301.785 222.294 301.122 222.294C300.46 222.294 299.92 221.754 299.92 221.092C299.92 220.43 300.46 219.89 301.122 219.89C301.792 219.897 302.325 220.43 302.325 221.092Z" fill="#DEE3FC"/>
<path d="M241.442 214.347H222.274C219.43 214.347 217.127 212.044 217.127 209.201V190.032C217.127 187.188 219.43 184.885 222.274 184.885H241.442C244.286 184.885 246.589 187.188 246.589 190.032V209.201C246.589 212.037 244.286 214.347 241.442 214.347Z" stroke="#37A6CC" stroke-width="0.8956" stroke-miterlimit="10"/>
<path d="M227.262 195.351L223.015 199.598L227.29 203.874" stroke="#37A6CC" stroke-width="1.6716" stroke-miterlimit="10" stroke-linecap="round" stroke-linejoin="round"/>
<path d="M236.454 195.351L240.694 199.598L236.418 203.874" stroke="#37A6CC" stroke-width="1.6716" stroke-miterlimit="10" stroke-linecap="round" stroke-linejoin="round"/>
<path d="M233.841 195.351L229.867 203.874" stroke="#37A6CC" stroke-width="1.6716" stroke-miterlimit="10" stroke-linecap="round" stroke-linejoin="round"/>
<path d="M308.307 112.968V172.907C308.307 176.161 305.672 178.795 302.419 178.795H217.343C214.097 178.795 211.455 176.161 211.455 172.907V112.968C211.455 109.714 214.097 107.08 217.343 107.08H302.419C305.672 107.08 308.307 109.714 308.307 112.968Z" fill="#A9E2FC"/>
<path d="M288.691 140.055C296.443 140.055 302.728 133.77 302.728 126.018C302.728 118.266 296.443 111.982 288.691 111.982C280.939 111.982 274.655 118.266 274.655 126.018C274.655 133.77 280.939 140.055 288.691 140.055Z" fill="white"/>
<path d="M268.385 178.795H217.343C214.096 178.795 211.455 176.161 211.455 172.907V163.47L233.791 124.78C234.957 122.757 237.879 122.757 239.045 124.78L255.911 153.99L268.436 175.686C269.04 176.722 268.947 177.903 268.385 178.795Z" fill="white"/>
<path d="M290.397 178.795H241.586L255.911 153.99L263.627 140.623C264.678 138.802 267.306 138.802 268.357 140.623L290.397 178.795Z" fill="white"/>
<path d="M139.969 218.357H178.163C180.61 218.357 182.597 220.343 182.597 222.791V231.817C182.597 234.077 180.905 235.942 178.724 236.215C178.408 236.258 178.163 236.525 178.163 236.849V241.787C178.163 242.075 177.796 242.19 177.63 241.959L173.736 236.518C173.614 236.352 173.419 236.251 173.21 236.251H139.962C137.515 236.251 135.528 234.265 135.528 231.817V222.791C135.535 220.343 137.522 218.357 139.969 218.357Z" stroke="white" stroke-width="0.8956" stroke-miterlimit="10"/>
<path d="M172.304 227.289C172.304 228.096 172.959 228.751 173.765 228.751C174.571 228.751 175.226 228.096 175.226 227.289C175.226 226.483 174.571 225.828 173.765 225.828C172.959 225.828 172.304 226.483 172.304 227.289Z" stroke="white" stroke-width="0.8956" stroke-miterlimit="10"/>
<path d="M164.954 227.289C164.954 228.096 165.609 228.751 166.415 228.751C167.222 228.751 167.877 228.096 167.877 227.289C167.877 226.483 167.222 225.828 166.415 225.828C165.609 225.828 164.954 226.483 164.954 227.289Z" stroke="white" stroke-width="0.8956" stroke-miterlimit="10"/>
<path d="M157.612 227.289C157.612 228.096 158.267 228.751 159.073 228.751C159.879 228.751 160.534 228.096 160.534 227.289C160.534 226.483 159.879 225.828 159.073 225.828C158.26 225.828 157.612 226.483 157.612 227.289Z" stroke="white" stroke-width="0.8956" stroke-miterlimit="10"/>
<path d="M150.263 227.289C150.263 228.096 150.918 228.751 151.724 228.751C152.53 228.751 153.185 228.096 153.185 227.289C153.185 226.483 152.53 225.828 151.724 225.828C150.911 225.828 150.263 226.483 150.263 227.289Z" stroke="white" stroke-width="0.8956" stroke-miterlimit="10"/>
<path d="M142.913 227.289C142.913 228.096 143.568 228.751 144.374 228.751C145.181 228.751 145.836 228.096 145.836 227.289C145.836 226.483 145.181 225.828 144.374 225.828C143.561 225.828 142.913 226.483 142.913 227.289Z" stroke="white" stroke-width="0.8956" stroke-miterlimit="10"/>
<path d="M370.65 157.978H301.029C297.192 157.978 294.075 154.868 294.075 151.025C294.075 147.188 297.185 144.071 301.029 144.071H370.65C374.486 144.071 377.603 147.181 377.603 151.025C377.603 154.868 374.486 157.978 370.65 157.978Z" fill="white" stroke="#37A6CC" stroke-width="0.8956" stroke-miterlimit="10"/>
<path d="M369.627 150.55C369.627 152.594 367.972 154.249 365.927 154.249C363.883 154.249 362.228 152.594 362.228 150.55C362.228 148.505 363.883 146.85 365.927 146.85C367.972 146.85 369.627 148.505 369.627 150.55Z" stroke="#37A6CC" stroke-width="1.6716" stroke-miterlimit="10"/>
<path d="M368.548 153.163L370.585 155.207" stroke="#37A6CC" stroke-width="1.6716" stroke-miterlimit="10" stroke-linecap="round"/>
<path d="M265.19 347.06H247.676C244.61 347.06 242.126 344.577 242.126 341.511V323.997C242.126 320.931 244.61 318.448 247.676 318.448H265.19C268.256 318.448 270.739 320.931 270.739 323.997V341.511C270.739 344.577 268.256 347.06 265.19 347.06Z" fill="#1B9ECC"/>
<path d="M259.978 347.06H242.464C239.398 347.06 236.915 344.577 236.915 341.511V323.997C236.915 320.931 239.398 318.448 242.464 318.448H259.978C263.044 318.448 265.527 320.931 265.527 323.997V341.511C265.52 344.577 263.037 347.06 259.978 347.06Z" fill="#80D2FF"/>
<path d="M247.841 327.352L256.055 332.095C256.558 332.39 256.558 333.117 256.055 333.413L247.841 338.156C247.338 338.451 246.704 338.084 246.704 337.501V328.021C246.697 327.424 247.33 327.064 247.841 327.352Z" fill="white"/>
<path d="M344.449 165.99H329.743C329.132 165.99 328.642 165.493 328.642 164.881C328.642 164.269 329.139 163.773 329.743 163.773H344.449C345.061 163.773 345.558 164.269 345.558 164.881C345.558 165.493 345.061 165.99 344.449 165.99Z" fill="#A0DDFF"/>
<path d="M359.162 165.99H348.523C347.911 165.99 347.414 165.493 347.414 164.881C347.414 164.269 347.911 163.773 348.523 163.773H359.162C359.773 163.773 360.27 164.269 360.27 164.881C360.27 165.493 359.773 165.99 359.162 165.99Z" fill="#A0DDFF"/>
<path d="M335.998 170.848H329.75C329.138 170.848 328.648 170.352 328.648 169.74C328.648 169.128 329.145 168.631 329.75 168.631H335.998C336.61 168.631 337.106 169.128 337.106 169.74C337.099 170.352 336.602 170.848 335.998 170.848Z" fill="#A0DDFF"/>
<path d="M359.161 170.848H339.705C339.093 170.848 338.596 170.352 338.596 169.74C338.596 169.128 339.093 168.631 339.705 168.631H359.161C359.773 168.631 360.27 169.128 360.27 169.74C360.27 170.352 359.773 170.848 359.161 170.848Z" fill="#A0DDFF"/>
<path d="M349.127 175.707H329.742C329.131 175.707 328.641 175.211 328.641 174.599C328.641 173.987 329.138 173.49 329.742 173.49H349.127C349.739 173.49 350.236 173.987 350.236 174.599C350.236 175.211 349.739 175.707 349.127 175.707Z" fill="#A0DDFF"/>
<path d="M359.162 175.707H352.914C352.302 175.707 351.805 175.211 351.805 174.599C351.805 173.987 352.302 173.49 352.914 173.49H359.162C359.774 173.49 360.27 173.987 360.27 174.599C360.27 175.211 359.774 175.707 359.162 175.707Z" fill="#A0DDFF"/>
<path d="M153.713 140.167H139.008C138.396 140.167 137.906 139.67 137.906 139.059C137.906 138.447 138.403 137.95 139.008 137.95H153.713C154.325 137.95 154.822 138.447 154.822 139.059C154.822 139.67 154.325 140.167 153.713 140.167Z" fill="#A0DDFF"/>
<path d="M168.427 140.167H157.788C157.176 140.167 156.679 139.67 156.679 139.059C156.679 138.447 157.176 137.95 157.788 137.95H168.427C169.039 137.95 169.535 138.447 169.535 139.059C169.535 139.67 169.039 140.167 168.427 140.167Z" fill="#A0DDFF"/>
<path d="M145.263 145.026H139.015C138.403 145.026 137.914 144.529 137.914 143.917C137.914 143.305 138.41 142.809 139.015 142.809H145.263C145.875 142.809 146.371 143.305 146.371 143.917C146.364 144.529 145.868 145.026 145.263 145.026Z" fill="#A0DDFF"/>
<path d="M168.427 145.026H148.97C148.358 145.026 147.861 144.529 147.861 143.917C147.861 143.305 148.358 142.809 148.97 142.809H168.427C169.038 142.809 169.535 143.305 169.535 143.917C169.535 144.529 169.038 145.026 168.427 145.026Z" fill="#A0DDFF"/>
<path d="M158.392 149.885H139.008C138.396 149.885 137.906 149.388 137.906 148.776C137.906 148.164 138.403 147.668 139.008 147.668H158.392C159.004 147.668 159.501 148.164 159.501 148.776C159.501 149.388 159.004 149.885 158.392 149.885Z" fill="#A0DDFF"/>
<path d="M168.426 149.885H162.178C161.567 149.885 161.07 149.388 161.07 148.776C161.07 148.164 161.567 147.668 162.178 147.668H168.426C169.038 147.668 169.535 148.164 169.535 148.776C169.535 149.388 169.038 149.885 168.426 149.885Z" fill="#A0DDFF"/>
<path d="M158.245 278.85H106.907C105.389 278.85 104.158 277.619 104.158 276.1V250.187C104.158 248.668 105.389 247.437 106.907 247.437H158.245C159.764 247.437 160.995 248.668 160.995 250.187V276.1C160.995 277.619 159.764 278.85 158.245 278.85Z" fill="#1B9ECC"/>
<path d="M106.576 251.677H158.583" stroke="white" stroke-width="0.8956" stroke-miterlimit="10" stroke-linecap="round"/>
<path d="M157.208 250.151C157.558 250.151 157.842 249.867 157.842 249.518C157.842 249.168 157.558 248.884 157.208 248.884C156.858 248.884 156.575 249.168 156.575 249.518C156.575 249.867 156.858 250.151 157.208 250.151Z" fill="white"/>
<path d="M153.926 250.151C154.276 250.151 154.559 249.867 154.559 249.518C154.559 249.168 154.276 248.884 153.926 248.884C153.576 248.884 153.292 249.168 153.292 249.518C153.292 249.867 153.576 250.151 153.926 250.151Z" fill="white"/>
<path d="M150.636 250.151C150.986 250.151 151.27 249.867 151.27 249.518C151.27 249.168 150.986 248.884 150.636 248.884C150.287 248.884 150.003 249.168 150.003 249.518C150.003 249.867 150.287 250.151 150.636 250.151Z" fill="white"/>
<path d="M116.265 255.91H107.44C106.958 255.91 106.569 255.521 106.569 255.039C106.569 254.556 106.958 254.168 107.44 254.168H116.265C116.747 254.168 117.136 254.556 117.136 255.039C117.136 255.521 116.747 255.91 116.265 255.91Z" fill="#1574A8"/>
<path d="M116.265 259.926H107.44C106.958 259.926 106.569 259.538 106.569 259.055C106.569 258.573 106.958 258.184 107.44 258.184H116.265C116.747 258.184 117.136 258.573 117.136 259.055C117.136 259.538 116.747 259.926 116.265 259.926Z" fill="#1574A8"/>
<path d="M116.265 263.943H107.44C106.958 263.943 106.569 263.554 106.569 263.072C106.569 262.59 106.958 262.201 107.44 262.201H116.265C116.747 262.201 117.136 262.59 117.136 263.072C117.136 263.554 116.747 263.943 116.265 263.943Z" fill="#1574A8"/>
<path d="M116.265 267.967H107.44C106.958 267.967 106.569 267.578 106.569 267.096C106.569 266.613 106.958 266.225 107.44 266.225H116.265C116.747 266.225 117.136 266.613 117.136 267.096C117.136 267.578 116.747 267.967 116.265 267.967Z" fill="#1574A8"/>
<path d="M116.265 271.983H107.44C106.958 271.983 106.569 271.594 106.569 271.112C106.569 270.63 106.958 270.241 107.44 270.241H116.265C116.747 270.241 117.136 270.63 117.136 271.112C117.136 271.594 116.747 271.983 116.265 271.983Z" fill="#1574A8"/>
<path d="M116.265 276H107.44C106.958 276 106.569 275.611 106.569 275.129C106.569 274.646 106.958 274.258 107.44 274.258H116.265C116.747 274.258 117.136 274.646 117.136 275.129C117.136 275.611 116.747 276 116.265 276Z" fill="#1574A8"/>
<path d="M157.713 255.91H119.684C119.202 255.91 118.813 255.521 118.813 255.039C118.813 254.556 119.202 254.168 119.684 254.168H157.713C158.195 254.168 158.584 254.556 158.584 255.039C158.584 255.521 158.195 255.91 157.713 255.91Z" fill="#7FD2FF"/>
<path d="M157.713 259.926H119.684C119.202 259.926 118.813 259.538 118.813 259.055C118.813 258.573 119.202 258.184 119.684 258.184H157.713C158.195 258.184 158.584 258.573 158.584 259.055C158.584 259.538 158.195 259.926 157.713 259.926Z" fill="#7FD2FF"/>
<path d="M157.713 263.943H119.684C119.202 263.943 118.813 263.554 118.813 263.072C118.813 262.59 119.202 262.201 119.684 262.201H157.713C158.195 262.201 158.584 262.59 158.584 263.072C158.584 263.554 158.195 263.943 157.713 263.943Z" fill="#7FD2FF"/>
<path d="M157.713 267.967H119.684C119.202 267.967 118.813 267.578 118.813 267.096C118.813 266.613 119.202 266.225 119.684 266.225H157.713C158.195 266.225 158.584 266.613 158.584 267.096C158.584 267.578 158.195 267.967 157.713 267.967Z" fill="#7FD2FF"/>
<path d="M157.713 271.983H119.684C119.202 271.983 118.813 271.594 118.813 271.112C118.813 270.63 119.202 270.241 119.684 270.241H157.713C158.195 270.241 158.584 270.63 158.584 271.112C158.584 271.594 158.195 271.983 157.713 271.983Z" fill="#7FD2FF"/>
<path d="M157.713 276H119.684C119.202 276 118.813 275.611 118.813 275.129C118.813 274.647 119.202 274.258 119.684 274.258H157.713C158.195 274.258 158.584 274.647 158.584 275.129C158.584 275.611 158.195 276 157.713 276Z" fill="#7FD2FF"/>
<path d="M123.968 227.03H98.27C94.4694 227.03 91.3813 223.95 91.3813 220.142V194.444C91.3813 190.644 94.4622 187.555 98.27 187.555H123.968C127.768 187.555 130.856 190.636 130.856 194.444V220.142C130.856 223.942 127.768 227.03 123.968 227.03Z" fill="#1B9ECC"/>
<path d="M122.276 223.611H93.8428C90.798 223.611 88.3218 221.142 88.3218 218.09V189.657C88.3218 186.613 90.7908 184.136 93.8428 184.136H122.276C125.321 184.136 127.797 186.605 127.797 189.657V218.09C127.797 221.142 125.321 223.611 122.276 223.611Z" fill="#7FD2FF" stroke="#DEE3FC" stroke-miterlimit="10"/>
<path d="M114.898 199.353H114.69V197.093C114.69 193.379 111.674 190.363 107.959 190.363C104.245 190.363 101.229 193.379 101.229 197.093V199.353H101.186C100.142 199.353 99.2998 200.196 99.2998 201.239V209.762C99.2998 210.806 100.142 211.648 101.186 211.648H114.898C115.942 211.648 116.784 210.806 116.784 209.762V201.239C116.784 200.203 115.935 199.353 114.898 199.353ZM102.935 197.093C102.935 194.322 105.188 192.069 107.959 192.069C110.731 192.069 112.984 194.322 112.984 197.093V199.353H102.935V197.093Z" fill="#DEE3FC"/>
<path d="M110.255 203.737C110.255 202.377 109.017 201.304 107.606 201.585C106.778 201.75 106.087 202.434 105.915 203.262C105.706 204.263 106.181 205.177 106.951 205.63C107.109 205.724 107.196 205.897 107.153 206.069L106.771 207.48C106.541 208.315 107.174 209.143 108.045 209.143C108.916 209.143 109.542 208.315 109.319 207.48L108.945 206.084C108.895 205.904 108.988 205.731 109.147 205.637C109.809 205.263 110.255 204.55 110.255 203.737Z" fill="#7FD2FF"/>
<path d="M115.97 214.642H100.105C99.6591 214.642 99.292 214.282 99.292 213.829C99.292 213.383 99.6519 213.016 100.105 213.016H115.97C116.417 213.016 116.784 213.375 116.784 213.829C116.784 214.275 116.424 214.642 115.97 214.642Z" fill="#DEE3FC"/>
<path d="M115.97 217.385H100.105C99.6591 217.385 99.292 217.025 99.292 216.571C99.292 216.125 99.6519 215.758 100.105 215.758H115.97C116.417 215.758 116.784 216.118 116.784 216.571C116.784 217.025 116.424 217.385 115.97 217.385Z" fill="#DEE3FC"/>
<path d="M154.351 199.612H145.353C144.806 199.612 144.367 199.173 144.367 198.626C144.367 198.079 144.806 197.64 145.353 197.64H154.351C154.898 197.64 155.337 198.079 155.337 198.626C155.337 199.173 154.898 199.612 154.351 199.612Z" fill="#A0DDFF"/>
<path d="M163.413 203.989H145.353C144.806 203.989 144.367 203.55 144.367 203.003C144.367 202.456 144.806 202.017 145.353 202.017H163.413C163.96 202.017 164.399 202.456 164.399 203.003C164.399 203.55 163.96 203.989 163.413 203.989Z" fill="#A0DDFF"/>
<path d="M147.49 208.373H145.36C144.813 208.373 144.374 207.934 144.374 207.387C144.374 206.839 144.813 206.4 145.36 206.4H147.49C148.037 206.4 148.477 206.839 148.477 207.387C148.477 207.926 148.03 208.373 147.49 208.373Z" fill="#A0DDFF"/>
<path d="M163.413 208.373H150.838C150.291 208.373 149.852 207.934 149.852 207.387C149.852 206.839 150.291 206.4 150.838 206.4H163.413C163.96 206.4 164.399 206.839 164.399 207.387C164.399 207.926 163.96 208.373 163.413 208.373Z" fill="#A0DDFF"/>
<path d="M163.413 199.612H157.957C157.41 199.612 156.971 199.173 156.971 198.626C156.971 198.079 157.41 197.64 157.957 197.64H163.413C163.96 197.64 164.399 198.079 164.399 198.626C164.399 199.173 163.96 199.612 163.413 199.612Z" fill="#A0DDFF"/>
<path d="M331.888 301.627L334.794 304.497C338.921 304.099 342.102 302.815 344.545 301.185C343.075 297.526 341.582 295.355 340.409 294.084C336.567 299.492 331.888 301.627 331.888 301.627Z" fill="url(#paint1_linear)"/>
<path d="M352.123 290.891L345.261 280.154C344.811 286.211 342.767 290.762 340.408 294.083C341.581 295.354 343.074 297.525 344.544 301.184C350.64 297.116 352.123 290.891 352.123 290.891Z" fill="#C17B0A"/>
<path d="M359.419 375.745C355.998 375.903 352.687 375.803 350.477 375.69C352.489 374.257 357.126 371.137 361.006 369.895L363.67 369.736C363.67 369.736 364.573 371.109 364.894 374.253C364.453 374.804 363.163 375.573 359.419 375.745Z" fill="#002774"/>
<path d="M350.449 375.709C350.458 375.702 350.468 375.696 350.477 375.689C352.687 375.803 355.998 375.902 359.419 375.744C363.163 375.572 364.454 374.803 364.895 374.252C364.91 374.397 364.925 374.541 364.938 374.693C364.994 375.383 364.482 375.989 363.791 376.041C360.99 376.253 354.044 376.734 350.695 376.558C350.253 376.535 350.089 375.967 350.449 375.709Z" fill="url(#paint2_linear)"/>
<path d="M383.884 374.829C384.135 373.222 384.536 370.899 384.846 370.304C385.333 369.373 387 370.304 387 370.304C387 370.304 388.171 370.85 388.709 371.761C389.052 372.341 390.001 373.992 390.645 375.112C390.719 375.242 390.75 375.379 390.745 375.512L384.072 375.745C383.908 375.483 383.833 375.164 383.884 374.829Z" fill="#002774"/>
<path d="M390.746 375.512C390.735 375.893 390.432 376.239 390.006 376.251L385.251 376.381C384.749 376.396 384.314 376.134 384.072 375.745L390.746 375.512Z" fill="url(#paint3_linear)"/>
<path d="M383.375 364.962C383.433 365.155 384.294 369.339 384.672 371.175C384.776 371.683 385.233 372.04 385.751 372.013C386.034 371.999 386.361 371.974 386.707 371.929C387.318 371.85 387.783 371.339 387.807 370.722C387.868 369.114 387.898 366.025 387.308 364.828C386.493 363.178 383.375 364.962 383.375 364.962Z" fill="url(#paint4_linear)"/>
<path d="M364.195 366.16C363.826 366.148 364.343 368.071 363.783 369.962C363.657 370.389 363.338 370.723 362.894 370.729C362.606 370.732 362.265 370.726 361.918 370.699C361.398 370.657 360.979 370.253 360.931 369.731L360.476 364.829L364.195 366.16Z" fill="url(#paint5_linear)"/>
<path d="M353.848 314.043C354.014 314.847 359.84 348.864 360.194 366.468C360.2 366.763 360.417 367.011 360.709 367.052C361.449 367.155 362.889 367.287 364.287 367.029C364.479 366.993 364.622 366.835 364.634 366.641C364.838 363.361 366.476 335.626 364.47 322.571C364.47 322.571 381.039 357.471 383.55 367.095C383.611 367.329 383.826 367.487 384.067 367.474C384.776 367.437 386.253 367.308 387.424 366.877C387.844 366.722 388.083 366.28 387.978 365.846C386.575 360.087 376.741 320.407 370.064 311.664L353.848 314.043Z" fill="#002774"/>
<path d="M364.47 322.787C364.525 322.787 364.579 322.766 364.622 322.724C364.708 322.64 364.71 322.503 364.625 322.416L362.407 320.145C362.323 320.06 362.186 320.057 362.099 320.142C362.014 320.226 362.011 320.363 362.096 320.45L364.314 322.721C364.357 322.765 364.413 322.787 364.47 322.787Z" fill="url(#paint6_linear)"/>
<path d="M344.377 271.452C348.633 270.336 356.483 268.589 362.733 268.962C364.168 269.047 365.318 270.183 365.399 271.62C366.343 288.277 367.633 303.061 370.063 311.661C364.602 313.824 359.189 314.827 353.848 314.041C349.847 305.464 346.349 295.562 343.36 284.316C343.36 284.316 341.606 275.347 343.31 272.357C343.575 271.892 343.924 271.571 344.377 271.452Z" fill="#FFA401"/>
<path d="M354.614 259.783C354.614 259.783 355.688 266.2 356.01 269.168C356.062 269.65 355.81 270.106 355.378 270.328C354.203 270.934 351.697 271.908 348.964 271.014C348.514 270.867 348.219 270.432 348.23 269.958L348.417 261.391L354.614 259.783Z" fill="url(#paint7_linear)"/>
<path d="M347.606 252.673C347.606 252.673 345.532 257.441 345.393 259.943C345.254 262.445 344.714 264.069 347.606 264.573C350.496 265.076 352.931 263.635 354.251 261.142C354.251 261.142 356.318 257.302 355.854 255.729C355.391 254.157 347.606 252.673 347.606 252.673Z" fill="url(#paint8_linear)"/>
<path d="M353.263 259.351H352.898C352.898 259.351 354.404 256.259 353.081 255.716C351.758 255.173 346.517 254.104 345.387 252.242C344.296 250.448 345.268 248.131 346.723 247.481C346.815 247.441 346.923 247.484 346.97 247.572L347.091 247.801C347.173 247.956 347.404 247.933 347.453 247.763C347.5 247.602 347.716 247.567 347.805 247.71C348.151 248.266 349.088 249.171 351.601 249.636C355.168 250.295 357.526 251.74 357.583 254.207C357.587 254.363 357.754 254.449 357.887 254.368C358.15 254.208 358.572 254.132 359.135 254.606C360.115 255.43 359.714 257.568 357.567 259.328C357.465 259.411 357.466 259.571 357.577 259.643C357.966 259.896 358.546 260.499 357.043 261.303C355.505 262.126 354.596 262.036 354.251 261.949C354.159 261.924 354.097 261.841 354.102 261.746L354.237 259.559C354.244 259.446 354.154 259.351 354.041 259.351H353.263Z" fill="url(#paint9_linear)"/>
<path d="M353.173 259.808C353.173 259.808 353.964 256.763 355.328 257.617C356.692 258.47 354.62 261.028 353.524 261.142L353.173 259.808Z" fill="url(#paint10_linear)"/>
<path d="M396.878 309.226L312.95 291.81L310.83 300.209L392.945 324.801C393.128 324.856 393.312 324.906 393.499 324.953L396.299 325.662C401.104 326.877 405.664 325.234 406.482 321.991L407.456 318.136C408.275 314.894 405.043 311.279 400.237 310.064L397.437 309.355C397.252 309.307 397.065 309.264 396.878 309.226ZM401.798 318.755C401.254 320.906 397.881 321.909 394.264 320.994C390.646 320.079 388.153 317.592 388.697 315.441C389.241 313.29 392.614 312.287 396.231 313.202C399.849 314.117 402.342 316.604 401.798 318.755Z" fill="#91B3FA"/>
<path d="M285.649 280.398L301.898 284.508C303.055 284.801 304.01 285.614 304.484 286.711L306.915 292.329C307.609 293.932 307.137 295.803 305.764 296.883L300.958 300.67C300.021 301.408 298.794 301.671 297.636 301.378L281.387 297.267C278.936 296.647 276.854 299.208 278.011 301.457C280.78 306.839 285.859 311.095 292.325 312.73C304.01 315.687 314.352 308.6 317.193 297.351C320.034 286.101 314.298 274.948 302.613 271.991C296.148 270.356 289.658 271.685 284.667 275.105C282.582 276.534 283.198 279.777 285.649 280.398Z" fill="#91B3FA"/>
<path d="M285.261 281.93L301.51 286.041C302.667 286.333 303.622 287.146 304.096 288.243L306.527 293.861C307.221 295.465 306.749 297.335 305.377 298.416L300.57 302.203C299.633 302.941 298.406 303.203 297.248 302.91L281.001 298.8C278.55 298.18 276.467 300.74 277.625 302.989C280.393 308.371 285.472 312.627 291.938 314.263C303.623 317.219 313.965 310.133 316.806 298.884C319.647 287.635 313.911 276.481 302.227 273.525C295.761 271.889 289.271 273.219 284.28 276.638C282.193 278.067 282.81 281.31 285.261 281.93Z" fill="#BDD0FB"/>
<path d="M396.568 310.448L312.641 293.033L310.52 301.432L392.636 326.024C392.819 326.079 393.003 326.129 393.189 326.176L395.99 326.885C400.795 328.1 405.354 326.457 406.173 323.214L407.146 319.36C407.965 316.117 404.734 312.502 399.929 311.287L397.128 310.578C396.942 310.53 396.756 310.487 396.568 310.448ZM401.488 319.977C400.945 322.128 397.571 323.131 393.954 322.216C390.336 321.301 387.844 318.814 388.387 316.663C388.931 314.512 392.305 313.509 395.922 314.424C399.54 315.34 402.032 317.826 401.488 319.977Z" fill="#BDD0FB"/>
<path d="M376.414 293.638C378.518 299.548 377.333 305.884 377.333 305.884L380.107 306.625C380.107 306.625 383.691 302.358 382.871 292.891C380.31 292.5 377.912 293.101 376.414 293.638Z" fill="url(#paint11_linear)"/>
<path d="M382.87 292.891C382.778 291.827 382.633 290.7 382.417 289.503C380.543 279.062 367.168 271.029 364.021 269.271C363.729 269.107 363.373 269.328 363.384 269.664L363.831 283.858C371.279 284.859 374.805 289.125 376.412 293.64C377.912 293.101 380.31 292.5 382.87 292.891Z" fill="#F99B04"/>
<path d="M326.036 306.835C325.516 306.692 325.093 306.322 324.874 305.828C324.448 304.873 323.969 303.342 324.992 302.877C326.518 302.183 329.292 305.03 329.292 305.03L330.648 307.228L331.888 307.831C330.751 308.144 328.562 307.623 326.036 306.835Z" fill="url(#paint12_linear)"/>
<path d="M377.517 304.497H374.087C374.087 304.497 376.87 306.166 376.962 307.924C377.054 309.68 375.858 313.319 375.297 314.309C374.685 315.392 383.064 312.697 380.106 304.498H377.517V304.497Z" fill="url(#paint13_linear)"/>
<defs>
<linearGradient id="paint0_linear" x1="84.2826" y1="67.9882" x2="322.108" y2="512.468" gradientUnits="userSpaceOnUse">
<stop stop-color="#46B8E9"/>
<stop offset="0.843073" stop-color="#9A64EB"/>
</linearGradient>
<linearGradient id="paint1_linear" x1="335.737" y1="294.831" x2="350.555" y2="334.065" gradientUnits="userSpaceOnUse">
<stop stop-color="#FF928E"/>
<stop offset="1" stop-color="#FEB3B1"/>
</linearGradient>
<linearGradient id="paint2_linear" x1="357.474" y1="370.806" x2="358.5" y2="409.391" gradientUnits="userSpaceOnUse">
<stop stop-color="#09005D"/>
<stop offset="1" stop-color="#1A0F91"/>
</linearGradient>
<linearGradient id="paint3_linear" x1="387.411" y1="375.547" x2="387.668" y2="364.139" gradientUnits="userSpaceOnUse">
<stop stop-color="#09005D"/>
<stop offset="1" stop-color="#1A0F91"/>
</linearGradient>
<linearGradient id="paint4_linear" x1="387.837" y1="368.072" x2="383.374" y2="368.072" gradientUnits="userSpaceOnUse">
<stop stop-color="#FF928E"/>
<stop offset="1" stop-color="#FEB3B1"/>
</linearGradient>
<linearGradient id="paint5_linear" x1="364.195" y1="367.779" x2="360.475" y2="367.779" gradientUnits="userSpaceOnUse">
<stop stop-color="#FF928E"/>
<stop offset="1" stop-color="#FEB3B1"/>
</linearGradient>
<linearGradient id="paint6_linear" x1="354.945" y1="310.544" x2="370.185" y2="330.23" gradientUnits="userSpaceOnUse">
<stop stop-color="#09005D"/>
<stop offset="1" stop-color="#1A0F91"/>
</linearGradient>
<linearGradient id="paint7_linear" x1="350.263" y1="257.241" x2="352.187" y2="269.803" gradientUnits="userSpaceOnUse">
<stop stop-color="#FF928E"/>
<stop offset="1" stop-color="#FEB3B1"/>
</linearGradient>
<linearGradient id="paint8_linear" x1="375.18" y1="486.882" x2="373.641" y2="472.653" gradientUnits="userSpaceOnUse">
<stop stop-color="#FF928E"/>
<stop offset="1" stop-color="#FEB3B1"/>
</linearGradient>
<linearGradient id="paint9_linear" x1="355.498" y1="249.704" x2="344.753" y2="263.526" gradientUnits="userSpaceOnUse">
<stop stop-color="#09005D"/>
<stop offset="1" stop-color="#1A0F91"/>
</linearGradient>
<linearGradient id="paint10_linear" x1="379.035" y1="486.464" x2="377.495" y2="472.235" gradientUnits="userSpaceOnUse">
<stop stop-color="#FF928E"/>
<stop offset="1" stop-color="#FEB3B1"/>
</linearGradient>
<linearGradient id="paint11_linear" x1="402.543" y1="286.666" x2="393.061" y2="291.915" gradientUnits="userSpaceOnUse">
<stop stop-color="#FF928E"/>
<stop offset="1" stop-color="#FEB3B1"/>
</linearGradient>
<linearGradient id="paint12_linear" x1="325.331" y1="298.761" x2="340.149" y2="337.996" gradientUnits="userSpaceOnUse">
<stop stop-color="#FF928E"/>
<stop offset="1" stop-color="#FEB3B1"/>
</linearGradient>
<linearGradient id="paint13_linear" x1="405.772" y1="292.501" x2="396.291" y2="297.75" gradientUnits="userSpaceOnUse">
<stop stop-color="#FF928E"/>
<stop offset="1" stop-color="#FEB3B1"/>
</linearGradient>
</defs>
</svg>
