<svg width="201" height="445" viewBox="0 0 201 445" fill="none" xmlns="http://www.w3.org/2000/svg">
<path fill-rule="evenodd" clip-rule="evenodd" d="M68.4862 364.173C35.51 376.361 1.98457 351.205 -32.1952 342.976C-60.6222 336.131 -90.0737 335.926 -114.647 320.079C-142.647 302.023 -170.685 279.683 -179.963 247.684C-189.52 214.72 -179.395 179.327 -164.408 148.451C-149.792 118.341 -127.668 91.0511 -97.2043 77.1885C-68.2376 64.0073 -35.7563 72.4056 -4.08181 75.4948C27.8805 78.6119 67.0355 70.7399 87.8067 95.2321C108.716 119.887 84.9517 158.346 92.7816 189.711C101.114 223.09 139.037 247.366 134.292 281.44C129.309 317.216 102.367 351.65 68.4862 364.173Z" fill="#ADE1F6"/>
<path fill-rule="evenodd" clip-rule="evenodd" d="M47.6225 334.513C18.7123 345.198 -10.6795 323.144 -40.645 315.929C-65.567 309.929 -91.3871 309.749 -112.93 295.856C-137.478 280.026 -162.059 260.441 -170.193 232.387C-178.572 203.487 -169.695 172.458 -156.556 145.389C-143.743 118.991 -124.346 95.0667 -97.6385 82.9133C-72.2434 71.3573 -43.767 78.7201 -15.9979 81.4284C12.0235 84.1612 46.3507 77.2598 64.5609 98.7321C82.8921 120.347 62.0578 154.064 68.9224 181.562C76.2277 210.825 109.474 232.108 105.314 261.981C100.946 293.346 77.3261 323.534 47.6225 334.513Z" fill="#C4C4C4"/>
<path fill-rule="evenodd" clip-rule="evenodd" d="M47.6225 334.513C18.7123 345.198 -10.6795 323.144 -40.645 315.929C-65.567 309.929 -91.3871 309.749 -112.93 295.856C-137.478 280.026 -162.059 260.441 -170.193 232.387C-178.572 203.487 -169.695 172.458 -156.556 145.389C-143.743 118.991 -124.346 95.0667 -97.6385 82.9133C-72.2434 71.3573 -43.767 78.7201 -15.9979 81.4284C12.0235 84.1612 46.3507 77.2598 64.5609 98.7321C82.8921 120.347 62.0578 154.064 68.9224 181.562C76.2277 210.825 109.474 232.108 105.314 261.981C100.946 293.346 77.3261 323.534 47.6225 334.513Z" fill="url(#paint0_linear)"/>
<path fill-rule="evenodd" clip-rule="evenodd" d="M179.998 143.85C179.87 156.044 171.877 166.466 160.322 170.526C147.714 174.955 132.719 173.958 124.784 163.248C116.709 152.351 119.627 137.457 127.799 126.631C135.54 116.375 148.668 111.359 160.903 115.395C172.93 119.363 180.131 131.241 179.998 143.85Z" fill="#C4C4C4"/>
<path fill-rule="evenodd" clip-rule="evenodd" d="M179.998 143.85C179.87 156.044 171.877 166.466 160.322 170.526C147.714 174.955 132.719 173.958 124.784 163.248C116.709 152.351 119.627 137.457 127.799 126.631C135.54 116.375 148.668 111.359 160.903 115.395C172.93 119.363 180.131 131.241 179.998 143.85Z" fill="url(#paint1_linear)"/>
<path fill-rule="evenodd" clip-rule="evenodd" d="M160.127 191C168.579 191.026 176.431 195.743 179.069 203.513C181.732 211.358 178.516 219.915 171.57 224.71C164.805 229.381 155.78 228.941 149.023 224.259C142.112 219.469 138.203 211.225 140.816 203.397C143.442 195.534 151.587 190.974 160.127 191Z" fill="#C4C4C4"/>
<path fill-rule="evenodd" clip-rule="evenodd" d="M160.127 191C168.579 191.026 176.431 195.743 179.069 203.513C181.732 211.358 178.516 219.915 171.57 224.71C164.805 229.381 155.78 228.941 149.023 224.259C142.112 219.469 138.203 211.225 140.816 203.397C143.442 195.534 151.587 190.974 160.127 191Z" fill="url(#paint2_linear)"/>
<defs>
<linearGradient id="paint0_linear" x1="249.041" y1="312.255" x2="-104.757" y2="220.734" gradientUnits="userSpaceOnUse">
<stop offset="0.259492" stop-color="#46B8E9"/>
<stop offset="0.843073" stop-color="#9A64EB"/>
</linearGradient>
<linearGradient id="paint1_linear" x1="196.5" y1="102.642" x2="113.514" y2="181.029" gradientUnits="userSpaceOnUse">
<stop stop-color="#46B8E9"/>
<stop offset="0.843073" stop-color="#9A64EB"/>
</linearGradient>
<linearGradient id="paint2_linear" x1="132.3" y1="180.825" x2="180.164" y2="236.535" gradientUnits="userSpaceOnUse">
<stop stop-color="#46B8E9"/>
<stop offset="0.843073" stop-color="#9A64EB"/>
</linearGradient>
</defs>
</svg>
