<svg width="218" height="63" viewBox="0 0 218 63" fill="none" xmlns="http://www.w3.org/2000/svg">
<path fill-rule="evenodd" clip-rule="evenodd" d="M0 23.7674C0 19.9507 2.9203 17.2454 6.89874 17.2454C9.21008 17.2454 11.0735 18.0873 12.2921 19.61L10.0346 21.6531C9.24602 20.7034 8.27836 20.1836 7.07777 20.1836C5.01668 20.1836 3.5838 21.6172 3.5838 23.7674C3.5838 25.9177 5.01668 27.3513 7.07777 27.3513C8.27836 27.3513 9.24666 26.8315 10.0346 25.8818L12.2921 27.9243C11.0735 29.4476 9.21008 30.2895 6.89874 30.2895C2.9203 30.2895 0.000641685 27.5842 0.000641685 23.7674H0ZM17.0957 18.5891C17.0957 19.0909 17.0239 19.4849 16.5221 20.6502L15.3754 23.2657H13.2431L14.0856 20.3454C13.4401 20.0406 13.0281 19.4316 13.0281 18.5891C13.0281 17.3699 13.888 16.5825 15.0706 16.5825C16.2352 16.5825 17.0957 17.3705 17.0957 18.5891ZM28.8334 27.2974V30.0393H18.7622V17.4956H28.5992V20.2382H22.2735V22.3519H27.8471V25.0046H22.2741V27.2974H28.8334ZM29.837 28.9105L31.0017 26.2944C32.1124 27.0285 33.689 27.5303 35.1405 27.5303C36.61 27.5303 37.1836 27.1183 37.1836 26.5094C37.1836 24.5201 30.052 25.9716 30.052 21.313C30.052 19.0729 31.8795 17.2447 35.6064 17.2447C37.2369 17.2447 38.9213 17.6214 40.1578 18.3382L39.065 20.9723C37.8651 20.3274 36.6818 20.0053 35.5884 20.0053C34.101 20.0053 33.5639 20.5058 33.5639 21.134C33.5639 23.0507 40.6776 21.6172 40.6776 26.2405C40.6776 28.4267 38.8501 30.2895 35.1225 30.2895C33.0627 30.2895 31.0196 29.7345 29.837 28.9099V28.9105ZM45.2477 20.3088H41.3956V17.4956H52.6302V20.3094H48.7962V30.0393H45.2477V20.3088ZM71.3565 17.4956L65.9798 30.0386H62.4859L57.1278 17.4956H60.9631L64.3679 25.6668L67.8433 17.4956H71.3565ZM81.1948 23.7674C81.1948 21.5992 79.7074 20.1836 77.8067 20.1836C75.9086 20.1836 74.4212 21.5992 74.4212 23.7674C74.4212 25.9357 75.9086 27.3513 77.8073 27.3513C79.7067 27.3513 81.1948 25.9357 81.1948 23.7674ZM70.8374 23.7674C70.8374 20.0046 73.7942 17.2454 77.8073 17.2454C81.8217 17.2454 84.7786 20.0046 84.7786 23.7674C84.7786 27.5303 81.8217 30.2895 77.8073 30.2895C73.7942 30.2895 70.8374 27.5303 70.8374 23.7674ZM86.8044 24.4489V17.4963H90.3529V24.3405C90.3529 26.4914 91.2487 27.3513 92.7355 27.3513C94.2049 27.3513 95.1013 26.4914 95.1013 24.3405V17.4963H98.5953V24.4489C98.5953 28.1931 96.4091 30.2895 92.6995 30.2895C88.9906 30.2895 86.8044 28.1938 86.8044 24.4489ZM100.029 28.9105L101.193 26.2944C102.304 27.0285 103.882 27.5303 105.333 27.5303C106.802 27.5303 107.375 27.1183 107.375 26.5094C107.375 24.5201 100.244 25.9716 100.244 21.313C100.244 19.0729 102.071 17.2447 105.799 17.2447C107.429 17.2447 109.114 17.6214 110.351 18.3382L109.258 20.9723C108.056 20.3274 106.874 20.0053 105.78 20.0053C104.293 20.0053 103.756 20.5058 103.756 21.134C103.756 23.0507 110.87 21.6172 110.87 26.2405C110.87 28.4267 109.042 30.2895 105.314 30.2895C103.255 30.2895 101.211 29.7345 100.029 28.9099V28.9105ZM27.5257 33.2438H31.0735V42.973H37.0579V45.7868H27.5257V33.2438ZM40.4453 34.3373C40.4453 34.8384 40.3734 35.233 39.8716 36.3977L38.725 39.0138H36.5926L37.4345 36.0929C36.7896 35.7881 36.3777 35.1791 36.3777 34.3373C36.3777 33.1181 37.2375 32.3301 38.4202 32.3301C39.5848 32.3301 40.4453 33.1181 40.4453 34.3373ZM48.4368 40.7336L46.8249 36.7198L45.2124 40.7336H48.4375H48.4368ZM49.4764 43.3497H44.1728L43.1872 45.7881H39.5675L45.1046 33.2432H48.5985L54.1536 45.7881H50.4626L49.4764 43.3497ZM65.6757 33.2438L60.3003 45.7875H56.8063L51.4482 33.2438H55.283L58.6877 41.415L62.1637 33.2438H65.6757ZM77.0193 43.0455V45.7875H66.9494V33.2438H76.787V35.9857H70.4613V38.1001H76.0344V40.7522H70.4613V43.0455H77.0193ZM90.8361 33.2438V45.7875H87.9145L82.3774 39.103V45.7875H78.902V33.2438H81.8223L87.3601 39.9276V33.2438H90.8361ZM93.2559 45.7875H96.8031V33.2438H93.2559V45.7875ZM104.759 36.039H102.788V39.7126H104.759C106.229 39.7126 106.964 39.0318 106.964 37.8845C106.964 36.7198 106.229 36.039 104.759 36.039ZM104.724 42.4539H102.788V45.7875H99.2402V33.2438H104.974C108.396 33.2438 110.548 35.0181 110.548 37.8845C110.548 39.73 109.651 41.0916 108.092 41.8443L110.799 45.7875H106.999L104.724 42.4539ZM150.405 24.1152C149.363 23.6738 148.248 23.385 147.254 23.385C145.806 23.385 145.081 23.6969 145.081 24.2564C145.081 25.8593 151.55 24.5728 151.55 27.9917C151.55 29.4072 150.221 30.5013 147.56 30.5013C145.98 30.5013 144.746 30.1747 143.328 29.4072L143.913 28.1328C145.156 28.8233 146.315 29.1294 147.569 29.1294C149.147 29.1294 149.993 28.6738 149.993 27.9917C149.993 26.2392 143.522 27.5476 143.522 24.3424C143.522 22.9609 144.84 22.0092 147.225 22.0092C148.652 22.0092 149.852 22.323 150.998 22.8973L150.405 24.1152ZM157.618 30.5443C155.033 30.5443 152.891 28.8233 152.891 26.2501C152.891 23.7078 155.034 21.9541 157.618 21.9541C160.217 21.9541 162.325 23.7078 162.325 26.2501C162.325 28.8233 160.216 30.5443 157.618 30.5443ZM157.618 23.3388C155.735 23.3388 154.45 24.6138 154.45 26.2501C154.45 27.9256 155.679 29.1724 157.618 29.1724C159.543 29.1724 160.767 27.9134 160.767 26.2501C160.767 24.6138 159.542 23.3388 157.618 23.3388ZM168.498 30.5346C165.784 30.5346 163.738 28.8149 163.738 26.2386C163.738 23.7071 165.816 21.9541 168.499 21.9541C170.099 21.9541 171.245 22.4077 172.274 23.1649L171.474 24.3565C170.726 23.7809 169.789 23.3613 168.542 23.3613C166.561 23.3613 165.33 24.6138 165.33 26.2386C165.33 27.9134 166.573 29.1287 168.563 29.1287C169.808 29.1287 170.793 28.7257 171.537 28.1527L172.341 29.3437C171.31 30.1009 170.099 30.5346 168.498 30.5346ZM173.981 30.3165H175.488V22.2024H173.981V30.3165ZM177.715 22.2017V30.3165H185.362V28.9754H179.218V26.8539H183.792V25.5141H179.218V23.5429H185.101V22.2017H177.715ZM186.164 22.2017V23.5345H189.472V30.3165H190.974V23.5345H194.279V22.2024L186.164 22.2017ZM195.49 22.2017V30.3165H203.138V28.9754H196.997V26.8539H201.572V25.5141H196.997V23.5429H202.88V22.2017H195.49ZM147.967 39.9186C148.793 39.9186 149.642 39.7325 150.282 39.4303V37.0708H151.746V40.2209C150.716 40.9132 149.301 41.3348 147.903 41.3348C145.191 41.3348 143.144 39.6177 143.144 37.0407C143.144 34.5099 145.222 32.7594 147.903 32.7594C149.473 32.7594 150.652 33.2008 151.681 33.958L150.882 35.1483C150.131 34.5753 149.191 34.1845 147.945 34.1845C145.966 34.1415 144.736 35.4179 144.736 37.04C144.736 38.7193 145.981 39.9193 147.967 39.9193V39.9186ZM153.726 33.0064V41.1166H161.374V39.7775H155.228V37.6554H159.807V36.3162H155.228V34.345H161.117V33.0064H153.726ZM164.325 41.1173H162.853V33.0058H164.388L169.679 39.1191L169.715 39.1088C169.641 37.7823 169.607 36.4538 169.614 35.1252V33.0058H171.084V41.1166H169.561L164.291 35.0065L164.267 35.0187C164.325 36.2187 164.325 38.3163 164.325 39.0004V41.1173ZM173.202 33.0064V41.1166H180.851V39.7775H174.704V37.6554H179.281V36.3162H174.704V34.345H180.59V33.0064H173.202ZM186.369 38.1335H183.946V41.1173H182.441V33.0064H187.655C189.384 33.0064 190.456 34.0684 190.456 35.5918C190.456 37.0407 189.404 37.905 188.131 38.0905L190.546 41.1173H188.659L186.369 38.1335H186.369ZM187.493 36.7814C188.435 36.7814 188.967 36.295 188.967 35.5918C188.967 34.8217 188.498 34.345 187.655 34.345H183.946V36.7814H187.493ZM195.023 33.0064L191.07 41.1166H192.698L193.629 39.148H198.005L198.938 41.1166H200.559L196.604 33.0058H195.023V33.0064ZM195.822 34.542L197.379 37.8312H194.254L195.822 34.542ZM201.667 33.0064V41.1166H208.586V39.7775H203.169V33.0064H201.667ZM209.602 33.0064V41.1166H217.252V39.7775H211.108V37.6554H215.685V36.3162H211.108V34.345H216.996V33.0064H209.602Z" fill="black"/>
<path fill-rule="evenodd" clip-rule="evenodd" d="M118.114 31.8353H137.501V21.9463H118.114V31.8353Z" fill="#ED0210"/>
<path fill-rule="evenodd" clip-rule="evenodd" d="M118.114 41.3333H137.501V31.6414H118.114V41.3333Z" fill="black"/>
<path fill-rule="evenodd" clip-rule="evenodd" d="M121.501 32.2307H134.114V31.0513H121.501V32.2307Z" fill="white"/>
</svg>
