<svg width="158" height="158" viewBox="0 0 158 158" fill="none" xmlns="http://www.w3.org/2000/svg">
<path d="M54.5732 86.388C54.1286 86.1445 53.7866 85.6232 53.7866 84.9284C53.7866 83.9917 54.5048 83.2323 55.4658 83.2323C55.8062 83.2323 56.1156 83.3339 56.3535 83.473C58.1013 84.6544 59.9158 85.245 61.5565 85.245C63.336 85.245 64.3627 84.4803 64.3627 83.2636V83.1948C64.3627 81.7712 62.4472 81.2858 60.3234 80.6267C57.6552 79.8622 54.6774 78.7524 54.6774 75.2452V75.1749C54.6774 71.7023 57.518 69.5852 61.1121 69.5852C63.0294 69.5852 65.0479 70.1415 66.7936 71.0775C67.3771 71.391 67.7857 71.9468 67.7857 72.6739C67.7857 73.6472 67.0339 74.3779 66.0757 74.3779C65.7315 74.3779 65.5264 74.3082 65.2555 74.1685C63.7813 73.4037 62.2759 72.9169 61.0098 72.9169C59.4 72.9169 58.4757 73.6825 58.4757 74.7248V74.7923C58.4757 76.1469 60.4266 76.7009 62.5494 77.3967C65.1849 78.2305 68.1628 79.445 68.1628 82.7432V82.8135C68.1628 86.6671 65.2177 88.5745 61.4535 88.5745C59.1618 88.5745 56.663 87.8478 54.5732 86.388Z" fill="#5FB832"/>
<path d="M84.2077 79.0981V79.0278C84.2077 75.4881 81.8454 73.1616 79.0402 73.1616C76.2336 73.1616 73.7693 75.5225 73.7693 79.0278V79.0981C73.7693 82.6047 76.2336 84.9679 79.0402 84.9679C81.8808 84.9679 84.2077 82.7095 84.2077 79.0981ZM69.7295 71.7017C69.7295 70.5234 70.6183 69.5846 71.7845 69.5846C72.9474 69.5846 73.8716 70.5234 73.8716 71.7017V72.9535C75.2067 71.0448 77.0886 69.5165 80.0329 69.5165C84.2764 69.5165 88.4184 72.9175 88.4184 79.0278V79.0981C88.4184 85.1748 84.3109 88.6111 80.0329 88.6111C77.0211 88.6111 75.1383 87.0818 73.8716 85.3842V91.873C73.8716 93.0578 72.9474 93.9607 71.7845 93.9607C70.6556 93.9607 69.7295 93.0578 69.7295 91.873V71.7017Z" fill="#5FB832"/>
<path d="M89.9868 71.7043C89.9868 70.5261 90.8742 69.5872 92.0384 69.5872C93.2049 69.5872 94.1278 70.5261 94.1278 71.7043V72.7144C94.3344 71.1411 96.8647 69.5872 98.6797 69.5872C99.9795 69.5872 100.734 70.4545 100.734 71.669C100.734 72.7791 100.014 73.5095 99.0898 73.6827C96.1462 74.2037 94.1278 76.8164 94.1278 80.4311V86.4881C94.1278 87.6351 93.2049 88.572 92.0384 88.572C90.9097 88.572 89.9868 87.6688 89.9868 86.4881V71.7043Z" fill="#5FB832"/>
<path d="M102.3 71.7128C102.3 70.5326 103.193 69.5937 104.355 69.5937C105.518 69.5937 106.443 70.5326 106.443 71.7128V86.4916C106.443 87.6704 105.518 88.572 104.355 88.572C103.225 88.572 102.3 87.6704 102.3 86.4916V71.7128Z" fill="#5FB832"/>
<path d="M108.531 71.7209C108.531 70.5408 109.421 69.6041 110.583 69.6041C111.748 69.6041 112.672 70.5408 112.672 71.7209V72.5829C113.837 70.8812 115.512 69.5935 118.318 69.5935C122.391 69.5935 124.755 72.3723 124.755 76.6075V86.4891C124.755 87.6689 123.863 88.5728 122.7 88.5728C121.536 88.5728 120.613 87.6689 120.613 86.4891V77.8926C120.613 75.047 119.21 73.4139 116.745 73.4139C114.349 73.4139 112.672 75.1151 112.672 77.9642V86.4891C112.672 87.6689 111.748 88.5728 110.583 88.5728C109.454 88.5728 108.531 87.6689 108.531 86.4891V71.7209Z" fill="#5FB832"/>
<path d="M135.701 84.9296C132.858 84.9296 130.533 82.6722 130.533 79.0609V78.9928C130.533 75.4521 132.893 73.1256 135.701 73.1256C138.508 73.1256 140.973 75.4871 140.973 78.9928V79.0609C140.973 82.5684 138.508 84.9296 135.701 84.9296ZM142.954 69.5486C141.792 69.5486 140.868 70.4881 140.868 71.6667V72.9162C139.531 71.0075 137.651 69.4801 134.709 69.4801C130.462 69.4801 126.322 72.8811 126.322 78.9928V79.0609C126.322 85.1375 130.428 88.5728 134.709 88.5728C137.703 88.5728 139.581 87.0618 140.849 85.3725C140.641 88.6738 138.649 90.4168 135.154 90.4168C133.068 90.4168 131.253 89.8943 129.607 88.9551C129.402 88.8535 129.167 88.7848 128.857 88.7848C127.899 88.7848 127.109 89.5842 127.109 90.5187C127.109 91.3178 127.555 91.9079 128.276 92.1858C130.463 93.2624 132.721 93.8181 135.255 93.8181C138.508 93.8181 141.042 93.0202 142.685 91.3528C144.187 89.8239 145.009 87.5353 145.009 84.4437V71.6667C145.009 70.4881 144.12 69.5486 142.954 69.5486Z" fill="#5FB832"/>
<path d="M106.459 64.5348C106.459 65.703 105.523 66.6528 104.37 66.6528C103.216 66.6528 102.283 65.703 102.283 64.5348C102.283 63.3634 103.216 62.4177 104.37 62.4177C105.523 62.4177 106.459 63.3634 106.459 64.5348Z" fill="#5FB832"/>
<path d="M40.6781 87.3171C36.0867 93.5225 26.2788 91.4279 19.9907 91.7292C19.9907 91.7292 18.8775 91.792 17.7563 91.9792C17.7563 91.9792 18.1802 91.7957 18.7209 91.6066C23.1374 90.0574 25.2245 89.7461 27.9081 88.3479C32.9502 85.7279 37.9683 80.021 38.9894 74.0926C37.0702 79.7944 31.2331 84.7018 25.9183 86.6946C22.2805 88.0562 15.7018 89.3814 15.7009 89.382C15.7039 89.3867 15.4387 89.2423 15.435 89.2392C10.961 87.0312 10.8319 77.202 18.9575 74.0335C22.5202 72.6434 25.9279 73.4069 29.7792 72.477C33.8869 71.4864 38.6443 68.3632 40.578 64.2799C42.7458 70.8022 45.3499 81.0064 40.6781 87.3171ZM40.7579 62.2588C40.2113 63.5761 39.5443 64.7631 38.7752 65.8248C35.3904 62.301 30.6659 60.1055 25.4438 60.1055C15.1715 60.1055 6.81543 68.5826 6.81543 79.0006C6.81543 84.4621 9.11359 89.3877 12.7776 92.8402L13.1855 93.2068C12.5043 92.6433 12.3995 91.6285 12.9517 90.9369C13.5072 90.2449 14.5085 90.1377 15.1901 90.6981C15.8734 91.2597 15.9776 92.277 15.4243 92.9699C14.873 93.6631 13.8698 93.7678 13.1874 93.2084L13.465 93.4578C16.706 96.2259 20.8838 97.8979 25.4438 97.8979C35.2625 97.8979 43.3251 90.1471 44.0152 80.3642C44.5263 75.5743 43.1316 69.4921 40.7579 62.2588Z" fill="#5FB832"/>
<path d="M149.859 70.8717H149.209V71.7456H149.859C150.07 71.7456 150.3 71.5731 150.3 71.319C150.3 71.0442 150.07 70.8717 149.859 70.8717ZM150.261 73.0351L149.629 72.06H149.209V73.0351H148.869V70.5667H149.859C150.27 70.5667 150.651 70.862 150.651 71.319C150.651 71.8671 150.169 72.0502 150.03 72.0502L150.681 73.0351H150.261ZM149.679 69.9675C148.678 69.9675 147.876 70.7801 147.876 71.7965C147.876 72.8016 148.678 73.6248 149.679 73.6248C150.67 73.6248 151.482 72.8016 151.482 71.7965C151.482 70.7801 150.67 69.9675 149.679 69.9675ZM149.679 73.9502C148.507 73.9502 147.556 72.9847 147.556 71.7965C147.556 70.597 148.507 69.6422 149.679 69.6422C150.861 69.6422 151.803 70.597 151.803 71.7965C151.803 72.9847 150.861 73.9502 149.679 73.9502Z" fill="#5FB832"/>
</svg>
