<svg width="182" height="97" viewBox="0 0 182 97" fill="none" xmlns="http://www.w3.org/2000/svg">
<path d="M163.621 62.49C163.621 64.6207 163.077 66.2527 161.989 67.386C160.901 68.5193 159.439 69.086 157.603 69.086C155.767 69.086 154.305 68.5193 153.217 67.386C152.129 66.2527 151.585 64.6207 151.585 62.49C151.585 60.3593 152.129 58.7273 153.217 57.594C154.305 56.4607 155.767 55.894 157.603 55.894C159.439 55.894 160.901 56.4607 161.989 57.594C163.077 58.7273 163.621 60.3593 163.621 62.49ZM159.779 62.49C159.779 61.334 159.575 60.4953 159.167 59.974C158.759 59.4527 158.237 59.192 157.603 59.192C156.945 59.192 156.413 59.4527 156.005 59.974C155.619 60.4953 155.427 61.334 155.427 62.49C155.427 63.646 155.619 64.496 156.005 65.04C156.413 65.5613 156.945 65.822 157.603 65.822C158.237 65.822 158.759 65.5613 159.167 65.04C159.575 64.496 159.779 63.646 159.779 62.49ZM170.251 56.438H174.977L161.683 80H156.957L170.251 56.438ZM180.417 73.948C180.417 76.0787 179.873 77.7107 178.785 78.844C177.697 79.9773 176.235 80.544 174.399 80.544C172.563 80.544 171.101 79.9773 170.013 78.844C168.925 77.7107 168.381 76.0787 168.381 73.948C168.381 71.8173 168.925 70.1853 170.013 69.052C171.101 67.9187 172.563 67.352 174.399 67.352C176.235 67.352 177.697 67.9187 178.785 69.052C179.873 70.1853 180.417 71.8173 180.417 73.948ZM176.575 73.948C176.575 72.792 176.371 71.9533 175.963 71.432C175.555 70.9107 175.033 70.65 174.399 70.65C173.741 70.65 173.209 70.9107 172.801 71.432C172.415 71.9533 172.223 72.792 172.223 73.948C172.223 75.104 172.415 75.954 172.801 76.498C173.209 77.0193 173.741 77.28 174.399 77.28C175.033 77.28 175.555 77.0193 175.963 76.498C176.371 75.954 176.575 75.104 176.575 73.948Z" fill="#338EF8"/>
<path d="M163.621 62.49C163.621 64.6207 163.077 66.2527 161.989 67.386C160.901 68.5193 159.439 69.086 157.603 69.086C155.767 69.086 154.305 68.5193 153.217 67.386C152.129 66.2527 151.585 64.6207 151.585 62.49C151.585 60.3593 152.129 58.7273 153.217 57.594C154.305 56.4607 155.767 55.894 157.603 55.894C159.439 55.894 160.901 56.4607 161.989 57.594C163.077 58.7273 163.621 60.3593 163.621 62.49ZM159.779 62.49C159.779 61.334 159.575 60.4953 159.167 59.974C158.759 59.4527 158.237 59.192 157.603 59.192C156.945 59.192 156.413 59.4527 156.005 59.974C155.619 60.4953 155.427 61.334 155.427 62.49C155.427 63.646 155.619 64.496 156.005 65.04C156.413 65.5613 156.945 65.822 157.603 65.822C158.237 65.822 158.759 65.5613 159.167 65.04C159.575 64.496 159.779 63.646 159.779 62.49ZM170.251 56.438H174.977L161.683 80H156.957L170.251 56.438ZM180.417 73.948C180.417 76.0787 179.873 77.7107 178.785 78.844C177.697 79.9773 176.235 80.544 174.399 80.544C172.563 80.544 171.101 79.9773 170.013 78.844C168.925 77.7107 168.381 76.0787 168.381 73.948C168.381 71.8173 168.925 70.1853 170.013 69.052C171.101 67.9187 172.563 67.352 174.399 67.352C176.235 67.352 177.697 67.9187 178.785 69.052C179.873 70.1853 180.417 71.8173 180.417 73.948ZM176.575 73.948C176.575 72.792 176.371 71.9533 175.963 71.432C175.555 70.9107 175.033 70.65 174.399 70.65C173.741 70.65 173.209 70.9107 172.801 71.432C172.415 71.9533 172.223 72.792 172.223 73.948C172.223 75.104 172.415 75.954 172.801 76.498C173.209 77.0193 173.741 77.28 174.399 77.28C175.033 77.28 175.555 77.0193 175.963 76.498C176.371 75.954 176.575 75.104 176.575 73.948Z" fill="url(#paint0_linear)"/>
<path d="M6.26672 33.884C7.89072 33.212 9.57072 32.456 11.3067 31.616C13.0987 30.72 14.8347 29.768 16.5147 28.76C18.1947 27.696 19.7907 26.604 21.3027 25.484C22.8707 24.308 24.2707 23.076 25.5027 21.788H34.2387V80H21.7227V38.084C20.0427 39.204 18.1667 40.24 16.0947 41.192C14.0227 42.088 12.0067 42.872 10.0467 43.544L6.26672 33.884ZM92.9849 50.768C92.9849 60.568 91.1089 68.1 87.3569 73.364C83.6609 78.572 78.5369 81.176 71.9849 81.176C65.4329 81.176 60.2809 78.572 56.5289 73.364C52.8329 68.1 50.9849 60.568 50.9849 50.768C50.9849 45.896 51.4609 41.584 52.4129 37.832C53.4209 34.08 54.8489 30.916 56.6969 28.34C58.5449 25.764 60.7569 23.804 63.3329 22.46C65.9089 21.116 68.7929 20.444 71.9849 20.444C78.5369 20.444 83.6609 23.076 87.3569 28.34C91.1089 33.548 92.9849 41.024 92.9849 50.768ZM80.2169 50.768C80.2169 47.856 80.0769 45.224 79.7969 42.872C79.5169 40.464 79.0689 38.392 78.4529 36.656C77.8369 34.92 76.9969 33.576 75.9329 32.624C74.8689 31.672 73.5529 31.196 71.9849 31.196C70.4169 31.196 69.1009 31.672 68.0369 32.624C67.0289 33.576 66.1889 34.92 65.5169 36.656C64.9009 38.392 64.4529 40.464 64.1729 42.872C63.8929 45.224 63.7529 47.856 63.7529 50.768C63.7529 53.68 63.8929 56.34 64.1729 58.748C64.4529 61.156 64.9009 63.228 65.5169 64.964C66.1889 66.7 67.0289 68.044 68.0369 68.996C69.1009 69.948 70.4169 70.424 71.9849 70.424C73.5529 70.424 74.8689 69.948 75.9329 68.996C76.9969 68.044 77.8369 66.7 78.4529 64.964C79.0689 63.228 79.5169 61.156 79.7969 58.748C80.0769 56.34 80.2169 53.68 80.2169 50.768ZM140.727 50.768C140.727 60.568 138.851 68.1 135.099 73.364C131.403 78.572 126.279 81.176 119.727 81.176C113.175 81.176 108.023 78.572 104.271 73.364C100.575 68.1 98.7271 60.568 98.7271 50.768C98.7271 45.896 99.2031 41.584 100.155 37.832C101.163 34.08 102.591 30.916 104.439 28.34C106.287 25.764 108.499 23.804 111.075 22.46C113.651 21.116 116.535 20.444 119.727 20.444C126.279 20.444 131.403 23.076 135.099 28.34C138.851 33.548 140.727 41.024 140.727 50.768ZM127.959 50.768C127.959 47.856 127.819 45.224 127.539 42.872C127.259 40.464 126.811 38.392 126.195 36.656C125.579 34.92 124.739 33.576 123.675 32.624C122.611 31.672 121.295 31.196 119.727 31.196C118.159 31.196 116.843 31.672 115.779 32.624C114.771 33.576 113.931 34.92 113.259 36.656C112.643 38.392 112.195 40.464 111.915 42.872C111.635 45.224 111.495 47.856 111.495 50.768C111.495 53.68 111.635 56.34 111.915 58.748C112.195 61.156 112.643 63.228 113.259 64.964C113.931 66.7 114.771 68.044 115.779 68.996C116.843 69.948 118.159 70.424 119.727 70.424C121.295 70.424 122.611 69.948 123.675 68.996C124.739 68.044 125.579 66.7 126.195 64.964C126.811 63.228 127.259 61.156 127.539 58.748C127.819 56.34 127.959 53.68 127.959 50.768Z" fill="#338EF8"/>
<path d="M6.26672 33.884C7.89072 33.212 9.57072 32.456 11.3067 31.616C13.0987 30.72 14.8347 29.768 16.5147 28.76C18.1947 27.696 19.7907 26.604 21.3027 25.484C22.8707 24.308 24.2707 23.076 25.5027 21.788H34.2387V80H21.7227V38.084C20.0427 39.204 18.1667 40.24 16.0947 41.192C14.0227 42.088 12.0067 42.872 10.0467 43.544L6.26672 33.884ZM92.9849 50.768C92.9849 60.568 91.1089 68.1 87.3569 73.364C83.6609 78.572 78.5369 81.176 71.9849 81.176C65.4329 81.176 60.2809 78.572 56.5289 73.364C52.8329 68.1 50.9849 60.568 50.9849 50.768C50.9849 45.896 51.4609 41.584 52.4129 37.832C53.4209 34.08 54.8489 30.916 56.6969 28.34C58.5449 25.764 60.7569 23.804 63.3329 22.46C65.9089 21.116 68.7929 20.444 71.9849 20.444C78.5369 20.444 83.6609 23.076 87.3569 28.34C91.1089 33.548 92.9849 41.024 92.9849 50.768ZM80.2169 50.768C80.2169 47.856 80.0769 45.224 79.7969 42.872C79.5169 40.464 79.0689 38.392 78.4529 36.656C77.8369 34.92 76.9969 33.576 75.9329 32.624C74.8689 31.672 73.5529 31.196 71.9849 31.196C70.4169 31.196 69.1009 31.672 68.0369 32.624C67.0289 33.576 66.1889 34.92 65.5169 36.656C64.9009 38.392 64.4529 40.464 64.1729 42.872C63.8929 45.224 63.7529 47.856 63.7529 50.768C63.7529 53.68 63.8929 56.34 64.1729 58.748C64.4529 61.156 64.9009 63.228 65.5169 64.964C66.1889 66.7 67.0289 68.044 68.0369 68.996C69.1009 69.948 70.4169 70.424 71.9849 70.424C73.5529 70.424 74.8689 69.948 75.9329 68.996C76.9969 68.044 77.8369 66.7 78.4529 64.964C79.0689 63.228 79.5169 61.156 79.7969 58.748C80.0769 56.34 80.2169 53.68 80.2169 50.768ZM140.727 50.768C140.727 60.568 138.851 68.1 135.099 73.364C131.403 78.572 126.279 81.176 119.727 81.176C113.175 81.176 108.023 78.572 104.271 73.364C100.575 68.1 98.7271 60.568 98.7271 50.768C98.7271 45.896 99.2031 41.584 100.155 37.832C101.163 34.08 102.591 30.916 104.439 28.34C106.287 25.764 108.499 23.804 111.075 22.46C113.651 21.116 116.535 20.444 119.727 20.444C126.279 20.444 131.403 23.076 135.099 28.34C138.851 33.548 140.727 41.024 140.727 50.768ZM127.959 50.768C127.959 47.856 127.819 45.224 127.539 42.872C127.259 40.464 126.811 38.392 126.195 36.656C125.579 34.92 124.739 33.576 123.675 32.624C122.611 31.672 121.295 31.196 119.727 31.196C118.159 31.196 116.843 31.672 115.779 32.624C114.771 33.576 113.931 34.92 113.259 36.656C112.643 38.392 112.195 40.464 111.915 42.872C111.635 45.224 111.495 47.856 111.495 50.768C111.495 53.68 111.635 56.34 111.915 58.748C112.195 61.156 112.643 63.228 113.259 64.964C113.931 66.7 114.771 68.044 115.779 68.996C116.843 69.948 118.159 70.424 119.727 70.424C121.295 70.424 122.611 69.948 123.675 68.996C124.739 68.044 125.579 66.7 126.195 64.964C126.811 63.228 127.259 61.156 127.539 58.748C127.819 56.34 127.959 53.68 127.959 50.768Z" fill="url(#paint1_linear)"/>
<defs>
<linearGradient id="paint0_linear" x1="143.84" y1="37.275" x2="194.484" y2="82.0133" gradientUnits="userSpaceOnUse">
<stop stop-color="#46B8E9"/>
<stop offset="0.843073" stop-color="#9A64EB"/>
</linearGradient>
<linearGradient id="paint1_linear" x1="-27.72" y1="-26.675" x2="86.4279" y2="155.767" gradientUnits="userSpaceOnUse">
<stop stop-color="#46B8E9"/>
<stop offset="0.843073" stop-color="#9A64EB"/>
</linearGradient>
</defs>
</svg>
