<svg width="124" height="97" viewBox="0 0 124 97" fill="none" xmlns="http://www.w3.org/2000/svg">
<path d="M106.004 68.726H111.682V62.436H116.306V68.726H121.984V72.976H116.306V79.266H111.682V72.976H106.004V68.726Z" fill="#338EF8"/>
<path d="M106.004 68.726H111.682V62.436H116.306V68.726H121.984V72.976H116.306V79.266H111.682V72.976H106.004V68.726Z" fill="url(#paint0_linear)"/>
<path d="M27.0538 37.076C24.8698 39.932 22.5458 43.04 20.0818 46.4C17.6178 49.76 15.5458 53.204 13.8658 56.732H27.0538V37.076ZM39.3178 21.788V56.732H45.5338V66.98H39.3178V80H27.0538V66.98H1.93781V57.824C3.16981 55.36 4.70981 52.588 6.55781 49.508C8.40581 46.372 10.4498 43.18 12.6898 39.932C14.9858 36.628 17.3938 33.408 19.9138 30.272C22.4338 27.136 24.9538 24.308 27.4738 21.788H39.3178ZM92.856 50.768C92.856 60.568 90.98 68.1 87.228 73.364C83.532 78.572 78.408 81.176 71.856 81.176C65.304 81.176 60.152 78.572 56.4 73.364C52.704 68.1 50.856 60.568 50.856 50.768C50.856 45.896 51.332 41.584 52.284 37.832C53.292 34.08 54.72 30.916 56.568 28.34C58.416 25.764 60.628 23.804 63.204 22.46C65.78 21.116 68.664 20.444 71.856 20.444C78.408 20.444 83.532 23.076 87.228 28.34C90.98 33.548 92.856 41.024 92.856 50.768ZM80.088 50.768C80.088 47.856 79.948 45.224 79.668 42.872C79.388 40.464 78.94 38.392 78.324 36.656C77.708 34.92 76.868 33.576 75.804 32.624C74.74 31.672 73.424 31.196 71.856 31.196C70.288 31.196 68.972 31.672 67.908 32.624C66.9 33.576 66.06 34.92 65.388 36.656C64.772 38.392 64.324 40.464 64.044 42.872C63.764 45.224 63.624 47.856 63.624 50.768C63.624 53.68 63.764 56.34 64.044 58.748C64.324 61.156 64.772 63.228 65.388 64.964C66.06 66.7 66.9 68.044 67.908 68.996C68.972 69.948 70.288 70.424 71.856 70.424C73.424 70.424 74.74 69.948 75.804 68.996C76.868 68.044 77.708 66.7 78.324 64.964C78.94 63.228 79.388 61.156 79.668 58.748C79.948 56.34 80.088 53.68 80.088 50.768Z" fill="#338EF8"/>
<path d="M27.0538 37.076C24.8698 39.932 22.5458 43.04 20.0818 46.4C17.6178 49.76 15.5458 53.204 13.8658 56.732H27.0538V37.076ZM39.3178 21.788V56.732H45.5338V66.98H39.3178V80H27.0538V66.98H1.93781V57.824C3.16981 55.36 4.70981 52.588 6.55781 49.508C8.40581 46.372 10.4498 43.18 12.6898 39.932C14.9858 36.628 17.3938 33.408 19.9138 30.272C22.4338 27.136 24.9538 24.308 27.4738 21.788H39.3178ZM92.856 50.768C92.856 60.568 90.98 68.1 87.228 73.364C83.532 78.572 78.408 81.176 71.856 81.176C65.304 81.176 60.152 78.572 56.4 73.364C52.704 68.1 50.856 60.568 50.856 50.768C50.856 45.896 51.332 41.584 52.284 37.832C53.292 34.08 54.72 30.916 56.568 28.34C58.416 25.764 60.628 23.804 63.204 22.46C65.78 21.116 68.664 20.444 71.856 20.444C78.408 20.444 83.532 23.076 87.228 28.34C90.98 33.548 92.856 41.024 92.856 50.768ZM80.088 50.768C80.088 47.856 79.948 45.224 79.668 42.872C79.388 40.464 78.94 38.392 78.324 36.656C77.708 34.92 76.868 33.576 75.804 32.624C74.74 31.672 73.424 31.196 71.856 31.196C70.288 31.196 68.972 31.672 67.908 32.624C66.9 33.576 66.06 34.92 65.388 36.656C64.772 38.392 64.324 40.464 64.044 42.872C63.764 45.224 63.624 47.856 63.624 50.768C63.624 53.68 63.764 56.34 64.044 58.748C64.324 61.156 64.772 63.228 65.388 64.964C66.06 66.7 66.9 68.044 67.908 68.996C68.972 69.948 70.288 70.424 71.856 70.424C73.424 70.424 74.74 69.948 75.804 68.996C76.868 68.044 77.708 66.7 78.324 64.964C78.94 63.228 79.388 61.156 79.668 58.748C79.948 56.34 80.088 53.68 80.088 50.768Z" fill="url(#paint1_linear)"/>
<defs>
<linearGradient id="paint0_linear" x1="100.15" y1="38.275" x2="143.338" y2="62.1199" gradientUnits="userSpaceOnUse">
<stop stop-color="#46B8E9"/>
<stop offset="0.843073" stop-color="#9A64EB"/>
</linearGradient>
<linearGradient id="paint1_linear" x1="-18.48" y1="-26.675" x2="108.195" y2="108.301" gradientUnits="userSpaceOnUse">
<stop stop-color="#46B8E9"/>
<stop offset="0.843073" stop-color="#9A64EB"/>
</linearGradient>
</defs>
</svg>
