<svg width="119" height="97" viewBox="0 0 119 97" fill="none" xmlns="http://www.w3.org/2000/svg">
<path d="M67.2486 59.926C67.1806 61.4447 67.0899 62.9747 66.9766 64.516C66.8859 66.0347 66.7046 67.508 66.4326 68.936C66.1832 70.364 65.8092 71.7013 65.3106 72.948C64.8346 74.1947 64.1659 75.294 63.3046 76.246C62.4659 77.198 61.4119 77.9573 60.1426 78.524C58.8732 79.0907 57.3206 79.408 55.4846 79.476L54.9066 74.852C56.5386 74.6707 57.7966 74.2627 58.6806 73.628C59.5646 72.9707 60.2332 71.9733 60.6866 70.636C61.2532 68.9813 61.6499 66.8507 61.8766 64.244C62.1259 61.6147 62.2506 58.6793 62.2506 55.438H78.3326V79H73.0286V59.926H67.2486ZM82.5847 70.194C82.5847 68.6073 82.8227 67.2247 83.2987 66.046C83.7974 64.8447 84.4434 63.8473 85.2367 63.054C86.03 62.2607 86.9367 61.66 87.9567 61.252C88.9994 60.844 90.0647 60.64 91.1527 60.64C93.6914 60.64 95.6974 61.422 97.1707 62.986C98.644 64.5273 99.3807 66.8053 99.3807 69.82C99.3807 70.1147 99.3694 70.4433 99.3467 70.806C99.324 71.146 99.3014 71.452 99.2787 71.724H87.7867C87.9 72.7667 88.3874 73.594 89.2487 74.206C90.11 74.818 91.266 75.124 92.7167 75.124C93.646 75.124 94.5527 75.0447 95.4367 74.886C96.3434 74.7047 97.08 74.4893 97.6467 74.24L98.3267 78.354C98.0547 78.49 97.692 78.626 97.2387 78.762C96.7854 78.898 96.2754 79.0113 95.7087 79.102C95.1647 79.2153 94.5754 79.306 93.9407 79.374C93.306 79.442 92.6714 79.476 92.0367 79.476C90.4274 79.476 89.022 79.238 87.8207 78.762C86.642 78.286 85.656 77.64 84.8627 76.824C84.092 75.9853 83.514 74.9993 83.1287 73.866C82.766 72.7327 82.5847 71.5087 82.5847 70.194ZM94.4847 68.256C94.462 67.8253 94.3827 67.406 94.2467 66.998C94.1334 66.59 93.9407 66.2273 93.6687 65.91C93.4194 65.5927 93.0907 65.332 92.6827 65.128C92.2974 64.924 91.81 64.822 91.2207 64.822C90.654 64.822 90.1667 64.924 89.7587 65.128C89.3507 65.3093 89.0107 65.5587 88.7387 65.876C88.4667 66.1933 88.2514 66.5673 88.0927 66.998C87.9567 67.406 87.8547 67.8253 87.7867 68.256H94.4847ZM118.08 65.264H112.368V79H107.302V65.264H101.59V61.116H118.08V65.264Z" fill="#338EF8"/>
<path d="M67.2486 59.926C67.1806 61.4447 67.0899 62.9747 66.9766 64.516C66.8859 66.0347 66.7046 67.508 66.4326 68.936C66.1832 70.364 65.8092 71.7013 65.3106 72.948C64.8346 74.1947 64.1659 75.294 63.3046 76.246C62.4659 77.198 61.4119 77.9573 60.1426 78.524C58.8732 79.0907 57.3206 79.408 55.4846 79.476L54.9066 74.852C56.5386 74.6707 57.7966 74.2627 58.6806 73.628C59.5646 72.9707 60.2332 71.9733 60.6866 70.636C61.2532 68.9813 61.6499 66.8507 61.8766 64.244C62.1259 61.6147 62.2506 58.6793 62.2506 55.438H78.3326V79H73.0286V59.926H67.2486ZM82.5847 70.194C82.5847 68.6073 82.8227 67.2247 83.2987 66.046C83.7974 64.8447 84.4434 63.8473 85.2367 63.054C86.03 62.2607 86.9367 61.66 87.9567 61.252C88.9994 60.844 90.0647 60.64 91.1527 60.64C93.6914 60.64 95.6974 61.422 97.1707 62.986C98.644 64.5273 99.3807 66.8053 99.3807 69.82C99.3807 70.1147 99.3694 70.4433 99.3467 70.806C99.324 71.146 99.3014 71.452 99.2787 71.724H87.7867C87.9 72.7667 88.3874 73.594 89.2487 74.206C90.11 74.818 91.266 75.124 92.7167 75.124C93.646 75.124 94.5527 75.0447 95.4367 74.886C96.3434 74.7047 97.08 74.4893 97.6467 74.24L98.3267 78.354C98.0547 78.49 97.692 78.626 97.2387 78.762C96.7854 78.898 96.2754 79.0113 95.7087 79.102C95.1647 79.2153 94.5754 79.306 93.9407 79.374C93.306 79.442 92.6714 79.476 92.0367 79.476C90.4274 79.476 89.022 79.238 87.8207 78.762C86.642 78.286 85.656 77.64 84.8627 76.824C84.092 75.9853 83.514 74.9993 83.1287 73.866C82.766 72.7327 82.5847 71.5087 82.5847 70.194ZM94.4847 68.256C94.462 67.8253 94.3827 67.406 94.2467 66.998C94.1334 66.59 93.9407 66.2273 93.6687 65.91C93.4194 65.5927 93.0907 65.332 92.6827 65.128C92.2974 64.924 91.81 64.822 91.2207 64.822C90.654 64.822 90.1667 64.924 89.7587 65.128C89.3507 65.3093 89.0107 65.5587 88.7387 65.876C88.4667 66.1933 88.2514 66.5673 88.0927 66.998C87.9567 67.406 87.8547 67.8253 87.7867 68.256H94.4847ZM118.08 65.264H112.368V79H107.302V65.264H101.59V61.116H118.08V65.264Z" fill="url(#paint0_linear)"/>
<path d="M44.6489 63.788C44.6489 66.308 44.2009 68.632 43.3049 70.76C42.4649 72.832 41.1769 74.652 39.4409 76.22C37.7049 77.788 35.5209 79.02 32.8889 79.916C30.3129 80.756 27.3169 81.176 23.9009 81.176C19.9809 81.176 16.7049 80.644 14.0729 79.58C11.4969 78.46 9.39691 77.088 7.77291 75.464C6.20491 73.84 5.08491 72.076 4.41291 70.172C3.74091 68.212 3.40491 66.42 3.40491 64.796C3.40491 63.116 3.62891 61.576 4.07691 60.176C4.52491 58.776 5.14091 57.516 5.92491 56.396C6.70891 55.22 7.57691 54.156 8.52891 53.204C9.53691 52.252 10.6009 51.356 11.7209 50.516C9.31291 48.556 7.52091 46.624 6.34491 44.72C5.22491 42.816 4.66491 40.38 4.66491 37.412C4.66491 35.172 5.11291 33.016 6.00891 30.944C6.96091 28.872 8.27691 27.08 9.95691 25.568C11.6369 24 13.6529 22.768 16.0049 21.872C18.4129 20.92 21.0729 20.444 23.9849 20.444C27.4009 20.444 30.3129 20.948 32.7209 21.956C35.1849 22.908 37.2009 24.14 38.7689 25.652C40.3369 27.164 41.4569 28.872 42.1289 30.776C42.8569 32.624 43.2209 34.472 43.2209 36.32C43.2209 39.008 42.4929 41.528 41.0369 43.88C39.6369 46.176 37.8729 47.996 35.7449 49.34C38.9369 51.412 41.2049 53.596 42.5489 55.892C43.9489 58.132 44.6489 60.764 44.6489 63.788ZM15.5849 64.292C15.5849 64.964 15.7249 65.72 16.0049 66.56C16.3409 67.344 16.8449 68.072 17.5169 68.744C18.1889 69.416 19.0569 69.976 20.1209 70.424C21.1849 70.872 22.4729 71.096 23.9849 71.096C26.8969 71.096 29.0249 70.396 30.3689 68.996C31.7129 67.596 32.3849 66.028 32.3849 64.292C32.3849 63.004 32.0769 61.856 31.4609 60.848C30.9009 59.84 30.1169 58.972 29.1089 58.244C28.1009 57.46 26.8969 56.788 25.4969 56.228C24.1529 55.612 22.6969 55.052 21.1289 54.548C19.5609 55.724 18.2449 57.096 17.1809 58.664C16.1169 60.232 15.5849 62.108 15.5849 64.292ZM31.1249 36.656C31.1249 36.04 30.9849 35.396 30.7049 34.724C30.4809 33.996 30.0609 33.324 29.4449 32.708C28.8849 32.092 28.1569 31.588 27.2609 31.196C26.3649 30.748 25.2729 30.524 23.9849 30.524C22.7529 30.524 21.6889 30.72 20.7929 31.112C19.8969 31.504 19.1409 32.036 18.5249 32.708C17.9649 33.324 17.5449 33.996 17.2649 34.724C16.9849 35.452 16.8449 36.152 16.8449 36.824C16.8449 38.616 17.4889 40.296 18.7769 41.864C20.1209 43.432 22.3889 44.776 25.5809 45.896C27.3729 44.776 28.7449 43.488 29.6969 42.032C30.6489 40.576 31.1249 38.784 31.1249 36.656Z" fill="#338EF8"/>
<path d="M44.6489 63.788C44.6489 66.308 44.2009 68.632 43.3049 70.76C42.4649 72.832 41.1769 74.652 39.4409 76.22C37.7049 77.788 35.5209 79.02 32.8889 79.916C30.3129 80.756 27.3169 81.176 23.9009 81.176C19.9809 81.176 16.7049 80.644 14.0729 79.58C11.4969 78.46 9.39691 77.088 7.77291 75.464C6.20491 73.84 5.08491 72.076 4.41291 70.172C3.74091 68.212 3.40491 66.42 3.40491 64.796C3.40491 63.116 3.62891 61.576 4.07691 60.176C4.52491 58.776 5.14091 57.516 5.92491 56.396C6.70891 55.22 7.57691 54.156 8.52891 53.204C9.53691 52.252 10.6009 51.356 11.7209 50.516C9.31291 48.556 7.52091 46.624 6.34491 44.72C5.22491 42.816 4.66491 40.38 4.66491 37.412C4.66491 35.172 5.11291 33.016 6.00891 30.944C6.96091 28.872 8.27691 27.08 9.95691 25.568C11.6369 24 13.6529 22.768 16.0049 21.872C18.4129 20.92 21.0729 20.444 23.9849 20.444C27.4009 20.444 30.3129 20.948 32.7209 21.956C35.1849 22.908 37.2009 24.14 38.7689 25.652C40.3369 27.164 41.4569 28.872 42.1289 30.776C42.8569 32.624 43.2209 34.472 43.2209 36.32C43.2209 39.008 42.4929 41.528 41.0369 43.88C39.6369 46.176 37.8729 47.996 35.7449 49.34C38.9369 51.412 41.2049 53.596 42.5489 55.892C43.9489 58.132 44.6489 60.764 44.6489 63.788ZM15.5849 64.292C15.5849 64.964 15.7249 65.72 16.0049 66.56C16.3409 67.344 16.8449 68.072 17.5169 68.744C18.1889 69.416 19.0569 69.976 20.1209 70.424C21.1849 70.872 22.4729 71.096 23.9849 71.096C26.8969 71.096 29.0249 70.396 30.3689 68.996C31.7129 67.596 32.3849 66.028 32.3849 64.292C32.3849 63.004 32.0769 61.856 31.4609 60.848C30.9009 59.84 30.1169 58.972 29.1089 58.244C28.1009 57.46 26.8969 56.788 25.4969 56.228C24.1529 55.612 22.6969 55.052 21.1289 54.548C19.5609 55.724 18.2449 57.096 17.1809 58.664C16.1169 60.232 15.5849 62.108 15.5849 64.292ZM31.1249 36.656C31.1249 36.04 30.9849 35.396 30.7049 34.724C30.4809 33.996 30.0609 33.324 29.4449 32.708C28.8849 32.092 28.1569 31.588 27.2609 31.196C26.3649 30.748 25.2729 30.524 23.9849 30.524C22.7529 30.524 21.6889 30.72 20.7929 31.112C19.8969 31.504 19.1409 32.036 18.5249 32.708C17.9649 33.324 17.5449 33.996 17.2649 34.724C16.9849 35.452 16.8449 36.152 16.8449 36.824C16.8449 38.616 17.4889 40.296 18.7769 41.864C20.1209 43.432 22.3889 44.776 25.5809 45.896C27.3729 44.776 28.7449 43.488 29.6969 42.032C30.6489 40.576 31.1249 38.784 31.1249 36.656Z" fill="url(#paint1_linear)"/>
<defs>
<linearGradient id="paint0_linear" x1="41.4875" y1="36.275" x2="84.8896" y2="114.155" gradientUnits="userSpaceOnUse">
<stop stop-color="#46B8E9"/>
<stop offset="0.843073" stop-color="#9A64EB"/>
</linearGradient>
<linearGradient id="paint1_linear" x1="-9.24" y1="-26.675" x2="96.1065" y2="29.4499" gradientUnits="userSpaceOnUse">
<stop stop-color="#46B8E9"/>
<stop offset="0.843073" stop-color="#9A64EB"/>
</linearGradient>
</defs>
</svg>
