<svg width="139" height="665" viewBox="0 0 139 665" fill="none" xmlns="http://www.w3.org/2000/svg">
<path fill-rule="evenodd" clip-rule="evenodd" d="M68.9706 269.512C48.2079 213.54 -35.5638 221.611 -89.1872 195.418C-131.606 174.698 -166.008 142.607 -212.057 132.239C-270.198 119.148 -336.879 95.3736 -386.412 128.498C-436.053 161.694 -432.624 234.194 -449.995 291.354C-467.367 348.515 -507.646 405.711 -487.788 462.071C-467.947 518.382 -407.201 550.088 -351.387 571.222C-304.193 589.091 -253.897 575.06 -203.739 569.624C-158.833 564.758 -111.494 567.343 -74.6377 541.229C-37.1799 514.688 -24.5651 468.066 -3.10821 427.468C24.6125 375.018 89.6104 325.152 68.9706 269.512Z" fill="#46B8E9" fill-opacity="0.4"/>
<path fill-rule="evenodd" clip-rule="evenodd" d="M25.6879 265.696C7.53642 216.763 -65.6997 223.82 -112.579 200.92C-149.663 182.806 -179.739 154.751 -219.996 145.687C-270.825 134.243 -329.12 113.458 -372.424 142.416C-415.822 171.437 -412.824 234.82 -428.011 284.791C-443.198 334.764 -478.411 384.766 -461.05 434.038C-443.705 483.267 -390.598 510.985 -341.803 529.461C-300.545 545.084 -256.575 532.817 -212.725 528.065C-173.466 523.81 -132.08 526.07 -99.8595 503.24C-67.1126 480.038 -56.0842 439.279 -37.3259 403.787C-13.0915 357.933 43.732 314.339 25.6879 265.696Z" fill="#C4C4C4"/>
<path fill-rule="evenodd" clip-rule="evenodd" d="M25.6879 265.696C7.53642 216.763 -65.6997 223.82 -112.579 200.92C-149.663 182.806 -179.739 154.751 -219.996 145.687C-270.825 134.243 -329.12 113.458 -372.424 142.416C-415.822 171.437 -412.824 234.82 -428.011 284.791C-443.198 334.764 -478.411 384.766 -461.05 434.038C-443.705 483.267 -390.598 510.985 -341.803 529.461C-300.545 545.084 -256.575 532.817 -212.725 528.065C-173.466 523.81 -132.08 526.07 -99.8595 503.24C-67.1126 480.038 -56.0842 439.279 -37.3259 403.787C-13.0915 357.933 43.732 314.339 25.6879 265.696Z" fill="url(#paint0_linear)"/>
<defs>
<linearGradient id="paint0_linear" x1="184.787" y1="435.825" x2="-374.792" y2="258.83" gradientUnits="userSpaceOnUse">
<stop stop-color="#46B8E9"/>
<stop offset="0.82806" stop-color="#9A64EB"/>
</linearGradient>
</defs>
</svg>
