<svg width="296" height="725" viewBox="0 0 296 725" fill="none" xmlns="http://www.w3.org/2000/svg">
<path fill-rule="evenodd" clip-rule="evenodd" d="M219.141 294.047C196.488 232.98 105.091 241.786 46.5855 213.209C0.305525 190.602 -37.2291 155.59 -87.4698 144.278C-150.903 129.996 -223.655 104.057 -277.697 140.196C-331.857 176.414 -328.116 255.515 -347.069 317.878C-366.022 380.243 -409.967 442.645 -388.302 504.136C-366.655 565.574 -300.378 600.166 -239.483 623.223C-187.993 642.72 -133.119 627.411 -78.3948 621.481C-29.4008 616.171 22.2484 618.991 62.4595 590.5C103.327 561.543 117.091 510.677 140.501 466.383C170.745 409.159 241.66 354.753 219.141 294.047Z" fill="#46B8E9" fill-opacity="0.4"/>
<path fill-rule="evenodd" clip-rule="evenodd" d="M171.917 289.883C152.113 236.496 72.2103 244.195 21.0631 219.211C-19.3965 199.448 -52.2106 168.839 -96.1329 158.949C-151.589 146.464 -215.191 123.787 -262.436 155.381C-309.785 187.044 -306.514 256.197 -323.083 310.717C-339.653 365.239 -378.072 419.793 -359.131 473.55C-340.206 527.261 -282.265 557.503 -229.028 577.661C-184.014 594.705 -136.041 581.322 -88.1991 576.137C-45.3669 571.495 -0.213271 573.961 34.9407 549.053C70.6688 523.738 82.7011 479.268 103.167 440.545C129.608 390.518 191.604 342.954 171.917 289.883Z" fill="#C4C4C4"/>
<path fill-rule="evenodd" clip-rule="evenodd" d="M171.917 289.883C152.113 236.496 72.2103 244.195 21.0631 219.211C-19.3965 199.448 -52.2106 168.839 -96.1329 158.949C-151.589 146.464 -215.191 123.787 -262.436 155.381C-309.785 187.044 -306.514 256.197 -323.083 310.717C-339.653 365.239 -378.072 419.793 -359.131 473.55C-340.206 527.261 -282.265 557.503 -229.028 577.661C-184.014 594.705 -136.041 581.322 -88.1991 576.137C-45.3669 571.495 -0.213271 573.961 34.9407 549.053C70.6688 523.738 82.7011 479.268 103.167 440.545C129.608 390.518 191.604 342.954 171.917 289.883Z" fill="url(#paint0_linear)"/>
<defs>
<linearGradient id="paint0_linear" x1="345.5" y1="475.5" x2="-265.02" y2="282.393" gradientUnits="userSpaceOnUse">
<stop stop-color="#46B8E9"/>
<stop offset="0.82806" stop-color="#9A64EB"/>
</linearGradient>
</defs>
</svg>
