<svg width="119" height="119" viewBox="0 0 119 119" fill="none" xmlns="http://www.w3.org/2000/svg">
<g clip-path="url(#clip0)">
<path d="M58.5709 42.7729C41.1901 42.7729 27.8942 45.579 27.8942 80.8866C27.8942 119 42.1105 119 58.5709 119H60.0687C60.0834 119 60.0962 119 60.1106 119C67.5419 119 75.2237 118.991 80.7251 113.896C86.5405 108.513 89.2476 98.0243 89.2476 80.8866C89.2476 45.579 75.9517 42.7729 58.5709 42.7729ZM79.4629 112.531C74.4936 117.132 67.184 117.141 60.1103 117.141C60.0975 117.141 60.0813 117.141 60.0685 117.141H58.5706C42.4697 117.141 29.753 117.141 29.753 80.8866C29.753 44.6322 44.4033 44.6322 58.5706 44.6322C72.7377 44.6322 87.388 44.6322 87.3883 80.8866C87.3883 97.4704 84.8702 107.525 79.4629 112.531Z" fill="white"/>
<path d="M51.3408 46.5892C50.9777 46.2261 50.3894 46.2261 50.0263 46.5892L32.5821 64.032C32.219 64.3951 32.219 64.9834 32.5821 65.3465C32.7636 65.528 33.0014 65.6189 33.2392 65.6189C33.4772 65.6189 33.715 65.5283 33.8963 65.3465L51.3408 47.9036C51.7039 47.5406 51.7039 46.9522 51.3408 46.5892Z" fill="white"/>
<path d="M67.1186 46.5876C66.7555 46.2245 66.1672 46.2245 65.8041 46.5876L31.8847 80.5052C31.5216 80.8683 31.5216 81.4566 31.8847 81.8197C32.0662 82.0012 32.3042 82.0921 32.542 82.0921C32.7798 82.0921 33.0176 82.0014 33.1994 81.8197L67.1186 47.902C67.4817 47.539 67.4817 46.9507 67.1186 46.5876Z" fill="white"/>
<path d="M76.8903 52.5936C76.5272 52.2305 75.9389 52.2305 75.5758 52.5936L33.39 94.7796C33.027 95.1424 33.027 95.7307 33.39 96.0938C33.5718 96.2753 33.8096 96.3662 34.0474 96.3662C34.2852 96.3662 34.5229 96.2756 34.7045 96.0938L76.8903 53.908C77.2534 53.5449 77.2534 52.9566 76.8903 52.5936Z" fill="white"/>
<path d="M82.8926 62.3636C82.5295 62.0005 81.9412 62.0005 81.5781 62.3636L37.9579 105.985C37.5948 106.348 37.5948 106.937 37.9579 107.3C38.1394 107.481 38.3775 107.572 38.6153 107.572C38.853 107.572 39.0911 107.482 39.2724 107.3L82.8926 63.6778C83.2556 63.315 83.2556 62.7267 82.8926 62.3636Z" fill="white"/>
<path d="M85.0026 76.0332C84.6396 75.6701 84.051 75.6701 83.688 76.0332L47.1849 112.533C46.8218 112.896 46.8218 113.484 47.1849 113.847C47.3664 114.029 47.6042 114.119 47.842 114.119C48.0798 114.119 48.3178 114.029 48.4993 113.847L85.0024 77.3479C85.3657 76.9848 85.3657 76.3962 85.0026 76.0332Z" fill="white"/>
<path d="M85.0384 91.7693C84.6756 91.4062 84.087 91.4062 83.724 91.7693L61.7987 113.695C61.4356 114.058 61.4356 114.646 61.7987 115.009C61.9802 115.191 62.2183 115.281 62.456 115.281C62.6936 115.281 62.9316 115.191 63.1132 115.009L85.0384 93.0837C85.4015 92.7206 85.4015 92.1323 85.0384 91.7693Z" fill="white"/>
<path d="M84.5521 64.0211L67.2711 46.74C66.908 46.377 66.3197 46.377 65.9566 46.74C65.5935 47.1031 65.5935 47.6914 65.9566 48.0545L83.2377 65.3356C83.4192 65.5171 83.657 65.608 83.8948 65.608C84.1328 65.608 84.3706 65.5174 84.5521 65.3356C84.9152 64.9728 84.9152 64.3842 84.5521 64.0211Z" fill="white"/>
<path d="M85.1187 80.3673L51.341 46.5894C50.9779 46.2263 50.3896 46.2263 50.0265 46.5894C49.6634 46.9525 49.6634 47.5408 50.0265 47.9038L83.8042 81.6818C83.9857 81.8633 84.2238 81.9542 84.4615 81.9542C84.6993 81.9542 84.9373 81.8633 85.1187 81.6818C85.4817 81.3187 85.4817 80.7304 85.1187 80.3673Z" fill="white"/>
<path d="M82.8926 93.9172L41.4966 52.5211C41.1336 52.158 40.5453 52.158 40.1822 52.5211C39.8191 52.8841 39.8191 53.4724 40.1822 53.8355L81.5784 95.2317C81.7599 95.4132 81.9979 95.5041 82.2357 95.5041C82.4735 95.5041 82.7111 95.4132 82.8926 95.2317C83.2557 94.8689 83.2557 94.2803 82.8926 93.9172Z" fill="white"/>
<path d="M79.3158 106.116L35.5648 62.3638C35.2017 62.0008 34.6134 62.0008 34.2503 62.3638C33.8872 62.7267 33.8872 63.315 34.2503 63.678L78.0014 107.431C78.1829 107.612 78.4209 107.703 78.6585 107.703C78.8963 107.703 79.1343 107.612 79.3158 107.431C79.6791 107.068 79.6791 106.479 79.3158 106.116Z" fill="white"/>
<path d="M70.013 112.587L33.457 76.0332C33.0939 75.6701 32.5056 75.6701 32.1425 76.0332C31.7794 76.3962 31.7794 76.9848 32.1425 77.3479L68.6981 113.902C68.8796 114.083 69.1176 114.174 69.3554 114.174C69.5934 114.174 69.8312 114.083 70.013 113.902C70.3761 113.539 70.3761 112.95 70.013 112.587Z" fill="white"/>
<path d="M55.3422 113.695L33.4279 91.7783C33.0648 91.4153 32.4765 91.4153 32.1134 91.7783C31.7504 92.1414 31.7504 92.7297 32.1134 93.0928L54.0278 115.009C54.2093 115.191 54.4473 115.281 54.6851 115.281C54.9231 115.281 55.1609 115.191 55.3422 115.009C55.7055 114.646 55.7055 114.058 55.3422 113.695Z" fill="white"/>
<path d="M91.1066 27.8997C74.2269 27.8997 69.9549 39.1882 69.7805 39.6685C69.6078 40.1503 69.8568 40.6805 70.3377 40.8567C70.443 40.8948 70.5502 40.913 70.6555 40.913C71.035 40.913 71.3907 40.6787 71.5287 40.3033C71.6868 39.8721 75.5851 29.759 91.1066 29.759C91.6205 29.759 92.0363 29.3432 92.0363 28.8295C92.0363 28.3156 91.6205 27.8997 91.1066 27.8997Z" fill="white"/>
<path d="M91.9873 28.5338C91.8255 28.0471 91.299 27.7867 90.8125 27.9473C90.3348 28.1063 79.1035 31.9753 77.1754 43.55C77.0901 44.0567 77.4332 44.5351 77.9397 44.6194C77.9906 44.6285 78.0431 44.6322 78.094 44.6322C78.5387 44.6322 78.9329 44.3098 79.0091 43.8549C80.7506 33.4034 91.2955 29.7457 91.4008 29.7104C91.8873 29.5468 92.1507 29.0203 91.9873 28.5338Z" fill="white"/>
<path d="M59.9308 28.0057C59.6674 27.8669 59.3513 27.866 59.0845 27.9976C58.7595 28.16 51.134 32.0637 51.134 39.9843C51.134 40.498 51.5496 40.9139 52.0636 40.9139C52.5773 40.9139 52.9931 40.498 52.9931 39.9843C52.9931 34.2168 57.9862 30.799 59.4931 29.8994C61 30.8264 66.0075 34.3304 66.0075 39.9843C66.0075 40.498 66.4231 40.9139 66.937 40.9139C67.451 40.9139 67.8666 40.4978 67.8668 39.9843C67.8668 32.2499 60.2555 28.1754 59.9308 28.0057Z" fill="white"/>
<path d="M60.0686 16.9385C59.7365 16.6816 59.2769 16.6788 58.9429 16.9303C58.6235 17.169 51.134 22.8764 51.134 30.6881C51.134 31.202 51.5496 31.6178 52.0636 31.6178C52.5773 31.6178 52.9931 31.202 52.9931 30.6881C52.9931 24.9807 57.8153 20.3282 59.4931 18.8831C61.1669 20.36 66.0075 25.1116 66.0075 30.6881C66.0075 31.202 66.4231 31.6178 66.937 31.6178C67.451 31.6178 67.8666 31.202 67.8666 30.6881C67.8666 23.0589 60.3861 17.1846 60.0686 16.9385Z" fill="white"/>
<path d="M60.2536 0.396546C60.0777 0.15411 59.8271 -0.0518333 59.5003 0.0116232C59.2044 0.0116232 58.9266 0.15225 58.7523 0.390038C58.4401 0.812151 51.134 10.829 51.134 19.533C51.134 20.0469 51.5496 20.4627 52.0636 20.4627C52.5773 20.4627 52.9931 20.0469 52.9931 19.533C52.9931 13.0286 57.6357 5.38497 59.4931 2.588C61.3484 5.41844 66.0075 13.1664 66.0075 19.533C66.0075 20.0469 66.4231 20.4627 66.937 20.4627C67.451 20.4627 67.8666 20.0469 67.8666 19.5332C67.8666 11.0307 60.5642 0.826795 60.2536 0.396546Z" fill="white"/>
<path d="M90.1695 17.5587C90.1058 17.0475 89.6231 16.6954 89.131 16.7516C73.8526 18.6616 69.933 29.9157 69.773 30.3941C69.6113 30.8817 69.8746 31.4082 70.3611 31.5698C70.4592 31.6025 70.5573 31.6179 70.6554 31.6179C71.044 31.6179 71.4071 31.372 71.5377 30.9824C71.5721 30.8762 75.2342 20.3628 89.3634 18.5963C89.872 18.5326 90.233 18.0677 90.1695 17.5587Z" fill="white"/>
<path d="M90.1368 17.4111C89.9915 16.9206 89.4834 16.6356 88.9857 16.7818C88.7096 16.8634 82.1645 18.858 79.087 26.6278C78.898 27.1052 79.1323 27.6454 79.6081 27.8342C79.7208 27.8786 79.8371 27.8995 79.9514 27.8995C80.3217 27.8995 80.6704 27.6771 80.8156 27.3126C83.5461 20.4177 89.4506 18.583 89.5106 18.5658C90.0024 18.4187 90.282 17.9022 90.1368 17.4111Z" fill="white"/>
<path d="M86.1025 8.08293C85.9754 7.70707 85.6251 7.45208 85.2274 7.44836C85.2165 7.46301 73.6618 7.47835 69.773 19.2417C69.6115 19.7292 69.8765 20.255 70.363 20.4156C70.4611 20.4483 70.5592 20.4628 70.6554 20.4628C71.0459 20.4628 71.4087 20.2159 71.5377 19.8245C73.8145 12.9377 78.8548 10.5594 82.1429 9.73861C77.1898 14.2959 77.1482 17.338 77.1626 17.713C77.1844 18.2185 77.6872 18.5997 78.1103 18.5925C78.6149 18.5825 79.0198 18.1604 79.0217 17.6549C79.0217 17.6212 79.1072 14.2296 85.785 9.1159C86.1007 8.87462 86.2278 8.45972 86.1025 8.08293Z" fill="white"/>
<path d="M49.2186 39.6682C49.0462 39.188 44.7757 27.8994 27.8942 27.8994C27.3803 27.8994 26.9644 28.3153 26.9644 28.8292C26.9644 29.3429 27.3805 29.7587 27.8942 29.7587C43.4178 29.7587 47.314 39.8718 47.4721 40.3021C47.6099 40.6786 47.9658 40.9129 48.3453 40.9129C48.4506 40.9129 48.5578 40.8948 48.6631 40.8564C49.1442 40.6812 49.393 40.1503 49.2186 39.6682Z" fill="white"/>
<path d="M41.8253 43.5502C39.8953 31.9756 28.664 28.1064 28.1882 27.9476C27.6942 27.7861 27.175 28.0483 27.0116 28.535C26.8498 29.0226 27.1131 29.5491 27.5999 29.7107C27.7052 29.746 38.2448 33.3737 39.9916 43.8552C40.0659 44.3099 40.4599 44.6323 40.9067 44.6323C40.9576 44.6323 41.0083 44.6285 41.061 44.6197C41.5675 44.5351 41.9085 44.0567 41.8253 43.5502Z" fill="white"/>
<path d="M49.2255 30.394C49.0677 29.9156 45.1478 18.6615 29.8676 16.7516C29.359 16.6916 28.8943 17.0493 28.8309 17.5586C28.7674 18.0679 29.1286 18.5328 29.637 18.5962C43.7134 20.3556 47.3174 30.5511 47.4627 30.9842C47.5952 31.3719 47.9564 31.6169 48.345 31.6169C48.4431 31.6169 48.5428 31.6015 48.6409 31.5688C49.1256 31.4054 49.3889 30.8805 49.2255 30.394Z" fill="white"/>
<path d="M39.9136 26.6273C36.8361 18.8575 30.2908 16.8629 30.0149 16.7813C29.5228 16.637 29.0072 16.9194 28.862 17.4105C28.7167 17.9017 28.9979 18.4182 29.49 18.5653C29.5481 18.5825 35.4542 20.4172 38.1849 27.3121C38.3284 27.677 38.6789 27.8994 39.0492 27.8994C39.1635 27.8994 39.2779 27.8785 39.3906 27.8337C39.8683 27.6449 40.1021 27.1047 39.9136 26.6273Z" fill="white"/>
<path d="M49.2273 19.2417C45.3384 7.4783 33.9545 7.44018 33.7749 7.44831C33.379 7.45203 33.0269 7.70702 32.9016 8.08288C32.7763 8.45943 32.9034 8.87434 33.2175 9.11585C39.8265 14.1787 39.9771 17.5539 39.979 17.653C39.968 18.1576 40.362 18.5816 40.8685 18.6025C41.3769 18.6406 41.8143 18.2257 41.8362 17.7129C41.8527 17.3387 41.8108 14.3121 36.8996 9.77668C40.193 10.63 45.2187 13.0385 47.4629 19.8244C47.5917 20.2159 47.9547 20.4627 48.3452 20.4627C48.4415 20.4627 48.5396 20.4481 48.6356 20.4155C49.1239 20.2547 49.3889 19.7291 49.2273 19.2417Z" fill="white"/>
</g>
<defs>
<clipPath id="clip0">
<rect width="119" height="119" fill="white"/>
</clipPath>
</defs>
</svg>
