<svg width="24" height="24" viewBox="0 0 24 24" fill="none" xmlns="http://www.w3.org/2000/svg">
<g clip-path="url(#clip0)">
<path d="M9.46202 9.30615L8.77002 11.2572H10.153L9.46202 9.30615Z" fill="#3B3B3B"/>
<path d="M12 1C5.373 1 0 5.208 0 10.399C0 13.755 2.246 16.7 5.625 18.362C4.326 22.812 4.292 22.832 4.512 22.961C4.788 23.122 5.146 22.956 9.869 19.65C10.561 19.747 11.273 19.798 12 19.798C18.627 19.798 24 15.59 24 10.399C24 5.208 18.627 1 12 1ZM6.058 13.023C6.058 13.385 5.747 13.68 5.366 13.68C4.985 13.68 4.674 13.385 4.674 13.023V8.937H3.594C3.219 8.937 2.915 8.635 2.915 8.264C2.915 7.893 3.218 7.59 3.593 7.59H7.138C7.513 7.59 7.817 7.892 7.817 8.263C7.817 8.634 7.512 8.937 7.138 8.937H6.058V13.023ZM11.436 13.671C10.716 13.671 10.849 13.106 10.517 12.476H8.406C8.077 13.101 8.206 13.671 7.487 13.671C6.794 13.672 6.672 13.25 6.883 12.6L8.539 8.27C8.656 7.94 9.01 7.601 9.461 7.591C9.913 7.601 10.268 7.94 10.384 8.27C11.477 11.66 13.038 13.672 11.436 13.671ZM15.375 13.579H13.154C11.995 13.579 12.7 12.014 12.491 8.278C12.491 7.899 12.808 7.59 13.198 7.59C13.588 7.59 13.905 7.898 13.905 8.278V12.318H15.376C15.742 12.318 16.039 12.601 16.039 12.948C16.038 13.296 15.741 13.579 15.375 13.579ZM20.794 13.061C20.769 13.242 20.672 13.405 20.525 13.515C19.57 14.236 18.864 12.134 17.932 11.244L17.692 11.483V12.983C17.692 13.363 17.382 13.671 16.999 13.671C16.617 13.671 16.307 13.363 16.307 12.983V8.278C16.307 7.899 16.617 7.59 16.999 7.59C17.381 7.59 17.691 7.898 17.691 8.278V9.756C18.968 8.798 19.676 7.086 20.483 7.887C21.275 8.673 19.635 9.361 18.956 10.309C20.56 12.521 20.865 12.576 20.794 13.061Z" fill="#3B3B3B"/>
</g>
<defs>
<clipPath id="clip0">
<rect width="24" height="24" fill="white"/>
</clipPath>
</defs>
</svg>
