<svg width="53" height="53" viewBox="0 0 53 53" fill="none" xmlns="http://www.w3.org/2000/svg">
<path d="M26.5 53C41.1355 53 53 41.1355 53 26.5C53 11.8645 41.1355 0 26.5 0C11.8645 0 0 11.8645 0 26.5C0 41.1355 11.8645 53 26.5 53Z" fill="#D80027"/>
<path d="M39.46 26.5002L34.1646 28.991L36.9845 34.1198L31.2339 33.0196L30.5056 38.8285L26.5 34.5564L22.4948 38.8285L21.7662 33.0196L16.0161 34.1196L18.8358 28.9907L13.5403 26.5002L18.8358 24.0095L16.0161 18.8805L21.766 19.9809L22.495 14.1719L26.5 18.4441L30.5058 14.1719L31.2339 19.9809L36.9847 18.8805L34.1647 24.0098L39.46 26.5002Z" fill="#FFDA44"/>
<path d="M26.5 34.5655C30.9543 34.5655 34.5652 30.9546 34.5652 26.5003C34.5652 22.046 30.9543 18.4351 26.5 18.4351C22.0457 18.4351 18.4348 22.046 18.4348 26.5003C18.4348 30.9546 22.0457 34.5655 26.5 34.5655Z" fill="#D80027"/>
<path d="M22.4675 26.5C22.2732 26.5 22.0814 26.5099 21.8921 26.5288C21.899 27.6458 22.3032 28.6682 22.9706 29.4625C23.3267 28.5043 23.8584 27.6305 24.5288 26.8827C23.8885 26.6364 23.1938 26.5 22.4675 26.5Z" fill="#FFDA44"/>
<path d="M24.95 30.8406C25.4344 31.0136 25.956 31.1086 26.5001 31.1086C27.0442 31.1086 27.5658 31.0136 28.0502 30.8406C27.7862 29.8042 27.241 28.8789 26.5001 28.1519C25.7592 28.8788 25.214 29.8042 24.95 30.8406Z" fill="#FFDA44"/>
<path d="M30.4914 24.1962C29.6945 22.8188 28.2063 21.8911 26.5003 21.8911C24.7944 21.8911 23.3061 22.8187 22.5093 24.1962C23.962 24.2035 25.3243 24.5986 26.5003 25.2806C27.6764 24.5986 29.0384 24.2035 30.4914 24.1962Z" fill="#FFDA44"/>
<path d="M28.4712 26.8827C29.1417 27.6304 29.6733 28.5042 30.0294 29.4625C30.6969 28.6682 31.101 27.6458 31.1079 26.5288C30.9185 26.5098 30.7267 26.5 30.5325 26.5C29.8064 26.4999 29.1117 26.6363 28.4712 26.8827Z" fill="#FFDA44"/>
</svg>
