<svg width="53" height="53" viewBox="0 0 53 53" fill="none" xmlns="http://www.w3.org/2000/svg">
<path d="M26.5 53C41.1355 53 53 41.1355 53 26.5C53 11.8645 41.1355 0 26.5 0C11.8645 0 0 11.8645 0 26.5C0 41.1355 11.8645 53 26.5 53Z" fill="#F0F0F0"/>
<path d="M35.7174 26.5001C35.7174 28.8044 31.5906 34.5653 26.5001 34.5653C21.4095 34.5653 17.2827 28.8044 17.2827 26.5001C17.2827 21.4094 21.4095 17.2827 26.5001 17.2827C31.5906 17.2827 35.7174 21.4094 35.7174 26.5001Z" fill="#D80027"/>
<path d="M35.7174 26.5C35.7174 31.5907 31.5906 35.7173 26.5001 35.7173C21.4095 35.7173 17.2827 31.5907 17.2827 26.5" fill="#0052B4"/>
<path d="M38.7204 32.2034L36.2764 34.6475L37.9058 36.2769L40.3499 33.8328L38.7204 32.2034Z" fill="black"/>
<path d="M34.6462 36.2766L32.2021 38.7207L33.8316 40.3501L36.2756 37.906L34.6462 36.2766Z" fill="black"/>
<path d="M43.6091 37.0901L41.165 39.5342L42.7945 41.1636L45.2385 38.7195L43.6091 37.0901Z" fill="black"/>
<path d="M39.5354 41.1648L37.0913 43.6089L38.7207 45.2383L41.1648 42.7942L39.5354 41.1648Z" fill="black"/>
<path d="M41.1648 34.6467L38.7207 37.0908L40.3501 38.7202L42.7942 36.2761L41.1648 34.6467Z" fill="black"/>
<path d="M37.0915 38.7205L34.6475 41.1646L36.2769 42.794L38.721 40.3499L37.0915 38.7205Z" fill="black"/>
<path d="M34.6484 11.8345L41.166 18.3521L42.7954 16.7226L36.2779 10.2051L34.6484 11.8345Z" fill="black"/>
<path d="M32.2039 14.2795L34.6479 16.7236L36.2773 15.0943L33.8332 12.6502L32.2039 14.2795Z" fill="black"/>
<path d="M36.2771 18.3528L38.7212 20.7969L40.3505 19.1675L37.9065 16.7235L36.2771 18.3528Z" fill="black"/>
<path d="M37.0901 9.39137L39.5342 11.8354L41.1636 10.206L38.7195 7.76195L37.0901 9.39137Z" fill="black"/>
<path d="M41.1653 13.4651L43.6094 15.9092L45.2388 14.2798L42.7947 11.8357L41.1653 13.4651Z" fill="black"/>
<path d="M15.9087 43.6094L9.39111 37.0918L7.7617 38.7212L14.2793 45.2388L15.9087 43.6094Z" fill="black"/>
<path d="M18.3523 41.1643L15.9082 38.7202L14.2789 40.3496L16.7229 42.7936L18.3523 41.1643Z" fill="black"/>
<path d="M14.279 37.0911L11.835 34.647L10.2055 36.2764L12.6496 38.7205L14.279 37.0911Z" fill="black"/>
<path d="M20.7969 38.7202L14.2793 32.2026L12.6499 33.832L19.1675 40.3496L20.7969 38.7202Z" fill="black"/>
<path d="M9.39111 15.9087L15.9087 9.39111L14.2793 7.7617L7.76169 14.2793L9.39111 15.9087Z" fill="black"/>
<path d="M11.8345 18.3521L18.3521 11.8345L16.7226 10.2051L10.2051 16.7226L11.8345 18.3521Z" fill="black"/>
<path d="M14.2798 20.7974L20.7974 14.2798L19.168 12.6504L12.6504 19.168L14.2798 20.7974Z" fill="black"/>
</svg>
