<svg width="35" height="35" viewBox="0 0 35 35" fill="none" xmlns="http://www.w3.org/2000/svg">
<circle cx="17.5" cy="17.5" r="17" stroke="#6E00EA"/>
<path d="M12.4475 11.2096C12.1057 10.8679 11.5517 10.8679 11.21 11.2096C10.8683 11.5513 10.8683 12.1053 11.21 12.447L16.2629 17.4999L11.2101 22.5528C10.8684 22.8945 10.8684 23.4485 11.2101 23.7902C11.5518 24.1319 12.1058 24.1319 12.4475 23.7902L17.5004 18.7373L22.5532 23.7902C22.8949 24.1319 23.449 24.1319 23.7906 23.7902C24.1323 23.4485 24.1323 22.8945 23.7906 22.5528L18.7378 17.4999L23.7906 12.447C24.1324 12.1053 24.1324 11.5513 23.7906 11.2096C23.449 10.8679 22.895 10.8679 22.5532 11.2096L17.5004 16.2625L12.4475 11.2096Z" fill="#6E00EA"/>
</svg>
