<svg width="15" height="15" viewBox="0 0 15 15" fill="none" xmlns="http://www.w3.org/2000/svg">
<path d="M2.44745 1.20959C2.10575 0.867882 1.55173 0.867882 1.21002 1.20959C0.868307 1.55129 0.868307 2.10532 1.21002 2.44702L6.26293 7.49991L1.21007 12.5528C0.868359 12.8945 0.868359 13.4485 1.21007 13.7902C1.55178 14.1319 2.1058 14.1319 2.44751 13.7902L7.50035 8.73733L12.5532 13.7902C12.8949 14.1319 13.449 14.1319 13.7906 13.7902C14.1323 13.4485 14.1323 12.8945 13.7906 12.5528L8.73778 7.49991L13.7906 2.44702C14.1324 2.10532 14.1324 1.55129 13.7906 1.20959C13.449 0.867882 12.895 0.867882 12.5532 1.20959L7.50035 6.26248L2.44745 1.20959Z" fill="#6E00EA"/>
</svg>
