<svg width="32" height="32" viewBox="0 0 32 32" fill="none" xmlns="http://www.w3.org/2000/svg">
<g clip-path="url(#clip0)">
<path d="M18.7634 31.3569C18.632 31.3784 18.5 31.3981 18.3676 31.4162C18.5 31.3981 18.632 31.3784 18.7634 31.3569Z" fill="#89D083"/>
<path d="M19.0791 31.3027C19.0163 31.3143 18.9534 31.3249 18.8906 31.3357C18.9534 31.3249 19.0163 31.3143 19.0791 31.3027Z" fill="#89D083"/>
<path d="M18.015 31.46C17.8611 31.4773 17.7063 31.4927 17.551 31.5057C17.7063 31.4927 17.8611 31.4773 18.015 31.46Z" fill="#89D083"/>
<path d="M18.3182 31.4229C18.2442 31.4327 18.1698 31.4419 18.0957 31.4505C18.1698 31.4419 18.2442 31.4327 18.3182 31.4229Z" fill="#89D083"/>
<path d="M19.5087 31.2178C19.4533 31.2296 19.3977 31.2414 19.3421 31.2527C19.3977 31.2414 19.4533 31.2296 19.5087 31.2178Z" fill="#89D083"/>
<path d="M20.575 30.9531C20.5302 30.9659 20.4854 30.9779 20.4406 30.9904C20.4854 30.9779 20.5302 30.9659 20.575 30.9531Z" fill="#89D083"/>
<path d="M20.2525 31.041C20.2039 31.0538 20.155 31.0668 20.1061 31.0791C20.155 31.0668 20.2039 31.054 20.2525 31.041Z" fill="#89D083"/>
<path d="M19.8306 31.1465C19.7791 31.1585 19.7271 31.1698 19.6751 31.1814C19.7271 31.1698 19.7791 31.1585 19.8306 31.1465Z" fill="#89D083"/>
<path d="M17.5459 31.5063C17.4629 31.5133 17.3798 31.5196 17.2965 31.5251C17.3798 31.5196 17.4629 31.5133 17.5459 31.5063Z" fill="#89D083"/>
<path d="M32 15.7811C32 7.06679 24.9332 0 16.2189 0C7.50453 0 0.437744 7.06679 0.437744 15.7811C0.437744 24.4955 7.50453 31.5623 16.2189 31.5623C16.3116 31.5623 16.4038 31.5603 16.4963 31.5587V19.2737H13.1058V15.3224H16.4963V12.4147C16.4963 9.04256 18.5549 7.20717 21.563 7.20717C23.0034 7.20717 24.2416 7.31457 24.6026 7.36249V10.8869H22.5283C20.8919 10.8869 20.575 11.6646 20.575 12.8058V15.3224H24.488L23.978 19.2737H20.575V30.9526C27.1712 29.0615 32 22.9845 32 15.7811Z" fill="#89D083"/>
<path d="M17.2615 31.5269C17.0973 31.5375 16.9324 31.5459 16.7669 31.5514C16.9324 31.5459 17.0973 31.5375 17.2615 31.5269Z" fill="#89D083"/>
<path d="M16.7585 31.5522C16.6713 31.5551 16.5839 31.5573 16.4965 31.5587C16.5839 31.5573 16.6713 31.5551 16.7585 31.5522Z" fill="#89D083"/>
</g>
<defs>
<clipPath id="clip0">
<rect width="31.5623" height="31.5623" fill="white" transform="translate(0.437744)"/>
</clipPath>
</defs>
</svg>
