<svg width="32" height="32" viewBox="0 0 32 32" fill="none" xmlns="http://www.w3.org/2000/svg">
<g clip-path="url(#clip0)">
<path d="M19.0206 15.7813C19.0206 17.4496 17.6683 18.802 16 18.802C14.3317 18.802 12.9794 17.4496 12.9794 15.7813C12.9794 14.1131 14.3317 12.7607 16 12.7607C17.6683 12.7607 19.0206 14.1131 19.0206 15.7813Z" fill="#89D083"/>
<path d="M23.0641 10.4367C22.9189 10.0432 22.6873 9.68705 22.3863 9.39472C22.0939 9.09372 21.738 8.86207 21.3443 8.71686C21.025 8.59285 20.5454 8.44524 19.6619 8.40503C18.7061 8.36144 18.4196 8.35205 16 8.35205C13.5802 8.35205 13.2936 8.3612 12.3381 8.40479C11.4546 8.44524 10.9747 8.59285 10.6557 8.71686C10.2619 8.86207 9.9058 9.09372 9.61371 9.39472C9.31271 9.68705 9.08106 10.043 8.93561 10.4367C8.8116 10.756 8.66399 11.2359 8.62378 12.1194C8.58019 13.0749 8.5708 13.3614 8.5708 15.7812C8.5708 18.2008 8.58019 18.4874 8.62378 19.4431C8.66399 20.3266 8.8116 20.8063 8.93561 21.1256C9.08106 21.5193 9.31247 21.8752 9.61347 22.1675C9.9058 22.4685 10.2617 22.7002 10.6554 22.8454C10.9747 22.9696 11.4546 23.1172 12.3381 23.1575C13.2936 23.201 13.5799 23.2102 15.9998 23.2102C18.4198 23.2102 18.7064 23.201 19.6616 23.1575C20.5451 23.1172 21.025 22.9696 21.3443 22.8454C22.1346 22.5405 22.7593 21.9159 23.0641 21.1256C23.1881 20.8063 23.3358 20.3266 23.3762 19.4431C23.4198 18.4874 23.4289 18.2008 23.4289 15.7812C23.4289 13.3614 23.4198 13.0749 23.3762 12.1194C23.336 11.2359 23.1884 10.756 23.0641 10.4367ZM16 20.4342C13.4299 20.4342 11.3465 18.3511 11.3465 15.781C11.3465 13.2109 13.4299 11.1278 16 11.1278C18.5698 11.1278 20.6532 13.2109 20.6532 15.781C20.6532 18.3511 18.5698 20.4342 16 20.4342ZM20.8372 12.0312C20.2366 12.0312 19.7497 11.5443 19.7497 10.9438C19.7497 10.3432 20.2366 9.85633 20.8372 9.85633C21.4378 9.85633 21.9247 10.3432 21.9247 10.9438C21.9244 11.5443 21.4378 12.0312 20.8372 12.0312Z" fill="#89D083"/>
<path d="M16 0C7.28566 0 0.218872 7.06679 0.218872 15.7811C0.218872 24.4955 7.28566 31.5623 16 31.5623C24.7143 31.5623 31.7811 24.4955 31.7811 15.7811C31.7811 7.06679 24.7143 0 16 0ZM25.0072 19.5172C24.9633 20.4818 24.8099 21.1404 24.586 21.7169C24.1152 22.9341 23.153 23.8964 21.9357 24.3671C21.3595 24.5911 20.7007 24.7442 19.7363 24.7883C18.7699 24.8324 18.4612 24.843 16.0002 24.843C13.539 24.843 13.2306 24.8324 12.264 24.7883C11.2996 24.7442 10.6407 24.5911 10.0645 24.3671C9.45961 24.1396 8.91203 23.7829 8.45932 23.3218C7.99843 22.8693 7.6418 22.3215 7.41425 21.7169C7.1903 21.1406 7.03691 20.4818 6.99308 19.5174C6.94854 18.5508 6.93818 18.2421 6.93818 15.7811C6.93818 13.3201 6.94854 13.0114 6.99284 12.0451C7.03667 11.0805 7.18982 10.4219 7.41376 9.84539C7.64132 9.24074 7.99819 8.69291 8.45932 8.24045C8.91179 7.77932 9.45961 7.42269 10.0643 7.19513C10.6407 6.97119 11.2993 6.81804 12.264 6.77397C13.2303 6.72991 13.539 6.71931 16 6.71931C18.461 6.71931 18.7697 6.72991 19.736 6.77421C20.7007 6.81804 21.3593 6.97119 21.9357 7.19489C22.5404 7.42245 23.0882 7.77932 23.5409 8.24045C24.0018 8.69316 24.3587 9.24074 24.586 9.84539C24.8102 10.4219 24.9633 11.0805 25.0074 12.0451C25.0515 13.0114 25.0618 13.3201 25.0618 15.7811C25.0618 18.2421 25.0515 18.5508 25.0072 19.5172Z" fill="#89D083"/>
</g>
<defs>
<clipPath id="clip0">
<rect width="31.5623" height="31.5623" fill="white" transform="translate(0.218872)"/>
</clipPath>
</defs>
</svg>
