<svg width="32" height="32" viewBox="0 0 32 32" fill="none" xmlns="http://www.w3.org/2000/svg">
<g clip-path="url(#clip0)">
<path d="M16.1094 0C7.39509 0 0.328308 7.06679 0.328308 15.7811C0.328308 24.4955 7.39509 31.5623 16.1094 31.5623C24.8238 31.5623 31.8906 24.4955 31.8906 15.7811C31.8906 7.06679 24.8238 0 16.1094 0ZM11.5236 23.8566H7.6802V12.2936H11.5236V23.8566ZM9.60203 10.7147H9.57699C8.28726 10.7147 7.45313 9.82685 7.45313 8.71724C7.45313 7.58258 8.31279 6.71931 9.62756 6.71931C10.9423 6.71931 11.7514 7.58258 11.7765 8.71724C11.7765 9.82685 10.9423 10.7147 9.60203 10.7147ZM25.3822 23.8566H21.5393V17.6707C21.5393 16.1161 20.9828 15.0558 19.5921 15.0558C18.5305 15.0558 17.8981 15.771 17.6202 16.4614C17.5186 16.7085 17.4938 17.0538 17.4938 17.3993V23.8566H13.6506C13.6506 23.8566 13.7009 13.3784 13.6506 12.2936H17.4938V13.9308C18.0045 13.1429 18.9184 12.0222 20.9575 12.0222C23.4861 12.0222 25.3822 13.6748 25.3822 17.2264V23.8566Z" fill="#89D083"/>
</g>
<defs>
<clipPath id="clip0">
<rect width="31.5623" height="31.5623" fill="white" transform="translate(0.328308)"/>
</clipPath>
</defs>
</svg>
