<svg width="32" height="32" viewBox="0 0 32 32" fill="none" xmlns="http://www.w3.org/2000/svg">
<g clip-path="url(#clip0)">
<path d="M15.8906 0C7.17622 0 0.109436 7.06679 0.109436 15.7811C0.109436 24.4955 7.17622 31.5623 15.8906 31.5623C24.6049 31.5623 31.6717 24.4955 31.6717 15.7811C31.6717 7.06679 24.6049 0 15.8906 0ZM23.0961 12.3044C23.103 12.4598 23.1064 12.6158 23.1064 12.7726C23.1064 17.559 19.4631 23.0784 12.8004 23.0786H12.8006H12.8004C10.7548 23.0786 8.85123 22.479 7.24822 21.4515C7.53164 21.485 7.82012 21.5016 8.11222 21.5016C9.80938 21.5016 11.3712 20.9227 12.6111 19.9511C11.0254 19.9217 9.6885 18.8745 9.22712 17.4352C9.44794 17.4776 9.67501 17.5007 9.90787 17.5007C10.2385 17.5007 10.5588 17.4561 10.8631 17.3731C9.20569 17.0412 7.95714 15.5765 7.95714 13.8225C7.95714 13.8061 7.95714 13.7914 7.95762 13.7762C8.44572 14.0476 9.0039 14.2109 9.5982 14.2292C8.6256 13.5802 7.98628 12.4708 7.98628 11.2141C7.98628 10.5505 8.16567 9.92871 8.47679 9.3934C10.263 11.5852 12.9326 13.0266 15.9431 13.1781C15.8809 12.9127 15.8489 12.6363 15.8489 12.3521C15.8489 10.3525 17.4712 8.73024 19.4715 8.73024C20.5135 8.73024 21.4545 9.17066 22.1155 9.87477C22.9407 9.71198 23.7156 9.4105 24.4156 8.9956C24.1447 9.84105 23.5707 10.5505 22.8227 10.9991C23.5555 10.9114 24.2538 10.7171 24.9028 10.4286C24.4181 11.1551 23.8033 11.7932 23.0961 12.3044Z" fill="#89D083"/>
</g>
<defs>
<clipPath id="clip0">
<rect width="31.5623" height="31.5623" fill="white" transform="translate(0.109436)"/>
</clipPath>
</defs>
</svg>
