<svg width="32" height="32" viewBox="0 0 32 32" fill="none" xmlns="http://www.w3.org/2000/svg">
<g clip-path="url(#clip0)">
<path d="M13.8155 18.7378L18.9489 15.7813L13.8155 12.8247V18.7378Z" fill="#89D083"/>
<path d="M15.7811 0C7.06679 0 0 7.06679 0 15.7811C0 24.4955 7.06679 31.5623 15.7811 31.5623C24.4955 31.5623 31.5623 24.4955 31.5623 15.7811C31.5623 7.06679 24.4955 0 15.7811 0ZM25.6419 15.7973C25.6419 15.7973 25.6419 18.9978 25.2359 20.541C25.0084 21.3858 24.3423 22.0518 23.4976 22.2791C21.9543 22.6854 15.7811 22.6854 15.7811 22.6854C15.7811 22.6854 9.62409 22.6854 8.06466 22.263C7.21994 22.0357 6.55388 21.3694 6.32632 20.5247C5.92009 18.9978 5.92009 15.7811 5.92009 15.7811C5.92009 15.7811 5.92009 12.5809 6.32632 11.0376C6.55364 10.1929 7.23607 9.51043 8.06466 9.28312C9.60796 8.87689 15.7811 8.87689 15.7811 8.87689C15.7811 8.87689 21.9543 8.87689 23.4976 9.29925C24.3423 9.52657 25.0084 10.1929 25.2359 11.0376C25.6583 12.5809 25.6419 15.7973 25.6419 15.7973Z" fill="#89D083"/>
</g>
<defs>
<clipPath id="clip0">
<rect width="31.5623" height="31.5623" fill="white"/>
</clipPath>
</defs>
</svg>
