<svg width="23" height="23" viewBox="0 0 23 23" fill="none" xmlns="http://www.w3.org/2000/svg">
<circle cx="11.0459" cy="11.2585" r="9.76951" fill="#FFA800"/>
<path d="M8.43262 11.0632L8.9248 6.72729H13.7061V8.1394H10.3135L10.1025 9.97339C10.5049 9.75854 10.9326 9.65112 11.3857 9.65112C12.1982 9.65112 12.835 9.90308 13.2959 10.407C13.7568 10.9109 13.9873 11.616 13.9873 12.5222C13.9873 13.073 13.8701 13.5671 13.6357 14.0046C13.4053 14.4382 13.0732 14.7761 12.6396 15.0183C12.2061 15.2566 11.6943 15.3757 11.1045 15.3757C10.5889 15.3757 10.1104 15.2722 9.66895 15.0652C9.22754 14.8542 8.87793 14.5593 8.62012 14.1804C8.36621 13.8015 8.23145 13.3699 8.21582 12.8855H9.8916C9.92676 13.241 10.0498 13.5183 10.2607 13.7175C10.4756 13.9128 10.7549 14.0105 11.0986 14.0105C11.4814 14.0105 11.7764 13.8738 11.9834 13.6003C12.1904 13.323 12.2939 12.9324 12.2939 12.4285C12.2939 11.9441 12.1748 11.573 11.9365 11.3152C11.6982 11.0574 11.3604 10.9285 10.9229 10.9285C10.5205 10.9285 10.1943 11.0339 9.94434 11.2449L9.78027 11.3972L8.43262 11.0632Z" fill="white"/>
</svg>
