<svg width="25" height="28" viewBox="0 0 25 28" fill="none" xmlns="http://www.w3.org/2000/svg">
<path d="M20.3125 4H25V28H0V4H4.6875V2.4C4.6875 1.744 4.92188 1.184 5.375 0.704C5.82812 0.24 6.39062 0 7.03125 0C7.67188 0 8.23438 0.24 8.6875 0.704C9.14062 1.184 9.375 1.744 9.375 2.4V4H15.625V2.4C15.625 1.744 15.8594 1.184 16.3125 0.704C16.7656 0.24 17.3281 0 17.9688 0C18.6094 0 19.1719 0.24 19.625 0.704C20.0781 1.184 20.3125 1.744 20.3125 2.4V4ZM6.25 2.4V6.4C6.24809 6.5056 6.267 6.6105 6.30558 6.70844C6.34417 6.80639 6.40164 6.89536 6.47457 6.97004C6.5475 7.04472 6.63439 7.10357 6.73004 7.14308C6.82568 7.1826 6.92813 7.20195 7.03125 7.2C7.13437 7.20195 7.23682 7.1826 7.33246 7.14308C7.42811 7.10357 7.515 7.04472 7.58793 6.97004C7.66086 6.89536 7.71833 6.80639 7.75692 6.70844C7.7955 6.6105 7.81441 6.5056 7.8125 6.4V2.4C7.8125 2.176 7.73438 1.984 7.57812 1.84C7.4375 1.68 7.25 1.6 7.03125 1.6C6.8125 1.6 6.625 1.68 6.48438 1.84C6.32812 1.984 6.25 2.176 6.25 2.4ZM17.1875 2.4V6.4C17.1875 6.624 17.2656 6.816 17.4062 6.976C17.5625 7.12 17.75 7.2 17.9688 7.2C18.1875 7.2 18.375 7.12 18.5312 6.976C18.6719 6.816 18.75 6.624 18.75 6.4V2.4C18.7519 2.2944 18.733 2.1895 18.6944 2.09156C18.6558 1.99361 18.5984 1.90464 18.5254 1.82996C18.4525 1.75528 18.3656 1.69643 18.27 1.65692C18.1743 1.6174 18.0719 1.59805 17.9688 1.6C17.8656 1.59805 17.7632 1.6174 17.6675 1.65692C17.5719 1.69643 17.485 1.75528 17.4121 1.82996C17.3391 1.90464 17.2817 1.99361 17.2431 2.09156C17.2045 2.1895 17.1856 2.2944 17.1875 2.4ZM23.4375 26.4V10.4H1.5625V26.4H23.4375ZM7.8125 12V15.2H4.6875V12H7.8125ZM10.9375 12H14.0625V15.2H10.9375V12ZM17.1875 15.2V12H20.3125V15.2H17.1875ZM7.8125 16.8V20H4.6875V16.8H7.8125ZM10.9375 16.8H14.0625V20H10.9375V16.8ZM17.1875 20V16.8H20.3125V20H17.1875ZM7.8125 21.6V24.8H4.6875V21.6H7.8125ZM14.0625 24.8H10.9375V21.6H14.0625V24.8ZM20.3125 24.8H17.1875V21.6H20.3125V24.8Z" fill="#1A5C9D"/>
</svg>
