<svg width="22" height="21" viewBox="0 0 22 21" fill="none" xmlns="http://www.w3.org/2000/svg">
<circle cx="10.7834" cy="10.7583" r="9.76951" fill="#FFA800"/>
<path d="M13.7659 14.7585H7.91821V13.5984L10.678 10.657C11.0569 10.2429 11.3362 9.88159 11.5159 9.573C11.6995 9.2644 11.7913 8.97144 11.7913 8.69409C11.7913 8.31519 11.6956 8.01831 11.5042 7.80347C11.3127 7.58472 11.0393 7.47534 10.6838 7.47534C10.301 7.47534 9.99829 7.60815 9.77563 7.87378C9.55688 8.1355 9.44751 8.4812 9.44751 8.91089H7.74829C7.74829 8.39136 7.87134 7.91675 8.11743 7.48706C8.36743 7.05737 8.71899 6.72144 9.17212 6.47925C9.62524 6.23315 10.1389 6.11011 10.7131 6.11011C11.592 6.11011 12.2737 6.32104 12.7581 6.74292C13.2463 7.16479 13.4905 7.7605 13.4905 8.53003C13.4905 8.9519 13.3811 9.38159 13.1624 9.81909C12.9436 10.2566 12.5686 10.7664 12.0374 11.3484L10.0979 13.3933H13.7659V14.7585Z" fill="white"/>
</svg>
