<svg width="23" height="23" viewBox="0 0 23 23" fill="none" xmlns="http://www.w3.org/2000/svg">
<circle cx="11.0459" cy="11.2585" r="9.76951" fill="#FFA800"/>
<path d="M12.7744 6.6394V8.03394H12.6104C11.8447 8.04565 11.2275 8.24487 10.7588 8.63159C10.2939 9.01831 10.0146 9.55542 9.9209 10.2429C10.374 9.78198 10.9463 9.55151 11.6377 9.55151C12.3799 9.55151 12.9697 9.81714 13.4072 10.3484C13.8447 10.8796 14.0635 11.5789 14.0635 12.446C14.0635 13.0007 13.9424 13.5027 13.7002 13.9519C13.4619 14.4011 13.1221 14.7507 12.6807 15.0007C12.2432 15.2507 11.7471 15.3757 11.1924 15.3757C10.2939 15.3757 9.56738 15.0632 9.0127 14.4382C8.46191 13.8132 8.18652 12.9792 8.18652 11.9363V11.3269C8.18652 10.4011 8.36035 9.58472 8.70801 8.87769C9.05957 8.16675 9.56152 7.61792 10.2139 7.2312C10.8701 6.84058 11.6299 6.64331 12.4932 6.6394H12.7744ZM11.1221 10.9109C10.8486 10.9109 10.6006 10.9832 10.3779 11.1277C10.1553 11.2683 9.99121 11.4558 9.88574 11.6902V12.2058C9.88574 12.7722 9.99707 13.2156 10.2197 13.5359C10.4424 13.8523 10.7549 14.0105 11.1572 14.0105C11.5205 14.0105 11.8135 13.8679 12.0361 13.5828C12.2627 13.2937 12.376 12.9207 12.376 12.4636C12.376 11.9988 12.2627 11.6238 12.0361 11.3386C11.8096 11.0535 11.5049 10.9109 11.1221 10.9109Z" fill="white"/>
</svg>
