<svg width="23" height="22" viewBox="0 0 23 22" fill="none" xmlns="http://www.w3.org/2000/svg">
<circle cx="11.0459" cy="11.2585" r="9.76951" fill="#FFA800"/>
<path d="M9.90332 10.2429H10.8057C11.2354 10.2429 11.5537 10.1355 11.7607 9.92065C11.9678 9.70581 12.0713 9.42065 12.0713 9.06519C12.0713 8.72144 11.9678 8.45386 11.7607 8.26245C11.5576 8.07104 11.2764 7.97534 10.917 7.97534C10.5928 7.97534 10.3213 8.06519 10.1025 8.24487C9.88379 8.42065 9.77441 8.65112 9.77441 8.93628H8.08105C8.08105 8.49097 8.2002 8.09253 8.43848 7.74097C8.68066 7.3855 9.0166 7.10815 9.44629 6.90894C9.87988 6.70972 10.3564 6.61011 10.876 6.61011C11.7783 6.61011 12.4854 6.8269 12.9971 7.2605C13.5088 7.69019 13.7646 8.28394 13.7646 9.04175C13.7646 9.43237 13.6455 9.79175 13.4072 10.1199C13.1689 10.448 12.8564 10.7 12.4697 10.8757C12.9502 11.0476 13.3076 11.3054 13.542 11.6492C13.7803 11.9929 13.8994 12.3992 13.8994 12.8679C13.8994 13.6257 13.6221 14.2332 13.0674 14.6902C12.5166 15.1472 11.7861 15.3757 10.876 15.3757C10.0244 15.3757 9.32715 15.1511 8.78418 14.7019C8.24512 14.2527 7.97559 13.6589 7.97559 12.9207H9.66895C9.66895 13.241 9.78809 13.5027 10.0264 13.7058C10.2686 13.9089 10.5654 14.0105 10.917 14.0105C11.3193 14.0105 11.6338 13.905 11.8604 13.6941C12.0908 13.4792 12.2061 13.196 12.2061 12.8445C12.2061 11.9929 11.7373 11.5671 10.7998 11.5671H9.90332V10.2429Z" fill="white"/>
</svg>
