<svg width="17" height="15" viewBox="0 0 17 15" fill="none" xmlns="http://www.w3.org/2000/svg">
<path d="M3.96 14.48C2.70667 14.48 1.76 14.0267 1.12 13.12C0.506667 12.1867 0.2 10.8933 0.2 9.24C0.2 7.34667 0.666667 5.68 1.6 4.24C2.53333 2.8 3.96 1.61333 5.88 0.679999L7.16 3.24C5.96 3.85333 5.05333 4.56 4.44 5.36C3.85333 6.13333 3.56 7.12 3.56 8.32C3.64 8.29333 3.77333 8.28 3.96 8.28C4.81333 8.28 5.53333 8.54667 6.12 9.08C6.73333 9.58667 7.04 10.2933 7.04 11.2C7.04 12.2133 6.74667 13.0133 6.16 13.6C5.57333 14.1867 4.84 14.48 3.96 14.48ZM13.4 14.48C12.1467 14.48 11.2 14.0267 10.56 13.12C9.94667 12.1867 9.64 10.8933 9.64 9.24C9.64 7.34667 10.1067 5.68 11.04 4.24C11.9733 2.8 13.4 1.61333 15.32 0.679999L16.6 3.24C15.4 3.85333 14.4933 4.56 13.88 5.36C13.2933 6.13333 13 7.12 13 8.32C13.08 8.29333 13.2133 8.28 13.4 8.28C14.2533 8.28 14.9733 8.54667 15.56 9.08C16.1733 9.58667 16.48 10.2933 16.48 11.2C16.48 12.2133 16.1867 13.0133 15.6 13.6C15.0133 14.1867 14.28 14.48 13.4 14.48Z" fill="white"/>
</svg>
